<svg width="50" height="50" viewBox="0 0 50 50" fill="none" xmlns="http://www.w3.org/2000/svg">
<g clip-path="url(#clip0_18_348)">
<path d="M47.8839 28.4632C49.9333 15.8211 41.3463 3.91121 28.7042 1.86184C16.0621 -0.187533 4.15232 8.39963 2.10293 21.0418C0.0535408 33.684 8.64061 45.5938 21.2827 47.6432C33.9248 49.6926 45.8345 41.1054 47.8839 28.4632Z" fill="#F9A7A7"/>
<path d="M25 48.728C11.7811 48.728 1.02676 37.9735 1.02676 24.7547C1.02676 11.5358 11.7811 0.78125 25 0.78125C38.2192 0.78125 48.9735 11.5358 48.9735 24.7547C48.9735 37.9737 38.2192 48.728 25 48.728ZM25 2.34375C12.6426 2.34375 2.58927 12.3973 2.58927 24.7547C2.58927 37.1122 12.6428 47.1655 25 47.1655C37.3577 47.1655 47.411 37.112 47.411 24.7547C47.411 12.3973 37.3577 2.34375 25 2.34375Z" fill="#E0EBFC"/>
<path d="M25 43.9657C14.407 43.9657 5.78905 35.3477 5.78905 24.7547C5.78905 14.1617 14.407 5.54358 25 5.54358C35.593 5.54358 44.2111 14.1617 44.2111 24.7547C44.2111 35.3477 35.593 43.9657 25 43.9657ZM25 7.10608C15.2685 7.10608 7.35155 15.0233 7.35155 24.7547C7.35155 34.4862 15.2687 42.4032 25 42.4032C34.7314 42.4032 42.6486 34.4862 42.6486 24.7547C42.6486 15.0233 34.7314 7.10608 25 7.10608Z" fill="#E0EBFC"/>
<path d="M25 39.2036C17.0328 39.2036 10.5512 32.7218 10.5512 24.7548C10.5512 16.7876 17.033 10.3058 25 10.3058C32.967 10.3058 39.4488 16.7876 39.4488 24.7548C39.4488 32.7218 32.967 39.2036 25 39.2036ZM25 11.8685C17.8945 11.8685 12.1137 17.6493 12.1137 24.755C12.1137 31.8605 17.8945 37.6413 25 37.6413C32.1055 37.6413 37.8863 31.8605 37.8863 24.755C37.8863 17.6491 32.1055 11.8685 25 11.8685Z" fill="#E0EBFC"/>
<path d="M31.6351 37.6975H18.3648C16.2092 37.6975 14.4617 39.445 14.4617 41.6006V44.7596V48.4376H35.5381V44.7596V41.6006C35.5383 39.445 33.7908 37.6975 31.6351 37.6975Z" fill="#6BDDDD"/>
<path d="M25 34.4346C19.5533 34.4346 15.1381 30.0191 15.1381 24.5727V21.4148C15.1381 20.517 15.866 19.7891 16.7639 19.7891H34.8621V24.5727C34.8619 30.0193 30.4467 34.4346 25 34.4346Z" fill="#4671C6"/>
<path d="M25 34.8254C19.3467 34.8254 14.7473 30.2262 14.7473 24.5729V21.4151C14.7473 20.3034 15.6518 19.3987 16.7637 19.3987H34.8619C35.0776 19.3987 35.2526 19.5737 35.2526 19.7893V24.5729C35.2526 30.2262 30.6533 34.8254 25 34.8254ZM16.7639 20.1797C16.0828 20.1797 15.5287 20.7338 15.5287 21.4149V24.5727C15.5287 29.7952 19.7775 34.044 25.0002 34.044C30.2229 34.044 34.4715 29.7952 34.4715 24.5727V20.1797H16.7639Z" fill="#3762CC"/>
<path d="M25 37.1334C23.5906 37.1334 22.2633 36.7879 21.0973 36.1799V38.0098V38.0102C21.0973 40.1635 22.843 41.9092 24.9963 41.9092C27.1496 41.9092 28.8953 40.1637 28.8953 38.0102V38.0098V36.1838C27.7311 36.7895 26.4065 37.1334 25 37.1334Z" fill="#F9CFCF"/>
<path d="M33.3994 25.6458V24.8592C33.3994 20.2622 29.6389 16.5354 25 16.5354C20.3611 16.5354 16.6006 20.2622 16.6006 24.8592V25.6458C15.142 25.6163 13.985 26.778 13.985 28.1827C13.985 29.6825 15.2941 30.8686 16.8225 30.7071C17.6893 34.3899 21.0205 37.1335 25.0002 37.1335C28.9801 37.1335 32.3111 34.3895 33.1779 30.7071C34.7041 30.8684 36.0154 29.6844 36.0154 28.1827C36.0152 26.7774 34.857 25.6163 33.3994 25.6458Z" fill="#F9CFCF"/>
<path d="M25 37.5241C21.0035 37.5241 17.5631 34.9038 16.5225 31.112C15.801 31.1055 15.1019 30.8377 14.5639 30.3534C13.9477 29.7989 13.5943 29.0077 13.5943 28.1827C13.5943 27.3928 13.9062 26.6522 14.4728 26.0971C14.9484 25.6311 15.5545 25.3458 16.2102 25.2731V24.8592C16.2102 20.054 20.1533 16.1448 25.0002 16.1448C29.8471 16.1448 33.7904 20.0542 33.7904 24.8592V25.2731C34.4459 25.3458 35.052 25.6311 35.5275 26.0971C36.094 26.6524 36.4061 27.393 36.4061 28.1827C36.4061 29.0079 36.0527 29.7987 35.4367 30.3532C34.8984 30.8374 34.199 31.1053 33.4777 31.112C32.4369 34.9038 28.9967 37.5241 25 37.5241ZM16.8227 30.3165C17.002 30.3165 17.1607 30.4397 17.2025 30.6176C18.0516 34.2241 21.258 36.7428 25 36.7428C28.7422 36.7428 31.9484 34.2241 32.7973 30.6176C32.8424 30.426 33.0219 30.2995 33.2186 30.3186C33.8399 30.3848 34.4553 30.1848 34.9139 29.7725C35.3656 29.3661 35.6246 28.7866 35.6246 28.1827C35.6246 27.6045 35.3959 27.0622 34.9807 26.6553C34.5613 26.2444 33.999 26.0225 33.4076 26.0366C33.3022 26.0352 33.2012 25.9985 33.1264 25.9251C33.0516 25.8516 33.009 25.7508 33.009 25.646V24.8594C33.009 20.4852 29.416 16.9262 25 16.9262C20.584 16.9262 16.9912 20.4852 16.9912 24.8594V25.646C16.9912 25.7508 16.949 25.8516 16.874 25.9251C16.799 25.9983 16.6978 26.0391 16.5928 26.0366C15.9947 26.0227 15.4391 26.2442 15.0197 26.6551C14.6045 27.0622 14.3758 27.6045 14.3758 28.1827C14.3758 28.7866 14.635 29.3663 15.0867 29.7727C15.5516 30.1913 16.1537 30.3854 16.7814 30.3186C16.7951 30.3172 16.809 30.3165 16.8227 30.3165Z" fill="#3762CC"/>
<path d="M30.565 23.2438H20.9748C18.5805 23.2438 16.6395 21.3028 16.6395 18.9085C16.6395 16.5141 18.5805 14.5731 20.9748 14.5731H34.8621V18.9467C34.8619 21.32 32.9381 23.2438 30.565 23.2438Z" fill="#4671C6"/>
<path d="M30.565 23.6346H20.9746C18.3688 23.6346 16.2486 21.5147 16.2486 18.9086C16.2486 16.3028 18.3686 14.1829 20.9746 14.1829H34.8619C35.0776 14.1829 35.2526 14.3579 35.2526 14.5735V18.9471C35.2526 21.5317 33.1498 23.6346 30.565 23.6346ZM20.9748 14.9639C18.7996 14.9639 17.0301 16.7334 17.0301 18.9084C17.0301 21.0834 18.7996 22.8532 20.9748 22.8532H30.5652C32.7192 22.8532 34.4715 21.1006 34.4715 18.9467V14.9639H20.9748Z" fill="#3762CC"/>
<path d="M22.7186 33.9135C22.5359 33.9135 22.3533 33.8442 22.2135 33.7055C21.9324 33.4266 21.9305 32.9725 22.2094 32.6915C22.6162 32.2813 23.1547 31.9661 23.7668 31.78C24.1363 31.6677 24.5383 31.6132 24.9963 31.6132C25.4543 31.6132 25.8564 31.6677 26.2256 31.7798C26.8379 31.9661 27.3766 32.2813 27.7832 32.6915C28.0621 32.9727 28.0602 33.4266 27.7789 33.7055C27.4979 33.9844 27.0437 33.9825 26.7648 33.7012C26.5248 33.4591 26.1939 33.2692 25.8084 33.1518C25.5768 33.0813 25.3109 33.0471 24.9965 33.0471C24.682 33.0471 24.4162 33.0813 24.1842 33.1518C23.7988 33.269 23.468 33.4591 23.2279 33.7012C23.0875 33.8428 22.9029 33.9135 22.7186 33.9135Z" fill="#F9A7A7"/>
<path d="M30.3816 28.354C28.4272 28.354 26.991 26.7842 26.9225 26.7079C26.7783 26.5475 26.7914 26.3005 26.9518 26.1563C27.1123 26.012 27.3594 26.0253 27.5033 26.1856C27.5191 26.203 29.1451 27.9696 31.076 27.4866C31.2846 27.4339 31.4973 27.5616 31.5498 27.7708C31.6022 27.98 31.4748 28.1921 31.2656 28.2446C30.9617 28.3206 30.6662 28.354 30.3816 28.354Z" fill="#3762CC"/>
<path d="M28.1129 27.1993C27.9295 27.3988 27.8166 27.6642 27.8166 27.9566V29.0021C27.8166 29.6208 28.3182 30.1222 28.9367 30.1222C29.5553 30.1222 30.0568 29.6206 30.0568 29.0021V27.9566C30.0568 27.9525 30.0562 27.9484 30.0562 27.9441C29.2842 27.8663 28.6103 27.5327 28.1129 27.1993Z" fill="#3762CC"/>
<path d="M19.5055 28.3553C19.2209 28.3553 18.9256 28.3219 18.6215 28.246C18.4123 28.1934 18.285 27.9815 18.3373 27.7721C18.3896 27.5632 18.6012 27.4354 18.8111 27.488C20.7426 27.9712 22.368 26.2046 22.3842 26.1864C22.5289 26.0266 22.7756 26.0141 22.9357 26.1583C23.0957 26.3024 23.109 26.5489 22.9648 26.7091C22.8963 26.7856 21.4598 28.3553 19.5055 28.3553Z" fill="#3762CC"/>
<path d="M21.7742 27.1993C21.9576 27.3988 22.0705 27.6642 22.0705 27.9566V29.0021C22.0705 29.6208 21.5689 30.1222 20.9504 30.1222C20.3318 30.1222 19.8303 29.6206 19.8303 29.0021V27.9566C19.8303 27.9525 19.8308 27.9484 19.8308 27.9441C20.6029 27.8663 21.2767 27.5327 21.7742 27.1993Z" fill="#3762CC"/>
<path d="M35.5383 48.8281H14.4617C14.2461 48.8281 14.0711 48.6531 14.0711 48.4375V41.6004C14.0711 39.2328 15.9973 37.3068 18.3646 37.3068H20.7064V36.1797C20.7064 36.0431 20.7777 35.9164 20.8945 35.8457C21.0111 35.7746 21.1566 35.7701 21.2775 35.8334C22.418 36.4283 23.7051 36.7428 24.9996 36.7428C26.3098 36.7428 27.5596 36.4381 28.7146 35.8371C28.8359 35.7742 28.9807 35.7791 29.0976 35.8496C29.2142 35.9205 29.2855 36.047 29.2855 36.1836V37.3066H31.6348C34.0023 37.3066 35.9285 39.2326 35.9285 41.6002V48.4375C35.9289 48.6531 35.7541 48.8281 35.5383 48.8281ZM14.8523 48.0468H35.1476V41.6004C35.1476 39.6636 33.5721 38.0881 31.6351 38.0881H28.8953C28.6797 38.0881 28.5047 37.9131 28.5047 37.6974V36.8013C27.4043 37.2756 26.2051 37.524 25.0002 37.524C23.7926 37.524 22.5906 37.2744 21.4881 36.7978V37.6972C21.4881 37.9129 21.3131 38.0879 21.0975 38.0879H18.365C16.4283 38.0879 14.8527 39.6635 14.8527 41.6002V48.0468H14.8523Z" fill="#3762CC"/>
<path d="M30.3697 6.105V6.10539C30.0018 5.70363 29.5772 5.33703 29.0963 5.01789C27.8877 4.21594 26.5041 3.82746 25.132 3.81965V3.82277C23.6744 3.77922 22.1901 4.16437 20.9039 5.01789C20.4231 5.33703 19.9985 5.70343 19.6305 6.10539V6.105C19.6305 6.105 18.8184 6.94777 18.2158 7.94152L19.8754 9.60988C19.9756 9.71398 20.0791 9.81418 20.1852 9.91105C20.186 9.91203 20.1869 9.913 20.1879 9.91398V9.91339C21.5359 11.1443 23.3258 11.7831 25.1322 11.7614V11.7597C26.8481 11.7191 28.5303 11.0841 29.8125 9.91339V9.91398C29.8133 9.913 29.8143 9.91203 29.8152 9.91105C29.9213 9.81418 30.0246 9.71398 30.125 9.60988L31.7846 7.94152C31.1818 6.94777 30.3697 6.105 30.3697 6.105Z" fill="#E0EBFC"/>
<path d="M25.091 11.5962C27.1927 11.5962 28.8965 9.8924 28.8965 7.7907C28.8965 5.689 27.1927 3.98523 25.091 3.98523C22.9893 3.98523 21.2856 5.689 21.2856 7.7907C21.2856 9.8924 22.9893 11.5962 25.091 11.5962Z" fill="#4671C6"/>
<path d="M25.0883 9.85923C24.8641 9.85923 24.6412 9.82212 24.4262 9.74927C23.3461 9.38247 22.7658 8.20552 23.1326 7.12564C23.4176 6.28599 24.2059 5.72192 25.094 5.72192C25.3182 5.72192 25.541 5.75903 25.7561 5.83188C26.2779 6.00903 26.7 6.37993 26.9449 6.87642C27.1897 7.3729 27.227 7.93364 27.0498 8.45552C26.7647 9.29517 25.9764 9.85923 25.0883 9.85923Z" fill="#A4C9FF"/>
<path d="M25.0406 12.1527C23.1226 12.1527 21.3135 11.4653 19.9348 10.2116C19.9271 10.2052 19.9199 10.1986 19.9127 10.1913C19.8016 10.0896 19.6943 9.98507 19.5939 9.88097L17.9387 8.21671C17.8121 8.08956 17.7885 7.8923 17.8816 7.73878C18.4996 6.71964 19.3144 5.86964 19.349 5.8339C19.3504 5.83234 19.3519 5.83077 19.3535 5.82941C19.7478 5.40089 20.1965 5.01827 20.6879 4.6923C21.9883 3.8294 23.5092 3.39171 25.0928 3.43116C25.1064 3.4296 25.1189 3.42882 25.1342 3.42901C26.6351 3.4378 28.0799 3.87452 29.3121 4.69249C29.8051 5.01964 30.2555 5.40382 30.6508 5.83409H30.651C30.6853 5.86984 31.5004 6.71984 32.1183 7.73898C32.2115 7.89249 32.1879 8.08976 32.0613 8.21691L30.4016 9.88546C30.3049 9.98625 30.1945 10.0933 30.0785 10.1993C28.7478 11.4097 27.0144 12.0972 25.1791 12.1491C25.1652 12.1509 25.1512 12.1519 25.1369 12.1521C25.1047 12.1525 25.0726 12.1527 25.0406 12.1527ZM20.4547 9.62824C21.6726 10.7386 23.3414 11.3714 25.0453 11.3714C25.0609 11.3714 25.0762 11.3712 25.0916 11.3712C25.1019 11.37 25.1121 11.3695 25.1226 11.3693C26.7879 11.3298 28.3596 10.7105 29.5482 9.62531C29.5494 9.62433 29.5504 9.62335 29.5516 9.62238C29.6553 9.52765 29.7533 9.43214 29.843 9.33918L31.2875 7.88663C30.7408 7.05734 30.0953 6.38312 30.0881 6.37589C30.0857 6.37355 30.0836 6.3712 30.0814 6.36886C29.7271 5.98214 29.3228 5.63702 28.8803 5.34308C27.7881 4.61847 26.5086 4.22726 25.1775 4.21046C25.1586 4.213 25.1394 4.21417 25.1203 4.21319C23.6828 4.17042 22.2986 4.56085 21.1199 5.34308C20.6767 5.63722 20.2726 5.98214 19.9185 6.36906C19.9133 6.37491 19.9076 6.38058 19.9019 6.38605C19.8189 6.47374 19.2226 7.11281 18.7125 7.88683L20.1523 9.33449C20.248 9.4339 20.3463 9.52921 20.4484 9.62238C20.4506 9.62414 20.4525 9.62629 20.4547 9.62824Z" fill="#3762CC"/>
<path d="M12.1264 21.8506V21.8508C11.8762 21.5776 11.5875 21.3283 11.2604 21.1113C10.4385 20.566 9.49766 20.302 8.56465 20.2965V20.2987C7.57344 20.269 6.56407 20.5309 5.68946 21.1113C5.3625 21.3283 5.07364 21.5776 4.82344 21.8508V21.8506C4.82344 21.8506 4.27129 22.4236 3.86153 23.0994L4.99004 24.234C5.05821 24.3049 5.12852 24.3729 5.20059 24.4387C5.20118 24.4393 5.20176 24.4401 5.20235 24.4406V24.4403C6.11895 25.2772 7.33614 25.7117 8.56446 25.6969V25.6957C9.73126 25.668 10.8752 25.2363 11.7471 24.4403V24.4406C11.7477 24.4401 11.7482 24.4393 11.7488 24.4387C11.8209 24.3729 11.8912 24.3047 11.9594 24.234L13.0879 23.0994C12.6787 22.4236 12.1264 21.8506 12.1264 21.8506Z" fill="#E0EBFC"/>
<path d="M8.53691 25.5846C9.96606 25.5846 11.1246 24.426 11.1246 22.9969C11.1246 21.5677 9.96606 20.4092 8.53691 20.4092C7.10777 20.4092 5.94922 21.5677 5.94922 22.9969C5.94922 24.426 7.10777 25.5846 8.53691 25.5846Z" fill="#4671C6"/>
<path d="M8.53515 24.4038C8.38261 24.4038 8.23105 24.3786 8.08476 24.329C7.35038 24.0796 6.95566 23.2794 7.20507 22.5448C7.39882 21.9739 7.93496 21.5903 8.53886 21.5903C8.6914 21.5903 8.84296 21.6155 8.98925 21.6651C9.34414 21.7856 9.63125 22.0378 9.79765 22.3755C9.96406 22.713 9.98945 23.0944 9.86894 23.4493C9.675 24.0202 9.13906 24.4038 8.53515 24.4038Z" fill="#A4C9FF"/>
<path d="M8.50274 26.0881C7.16914 26.0881 5.91074 25.6106 4.95039 24.7389C4.94238 24.7323 4.93457 24.725 4.92715 24.7176C4.85254 24.6491 4.77988 24.5786 4.70918 24.5051L3.58496 23.375C3.4584 23.2479 3.43477 23.0506 3.52793 22.8971C3.95527 22.1924 4.51875 21.6043 4.54258 21.5797C4.54414 21.5782 4.5457 21.5764 4.54727 21.575C4.82129 21.2778 5.13301 21.0123 5.47403 20.7862C6.37774 20.1864 7.43653 19.8829 8.53496 19.9075C8.54571 19.9065 8.55743 19.9055 8.56719 19.9063C9.61231 19.9121 10.6184 20.2166 11.4766 20.7864C11.8193 21.0137 12.1324 21.2805 12.4076 21.5799H12.4078C12.4316 21.6045 12.9951 22.1926 13.4225 22.8973C13.5156 23.0508 13.4918 23.2481 13.3654 23.3752L12.2369 24.5098C12.1699 24.5793 12.0969 24.6504 12.0219 24.7192C12.0158 24.725 12.0096 24.7309 12.0033 24.7364C11.0871 25.5694 9.88301 26.0479 8.60801 26.0858C8.57344 26.0891 8.5377 26.0883 8.50274 26.0881ZM5.4709 24.1565C6.28184 24.8944 7.39688 25.311 8.5291 25.3071C8.53789 25.3061 8.54668 25.3057 8.55567 25.3055C9.65586 25.2793 10.6938 24.8713 11.4793 24.1565C11.4815 24.1543 11.4836 24.1524 11.4859 24.1502C11.5518 24.0901 11.6162 24.0278 11.6785 23.9631L12.5897 23.0471C12.2385 22.5329 11.8494 22.1264 11.8449 22.1217C11.8428 22.1196 11.8406 22.1172 11.8385 22.1149C11.6041 21.8592 11.3371 21.6313 11.0445 21.4373C10.3236 20.9588 9.4795 20.7002 8.60078 20.6879C8.58516 20.6895 8.56914 20.6905 8.55313 20.6895C7.60098 20.6635 6.68535 20.9196 5.90567 21.4372C5.6127 21.6315 5.3457 21.8594 5.11192 22.1151C5.10664 22.1207 5.10117 22.1264 5.0957 22.1317C5.03399 22.1973 4.68145 22.5772 4.36055 23.0473L5.26738 23.959C5.33399 24.0282 5.39844 24.0905 5.46426 24.1504C5.4666 24.1522 5.46875 24.1543 5.4709 24.1565Z" fill="#3762CC"/>
<path d="M45.1764 21.8507V21.8509C44.9262 21.5777 44.6375 21.3285 44.3104 21.1115C43.4885 20.5662 42.5477 20.3021 41.6147 20.2966V20.2988C40.6234 20.2691 39.6141 20.531 38.7395 21.1115C38.4125 21.3285 38.1236 21.5777 37.8734 21.8509V21.8507C37.8734 21.8507 37.3213 22.4238 36.9115 23.0996L38.04 24.2341C38.1082 24.305 38.1785 24.373 38.2506 24.4388C38.2512 24.4394 38.2518 24.4402 38.2524 24.4408V24.4404C39.169 25.2773 40.3861 25.7119 41.6145 25.697V25.6958C42.7813 25.6681 43.9252 25.2365 44.7971 24.4404V24.4408C44.7977 24.4402 44.7982 24.4394 44.7988 24.4388C44.8709 24.373 44.9412 24.3048 45.0094 24.2341L46.1379 23.0996C45.7285 22.4238 45.1764 21.8507 45.1764 21.8507Z" fill="#E0EBFC"/>
<path d="M41.5869 25.5847C43.0161 25.5847 44.1746 24.4261 44.1746 22.997C44.1746 21.5679 43.0161 20.4093 41.5869 20.4093C40.1578 20.4093 38.9992 21.5679 38.9992 22.997C38.9992 24.4261 40.1578 25.5847 41.5869 25.5847Z" fill="#4671C6"/>
<path d="M41.585 24.4038C41.4324 24.4038 41.2809 24.3786 41.1346 24.329C40.4002 24.0796 40.0055 23.2794 40.2549 22.5448C40.4486 21.9739 40.9848 21.5903 41.5887 21.5903C41.7412 21.5903 41.8928 21.6155 42.0391 21.6651C42.394 21.7856 42.6811 22.0378 42.8475 22.3755C43.0139 22.713 43.0393 23.0944 42.9188 23.4493C42.7248 24.0202 42.1889 24.4038 41.585 24.4038Z" fill="#A4C9FF"/>
<path d="M41.5526 26.0882C40.2141 26.0882 38.9516 25.6071 37.9903 24.7298C37.9891 24.7288 37.9881 24.7278 37.9869 24.7268C37.9092 24.6556 37.833 24.5819 37.759 24.5052L36.6346 23.3749C36.508 23.2477 36.4844 23.0505 36.5776 22.897C37.0049 22.1923 37.5686 21.6042 37.5922 21.5796C37.8625 21.2845 38.1782 21.0149 38.5237 20.786C39.4276 20.1862 40.4823 19.8827 41.5848 19.9073C41.5953 19.9063 41.6057 19.9046 41.617 19.9061C42.6621 19.912 43.668 20.2165 44.5264 20.7862C44.869 21.0136 45.1823 21.2804 45.4575 21.5798L45.4576 21.5796C45.4815 21.6042 46.045 22.1923 46.4721 22.897C46.5653 23.0505 46.5416 23.2477 46.4151 23.3749L45.2866 24.5095C45.2203 24.5784 45.1481 24.6487 45.0737 24.7171C45.0694 24.7212 45.0651 24.7255 45.0606 24.7294C44.1434 25.5665 42.936 26.0473 41.6576 26.0854C41.6235 26.0893 41.5881 26.0884 41.5526 26.0882ZM38.5242 24.1598C39.3291 24.8905 40.4307 25.3069 41.5557 25.3069H41.5791C41.5879 25.3059 41.5967 25.3056 41.6055 25.3054C42.7057 25.2792 43.7436 24.8712 44.5291 24.1563C44.5315 24.1542 44.5336 24.1522 44.5358 24.1501C44.6018 24.0899 44.666 24.0278 44.7282 23.9632L45.6395 23.047C45.2883 22.5327 44.8994 22.1263 44.8948 22.1216C44.8926 22.1194 44.8905 22.1171 44.8883 22.1147C44.6541 21.8591 44.3871 21.6311 44.0946 21.4372C43.3739 20.9587 42.5295 20.7001 41.6508 20.6878C41.6352 20.6893 41.619 20.6903 41.6032 20.6893C40.651 20.6645 39.7356 20.9198 38.9557 21.437C38.6625 21.6313 38.3955 21.8593 38.1619 22.1147C38.1586 22.1184 38.1557 22.1216 38.1522 22.1251C38.1328 22.1452 37.7539 22.544 37.4104 23.0472L38.3172 23.9589C38.384 24.028 38.4487 24.0905 38.5147 24.1507C38.5178 24.1536 38.5211 24.1567 38.5242 24.1598Z" fill="#3762CC"/>
</g>
<defs>
<clipPath id="clip0_18_348">
<rect width="50" height="50" fill="white"/>
</clipPath>
</defs>
</svg>
