<svg width="50" height="50" viewBox="0 0 50 50" fill="none" xmlns="http://www.w3.org/2000/svg">
<g clip-path="url(#clip0_22_1496)">
<path d="M34.3763 7.88486C33.0856 9.17559 30.7294 13.6534 30.7294 13.6534L30.5503 13.5729L23.0856 10.2048C21.5393 5.79834 22.0503 1.96035 23.5816 1.96035C25.0886 1.96035 26.7204 5.6998 26.7717 5.8165C26.7506 5.67461 25.9125 0.144531 28.4317 0.144531C29.5836 0.144531 30.2154 1.00967 30.5625 1.95937C30.9839 3.11426 30.9839 4.39395 30.9839 4.39395C30.9839 4.39395 32.8934 0.0548828 35.1942 0.692773C37.494 1.33057 35.668 6.59414 34.3763 7.88486Z" fill="#95D6A4"/>
<path d="M30.1549 12.0659C30.4276 12.6604 30.5513 13.1595 30.5503 13.5729L23.0856 10.2048C21.5393 5.79834 22.0503 1.96035 23.5816 1.96035C25.0886 1.96035 26.7204 5.6998 26.7717 5.8165C26.7506 5.67461 25.9125 0.144531 28.4317 0.144531C29.5836 0.144531 30.2154 1.00967 30.5625 1.95937L30.5615 1.96035C29.6761 0.144434 27.0916 5.37891 30.1549 12.0659Z" fill="#78C2A4"/>
<path d="M41.943 24.854C49.2163 17.5807 52.0882 8.66024 48.3576 4.92958C44.6269 1.19892 35.7064 4.07079 28.4331 11.3441C21.1598 18.6174 18.288 27.5378 22.0186 31.2685C25.7493 34.9992 34.6698 32.1273 41.943 24.854Z" fill="#E49542"/>
<path d="M22.0227 31.2682C18.2915 27.537 21.1641 18.6151 28.4378 11.3412C35.7123 4.06672 44.6343 1.19426 48.3655 4.92541C46.7948 3.35471 39.6242 7.97863 32.3497 15.2531C25.0758 22.5269 20.4519 29.6975 22.0227 31.2682Z" fill="#E28424"/>
<path d="M44.528 14.2447L39.0463 8.76306C38.415 8.13171 37.3913 8.13171 36.7599 8.76306C36.1285 9.39441 36.1285 10.418 36.7599 11.0495L42.2415 16.5311C42.8729 17.1625 43.8965 17.1625 44.528 16.5311C45.1593 15.8998 45.1593 14.8761 44.528 14.2447Z" fill="#E28424"/>
<path d="M38.2608 20.5118L32.7792 15.0302C32.1478 14.3988 31.1242 14.3988 30.4927 15.0302C29.8614 15.6615 29.8614 16.6851 30.4927 17.3166L35.9744 22.7982C36.6057 23.4296 37.6294 23.4296 38.2608 22.7982C38.8921 22.1669 38.8921 21.1432 38.2608 20.5118Z" fill="#E28424"/>
<path d="M22.2566 12.9219C22.1883 14.0235 22.0101 16.275 21.6158 18.3736C21.4609 19.1935 20.9035 19.8756 20.134 20.1965C19.4429 20.4842 18.6983 20.9622 18.6983 21.6804C18.6983 21.9098 18.7436 22.115 18.8241 22.2981H8.2286C8.30907 22.115 8.35438 21.9098 8.35438 21.6804C8.35438 20.9622 7.60995 20.4842 6.91874 20.1965C6.14911 19.8756 5.59178 19.1935 5.43788 18.3736C5.04247 16.275 4.86444 14.0235 4.79598 12.9219C4.76581 12.4441 4.87342 11.9672 5.1119 11.5517C6.88651 8.46724 10.477 6.51851 10.477 6.51851V1.55884H16.5766V6.5186C16.5766 6.5186 20.1672 8.46733 21.9408 11.5518C22.1802 11.9672 22.2868 12.4441 22.2566 12.9219Z" fill="#80B4FB"/>
<path d="M10.477 3.14331H16.5766V4.94731H10.477V3.14331Z" fill="#61A2F9"/>
<path d="M12.1852 2.88806V6.51755C12.1852 6.51755 9.59468 8.46726 8.54439 11.5517C8.40259 11.9662 8.33921 12.4441 8.35728 12.9219C8.39849 14.0225 8.50318 16.274 8.73755 18.3736C8.82808 19.1926 9.15806 19.8757 9.6148 20.1966C10.0232 20.4843 10.4639 20.9622 10.4639 21.6804C10.4639 21.9098 10.4377 22.115 10.3895 22.2981H8.22857C8.30904 22.115 8.35435 21.9098 8.35435 21.6804C8.35435 20.9622 7.60992 20.4843 6.91871 20.1966C6.14908 19.8757 5.59175 19.1926 5.43785 18.3736C5.04146 16.275 4.86441 14.0225 4.79595 12.9219C4.76578 12.4441 4.87242 11.9662 5.11187 11.5517C6.8855 8.46726 10.477 6.51755 10.477 6.51755V3.68865L12.1852 2.88806Z" fill="#61A2F9"/>
<path d="M15.8725 0.230957H11.1806C10.4474 0.230957 9.85297 0.825391 9.85297 1.55859V3.68887H17.2001V1.55859C17.2001 0.825391 16.6057 0.230957 15.8725 0.230957Z" fill="#A698FF"/>
<path d="M13.8122 0.231323C13.0791 0.231323 12.4844 0.825073 12.4844 1.55818V3.68884H9.85297V1.55818C9.85297 0.825073 10.4477 0.231323 11.1808 0.231323H13.8122Z" fill="#8673FF"/>
<path d="M47.1277 26.8184C47.1277 26.8184 47.0835 28.2852 46.9376 30.5668C46.7263 33.8615 46.3038 38.8555 45.4969 43.5858C44.8802 47.2035 41.7555 49.8555 38.0855 49.8555H11.9146C8.2446 49.8555 5.1199 47.2036 4.5032 43.5858C3.69636 38.8555 3.2738 33.8615 3.06257 30.5668C2.91667 28.2852 2.87244 26.8184 2.87244 26.8184H47.1277Z" fill="#A698FF"/>
<path d="M47.1277 26.8184C47.1277 26.8184 47.0834 28.2852 46.9375 30.5668C46.7051 30.6171 46.4657 30.6453 46.2212 30.6503C32.0734 30.9219 17.9266 30.9219 3.77876 30.6503C3.53433 30.6452 3.29487 30.6171 3.06245 30.5668C2.91655 28.2852 2.87231 26.8184 2.87231 26.8184H47.1277Z" fill="#8673FF"/>
<path d="M15.148 49.8556H11.9146C8.2446 49.8556 5.1199 47.2037 4.5032 43.5859C3.13806 35.581 2.87244 26.8184 2.87244 26.8184H8.34021C8.34021 26.8184 8.54041 35.5809 9.56755 43.5858C10.0324 47.2036 12.3844 49.8556 15.148 49.8556Z" fill="#8673FF"/>
<path d="M31.7648 10.6717C26.657 10.1225 21.5492 10.0581 16.4414 10.4785C15.7629 10.5344 15.5095 11.0236 14.8311 11.0966C14.1946 16.7524 13.7697 21.9834 14.4062 27.6393C20.1924 28.2614 25.9787 28.2614 31.7649 27.6393C32.4013 21.9834 32.4013 16.3275 31.7648 10.6717Z" fill="#EDEDED"/>
<path d="M16.4414 27.8325C15.7633 27.7771 15.0842 27.7128 14.4062 27.6394C13.7694 21.9834 13.7694 16.3275 14.4062 10.6717C15.0842 10.5992 15.7633 10.5349 16.4414 10.4785C15.8126 16.2632 15.8126 22.0479 16.4414 27.8325Z" fill="#DBDBDB"/>
<path d="M46.2209 28.6081C32.0737 28.88 17.9265 28.88 3.77928 28.6081C2.0203 28.5743 0.518738 27.3221 0.168933 25.5979C-0.0560669 24.4886 -0.0560669 23.3794 0.168933 22.2701C0.518738 20.5459 2.0202 19.2937 3.77928 19.2599C17.9265 18.9881 32.0736 18.9881 46.2209 19.2599C47.9799 19.2937 49.4814 20.5459 49.8312 22.2701C50.0562 23.3794 50.0562 24.4886 49.8312 25.5979C49.4814 27.3221 47.9799 28.5743 46.2209 28.6081Z" fill="#6D6AFF"/>
<path d="M7.39529 28.6705C6.19011 28.6524 4.98386 28.6312 3.77859 28.6081C2.02 28.5739 0.518042 27.3223 0.168921 25.598C-0.0564697 24.4884 -0.0564697 23.3798 0.168921 22.2701C0.518042 20.5458 2.02 19.2932 3.77859 19.26C4.98376 19.2369 6.19001 19.2158 7.39529 19.1976C5.95964 19.5538 4.81785 20.7087 4.51501 22.2067C4.28064 23.3587 4.28064 24.5095 4.51501 25.6604C4.81785 27.1584 5.95974 28.3143 7.39529 28.6705Z" fill="#5350FF"/>
<path d="M15.0248 32.9034C15.0091 32.9034 14.9934 32.9034 14.9775 32.9034C13.6654 32.9066 12.5947 33.965 12.5554 35.2765C12.4942 37.3168 12.4942 39.3572 12.5554 41.3975C12.5947 42.709 13.6654 43.7674 14.9775 43.7705H15.0248C16.3369 43.7674 17.4076 42.709 17.447 41.3975C17.5081 39.3572 17.5081 37.3168 17.447 35.2765C17.4077 33.965 16.337 32.9066 15.0248 32.9034Z" fill="#365E7D"/>
<path d="M25.0237 32.9034C25.008 32.9034 24.9923 32.9034 24.9764 32.9034C23.6643 32.9066 22.5936 33.965 22.5543 35.2765C22.4931 37.3168 22.4931 39.3572 22.5543 41.3975C22.5936 42.709 23.6643 43.7674 24.9764 43.7705H25.0237C26.3358 43.7674 27.4065 42.709 27.4459 41.3975C27.507 39.3572 27.507 37.3168 27.4459 35.2765C27.4065 33.965 26.3358 32.9066 25.0237 32.9034Z" fill="#365E7D"/>
<path d="M35.0227 32.9034C35.0069 32.9034 34.9912 32.9034 34.9754 32.9034C33.6633 32.9066 32.5926 33.965 32.5532 35.2765C32.4921 37.3168 32.4921 39.3572 32.5532 41.3975C32.5926 42.709 33.6633 43.7674 34.9754 43.7705H35.0227C36.3348 43.7674 37.4055 42.709 37.4448 41.3975C37.506 39.3572 37.506 37.3168 37.4448 35.2765C37.4055 33.965 36.3348 32.9066 35.0227 32.9034Z" fill="#365E7D"/>
<path d="M12.3715 22.6032C11.8412 22.3353 11.2868 22.1334 10.7083 21.9979C9.51366 21.718 8.29832 22.3774 7.85018 23.5196C5.61219 29.2232 3.51727 34.9787 1.56561 40.7864C1.17479 41.9494 1.68182 43.2358 2.77684 43.7894C3.30711 44.0573 3.86151 44.2592 4.44002 44.3947C5.63465 44.6746 6.84998 44.0151 7.29813 42.873C9.53612 37.1694 11.631 31.4139 13.5827 25.6062C13.9736 24.4431 13.4666 23.1566 12.3715 22.6032Z" fill="#407093"/>
<path d="M3.46705 44.0953C3.23208 44.0055 3.00162 43.9034 2.77652 43.7894C1.68121 43.2365 1.17437 41.9493 1.56548 40.7866C3.51753 34.9793 5.61226 29.224 7.85015 23.5197C8.29791 22.3776 9.51324 21.7183 10.708 21.9979C10.9537 22.0552 11.1946 22.1257 11.4313 22.2076C10.6548 22.4143 9.99068 22.983 9.68013 23.7746C7.34849 29.719 5.16568 35.7163 3.13121 41.7677C2.86001 42.5746 3.00386 43.4385 3.46705 44.0953Z" fill="#365E7D"/>
<path d="M39.2921 21.9975C38.7136 22.1331 38.1592 22.3348 37.6289 22.6029C36.5339 23.1563 36.0268 24.4427 36.4177 25.6058C38.3694 31.4135 40.4642 37.1691 42.7022 42.8726C43.1504 44.0148 44.3657 44.6743 45.5603 44.3944C46.1389 44.2589 46.6932 44.0571 47.2235 43.789C48.3185 43.2356 48.8256 41.9492 48.4347 40.7861C46.483 34.9784 44.3882 29.2228 42.1502 23.5193C41.702 22.3771 40.4867 21.7175 39.2921 21.9975Z" fill="#407093"/>
<path d="M46.2858 44.185C46.0481 44.2673 45.8059 44.3372 45.5602 44.3945C44.3659 44.6751 43.1503 44.0148 42.7024 42.8727C40.4649 37.1693 38.3701 31.4139 36.4177 25.6057C36.0266 24.443 36.5338 23.1568 37.6288 22.603C37.8539 22.4889 38.0837 22.3882 38.3177 22.2987C37.8557 22.9561 37.7126 23.8186 37.9835 24.6247C40.0182 30.677 42.2011 36.6744 44.5324 42.6177C44.8432 43.4103 45.5087 43.9797 46.2858 44.185Z" fill="#365E7D"/>
<path d="M17.0564 4.42139H9.99677C9.59227 4.42139 9.26434 4.09346 9.26434 3.68897C9.26434 3.28447 9.59227 2.95654 9.99677 2.95654H17.0564C17.4609 2.95654 17.7889 3.28447 17.7889 3.68897C17.7889 4.09346 17.4609 4.42139 17.0564 4.42139Z" fill="#A698FF"/>
<path d="M12.196 4.42139H9.99677C9.59149 4.42139 9.26434 4.09326 9.26434 3.68897C9.26434 3.28467 9.59149 2.95654 9.99677 2.95654H12.196C11.7907 2.95654 11.4636 3.28467 11.4636 3.68897C11.4636 4.09326 11.7907 4.42139 12.196 4.42139Z" fill="#8673FF"/>
</g>
<defs>
<clipPath id="clip0_22_1496">
<rect width="50" height="50" fill="white"/>
</clipPath>
</defs>
</svg>
