<svg width="50" height="50" viewBox="0 0 50 50" fill="none" xmlns="http://www.w3.org/2000/svg">
<path d="M20.3125 17.1875L24.2188 19.5312L23.4375 22.6562H18.75L20.3125 17.1875Z" fill="#E8C8B3"/>
<path d="M37.723 5.59727L33.7891 9.53125L29.8551 5.59727C29.6781 5.42029 29.5377 5.21019 29.4419 4.97895C29.3462 4.74772 29.2969 4.49989 29.2969 4.24961C29.2969 3.99933 29.3462 3.7515 29.4419 3.52027C29.5377 3.28904 29.6781 3.07894 29.8551 2.90196C30.0321 2.72499 30.2422 2.5846 30.4734 2.48882C30.7046 2.39305 30.9525 2.34375 31.2027 2.34375C31.453 2.34375 31.7008 2.39304 31.9321 2.48882C32.1633 2.58459 32.3734 2.72498 32.5504 2.90195L33.7891 4.14063L35.0277 2.90195C35.2047 2.72498 35.4148 2.58459 35.646 2.48882C35.8773 2.39304 36.1251 2.34375 36.3754 2.34375C36.8809 2.34375 37.3656 2.54455 37.723 2.90196C38.0805 3.25938 38.2812 3.74414 38.2812 4.24961C38.2813 4.49989 38.232 4.74772 38.1362 4.97895C38.0404 5.21019 37.9 5.42029 37.723 5.59727Z" fill="#F16465"/>
<path d="M20.3125 12.5H26.5625V17.1875C26.5625 18.0163 26.2333 18.8112 25.6472 19.3972C25.0612 19.9833 24.2663 20.3125 23.4375 20.3125C22.6087 20.3125 21.8138 19.9833 21.2278 19.3972C20.6417 18.8112 20.3125 18.0163 20.3125 17.1875V12.5Z" fill="#E8C8B3"/>
<path d="M28.9062 10.9375C28.9062 11.3519 28.7416 11.7493 28.4486 12.0424C28.1556 12.3354 27.7582 12.5 27.3438 12.5H23.4375L22.6562 14.8438H21.0938L20.3125 17.9688C19.8981 17.9688 19.5007 17.8041 19.2076 17.5111C18.9146 17.2181 18.75 16.8207 18.75 16.4062V12.3047C18.75 11.5277 19.0587 10.7825 19.6081 10.2331C20.1575 9.68366 20.9027 9.375 21.6797 9.375H27.3438C27.7582 9.375 28.1556 9.53962 28.4486 9.83265C28.7416 10.1257 28.9062 10.5231 28.9062 10.9375Z" fill="#683B0D"/>
<path d="M27.3438 47.6562H14.0625V27.3438C14.0625 26.1005 14.5564 24.9083 15.4354 24.0292C16.3145 23.1501 17.5068 22.6563 18.75 22.6562H23.4375L24.1197 23.0655C25.103 23.6555 25.9168 24.4901 26.4818 25.488C27.0468 26.4859 27.3437 27.613 27.3438 28.7598V47.6562Z" fill="#0BAFEA"/>
<path d="M25 47.6562H34.375V28.125C34.375 27.2962 34.0458 26.5013 33.4597 25.9153C32.8737 25.3292 32.0788 25 31.25 25H27.3438L24.1151 30.166C23.6723 30.8744 23.4375 31.6931 23.4375 32.5285C23.4375 33.1139 23.5528 33.6936 23.7768 34.2345C24.0008 34.7753 24.3292 35.2667 24.7432 35.6807L25 35.9375V47.6562Z" fill="#647BF1"/>
<path d="M32.0312 27.3438C32.6529 27.3438 33.249 27.5907 33.6885 28.0302C34.1281 28.4698 34.375 29.0659 34.375 29.6875V33.5938H29.6875V29.6875C29.6875 29.0659 29.9344 28.4698 30.374 28.0302C30.8135 27.5907 31.4096 27.3438 32.0312 27.3438Z" fill="#4E68F2"/>
<path d="M29.6875 33.5938V38.2812L25 42.1875L22.6562 41.4062L20.3125 44.5312L23.4375 47.6562L25.7812 45.3125L34.375 39.8438V33.5938H29.6875Z" fill="#F5D3BD"/>
<path d="M36.5234 44.5312H34.375V39.8438H36.5234C36.6517 39.8438 36.7787 39.869 36.8972 39.9181C37.0156 39.9672 37.1233 40.0391 37.214 40.1298C37.3047 40.2205 37.3766 40.3281 37.4257 40.4466C37.4747 40.5651 37.5 40.6921 37.5 40.8203V43.5547C37.5 43.6829 37.4747 43.8099 37.4257 43.9284C37.3766 44.0469 37.3047 44.1545 37.214 44.2452C37.1233 44.3359 37.0156 44.4078 36.8972 44.4569C36.7787 44.506 36.6517 44.5312 36.5234 44.5312Z" fill="#E8C8B3"/>
<path d="M28.125 21.0938L27.3438 25H30.4688L31.25 21.875L28.125 21.0938Z" fill="#F5D3BD"/>
<path d="M28.891 22.3476C28.1194 22.0442 27.4999 21.4468 27.1687 20.6867C26.8376 19.9266 26.822 19.0661 27.1254 18.2945L28.841 13.9304L34.6597 16.2179L32.9441 20.582C32.6408 21.3536 32.0433 21.9731 31.2832 22.3042C30.5231 22.6353 29.6626 22.6509 28.891 22.3476Z" fill="#F5D3BD"/>
<path d="M27.2363 11.6327C27.0848 12.0184 27.0926 12.4485 27.2581 12.8283C27.4236 13.2082 27.7333 13.5068 28.1189 13.6584L31.0274 14.8016L31.91 16.8272L29.6239 22.6441C29.5113 22.9306 29.4563 23.2364 29.4619 23.5442C29.4675 23.8519 29.5336 24.1555 29.6566 24.4377C29.7795 24.7199 29.9569 24.975 30.1784 25.1887C30.4 25.4023 30.6615 25.5702 30.9479 25.6828C31.5265 25.9102 32.1716 25.8984 32.7414 25.6501C33.3113 25.4018 33.7591 24.9373 33.9865 24.3588L36.5585 17.8148C36.7461 17.3374 36.8379 16.8277 36.8285 16.3147C36.8192 15.8018 36.7088 15.2958 36.5039 14.8255C36.299 14.3552 36.0034 13.9299 35.6341 13.5739C35.2648 13.2178 34.8289 12.938 34.3515 12.7504L29.2617 10.75C28.8761 10.5985 28.4461 10.6064 28.0662 10.772C27.6864 10.9375 27.3879 11.2471 27.2363 11.6327Z" fill="#EA9D2D"/>
<path d="M16.4062 25C17.0279 25 17.624 25.2469 18.0635 25.6865C18.5031 26.126 18.75 26.7221 18.75 27.3438V31.25H14.0625V27.3438C14.0625 26.7221 14.3094 26.126 14.749 25.6865C15.1885 25.2469 15.7846 25 16.4062 25Z" fill="#0A9ACD"/>
<path d="M18.75 31.25V36.7188L25 42.1875L28.125 42.9688L28.9062 45.3125L27.3438 47.6562H23.4375L21.0938 44.5312L14.0625 38.2812V31.25H18.75Z" fill="#E8C8B3"/>
</svg>
