<svg width="50" height="50" viewBox="0 0 50 50" fill="none" xmlns="http://www.w3.org/2000/svg">
<path d="M46.875 31.25L47.6562 47.6562H42.1875C42.1875 47.6562 39.8437 30.4688 39.8437 28.9062C39.8437 28.2266 39.6953 26.5156 39.5234 24.7969C38.8047 28.6328 37.9219 33.1094 37.5 34.375C36.7187 36.7188 36.7187 47.6562 36.7187 47.6562H13.2812C13.2812 47.6562 13.2812 36.7188 12.5 34.375C12.0781 33.1094 11.1953 28.6328 10.4766 24.7969C10.3047 26.5156 10.1562 28.2266 10.1562 28.9062C10.1562 30.4688 7.8125 47.6562 7.8125 47.6562H2.34374L3.12499 31.25C3.12499 31.25 0.781245 14.0625 3.12499 10.1562C5.13281 6.80469 17.1875 7.03125 18.75 6.25C20.3125 5.46875 20.3125 2.34375 20.3125 2.34375H29.6875C29.6875 2.34375 29.6875 5.46875 31.25 6.25C32.8125 7.03125 44.8672 6.80469 46.875 10.1562C49.2187 14.0625 46.875 31.25 46.875 31.25Z" fill="#F4B19D"/>
<path d="M8.6002 18.8983L10.1369 18.6188L11.236 24.6604L9.69924 24.9399L8.6002 18.8983Z" fill="#DD9D8E"/>
<path d="M38.7694 24.6451L39.8746 18.6035L41.4113 18.8846L40.3061 24.9263L38.7694 24.6451Z" fill="#DD9D8E"/>
<path d="M19.5312 17.1875H31.25L28.125 24.2188H32.0312L24.2188 36.7188V27.3438H20.3125L19.5312 17.1875Z" fill="#5B97F0"/>
<path d="M31.25 17.1875H29.4672C27.8781 21.4391 24.5 24.8016 20.2375 26.3695L20.3125 27.3438H24.2188V36.7188L32.0313 24.2188H28.125L31.25 17.1875Z" fill="#387BDF"/>
</svg>
