<svg width="50" height="50" viewBox="0 0 50 50" fill="none" xmlns="http://www.w3.org/2000/svg">
<path d="M31.2291 29.3459H14.0834C11.2982 29.3459 9.04042 31.6038 9.04042 34.3889V40.7174H13.1434V45.4297H31.9029V40.7174H36.2721C36.2721 38.3547 36.2721 36.7616 36.2721 34.3889C36.2721 31.6038 34.0142 29.3459 31.2291 29.3459Z" fill="#4671C6"/>
<path d="M9.04042 40.7174H13.1434V45.4297H9.04042V40.7174Z" fill="#F9CFCF"/>
<path d="M13.1432 45.8203H9.04042C8.8248 45.8203 8.6498 45.6453 8.6498 45.4297V40.7174C8.6498 40.5018 8.8248 40.3268 9.04042 40.3268H13.1434C13.359 40.3268 13.534 40.5018 13.534 40.7174V45.4297C13.5338 45.6453 13.359 45.8203 13.1432 45.8203ZM9.43105 45.0391H12.7527V41.108H9.43105V45.0391Z" fill="#3762CC"/>
<path d="M31.9029 40.7174H36.2721V45.4297H31.9029V40.7174Z" fill="#F9CFCF"/>
<path d="M36.2721 45.8203H31.9029C31.6873 45.8203 31.5123 45.6453 31.5123 45.4297V40.7174C31.5123 40.5018 31.6873 40.3268 31.9029 40.3268H36.2721C36.4877 40.3268 36.6627 40.5018 36.6627 40.7174V45.4297C36.6627 45.6453 36.4877 45.8203 36.2721 45.8203ZM32.2935 45.0391H35.8814V41.108H32.2935V45.0391Z" fill="#3762CC"/>
<path d="M31.9029 41.1081C31.6873 41.1081 31.5123 40.9331 31.5123 40.7174V37.3879C31.5123 37.1723 31.6873 36.9973 31.9029 36.9973C32.1185 36.9973 32.2935 37.1723 32.2935 37.3879V40.7174C32.2935 40.9331 32.1185 41.1081 31.9029 41.1081Z" fill="#3762CC"/>
<path d="M17.6137 24.9589V29.7493V29.7499C17.6137 32.5321 19.8691 34.7874 22.6514 34.7874C25.4322 34.7874 27.6891 32.5335 27.6891 29.7493C27.6891 28.7801 27.6891 25.9604 27.6891 24.9589H17.6137Z" fill="#F9CFCF"/>
<path d="M31.9029 45.8204H13.1432C12.9275 45.8204 12.7525 45.6454 12.7525 45.4298V41.1081H9.04042C8.8248 41.1081 8.6498 40.9331 8.6498 40.7175V34.3887C8.6498 31.3927 11.0873 28.9553 14.0834 28.9553H17.2232V24.9589C17.2232 24.7432 17.3982 24.5682 17.6139 24.5682H27.6891C27.9047 24.5682 28.0797 24.7432 28.0797 24.9589V28.9553H31.2293C34.2254 28.9553 36.6627 31.3927 36.6627 34.3887V40.7173C36.6627 40.9329 36.4877 41.1079 36.2721 41.1079H32.2935V45.4298C32.2935 45.6454 32.1185 45.8204 31.9029 45.8204ZM13.5338 45.0391H31.5121V40.7175C31.5121 40.5018 31.6871 40.3268 31.9027 40.3268H35.8812V34.3887C35.8812 31.8235 33.7941 29.7366 31.2291 29.7366H27.6889C27.4732 29.7366 27.2982 29.5616 27.2982 29.346V25.3495H18.0045V29.346C18.0045 29.5616 17.8295 29.7366 17.6139 29.7366H14.0832C11.518 29.7366 9.43085 31.8237 9.43085 34.3887V40.3266H13.1432C13.3588 40.3266 13.5338 40.5016 13.5338 40.7173V45.0391Z" fill="#3762CC"/>
<path d="M22.6562 25.8061C16.132 25.8061 10.8432 20.5172 10.8432 13.993V9.04514C10.8432 7.4053 12.1726 6.07581 13.8125 6.07581H34.4693V13.993C34.4693 20.5172 29.1805 25.8061 22.6562 25.8061Z" fill="#4671C6"/>
<path d="M22.6562 26.1967C15.9269 26.1967 10.4525 20.7221 10.4525 13.993V9.04514C10.4525 7.1926 11.9598 5.68518 13.8125 5.68518H34.4695C34.6851 5.68518 34.8601 5.86018 34.8601 6.07581V13.993C34.86 20.7221 29.3853 26.1967 22.6562 26.1967ZM13.8125 6.46624C12.3906 6.46624 11.2338 7.62307 11.2338 9.04495V13.9928C11.2338 20.2912 16.3578 25.4153 22.6562 25.4153C28.9547 25.4153 34.0787 20.2912 34.0787 13.9928V6.46624H13.8125Z" fill="#3762CC"/>
<path d="M32.7176 14.7915V13.8495C32.7176 8.34285 28.2131 3.87878 22.6562 3.87878C17.0996 3.87878 12.5949 8.34285 12.5949 13.8495V14.7915C10.8478 14.7561 9.46172 16.1477 9.46172 17.8302C9.46172 19.6266 11.0301 21.0475 12.8605 20.854C13.8988 25.2653 17.8891 28.5518 22.6561 28.5518C27.4234 28.5518 31.4133 25.2649 32.4516 20.854C34.2797 21.0473 35.8504 19.629 35.8504 17.8302C35.8506 16.1471 34.4635 14.7561 32.7176 14.7915Z" fill="#F9CFCF"/>
<path d="M22.6562 28.9426C17.8844 28.9426 13.7793 25.8006 12.5605 21.2619C11.7021 21.2696 10.8521 20.9537 10.207 20.3731C9.48515 19.7237 9.07109 18.7967 9.07109 17.8303C9.07109 16.9053 9.43672 16.0375 10.1004 15.3871C10.674 14.825 11.41 14.4873 12.2043 14.4149V13.8492C12.2043 8.13596 16.893 3.48792 22.6562 3.48792C28.4195 3.48792 33.1082 8.13596 33.1082 13.8492V14.4149C33.9025 14.4871 34.6385 14.825 35.2121 15.3873C35.8758 16.0375 36.2414 16.9051 36.2414 17.8303C36.2414 18.7967 35.8275 19.7233 35.1059 20.3729C34.4672 20.9473 33.6353 21.2619 32.7789 21.2619C32.7699 21.2619 32.7609 21.2619 32.752 21.2619C31.533 25.8006 27.4281 28.9426 22.6562 28.9426ZM12.8609 20.4633C13.0402 20.4633 13.199 20.5865 13.2408 20.7645C14.266 25.1196 18.1377 28.1612 22.6562 28.1612C27.1748 28.1612 31.0465 25.1196 32.0715 20.7645C32.1166 20.5729 32.2988 20.4459 32.4928 20.4655C33.2561 20.5463 34.0178 20.3008 34.583 19.792C35.1404 19.2906 35.46 18.5754 35.46 17.8303C35.46 17.117 35.1777 16.4475 34.6652 15.9453C34.148 15.4381 33.4576 15.1656 32.7254 15.1823C32.6213 15.1799 32.5189 15.1442 32.4441 15.0707C32.3693 14.9973 32.3268 14.8965 32.3268 14.7916V13.8496C32.3268 8.56721 27.9885 4.26956 22.6561 4.26956C17.3236 4.26956 12.9853 8.56721 12.9853 13.8496V14.7916C12.9853 14.8965 12.9432 14.9973 12.8682 15.0707C12.7932 15.1442 12.6924 15.1823 12.5869 15.1823C11.8494 15.1672 11.1643 15.4385 10.6469 15.9451C10.1344 16.4473 9.85215 17.1168 9.85215 17.8303C9.85215 18.5754 10.1719 19.2906 10.7295 19.7924C11.2945 20.3008 12.0555 20.5459 12.8193 20.4655C12.8336 20.4641 12.8473 20.4633 12.8609 20.4633Z" fill="#3762CC"/>
<path d="M34.4693 12.8577H18.6842C15.3211 12.8577 12.5949 10.1313 12.5949 6.76846C12.5949 3.40537 15.3213 0.679199 18.6842 0.679199H29.0164C32.0279 0.679199 34.4693 3.12061 34.4693 6.13213V12.8577Z" fill="#4671C6"/>
<path d="M34.4693 13.2483H18.6842C15.1111 13.2483 12.2043 10.3413 12.2043 6.76821C12.2043 3.19517 15.1113 0.28833 18.6844 0.28833H29.0166C32.2387 0.28833 34.8601 2.90981 34.8601 6.13189V12.8579C34.8599 13.0735 34.6851 13.2483 34.4693 13.2483ZM18.6844 1.06958C15.5422 1.06958 12.9857 3.62602 12.9857 6.76841C12.9857 9.91079 15.5422 12.4672 18.6844 12.4672H34.0789V6.13189C34.0789 3.34048 31.808 1.06958 29.0166 1.06958H18.6844Z" fill="#3762CC"/>
<path d="M13.1432 41.1081C12.9275 41.1081 12.7525 40.9331 12.7525 40.7174V37.3879C12.7525 37.1723 12.9275 36.9973 13.1432 36.9973C13.3588 36.9973 13.5338 37.1723 13.5338 37.3879V40.7174C13.5338 40.9331 13.359 41.1081 13.1432 41.1081Z" fill="#3762CC"/>
<path d="M25.5174 25.8358H25.5178C25.7793 25.8715 26.0475 25.8731 26.3037 25.8098C27.2432 25.5779 27.94 24.7297 27.94 23.7186C27.94 22.7074 27.2434 21.859 26.3037 21.6274C26.0475 21.5641 25.7793 21.5656 25.5178 21.6014C23.6174 21.8609 21.6904 21.8609 19.79 21.6014C19.5285 21.5656 19.2603 21.5641 19.0041 21.6274C18.0646 21.8592 17.3678 22.7074 17.3678 23.7186C17.3678 24.7297 18.0644 25.5779 19.0041 25.8098C19.2603 25.8731 19.5285 25.8715 19.79 25.8358H19.7904C21.6904 25.5762 23.6172 25.5762 25.5174 25.8358Z" fill="#F9A7A7"/>
<path d="M28.2105 20.2338C28.1355 20.2338 28.06 20.2125 27.9932 20.1674L25.292 18.3535C25.184 18.2811 25.1191 18.1594 25.1191 18.0293C25.1191 17.8992 25.184 17.7775 25.292 17.7051L27.9932 15.8912C28.1727 15.7703 28.415 15.8187 28.5352 15.9977C28.6555 16.1768 28.6078 16.4195 28.4287 16.5396L26.2105 18.0293L28.4287 19.5189C28.6078 19.6391 28.6555 19.8818 28.5352 20.0609C28.46 20.173 28.3365 20.2338 28.2105 20.2338Z" fill="#3762CC"/>
<path d="M29.4555 18.4199H25.5098C25.2941 18.4199 25.1191 18.2449 25.1191 18.0293C25.1191 17.8137 25.2941 17.6387 25.5098 17.6387H29.4553C29.6709 17.6387 29.8459 17.8137 29.8459 18.0293C29.8459 18.2449 29.6711 18.4199 29.4555 18.4199Z" fill="#3762CC"/>
<path d="M17.092 20.2338C16.9662 20.2338 16.8428 20.1731 16.7674 20.061C16.6471 19.8819 16.6947 19.6391 16.8738 19.519L19.0922 18.0293L16.8738 16.5397C16.6947 16.4196 16.6469 16.1768 16.7674 15.9977C16.8875 15.8188 17.1301 15.7705 17.3094 15.8912L20.0107 17.7051C20.1188 17.7776 20.1836 17.8993 20.1836 18.0293C20.1836 18.1594 20.1188 18.2811 20.0107 18.3536L17.3094 20.1674C17.2426 20.2123 17.167 20.2338 17.092 20.2338Z" fill="#3762CC"/>
<path d="M19.793 18.4199H15.8475C15.6318 18.4199 15.4568 18.2449 15.4568 18.0293C15.4568 17.8137 15.6318 17.6387 15.8475 17.6387H19.793C20.0086 17.6387 20.1836 17.8137 20.1836 18.0293C20.1836 18.2449 20.0086 18.4199 19.793 18.4199Z" fill="#3762CC"/>
<path d="M43.4154 18.5674H38.3041C38.0068 18.5674 37.766 18.3266 37.766 18.0293C37.766 17.7322 38.0068 17.4912 38.3041 17.4912H43.4154C43.7127 17.4912 43.9535 17.732 43.9535 18.0293C43.9533 18.3264 43.7125 18.5674 43.4154 18.5674Z" fill="#F9A7A7"/>
<path d="M36.9949 13.9022C36.7572 13.7239 36.709 13.3865 36.8873 13.149L40.5016 8.3301C40.6803 8.09221 41.0178 8.04436 41.2549 8.22248C41.4926 8.4008 41.5408 8.73791 41.3625 8.97561L37.7482 13.7946C37.5693 14.0328 37.2316 14.0799 36.9949 13.9022Z" fill="#F9A7A7"/>
<path d="M40.5014 27.7288L36.8871 22.9098C36.7088 22.6721 36.7572 22.335 36.9947 22.1567C37.232 21.9786 37.5695 22.0264 37.748 22.2643L41.3623 27.0833C41.5406 27.3209 41.4922 27.6581 41.2547 27.8364C41.0178 28.0141 40.6803 27.967 40.5014 27.7288Z" fill="#F9A7A7"/>
<path d="M7.00839 18.5674H1.89706C1.59999 18.5674 1.35898 18.3266 1.35898 18.0293C1.35898 17.7322 1.5998 17.4912 1.89706 17.4912H7.00839C7.30546 17.4912 7.54648 17.732 7.54648 18.0293C7.54648 18.3264 7.30566 18.5674 7.00839 18.5674Z" fill="#F9A7A7"/>
<path d="M4.0578 27.8364C3.82011 27.6581 3.77187 27.3208 3.95019 27.0833L7.56444 22.2643C7.74276 22.0264 8.07987 21.9786 8.31757 22.1567C8.55526 22.335 8.60351 22.6723 8.42519 22.9098L4.81093 27.7288C4.6328 27.9665 4.2955 28.0147 4.0578 27.8364Z" fill="#F9A7A7"/>
<path d="M7.56444 13.7945L3.95019 8.97539C3.77187 8.7377 3.82011 8.40059 4.0578 8.22227C4.2955 8.04395 4.63261 8.09219 4.81093 8.32988L8.42519 13.1488C8.60351 13.3865 8.55526 13.7236 8.31757 13.902C8.08007 14.0803 7.74276 14.0322 7.56444 13.7945Z" fill="#F9A7A7"/>
<path d="M39.6484 49.4141C45.0418 49.4141 49.4141 45.0418 49.4141 39.6484C49.4141 34.255 45.0418 29.8828 39.6484 29.8828C34.255 29.8828 29.8828 34.255 29.8828 39.6484C29.8828 45.0418 34.255 49.4141 39.6484 49.4141Z" fill="#F9A7A7"/>
<path d="M41.5818 39.6484L45.5256 35.7047C46.0602 35.1701 46.06 34.3056 45.5256 33.7713C44.9912 33.2369 44.1266 33.2369 43.5922 33.7713L39.6484 37.715L35.7047 33.7713C35.1705 33.2371 34.3057 33.2369 33.7713 33.7713C33.2383 34.3043 33.2383 35.1717 33.7713 35.7047L37.715 39.6484L33.7713 43.5922C33.2383 44.1252 33.2383 44.9926 33.7713 45.5256C34.3053 46.0595 35.1705 46.0601 35.7047 45.5256L39.6484 41.5818L43.5922 45.5256C44.1262 46.0595 44.9914 46.0601 45.5256 45.5256C46.0602 44.991 46.06 44.1265 45.5256 43.5922L41.5818 39.6484Z" fill="#4671C6"/>
<path d="M39.6484 49.8047C34.0482 49.8047 29.4922 45.2486 29.4922 39.6484C29.4922 34.0482 34.0482 29.4922 39.6484 29.4922C45.2486 29.4922 49.8047 34.0482 49.8047 39.6484C49.8047 45.2486 45.2486 49.8047 39.6484 49.8047ZM39.6484 30.2734C34.4789 30.2734 30.2734 34.4789 30.2734 39.6484C30.2734 44.818 34.4789 49.0234 39.6484 49.0234C44.818 49.0234 49.0234 44.818 49.0234 39.6484C49.0234 34.4789 44.818 30.2734 39.6484 30.2734Z" fill="#3762CC"/>
</svg>
