<svg width="50" height="50" viewBox="0 0 50 50" fill="none" xmlns="http://www.w3.org/2000/svg">
<g clip-path="url(#clip0_22_656)">
<path d="M24.7819 49.4714H15.2039C14.9782 49.4714 14.7948 49.2893 14.7948 49.0643V45.4169C15.5403 45.5616 16.3094 45.6396 17.0968 45.6396C20.2198 45.6396 23.0616 44.4472 25.191 42.4963V49.0647C25.191 49.2893 25.0076 49.4714 24.7819 49.4714Z" fill="#F9CFCF"/>
<path d="M24.7819 49.8784H15.2039C14.7529 49.8784 14.3857 49.5135 14.3857 49.0642V45.4169C14.3857 45.2952 14.4409 45.1799 14.5351 45.1028C14.6294 45.0257 14.7537 44.9939 14.8731 45.0177C15.609 45.1604 16.3569 45.2328 17.0968 45.2328C20.0009 45.2328 22.7771 44.1546 24.9137 42.1969C25.0336 42.0872 25.2069 42.0586 25.3552 42.1238C25.5042 42.1886 25.6001 42.3349 25.6001 42.4967V49.0646C25.6001 49.5135 25.2329 49.8784 24.7819 49.8784ZM15.2039 45.9011V49.0646H24.7823L24.7819 43.3805C22.6005 45.1056 19.9046 46.047 17.0968 46.047C16.4676 46.0466 15.8328 45.9977 15.2039 45.9011Z" fill="#3762CC"/>
<path d="M17.0968 13.8646C10.4945 13.8646 5.14179 19.1909 5.14179 25.7616V33.7425C5.14179 33.8491 5.14699 33.954 5.14978 34.0602H5.01155C4.18456 34.0602 3.51418 34.7277 3.51418 35.5507C3.51418 36.3737 4.18456 37.0408 5.01155 37.0408H5.61082C7.04827 42.0061 11.6447 45.6395 17.0968 45.6395C23.6996 45.6395 29.0523 40.3128 29.0523 33.7425V25.7616C29.0523 19.1909 23.6996 13.8646 17.0968 13.8646Z" fill="#F9CFCF"/>
<path d="M10.4174 32.3669C7.62276 32.3669 6.5289 29.9167 6.51651 29.8881C6.42742 29.6813 6.5237 29.442 6.73145 29.3533C6.9388 29.2647 7.17891 29.3601 7.268 29.566C7.31834 29.6805 8.50968 32.2882 11.7729 31.3468C11.989 31.2843 12.2168 31.4084 12.2795 31.6243C12.3426 31.8402 12.2176 32.066 12.0006 32.1288C11.4209 32.2958 10.8944 32.3669 10.4174 32.3669Z" fill="#3762CC"/>
<path d="M10.6639 40.922C10.5808 40.922 10.4965 40.8969 10.4238 40.8445C9.48131 40.1626 8.23682 40.0151 7.17692 40.4588C6.96837 40.5463 6.72866 40.4485 6.64117 40.2413C6.55367 40.0338 6.65156 39.7953 6.8597 39.7082C8.18169 39.1548 9.7314 39.3377 10.9048 40.1857C11.0874 40.3177 11.1281 40.5725 10.9951 40.7542C10.9152 40.8639 10.7905 40.922 10.6639 40.922Z" fill="#3762CC"/>
<path d="M17.0968 46.0466C11.7222 46.0466 6.91802 42.5261 5.30719 37.4479H5.01195C3.96043 37.4479 3.10547 36.5967 3.10547 35.5507C3.10547 34.5985 3.81341 33.8081 4.73269 33.6734V25.7616C4.73269 18.977 10.2791 13.4575 17.0968 13.4575C23.9145 13.4575 29.4614 18.977 29.4614 25.7616V33.7425C29.4614 40.5267 23.9145 46.0466 17.0968 46.0466ZM5.01195 34.4673C4.41148 34.4673 3.92367 34.9531 3.92367 35.5507C3.92367 36.1479 4.41188 36.6337 5.01195 36.6337H5.61122C5.79339 36.6337 5.9536 36.7538 6.00434 36.9279C7.41981 41.8176 11.9815 45.2324 17.0968 45.2324C23.4635 45.2324 28.6432 40.0783 28.6432 33.7425V25.7616C28.6432 19.4259 23.4635 14.2714 17.0968 14.2714C10.7302 14.2714 5.55089 19.4259 5.55089 25.7616V33.7425C5.55089 33.8097 5.55329 33.8761 5.55528 33.9429L5.55888 34.0495C5.56208 34.1596 5.52013 34.2657 5.44302 34.3441C5.36631 34.4232 5.26004 34.4673 5.14978 34.4673H5.01195Z" fill="#3762CC"/>
<path d="M24.0979 11.7567H18.6849C18.1443 11.7567 17.7065 12.2545 17.7065 12.8679V13.3772C17.7065 12.5284 17.0365 11.8398 16.2107 11.8398H13.7365C7.89404 11.8398 3.15781 16.7081 3.15781 22.7134V25.0389C3.15781 25.5943 3.59567 26.0447 4.13621 26.0447H16.7281C17.2686 26.0447 17.7065 26.4948 17.7065 27.0502V29.4026C17.7149 29.3994 17.7237 29.3971 17.7317 29.3943V38.3544C17.7233 38.3512 17.7149 38.3492 17.7065 38.346V46.5432C17.7065 47.3256 18.265 47.9598 18.9538 47.9598H27.2772C32.3283 47.9598 36.4229 43.3102 36.4229 37.574V25.7529C36.4229 18.0233 30.9048 11.7567 24.0979 11.7567Z" fill="#4671C6"/>
<path d="M27.2772 48.3673H18.9538C18.0405 48.3673 17.2974 47.5491 17.2974 46.5436V38.346C17.2974 38.2975 17.3062 38.2498 17.3226 38.2053V29.5481C17.3058 29.502 17.2974 29.4527 17.2974 29.4026V27.0502C17.2974 26.7202 17.0417 26.4518 16.7281 26.4518H4.13621C3.37115 26.4518 2.7487 25.8181 2.7487 25.0388V22.7134C2.7487 16.4934 7.6779 11.4331 13.7365 11.4331H16.2107C16.7325 11.4331 17.2055 11.6482 17.5499 11.996C17.8016 11.6056 18.2167 11.35 18.6853 11.35H24.0983C31.1198 11.35 36.8324 17.8109 36.8324 25.7533V37.5743C36.832 43.5256 32.5456 48.3673 27.2772 48.3673ZM18.1156 38.4951V46.5436C18.1156 47.0998 18.4915 47.553 18.9538 47.553H27.2768C32.0946 47.553 36.0138 43.0764 36.0138 37.5739V25.7529C36.0138 18.2598 30.6683 12.1638 24.0979 12.1638H18.6849C18.3713 12.1638 18.1156 12.4799 18.1156 12.8679V13.3772C18.1156 13.6018 17.9322 13.7843 17.7065 13.7843C17.4808 13.7843 17.2974 13.6018 17.2974 13.3772C17.2974 12.7538 16.81 12.2469 16.2107 12.2469H13.7365C8.12895 12.2469 3.56691 16.9422 3.56691 22.713V25.0384C3.56691 25.3688 3.8222 25.6372 4.13621 25.6372H16.7281C17.4931 25.6372 18.1156 26.2709 18.1156 27.0498V29.2484C18.132 29.2941 18.1408 29.3434 18.1408 29.3939V38.354C18.1408 38.4029 18.132 38.4506 18.1156 38.4951Z" fill="#3762CC"/>
<path d="M22.2609 33.727C22.2609 36.0532 20.366 37.9389 18.0285 37.9389C15.6905 37.9389 13.7956 36.0532 13.7956 33.727C13.7956 31.4008 15.6905 29.5151 18.0285 29.5151C20.366 29.5151 22.2609 31.4008 22.2609 33.727Z" fill="#F9CFCF"/>
<path d="M29.4706 20.5173L29.4714 20.5169C29.3527 18.6555 27.8797 17.6663 27.4574 17.4194C27.2165 15.9659 25.8438 14.8503 24.1814 14.8503C24.1019 14.8503 24.024 14.8563 23.9461 14.861C23.4591 13.7438 22.2641 12.9523 20.8646 12.9523C20.1271 12.9523 19.4484 13.1745 18.8978 13.5455C18.4452 13.3347 17.9342 13.2135 17.3917 13.2135C16.0757 13.2135 14.9427 13.9132 14.4065 14.925C14.3598 14.9664 14.3226 15.0006 14.2954 15.0268C14.2219 15.022 14.1488 15.0165 14.0745 15.0165C12.2527 15.0165 10.7749 16.3555 10.7589 18.0122C9.82569 18.5473 9.20364 19.4916 9.20364 20.5702C9.20364 22.1466 10.5284 23.4399 12.2184 23.5794L12.2196 23.5933C12.2196 23.5933 13.3246 23.8219 14.4381 23.5297C14.8224 23.9138 15.9718 24.8501 18.0213 24.8501C18.4947 24.8501 18.9905 24.7984 19.5011 24.695L19.9549 24.5964C20.6062 25.0166 21.7643 25.1415 22.2853 25.1777C22.3113 25.1785 22.396 25.1785 22.396 25.1785C22.4791 25.1816 22.5634 25.1836 22.6497 25.1836C22.9813 25.1836 23.3188 25.157 23.6457 25.1057C24.1838 25.0306 24.6748 24.8978 25.1067 24.7113C25.2657 24.7344 25.4059 24.823 25.4838 24.9546L26.5665 26.7699C26.6092 26.8423 26.662 26.9075 26.7183 26.9691C26.9764 27.3906 27.4494 27.6494 27.9608 27.6494H28.0711C28.8661 27.6494 29.5105 27.0343 29.5105 26.2758V20.9395C29.5105 20.7956 29.4961 20.6549 29.4706 20.5173Z" fill="#F9A7A7"/>
<path d="M28.0711 28.0565H27.9608C27.3232 28.0565 26.7251 27.7349 26.3899 27.2144C26.3188 27.1337 26.2609 27.0562 26.2141 26.9771L25.1322 25.1622C25.1286 25.1566 25.1246 25.1514 25.1191 25.1467C24.6916 25.3152 24.2158 25.4369 23.7024 25.5089C23.2689 25.5768 22.8075 25.6023 22.3808 25.5852C22.3804 25.586 22.3005 25.5856 22.2741 25.5848C21.6641 25.543 20.6022 25.4162 19.885 25.0286L19.5878 25.0926C19.0477 25.2023 18.5223 25.2572 18.0213 25.2572C16.0649 25.2572 14.8631 24.4565 14.3178 23.9762C13.2068 24.2076 12.182 24.0013 12.1361 23.9917C12.1157 23.9873 12.0957 23.9818 12.0765 23.975C10.198 23.7707 8.79454 22.3243 8.79454 20.5702C8.79454 19.451 9.37543 18.4229 10.3602 17.7784C10.5065 16.0112 12.1229 14.6094 14.0745 14.6094C14.0873 14.6094 14.1009 14.6094 14.1141 14.6098C14.7661 13.4938 16.0082 12.8064 17.3913 12.8064C17.901 12.8064 18.3944 12.9002 18.8611 13.0863C19.4619 12.7316 20.1491 12.5452 20.8642 12.5452C22.2921 12.5452 23.5689 13.2815 24.1966 14.4432C25.9736 14.4499 27.4666 15.5822 27.8242 17.167C28.4298 17.559 29.7518 18.6213 29.8781 20.4732C29.9052 20.6294 29.9192 20.7865 29.9192 20.9395V26.2758C29.9196 27.2574 29.0902 28.0565 28.0711 28.0565ZM25.1067 24.3042C25.1262 24.3042 25.1462 24.3054 25.1658 24.3082C25.4503 24.3499 25.6944 24.5097 25.8358 24.7471L26.9181 26.562C26.9424 26.603 26.9748 26.6451 27.0207 26.6948C27.0383 26.7139 27.0539 26.735 27.0675 26.7572C27.2509 27.0562 27.5928 27.2423 27.9604 27.2423H28.0707C28.6388 27.2423 29.101 26.8085 29.101 26.2754V20.9391C29.101 20.8258 29.0898 20.7089 29.0682 20.5913C29.0639 20.5678 29.0615 20.5443 29.0615 20.5213C28.9464 18.8841 27.6468 18.0023 27.2501 17.7701C27.1454 17.7089 27.0735 17.6047 27.0535 17.4854C26.843 16.2152 25.6085 15.2574 24.1814 15.2574C24.1215 15.2574 24.0627 15.2614 24.004 15.2654L23.9725 15.2674C23.8023 15.2761 23.6397 15.1807 23.5709 15.0228C23.1303 14.0122 22.0684 13.3594 20.8646 13.3594C20.2362 13.3594 19.6349 13.5403 19.1272 13.8822C19.0077 13.9625 18.8547 13.9744 18.7244 13.914C18.3062 13.7192 17.8575 13.6202 17.3917 13.6202C16.279 13.6202 15.2491 14.207 14.7685 15.1147C14.7453 15.1584 14.7141 15.1974 14.677 15.23C14.6358 15.2662 14.6035 15.2964 14.5791 15.3194C14.4968 15.3986 14.3849 15.4399 14.2707 15.4327L14.2263 15.43C14.1764 15.4268 14.126 15.4232 14.0745 15.4232C12.4856 15.4232 11.182 16.5865 11.168 18.0158C11.1665 18.1601 11.0885 18.2929 10.9631 18.3649C10.1173 18.8495 9.61274 19.6737 9.61274 20.5698C9.61274 21.9299 10.7474 23.0491 12.2519 23.1731C12.3007 23.1775 12.347 23.1898 12.3894 23.2093C12.657 23.2514 13.5016 23.354 14.3338 23.1357C14.4752 23.0988 14.6246 23.1393 14.7277 23.2419C15.0893 23.6029 16.1336 24.4426 18.0213 24.4426C18.4676 24.4426 18.9378 24.3929 19.4192 24.2955L19.8679 24.1984C19.9745 24.1754 20.086 24.1957 20.1775 24.2545C20.5782 24.5129 21.3764 24.7062 22.3133 24.7714C22.3193 24.771 22.3956 24.771 22.3956 24.771C22.4899 24.7745 22.5686 24.7761 22.6493 24.7761C22.9593 24.7761 23.2729 24.7515 23.5817 24.7034C24.0895 24.6322 24.5454 24.5094 24.9433 24.3376C24.9952 24.3153 25.0507 24.3042 25.1067 24.3042Z" fill="#3762CC"/>
<path d="M44.3768 0.528442H30.081C28.656 0.528442 27.501 1.67783 27.501 3.09558V14.5906L24.9489 21.4842C24.7587 21.9982 25.2605 22.4976 25.7771 22.3083L32.375 19.8895H44.3768C45.8015 19.8895 46.9565 18.7401 46.9565 17.3224V3.09558C46.9565 1.67783 45.8015 0.528442 44.3768 0.528442Z" fill="#E0EBFC"/>
<path d="M25.5497 22.7564C25.2765 22.7564 25.0116 22.6499 24.8086 22.4479C24.5146 22.1549 24.4211 21.7319 24.5649 21.3434L27.0923 14.5183V3.09559C27.0923 1.4556 28.433 0.121338 30.081 0.121338H44.3768C46.0248 0.121338 47.3656 1.4556 47.3656 3.09559V17.3224C47.3656 18.9624 46.0248 20.2962 44.3768 20.2962H32.4481L25.9185 22.6904C25.797 22.7349 25.6728 22.7564 25.5497 22.7564ZM30.081 0.935569C28.8837 0.935569 27.9105 1.90446 27.9105 3.09559V14.5906C27.9105 14.6388 27.9017 14.6865 27.8853 14.7314L25.3332 21.6249C25.2861 21.7521 25.3552 21.84 25.3875 21.8718C25.4195 21.904 25.5086 21.9732 25.6356 21.9263L32.234 19.507C32.2795 19.4903 32.3271 19.482 32.3754 19.482H44.3768C45.5738 19.482 46.5474 18.5131 46.5474 17.322V3.09519C46.5474 1.90446 45.5738 0.935172 44.3768 0.935172H30.081V0.935569Z" fill="#3762CC"/>
<path d="M42.5351 7.83028H42.4591C42.4755 7.71061 42.4843 7.58895 42.4843 7.46451C42.4843 5.9581 41.257 4.73715 39.7433 4.73715C39.5411 4.73715 39.3445 4.75941 39.1544 4.80076C38.7229 3.85811 37.7685 3.20251 36.6598 3.20251C35.1457 3.20251 33.9187 4.42386 33.9187 5.93027C33.9187 5.99826 33.9219 6.06545 33.9271 6.13264C33.6071 6.00263 33.2576 5.93027 32.8908 5.93027C31.4573 5.93027 30.2816 7.02559 30.1605 8.42067H30.1601C30.1601 8.42067 30.1441 8.54511 30.1513 8.74311C30.1569 8.92201 30.1793 9.09695 30.2181 9.26592C30.3743 9.97877 30.8669 10.9504 32.3511 11.3858H42.5351C43.5215 11.3858 44.3213 10.5898 44.3213 9.60823C44.3213 8.62622 43.5219 7.83028 42.5351 7.83028Z" fill="#4671C6"/>
<path d="M34.9599 15.3488C34.87 15.3488 34.7785 15.329 34.6918 15.2872C34.387 15.1393 34.2603 14.7739 34.4086 14.4706L35.9223 11.3735H34.9603C34.7489 11.3735 34.5524 11.2654 34.4401 11.0868C34.3279 10.9087 34.3159 10.6853 34.4082 10.4964L36.3514 6.51315C36.4996 6.2098 36.8664 6.08298 37.1716 6.23048C37.4764 6.37798 37.6035 6.74335 37.4556 7.0467L35.9403 10.1521H36.9035C37.1153 10.1521 37.3118 10.2607 37.4237 10.4392C37.5359 10.6173 37.5479 10.8407 37.4552 11.03L35.512 15.0049C35.4061 15.2224 35.1876 15.3488 34.9599 15.3488Z" fill="#FFEA92"/>
<path d="M38.8739 17.3641C38.784 17.3641 38.6925 17.3446 38.6058 17.3024C38.301 17.1549 38.1743 16.7896 38.3226 16.4862L39.8363 13.3891H38.8743C38.6629 13.3891 38.4664 13.281 38.3541 13.1025C38.2419 12.9244 38.2299 12.7009 38.3222 12.5117L40.2654 8.52878C40.4136 8.22543 40.7804 8.0986 41.0856 8.2461C41.3904 8.3936 41.5179 8.75897 41.3696 9.06232L39.8543 12.1678H40.8175C41.0293 12.1678 41.2258 12.2763 41.3377 12.4548C41.4503 12.6329 41.4619 12.8564 41.3692 13.0456L39.426 17.0206C39.3201 17.238 39.1012 17.3641 38.8739 17.3641Z" fill="#FFEA92"/>
<path d="M17.2562 18.2615C17.2463 18.2615 17.2363 18.2611 17.2259 18.2607C16.0561 18.1748 15.1792 17.7804 14.6198 17.0878C13.832 16.1126 13.9942 14.9175 14.0018 14.867C14.0342 14.6443 14.2435 14.4905 14.4648 14.5219C14.6882 14.5541 14.8432 14.7592 14.8116 14.9815C14.81 14.9946 14.6982 15.8915 15.2631 16.5845C15.675 17.0894 16.3557 17.3804 17.2862 17.4484C17.5115 17.4651 17.6809 17.6603 17.6641 17.8846C17.6482 18.0985 17.4688 18.2615 17.2562 18.2615Z" fill="#3762CC"/>
<path d="M14.4373 23.9364C14.333 23.9364 14.2287 23.897 14.1492 23.8175C13.6195 23.2915 12.8436 21.9135 13.6986 20.4644C13.8128 20.2704 14.0633 20.2052 14.2583 20.3193C14.4533 20.433 14.5184 20.6826 14.4041 20.8767C13.6594 22.1386 14.6846 23.1981 14.7285 23.243C14.8863 23.4025 14.8859 23.6601 14.7257 23.8179C14.6462 23.897 14.5416 23.9364 14.4373 23.9364Z" fill="#3762CC"/>
<path d="M19.947 25.0078C19.7652 25.0078 19.5994 24.8862 19.551 24.7033C19.4943 24.4854 19.6253 24.2632 19.8443 24.2067C21.2677 23.8382 21.2957 22.3675 21.2961 22.3051C21.2981 22.0817 21.4807 21.9004 21.7052 21.9004H21.7068C21.9321 21.9012 22.1143 22.0821 22.1143 22.3063C22.1151 23.051 21.6848 24.5713 20.0504 24.9947C20.0157 25.0035 19.9809 25.0078 19.947 25.0078Z" fill="#3762CC"/>
<path d="M22.0756 18.6928C21.9214 18.6928 21.7739 18.6061 21.7048 18.4578C21.2702 17.5315 21.2314 16.7081 21.5898 16.0104C22.2154 14.7926 23.8238 14.4738 23.8918 14.4606C24.1155 14.4177 24.3284 14.5632 24.3708 14.7839C24.4131 15.0041 24.2681 15.2172 24.0468 15.2598C24.0312 15.2629 22.7571 15.5218 22.3169 16.3837C22.0812 16.8457 22.1247 17.4277 22.4463 18.1135C22.5418 18.3175 22.4531 18.5596 22.2486 18.6546C22.1922 18.6805 22.1335 18.6928 22.0756 18.6928Z" fill="#3762CC"/>
</g>
<defs>
<clipPath id="clip0_22_656">
<rect width="50" height="49.7573" fill="white" transform="translate(0 0.121338)"/>
</clipPath>
</defs>
</svg>
