<svg width="30" height="30" viewBox="0 0 30 30" fill="none" xmlns="http://www.w3.org/2000/svg">
<g clip-path="url(#clip0_4_54)">
<path d="M0.518703 13.9955L7.85495 17.6517C8.1387 17.7917 8.4737 17.7817 8.74495 17.623L15.275 13.8267L11.3225 17.3292C11.1212 17.508 11.0062 17.763 11.0062 18.0317V26.563C11.0062 27.463 12.155 27.8417 12.6937 27.1267L15.865 22.9105L23.7075 27.3767C24.2575 27.693 24.9625 27.3755 25.09 26.7467L29.9812 2.37173C30.1275 1.63923 29.3987 1.04173 28.7212 1.31423L0.596203 12.283C-0.158797 12.578 -0.207547 13.6342 0.518703 13.9955ZM27.8062 3.68423L23.5075 25.1055L16.0762 20.873C15.6712 20.6417 15.15 20.7442 14.8625 21.1242L12.8812 23.758V18.453L23.57 8.98298C24.4162 8.23423 23.4437 6.90298 22.4775 7.47048L8.23995 15.748L3.24995 13.2617L27.8062 3.68423Z" fill="black"/>
</g>
<defs>
<clipPath id="clip0_4_54">
<rect width="30" height="30" fill="white"/>
</clipPath>
</defs>
</svg>
