<svg width="30" height="30" viewBox="0 0 30 30" fill="none" xmlns="http://www.w3.org/2000/svg">
<g clip-path="url(#clip0_4_48)">
<path d="M7.91021 25.4721C7.87146 27.3033 7.65521 29.3958 9.24896 29.9008C10.8115 30.4096 11.7177 29.1533 13.7552 26.6033C21.3527 27.1221 28.059 24.9858 28.9565 17.3271C29.7602 10.5183 28.7215 5.42459 26.0477 3.00084C22.1265 -0.756665 9.36271 -1.28291 4.69021 3.18334C2.76646 5.18459 1.82896 8.12084 1.74146 12.4246C1.67021 15.9396 1.52521 23.1271 7.91021 25.4721ZM3.61646 12.4633C3.69396 8.65959 4.46396 6.12334 6.01271 4.51084C9.91396 0.783335 21.4752 1.21459 24.769 4.37459C26.9677 6.36584 27.8165 11.0071 27.0952 17.1083C26.4402 22.7033 22.8377 23.6583 21.4815 24.0171C18.6727 24.7583 15.9952 24.9196 13.4265 24.6971C12.7502 24.6246 12.484 25.2646 12.2377 25.4971C11.014 26.9683 10.1315 28.0308 9.90271 28.1733C9.73396 27.9221 9.76021 26.7333 9.78021 25.7783C9.71896 25.3483 10.104 24.1596 9.10021 23.8908C3.41896 22.2133 3.54771 15.8721 3.61646 12.4633Z" fill="black"/>
<path d="M7.20236 9.9751C8.20361 11.9713 9.17988 15.4988 12.9286 18.5689C14.2299 19.6414 18.1249 22.1164 19.6499 22.1164C21.8286 22.1164 24.3174 18.6889 22.4949 17.1601C21.6749 16.3589 20.5211 15.5701 19.7811 15.1363C19.7799 15.1351 19.7786 15.1351 19.7786 15.1351C17.8574 14.0238 16.8049 16.0689 16.6799 16.1489C13.8649 18.6689 10.3974 14.2914 12.8274 12.1738C13.1261 11.8026 14.9086 10.9426 13.8511 8.9876C12.9136 7.29135 12.2949 6.7076 11.9449 6.22385C10.0986 3.91885 6.10361 7.7476 7.20236 9.9751ZM18.6699 16.6913C18.7974 16.7713 19.9086 17.2576 21.2349 18.5489C21.4036 18.6901 20.2786 20.3251 19.5624 20.2314C19.4211 20.1676 18.3999 19.9239 16.2061 18.5826C18.2886 17.8751 18.2711 16.7663 18.6699 16.6913ZM10.3374 7.4101C10.4149 7.36885 10.4549 7.36635 10.4511 7.35635C10.8111 7.8576 11.3486 8.3351 12.2061 9.88635C12.4336 10.3076 11.8724 10.4713 11.5099 10.8413C10.9936 11.2988 10.6149 11.8438 10.3824 12.4451C9.61486 10.9963 9.27111 9.9526 8.92111 9.2226C8.78111 8.5576 9.74237 7.7501 10.3374 7.4101Z" fill="black"/>
<path d="M16.0152 10.6873C16.0289 10.6885 17.3889 10.8623 17.6327 12.326C17.8389 13.5685 19.6839 13.2348 19.4814 12.0185C19.1027 9.74477 17.1889 8.93477 16.2277 8.82477C14.9964 8.68602 14.7852 10.5448 16.0152 10.6873Z" fill="black"/>
<path d="M15.0388 6.64499C15.0601 6.64499 18.0113 6.59249 19.9326 8.64749C21.8301 10.6775 21.4113 13.6287 21.4076 13.655C21.2163 14.8712 23.0638 15.1937 23.2588 13.9462C23.2838 13.79 23.8351 10.0762 21.3026 7.36624C18.7888 4.67624 15.1326 4.75999 14.9813 4.76999C13.7001 4.81249 13.8551 6.74249 15.0388 6.64499Z" fill="black"/>
</g>
<defs>
<clipPath id="clip0_4_48">
<rect width="30" height="30" fill="white"/>
</clipPath>
</defs>
</svg>
