<svg width="30" height="30" viewBox="0 0 30 30" fill="none" xmlns="http://www.w3.org/2000/svg">
<g clip-path="url(#clip0_4_44)">
<path d="M16.6627 22.595C21.7252 23.8 23.5065 19.47 22.614 17.8538C22.2565 17.2088 19.044 15.97 18.8877 15.91C17.5077 15.4075 16.9977 16.345 16.0415 17.5788C14.2052 16.66 12.974 15.9363 11.709 13.8788C11.7802 13.79 11.8752 13.685 11.9465 13.605C12.389 13.11 13.2177 12.1875 12.6527 11.0588C12.1777 10.1125 11.9415 9.4525 11.7677 8.96875C11.264 7.5675 10.8802 7.1875 9.14524 7.1875C7.33899 7.1875 5.93774 9.56125 5.93774 11.605C5.93774 16.0663 11.9352 21.4663 16.6627 22.595ZM9.14524 9.0625C9.52024 9.0625 9.71024 9.075 9.80524 9.09C10.0077 9.51875 10.2127 10.4137 10.9677 11.8063C10.8502 12.245 9.18149 13.2738 9.95524 14.6038C11.5365 17.2888 13.119 18.22 15.3865 19.3475C16.8965 20.03 17.379 18.7938 18.3365 17.7075C18.7802 17.8875 20.2777 18.55 20.9352 18.8825C20.8765 20.1775 19.6265 21.3725 17.0977 20.77C12.7577 19.7338 7.81149 14.8513 7.81149 11.6038C7.81274 10.3688 8.67899 9.0625 9.14524 9.0625Z" fill="black"/>
<path d="M0.103599 28.8563C-0.0601514 29.4488 0.383599 30.0425 1.00735 30.0425C1.23235 30.0425 0.864849 30.1 8.31735 28.1675C11.3511 29.7125 13.6573 29.6638 15.1298 29.8025C28.3236 29.8025 34.7861 13.7113 25.7061 4.34876C13.2598 -7.68124 -6.1239 7.26876 1.98735 22.0075L0.103599 28.8563ZM24.2136 5.51626C24.4298 5.91126 30.6323 11.505 27.1786 19.8638C25.0523 25.0138 20.1461 28.1875 14.6486 27.89C10.1761 27.6413 9.0186 26.0438 8.19485 26.2625L2.3411 27.7875L3.89735 22.1325C3.96485 21.89 3.9311 21.6313 3.8061 21.4138C-3.67265 8.50876 13.2386 -4.75999 24.2136 5.51626Z" fill="black"/>
</g>
<defs>
<clipPath id="clip0_4_44">
<rect width="30" height="30" fill="white"/>
</clipPath>
</defs>
</svg>
