<svg width="50" height="50" fill="none" xmlns="http://www.w3.org/2000/svg"><g clip-path="url('#clip0_18_348')"><path d="M47.884 28.463c2.05-12.642-6.538-24.552-19.18-26.601C16.062-.188 4.152 8.4 2.103 21.042.053 33.684 8.64 45.594 21.283 47.643c12.642 2.05 24.551-6.538 26.6-19.18Z" fill="#F9A7A7"/><path d="M25 48.728c-13.219 0-23.973-10.755-23.973-23.973C1.027 11.535 11.78.78 25 .78c13.22 0 23.974 10.755 23.974 23.974S38.218 48.728 25 48.728Zm0-46.384c-12.357 0-22.41 10.053-22.41 22.41 0 12.358 10.053 22.412 22.41 22.412 12.358 0 22.411-10.054 22.411-22.411C47.411 12.397 37.358 2.344 25 2.344Z" fill="#E0EBFC"/><path d="M25 43.966c-10.593 0-19.21-8.618-19.21-19.211C5.788 14.162 14.406 5.544 25 5.544s19.211 8.618 19.211 19.21c0 10.594-8.618 19.212-19.211 19.212Zm0-36.86c-9.732 0-17.648 7.917-17.648 17.649 0 9.731 7.917 17.648 17.648 17.648s17.649-7.917 17.649-17.648c0-9.732-7.918-17.649-17.649-17.649Z" fill="#E0EBFC"/><path d="M25 39.204c-7.967 0-14.449-6.482-14.449-14.45 0-7.966 6.482-14.448 14.449-14.448s14.449 6.482 14.449 14.449S32.967 39.204 25 39.204Zm0-27.336c-7.105 0-12.886 5.781-12.886 12.887 0 7.105 5.78 12.886 12.886 12.886 7.105 0 12.886-5.78 12.886-12.886 0-7.106-5.78-12.886-12.886-12.886Z" fill="#E0EBFC"/><path d="M31.635 37.697h-13.27a3.903 3.903 0 0 0-3.903 3.904v6.837h21.076V41.6a3.903 3.903 0 0 0-3.903-3.903Z" fill="#6BDDDD"/><path d="M25 34.435c-5.447 0-9.862-4.416-9.862-9.862v-3.158c0-.898.728-1.626 1.626-1.626h18.098v4.784c0 5.446-4.415 9.862-9.862 9.862Z" fill="#4671C6"/><path d="M25 34.825c-5.653 0-10.253-4.599-10.253-10.252v-3.158c0-1.112.905-2.016 2.017-2.016h18.098a.39.39 0 0 1 .39.39v4.784c0 5.653-4.599 10.252-10.252 10.252ZM16.764 20.18c-.681 0-1.235.554-1.235 1.235v3.158c0 5.222 4.248 9.471 9.471 9.471s9.471-4.249 9.471-9.471V20.18H16.764Z" fill="#3762CC"/><path d="M25 37.133a8.417 8.417 0 0 1-3.903-.953v1.83a3.9 3.9 0 0 0 7.798 0v-1.826a8.415 8.415 0 0 1-3.895.95Z" fill="#F9CFCF"/><path d="M33.4 25.646v-.787c0-4.597-3.761-8.324-8.4-8.324s-8.4 3.727-8.4 8.324v.787a2.547 2.547 0 0 0-2.615 2.537c0 1.5 1.31 2.686 2.838 2.524.866 3.683 4.197 6.426 8.177 6.426 3.98 0 7.311-2.744 8.178-6.426 1.526.161 2.837-1.023 2.837-2.524a2.548 2.548 0 0 0-2.616-2.537Z" fill="#F9CFCF"/><path d="M25 37.524c-3.997 0-7.437-2.62-8.477-6.412a2.97 2.97 0 0 1-1.96-.759 2.926 2.926 0 0 1-.969-2.17c0-.79.312-1.53.879-2.086a2.93 2.93 0 0 1 1.737-.824v-.414c0-4.805 3.943-8.714 8.79-8.714 4.847 0 8.79 3.91 8.79 8.714v.414a2.93 2.93 0 0 1 1.738.824 2.9 2.9 0 0 1 .878 2.086c0 .825-.353 1.616-.97 2.17a2.973 2.973 0 0 1-1.958.759c-1.041 3.792-4.481 6.412-8.478 6.412Zm-8.177-7.207a.39.39 0 0 1 .38.3c.849 3.607 4.055 6.126 7.797 6.126s6.948-2.519 7.797-6.125a.391.391 0 0 1 .422-.3 2.187 2.187 0 0 0 1.695-.546c.452-.406.71-.985.71-1.59 0-.577-.228-1.12-.643-1.527a2.163 2.163 0 0 0-1.573-.618.392.392 0 0 1-.399-.39v-.788c0-4.374-3.593-7.933-8.009-7.933s-8.009 3.56-8.009 7.933v.787a.391.391 0 0 1-.398.39 2.153 2.153 0 0 0-1.573.62c-.415.406-.644.949-.644 1.527a2.16 2.16 0 0 0 2.406 2.136.408.408 0 0 1 .04-.002Z" fill="#3762CC"/><path d="M30.565 23.244h-9.59a4.335 4.335 0 0 1 0-8.67h13.887v4.373a4.297 4.297 0 0 1-4.297 4.297Z" fill="#4671C6"/><path d="M30.565 23.635h-9.59a4.731 4.731 0 0 1-4.726-4.726 4.731 4.731 0 0 1 4.726-4.726h13.887a.39.39 0 0 1 .39.39v4.374a4.693 4.693 0 0 1-4.687 4.688Zm-9.59-8.671a3.949 3.949 0 0 0-3.945 3.944 3.95 3.95 0 0 0 3.945 3.945h9.59a3.91 3.91 0 0 0 3.906-3.906v-3.983H20.975Z" fill="#3762CC"/><path d="M22.719 33.913a.717.717 0 0 1-.51-1.222c.407-.41.946-.725 1.558-.911.37-.112.771-.167 1.23-.167.457 0 .86.055 1.229.167a3.707 3.707 0 0 1 1.557.911.717.717 0 1 1-1.018 1.01 2.275 2.275 0 0 0-.957-.55 2.777 2.777 0 0 0-.811-.104c-.315 0-.58.034-.813.105a2.274 2.274 0 0 0-.956.55.715.715 0 0 1-.51.212Z" fill="#F9A7A7"/><path d="M30.382 28.354c-1.955 0-3.391-1.57-3.46-1.646a.39.39 0 0 1 .581-.522c.016.017 1.642 1.784 3.573 1.3a.39.39 0 0 1 .19.759c-.304.076-.6.109-.884.109Z" fill="#3762CC"/><path d="M28.113 27.2c-.183.199-.296.464-.296.757v1.045a1.12 1.12 0 0 0 2.24 0V27.944c-.773-.078-1.447-.411-1.944-.745ZM19.506 28.355c-.285 0-.58-.033-.884-.109a.391.391 0 0 1 .19-.758c1.93.483 3.556-1.283 3.572-1.302a.391.391 0 0 1 .58.523c-.068.077-1.504 1.646-3.458 1.646Z" fill="#3762CC"/><path d="M21.774 27.2c.184.199.296.464.296.757v1.045a1.12 1.12 0 0 1-2.24 0V27.944c.773-.078 1.447-.411 1.944-.745ZM35.538 48.828H14.462a.39.39 0 0 1-.39-.39V41.6a4.298 4.298 0 0 1 4.293-4.293h2.341V36.18a.39.39 0 0 1 .572-.347 8.08 8.08 0 0 0 7.437.004.392.392 0 0 1 .57.347v1.123h2.35a4.298 4.298 0 0 1 4.293 4.293v6.837a.39.39 0 0 1-.39.391Zm-20.686-.781h20.296V41.6a3.516 3.516 0 0 0-3.513-3.512h-2.74a.39.39 0 0 1-.39-.39V36.8a8.88 8.88 0 0 1-3.505.723c-1.207 0-2.41-.25-3.512-.726v.9a.39.39 0 0 1-.39.39h-2.733a3.516 3.516 0 0 0-3.512 3.512v6.447Z" fill="#3762CC"/><path d="M30.37 6.105a6.887 6.887 0 0 0-1.274-1.087 7.23 7.23 0 0 0-3.964-1.198v.003a7.242 7.242 0 0 0-4.228 1.195c-.48.319-.905.685-1.273 1.087 0 0-.813.843-1.415 1.837l1.66 1.668a6.695 6.695 0 0 0 .312.304c1.348 1.23 3.138 1.87 4.944 1.847v-.001c1.716-.04 3.398-.676 4.68-1.847v.001l.003-.003c.106-.097.21-.197.31-.301l1.66-1.668c-.603-.994-1.415-1.837-1.415-1.837Z" fill="#E0EBFC"/><path d="M25.091 11.596a3.806 3.806 0 1 0 0-7.61 3.806 3.806 0 0 0 0 7.61Z" fill="#4671C6"/><path d="M25.088 9.86a2.07 2.07 0 0 1-1.956-2.734 2.07 2.07 0 0 1 2.624-1.294c.522.177.944.548 1.189 1.044a2.07 2.07 0 0 1-1.857 2.983Z" fill="#A4C9FF"/><path d="M25.04 12.153c-1.917 0-3.726-.688-5.105-1.941a7.186 7.186 0 0 1-.34-.33l-1.656-1.665a.39.39 0 0 1-.057-.478 12.252 12.252 0 0 1 1.471-1.91 7.291 7.291 0 0 1 1.335-1.137 7.579 7.579 0 0 1 4.405-1.26 7.61 7.61 0 0 1 4.22 1.261 7.3 7.3 0 0 1 1.338 1.141c.034.036.85.886 1.467 1.905a.39.39 0 0 1-.057.478l-1.66 1.668a6.96 6.96 0 0 1-.323.314 7.575 7.575 0 0 1-5.037 1.954Zm-4.585-2.525c1.218 1.11 2.886 1.743 4.59 1.743h.047a.318.318 0 0 1 .03-.002c1.666-.04 3.238-.659 4.426-1.744l.004-.003c.103-.094.201-.19.291-.283l1.445-1.452a11.99 11.99 0 0 0-1.2-1.511l-.007-.007a6.53 6.53 0 0 0-1.2-1.026 6.833 6.833 0 0 0-3.704-1.133.31.31 0 0 1-.057.003 6.826 6.826 0 0 0-4 1.13 6.503 6.503 0 0 0-1.218 1.043c-.083.088-.68.727-1.19 1.5l1.44 1.448c.096.1.194.195.296.288l.007.006Z" fill="#3762CC"/><path d="M12.126 21.85a4.68 4.68 0 0 0-.866-.739 4.919 4.919 0 0 0-2.695-.814v.002c-.992-.03-2 .232-2.876.812a4.685 4.685 0 0 0-.866.74s-.552.573-.961 1.248l1.128 1.135c.068.07.139.139.21.205l.002.002c.917.836 2.134 1.27 3.362 1.256v-.001a4.896 4.896 0 0 0 3.183-1.256l.002-.001c.072-.066.142-.134.21-.205l1.129-1.135c-.41-.675-.962-1.248-.962-1.248Z" fill="#E0EBFC"/><path d="M8.537 25.585a2.588 2.588 0 1 0 0-5.176 2.588 2.588 0 0 0 0 5.176Z" fill="#4671C6"/><path d="M8.535 24.404a1.408 1.408 0 0 1 .004-2.814 1.4 1.4 0 0 1 1.259.785 1.408 1.408 0 0 1-1.263 2.028Z" fill="#A4C9FF"/><path d="M8.503 26.088a5.258 5.258 0 0 1-3.794-1.583l-1.124-1.13a.39.39 0 0 1-.057-.478 8.481 8.481 0 0 1 1.015-1.317l.004-.005c.274-.297.586-.563.927-.789a5.292 5.292 0 0 1 3.093-.88 5.296 5.296 0 0 1 2.91.88c.342.228.655.494.93.794.025.025.588.613 1.015 1.317a.39.39 0 0 1-.057.478l-1.128 1.135c-.067.07-.14.14-.215.21l-.019.016a5.27 5.27 0 0 1-3.395 1.35c-.035.003-.07.002-.105.002ZM5.47 24.157c.81.737 1.926 1.154 3.058 1.15a4.492 4.492 0 0 0 2.95-1.15l.007-.007c.066-.06.13-.122.192-.187l.912-.916a8.108 8.108 0 0 0-.752-.932 4.303 4.303 0 0 0-.793-.678 4.519 4.519 0 0 0-2.492-.748 4.532 4.532 0 0 0-2.647.748 4.282 4.282 0 0 0-.81.695 8.161 8.161 0 0 0-.735.915l.906.912a4.108 4.108 0 0 0 .204.198Z" fill="#3762CC"/><path d="M45.176 21.85a4.68 4.68 0 0 0-.866-.739 4.919 4.919 0 0 0-2.695-.814v.002c-.992-.03-2 .232-2.876.813a4.684 4.684 0 0 0-.866.739s-.552.573-.962 1.249l1.129 1.134c.068.071.139.139.21.205l.002.002c.917.836 2.134 1.27 3.362 1.256v-.001a4.895 4.895 0 0 0 3.183-1.256l.002-.001c.072-.066.142-.134.21-.205l1.129-1.134c-.41-.676-.962-1.25-.962-1.25Z" fill="#E0EBFC"/><path d="M41.587 25.585a2.588 2.588 0 1 0 0-5.176 2.588 2.588 0 0 0 0 5.176Z" fill="#4671C6"/><path d="M41.585 24.404a1.408 1.408 0 0 1 .004-2.814 1.4 1.4 0 0 1 1.258.785 1.408 1.408 0 0 1-1.262 2.028Z" fill="#A4C9FF"/><path d="M41.553 26.088a5.257 5.257 0 0 1-3.563-1.358l-.003-.003a5.165 5.165 0 0 1-.228-.222l-1.124-1.13a.39.39 0 0 1-.057-.478 8.496 8.496 0 0 1 1.014-1.317c.27-.295.586-.565.932-.794a5.285 5.285 0 0 1 3.06-.879c.011 0 .022-.002.033 0a5.299 5.299 0 0 1 2.91.88c.342.227.655.493.93.793.024.024.588.612 1.015 1.317a.39.39 0 0 1-.057.478l-1.128 1.134c-.067.07-.139.14-.213.208l-.013.012a5.27 5.27 0 0 1-3.403 1.356c-.035.004-.07.003-.105.003Zm-3.029-1.928c.805.73 1.907 1.147 3.032 1.147h.023a4.492 4.492 0 0 0 3.15-1.344l.91-.916a8.09 8.09 0 0 0-.744-.925l-.007-.007a4.297 4.297 0 0 0-.793-.678 4.519 4.519 0 0 0-2.444-.75c-.016.002-.032.003-.048.002a4.545 4.545 0 0 0-2.647.748 4.28 4.28 0 0 0-.804.688c-.02.02-.398.419-.742.922l.907.912a4.335 4.335 0 0 0 .207.2Z" fill="#3762CC"/></g><defs><clipPath id="clip0_18_348"><path fill="#fff" d="M0 0h50v50H0z"/></clipPath></defs></svg>