<svg width="50" height="51" fill="none" xmlns="http://www.w3.org/2000/svg"><g clip-path="url('#clip0_102_106')"><path d="M6.482 40.165h2.79v7.268h-2.79v-7.268Z" fill="#FFDBB5"/><path d="M9.272 40.165h2.79v7.268h-2.79v-7.268Z" fill="#FFD1A1"/><path d="M6.064 49.365h3.213v-2.434H6.064a1.217 1.217 0 1 0 0 2.434ZM12.49 49.365H9.278v-2.434h3.214a1.217 1.217 0 1 1 0 2.434ZM6.482 33.947h5.58v6.81h-5.58v-6.81Z" fill="#CF8230"/><path d="M9.272 13.012a3.5 3.5 0 0 0-3.501 3.5v4.489a3.489 3.489 0 0 0 3.496 3.482h.01A3.489 3.489 0 0 0 12.773 21v-4.488c0-1.934-1.567-3.501-3.501-3.501Z" fill="#FFDBB5"/><path d="M9.272 13.012c-.532 0-1.035.119-1.487.33a3.5 3.5 0 0 1 2.015 3.17v4.489a3.48 3.48 0 0 1-2.015 3.153c.45.21.952.329 1.482.329h.01A3.489 3.489 0 0 0 12.773 21v-4.488a3.501 3.501 0 0 0-3.501-3.501Z" fill="#FFD1A1"/><path d="M13.963 33.947H4.58v-6.24a3.23 3.23 0 0 1 3.23-3.23h2.921a3.23 3.23 0 0 1 3.23 3.23v6.24Z" fill="#2AE88F"/><path d="M5.794 36.795h-.005c-.667 0-1.208-.541-1.208-1.209v-7.289h2.421v7.29c0 .667-.54 1.208-1.208 1.208ZM12.755 36.795h-.005c-.667 0-1.208-.541-1.208-1.209v-7.289h2.421v7.29c0 .667-.541 1.208-1.208 1.208Z" fill="#FFDBB5"/><path d="M10.015 40.757v-3.59a.743.743 0 1 0-1.486 0v3.59h1.486Z" fill="#B5630B"/><path d="M12.773 18.058h-1.231l-1.172-1.25-1.098 1.25h-3.48v-1.56a3.485 3.485 0 0 1 3.485-3.486h.01a3.485 3.485 0 0 1 3.486 3.485v1.561Z" fill="#CF8230"/><path d="M9.288 13.012h-.011a3.47 3.47 0 0 0-1.481.33A3.485 3.485 0 0 1 9.8 16.497v.96l.57-.649 1.171 1.25h1.232v-1.56a3.485 3.485 0 0 0-3.485-3.486Z" fill="#C7751E"/><path d="m27.054 7.756-9.701-.145V3.93c0-2.11 1.71-3.821 3.82-3.821h2.06a3.82 3.82 0 0 1 3.82 3.82v3.827Z" fill="#5D76CF"/><path d="M23.233.109h-2.06c-.154 0-.306.01-.456.028A3.82 3.82 0 0 1 24.08 3.93V9.19h2.973V3.93A3.82 3.82 0 0 0 23.233.109Z" fill="#4D69CF"/><path d="M17.352 7.611v2.105c0 2.664 2.17 4.824 4.844 4.824h.014c2.675 0 4.844-2.16 4.844-4.824V4.497h-1.967c-.85 0-1.663.39-2.164 1.078-.655.9-2.159 2.036-5.57 2.036Z" fill="#FFDBB5"/><path d="M25.087 4.497c-.348 0-.69.067-1.006.191v5.028a4.828 4.828 0 0 1-3.364 4.594c.466.149.963.23 1.48.23h.013c2.675 0 4.844-2.16 4.844-4.824V4.497h-1.967Z" fill="#FFD1A1"/><path d="M22.203 27.388H18.92v19.543h6.566V27.389h-3.283Z" fill="#A6D4FF"/><path d="M27.723 27.388h-11.04v-9.036c0-2.1 1.703-3.801 3.802-3.801h3.437c2.099 0 3.8 1.702 3.8 3.8v9.037Z" fill="#FFD52B"/><path d="M18.111 31.382h-.006a1.422 1.422 0 0 1-1.421-1.422V19.69h2.849v10.27c0 .785-.637 1.422-1.422 1.422ZM26.301 31.382h-.005a1.422 1.422 0 0 1-1.422-1.422V19.69h2.849v10.27c0 .785-.637 1.422-1.422 1.422Z" fill="#FFDBB5"/><path d="M18.227 49.365h3.976v-2.434h-3.976a1.217 1.217 0 0 0 0 2.434ZM26.18 49.365h-3.977v-2.434h3.976a1.217 1.217 0 0 1 0 2.434Z" fill="#5D76CF"/><path d="M22.947 46.931V31.887a.743.743 0 1 0-1.487 0v15.044h1.487Z" fill="#79B7F2"/><path d="M36.215 12.2a6.046 6.046 0 1 0 0-12.091 6.046 6.046 0 0 0 0 12.09Z" fill="#5D76CF"/><path d="M36.216.109c-.514 0-1.011.064-1.487.184a6.048 6.048 0 0 1 0 11.722A6.046 6.046 0 1 0 36.216.11Z" fill="#4D69CF"/><path d="M34.92 4.986a2.942 2.942 0 0 0-2.941 2.942v2.399c0 2.326 1.894 4.213 4.23 4.213h.013c2.336 0 4.23-1.886 4.23-4.213V7.928a2.942 2.942 0 0 0-2.942-2.942h-2.59Z" fill="#EDB374"/><path d="M37.51 4.986h-2.589c-.065 0-.129.003-.192.007a2.942 2.942 0 0 1 2.75 2.935v2.399a4.216 4.216 0 0 1-2.75 3.947c.46.172.96.266 1.48.266h.013c2.336 0 4.23-1.886 4.23-4.213V7.928a2.942 2.942 0 0 0-2.942-2.942Z" fill="#E3A35D"/><path d="M36.215 27.388h-3.283V46.93H39.5V27.388h-3.284Z" fill="#A6D4FF"/><path d="M41.735 27.388H30.696v-9.036c0-2.1 1.702-3.801 3.801-3.801h3.437c2.1 0 3.801 1.702 3.801 3.8v9.037Z" fill="#FF428E"/><path d="M32.123 31.382h-.005a1.422 1.422 0 0 1-1.422-1.422V19.69h2.849v10.27c0 .785-.637 1.422-1.422 1.422Z" fill="#EDB374"/><path d="M32.24 49.365h5.893v-2.434H32.24a1.217 1.217 0 1 0 0 2.434Z" fill="#FF428E"/><path d="M40.728 32.486a4.56 4.56 0 0 1-4.56-4.559v-3.355a4.552 4.552 0 0 1 4.553-4.553h.014a4.552 4.552 0 0 1 4.552 4.553v3.355a4.56 4.56 0 0 1-4.56 4.56Z" fill="#5D76CF"/><path d="M40.735 20.019h-.014c-.518 0-1.016.088-1.48.247a4.553 4.553 0 0 1 3.073 4.306v3.355a4.56 4.56 0 0 1-3.073 4.31 4.56 4.56 0 0 0 6.046-4.31v-3.356a4.552 4.552 0 0 0-4.552-4.552Z" fill="#4D69CF"/><path d="M37.938 41.023h2.79v6.41h-2.79v-6.41Z" fill="#FFDBB5"/><path d="M40.728 41.023h2.79v6.41h-2.79v-6.41Z" fill="#FFD1A1"/><path d="M38.133 24.585v2.18c0 1.425 1.16 2.58 2.591 2.58h.007c1.431 0 2.591-1.155 2.591-2.58v-2.18h-5.189Z" fill="#FFDBB5"/><path d="M40.728 24.585v2.18c0 .956-.522 1.79-1.298 2.235.381.22.823.346 1.294.346h.007c1.431 0 2.591-1.156 2.591-2.58v-2.181h-2.594Z" fill="#FFD1A1"/><path d="M42.188 29.431h-2.92a3.23 3.23 0 0 0-3.231 3.23v4.26h1.9v4.827h5.581V36.92h1.9v-4.258a3.23 3.23 0 0 0-3.23-3.23Z" fill="#FFD52B"/><path d="M37.25 39.768h-.005a1.208 1.208 0 0 1-1.208-1.209v-5.307h2.421v5.307c0 .668-.541 1.209-1.208 1.209ZM44.21 39.768h-.005a1.208 1.208 0 0 1-1.208-1.209v-5.307h2.422v5.307c0 .668-.541 1.209-1.209 1.209Z" fill="#FFDBB5"/><path d="M37.52 49.365h3.213v-2.434h-3.214a1.217 1.217 0 1 0 0 2.434ZM43.947 49.365h-3.214v-2.434h3.214a1.217 1.217 0 1 1 0 2.434Z" fill="#A6D4FF"/><path d="M48.52 48.622H1.48a.743.743 0 1 0 0 1.487h47.04a.743.743 0 1 0 0-1.487Z" fill="#E9F0F5"/></g><defs><clipPath id="clip0_102_106"><path fill="#fff" transform="translate(0 .109)" d="M0 0h50v50H0z"/></clipPath></defs></svg>