<svg width="50" height="50" fill="none" xmlns="http://www.w3.org/2000/svg"><g clip-path="url('#clip0_22_1496')"><path d="M34.376 7.885c-1.29 1.29-3.647 5.768-3.647 5.768l-.179-.08-7.464-3.368c-1.547-4.407-1.036-8.245.496-8.245 1.507 0 3.138 3.74 3.19 3.856-.021-.141-.86-5.671 1.66-5.671 1.152 0 1.783.865 2.13 1.814.422 1.155.422 2.435.422 2.435s1.91-4.34 4.21-3.701c2.3.638.474 5.901-.818 7.192Z" fill="#95D6A4"/><path d="M30.155 12.066c.273.594.396 1.093.395 1.507l-7.464-3.368c-1.547-4.407-1.036-8.245.496-8.245 1.507 0 3.138 3.74 3.19 3.856-.021-.141-.86-5.671 1.66-5.671 1.152 0 1.783.865 2.13 1.814v.001c-.886-1.816-3.47 3.419-.407 10.106Z" fill="#78C2A4"/><path d="M41.943 24.854C49.216 17.581 52.088 8.66 48.358 4.93c-3.731-3.731-12.652-.86-19.925 6.414-7.273 7.273-10.145 16.194-6.414 19.924 3.73 3.731 12.65.86 19.924-6.414Z" fill="#E49542"/><path d="M22.023 31.268c-3.732-3.731-.859-12.653 6.415-19.927 7.274-7.274 16.196-10.147 19.927-6.416-1.57-1.57-8.74 3.054-16.015 10.328-7.274 7.274-11.898 14.445-10.327 16.015Z" fill="#E28424"/><path d="m44.528 14.245-5.482-5.482a1.617 1.617 0 0 0-2.286 2.287l5.482 5.481a1.617 1.617 0 0 0 2.286-2.286ZM38.26 20.512l-5.48-5.482a1.617 1.617 0 0 0-2.287 2.287l5.481 5.481a1.617 1.617 0 1 0 2.287-2.286Z" fill="#E28424"/><path d="M22.257 12.922c-.069 1.101-.247 3.353-.641 5.452a2.472 2.472 0 0 1-1.482 1.823c-.691.287-1.436.765-1.436 1.483 0 .23.046.435.126.618H8.23c.08-.183.125-.388.125-.618 0-.718-.744-1.196-1.435-1.483a2.469 2.469 0 0 1-1.481-1.823c-.396-2.099-.574-4.35-.642-5.452-.03-.478.077-.955.316-1.37 1.775-3.085 5.365-5.033 5.365-5.033v-4.96h6.1v4.96s3.59 1.948 5.364 5.033c.24.415.346.892.316 1.37Z" fill="#80B4FB"/><path d="M10.477 3.143h6.1v1.804h-6.1V3.143Z" fill="#61A2F9"/><path d="M12.185 2.888v3.63s-2.59 1.95-3.64 5.034a3.848 3.848 0 0 0-.188 1.37c.041 1.1.146 3.352.38 5.452.091.819.421 1.502.878 1.823.408.287.849.765.849 1.483 0 .23-.026.435-.075.618H8.23c.08-.183.125-.388.125-.618 0-.718-.744-1.196-1.435-1.483a2.47 2.47 0 0 1-1.481-1.823c-.397-2.099-.574-4.351-.642-5.452-.03-.478.076-.956.316-1.37 1.774-3.085 5.365-5.034 5.365-5.034v-2.83l1.708-.8Z" fill="#61A2F9"/><path d="M15.873.231H11.18c-.734 0-1.328.594-1.328 1.328v2.13H17.2v-2.13C17.2.825 16.606.23 15.873.23Z" fill="#A698FF"/><path d="M13.812.231c-.733 0-1.328.594-1.328 1.327v2.13H9.853v-2.13c0-.733.595-1.327 1.328-1.327h2.631Z" fill="#8673FF"/><path d="M47.128 26.818s-.044 1.467-.19 3.749c-.212 3.294-.634 8.288-1.441 13.019a7.523 7.523 0 0 1-7.411 6.27H11.915a7.523 7.523 0 0 1-7.412-6.27c-.807-4.73-1.23-9.724-1.44-13.02-.146-2.28-.19-3.748-.19-3.748h44.255Z" fill="#A698FF"/><path d="M47.128 26.818s-.045 1.467-.19 3.749c-.233.05-.472.078-.717.083-14.148.272-28.294.272-42.442 0a3.754 3.754 0 0 1-.717-.083c-.145-2.282-.19-3.749-.19-3.749h44.256Z" fill="#8673FF"/><path d="M15.148 49.856h-3.233a7.523 7.523 0 0 1-7.412-6.27c-1.365-8.005-1.63-16.768-1.63-16.768H8.34s.2 8.763 1.228 16.768c.464 3.618 2.816 6.27 5.58 6.27Z" fill="#8673FF"/><path d="M31.765 10.672a80.924 80.924 0 0 0-15.324-.194c-.678.056-.931.546-1.61.619-.636 5.655-1.061 10.886-.425 16.542a80.961 80.961 0 0 0 17.359 0 75.63 75.63 0 0 0 0-16.967Z" fill="#EDEDED"/><path d="M16.441 27.832a77.705 77.705 0 0 1-2.035-.193 75.59 75.59 0 0 1 0-16.967 86.87 86.87 0 0 1 2.035-.194 80.06 80.06 0 0 0 0 17.355Z" fill="#DBDBDB"/><path d="M46.22 28.608a1104.24 1104.24 0 0 1-42.44 0 3.76 3.76 0 0 1-3.611-3.01 8.288 8.288 0 0 1 0-3.328 3.76 3.76 0 0 1 3.61-3.01c14.148-.272 28.295-.272 42.442 0a3.76 3.76 0 0 1 3.61 3.01 8.288 8.288 0 0 1 0 3.328 3.76 3.76 0 0 1-3.61 3.01Z" fill="#6D6AFF"/><path d="M7.395 28.67c-1.205-.018-2.411-.039-3.616-.062a3.759 3.759 0 0 1-3.61-3.01 8.274 8.274 0 0 1 0-3.328 3.758 3.758 0 0 1 3.61-3.01c1.205-.023 2.411-.044 3.616-.062a3.898 3.898 0 0 0-2.88 3.009 8.57 8.57 0 0 0 0 3.453 3.9 3.9 0 0 0 2.88 3.01Z" fill="#5350FF"/><path d="M15.025 32.903h-.048a2.442 2.442 0 0 0-2.422 2.373c-.06 2.04-.06 4.081 0 6.121a2.442 2.442 0 0 0 2.422 2.373h.048a2.442 2.442 0 0 0 2.422-2.373c.061-2.04.061-4.08 0-6.12a2.442 2.442 0 0 0-2.422-2.374ZM25.024 32.903h-.048a2.442 2.442 0 0 0-2.422 2.373c-.06 2.04-.06 4.081 0 6.121a2.442 2.442 0 0 0 2.422 2.373h.048a2.442 2.442 0 0 0 2.422-2.373c.061-2.04.061-4.08 0-6.12a2.442 2.442 0 0 0-2.422-2.374ZM35.023 32.903h-.048a2.442 2.442 0 0 0-2.422 2.373c-.06 2.04-.06 4.081 0 6.121a2.442 2.442 0 0 0 2.422 2.373h.048a2.442 2.442 0 0 0 2.422-2.373c.061-2.04.061-4.08 0-6.12a2.442 2.442 0 0 0-2.422-2.374Z" fill="#365E7D"/><path d="M12.371 22.603a7.437 7.437 0 0 0-1.663-.605c-1.194-.28-2.41.38-2.858 1.522a369.465 369.465 0 0 0-6.284 17.266c-.391 1.163.116 2.45 1.21 3.003.531.268 1.086.47 1.664.606 1.195.28 2.41-.38 2.858-1.522a369.51 369.51 0 0 0 6.285-17.267c.39-1.163-.116-2.45-1.212-3.003Z" fill="#407093"/><path d="M3.467 44.095a7.283 7.283 0 0 1-.69-.306c-1.096-.553-1.603-1.84-1.212-3.002A370.487 370.487 0 0 1 7.85 23.52c.448-1.142 1.663-1.802 2.858-1.522.246.057.487.128.723.21a2.605 2.605 0 0 0-1.75 1.567 387 387 0 0 0-6.55 17.993 2.603 2.603 0 0 0 .336 2.327Z" fill="#365E7D"/><path d="M39.292 21.997a7.433 7.433 0 0 0-1.663.606c-1.095.553-1.602 1.84-1.211 3.003a369.456 369.456 0 0 0 6.284 17.267c.448 1.142 1.664 1.801 2.858 1.521a7.426 7.426 0 0 0 1.663-.605c1.096-.553 1.603-1.84 1.212-3.003A369.456 369.456 0 0 0 42.15 23.52c-.448-1.142-1.663-1.801-2.858-1.521Z" fill="#407093"/><path d="M46.286 44.185c-.238.082-.48.152-.726.21-1.194.28-2.41-.38-2.858-1.522a370.588 370.588 0 0 1-6.284-17.267c-.391-1.163.116-2.45 1.21-3.003.226-.114.456-.215.69-.304a2.605 2.605 0 0 0-.334 2.326 386.815 386.815 0 0 0 6.548 17.993c.311.792.977 1.362 1.754 1.567Z" fill="#365E7D"/><path d="M17.056 4.421h-7.06a.732.732 0 0 1 0-1.464h7.06a.733.733 0 0 1 0 1.464Z" fill="#A698FF"/><path d="M12.196 4.421h-2.2a.732.732 0 1 1 0-1.464h2.2a.732.732 0 1 0 0 1.464Z" fill="#8673FF"/></g><defs><clipPath id="clip0_22_1496"><path fill="#fff" d="M0 0h50v50H0z"/></clipPath></defs></svg>