<svg width="50" height="50" fill="none" xmlns="http://www.w3.org/2000/svg"><path d="m20.313 17.188 3.906 2.343-.782 3.125H18.75l1.563-5.468Z" fill="#E8C8B3"/><path d="m37.723 5.597-3.934 3.934-3.934-3.934a1.906 1.906 0 1 1 2.695-2.695l1.24 1.239 1.238-1.24a1.906 1.906 0 0 1 2.695 2.696Z" fill="#F16465"/><path d="M20.313 12.5h6.25v4.688a3.125 3.125 0 1 1-6.25 0V12.5Z" fill="#E8C8B3"/><path d="M28.906 10.938a1.563 1.563 0 0 1-1.562 1.562h-3.907l-.78 2.344h-1.563l-.782 3.125a1.563 1.563 0 0 1-1.562-1.563v-4.101a2.93 2.93 0 0 1 2.93-2.93h5.664a1.562 1.562 0 0 1 1.562 1.563Z" fill="#683B0D"/><path d="M27.344 47.656H14.062V27.344a4.688 4.688 0 0 1 4.688-4.688h4.688l.682.41a6.64 6.64 0 0 1 3.224 5.694v18.896Z" fill="#0BAFEA"/><path d="M25 47.656h9.375V28.125A3.125 3.125 0 0 0 31.25 25h-3.906l-3.229 5.166a4.457 4.457 0 0 0 .628 5.515l.257.257v11.718Z" fill="#647BF1"/><path d="M32.031 27.344a2.344 2.344 0 0 1 2.344 2.343v3.907h-4.688v-3.907a2.344 2.344 0 0 1 2.344-2.343Z" fill="#4E68F2"/><path d="M29.688 33.594v4.687L25 42.188l-2.344-.782-2.343 3.125 3.125 3.125 2.343-2.343 8.594-5.47v-6.25h-4.688Z" fill="#F5D3BD"/><path d="M36.523 44.531h-2.148v-4.687h2.148a.976.976 0 0 1 .977.976v2.735a.978.978 0 0 1-.977.976Z" fill="#E8C8B3"/><path d="M28.125 21.094 27.344 25h3.125l.781-3.125-3.125-.781Z" fill="#F5D3BD"/><path d="M28.891 22.348a3.127 3.127 0 0 1-1.766-4.053l1.716-4.365 5.819 2.288-1.716 4.364a3.126 3.126 0 0 1-4.053 1.766Z" fill="#F5D3BD"/><path d="M27.236 11.633a1.563 1.563 0 0 0 .883 2.025l2.908 1.144.883 2.025-2.286 5.817a2.344 2.344 0 0 0 4.363 1.715l2.572-6.544a3.906 3.906 0 0 0-2.207-5.065l-5.09-2a1.562 1.562 0 0 0-2.026.883Z" fill="#EA9D2D"/><path d="M16.406 25a2.343 2.343 0 0 1 2.344 2.344v3.906h-4.688v-3.906A2.343 2.343 0 0 1 16.407 25Z" fill="#0A9ACD"/><path d="M18.75 31.25v5.469L25 42.187l3.125.782.781 2.343-1.562 2.344h-3.907l-2.343-3.125-7.032-6.25V31.25h4.688Z" fill="#E8C8B3"/></svg>