<svg width="50" height="51" fill="none" xmlns="http://www.w3.org/2000/svg"><path d="M37.293 36.715a1.159 1.159 0 0 1 .613-1.275c4.161-2.104 6.914-5.75 6.914-9.896 0-5.162-4.265-9.548-10.204-11.148-7.605.352-13.633 5.258-13.633 11.258 0 6.23 6.496 11.28 14.508 11.28h.06c.395-.002.762.205.96.547.172.3.345.55.557.81l.52-.488a15.664 15.664 0 0 1-.295-1.087Z" fill="#FFE07D"/><path d="M43.389 35.117C47.369 33.107 50 29.62 50 25.655c0-6.23-6.496-11.28-14.508-11.28-1.089 0-2.149.094-3.169.271 6.49 1.124 11.34 5.625 11.34 11.008 0 3.965-2.631 7.452-6.61 9.463-.45.228-.691.727-.586 1.22.144.68.358 1.34.602 1.954 2.094 2.593 5.944 3.302 7.541 3.488a.34.34 0 0 0 .327-.522c-.593-.925-1.69-2.834-2.134-4.92a1.108 1.108 0 0 1 .586-1.22Z" fill="#FFD064"/><path d="M15.893 8.64C6.864 9.809 0 15.905 0 23.255c0 3.489 1.552 6.697 4.148 9.228.305.298.422.74.31 1.152-.807 2.959-2.553 5.632-3.604 7.06.349.35.869.467 1.333.3 2.64-.942 3.834-1.951 5.793-4.038a1.705 1.705 0 0 1 1.956-.379c.445.204.902.395 1.369.57a3.955 3.955 0 0 0 1.792.256c.13-.014.265-.005.397.026.797.189 1.567.33 2.405.437l3.629-.117c7.644-2.114 13.117-7.786 13.117-14.454 0-6.875-5.82-12.693-13.838-14.64l-2.914-.014Z" fill="#95D6A4"/><path d="M7.42 36.394c-2.142 2.28-3.37 3.275-6.566 4.3a25.35 25.35 0 0 1-.376.498.366.366 0 0 0 .298.59c2.11-.053 8.027-.525 11.61-4.048.292-.287.71-.4 1.108-.305 0-.002-.002-.004-.003-.005a22.038 22.038 0 0 1-4.12-1.41 1.704 1.704 0 0 0-1.952.38ZM19.06 8.436c-1.08 0-2.137.07-3.168.204 9.02 1.174 15.893 7.269 15.893 14.613 0 7.343-6.87 13.437-15.886 14.612 1.029.134 2.084.206 3.162.206 10.526 0 19.06-6.634 19.06-14.817 0-8.184-8.534-14.818-19.06-14.818Z" fill="#78C2A4"/><path d="M7.32 25.03a1.86 1.86 0 1 0 0-3.72 1.86 1.86 0 0 0 0 3.72ZM14.78 25.03a1.86 1.86 0 1 0 0-3.72 1.86 1.86 0 0 0 0 3.72ZM22.24 25.03a1.86 1.86 0 1 0 0-3.72 1.86 1.86 0 0 0 0 3.72ZM29.7 25.03a1.86 1.86 0 1 0 0-3.72 1.86 1.86 0 0 0 0 3.72Z" fill="#F0F7FF"/></svg>