<svg width="50" height="50" fill="none" xmlns="http://www.w3.org/2000/svg"><path d="M.977 4.883h37.5v33.594H.977V4.883Z" fill="#91DEF5"/><path d="M4.883 8.887H34.57v25.586H4.883V8.887Z" fill="#DFF6FC"/><path d="M19.727 23.73a4.492 4.492 0 0 1-4.493-4.492v-1.953a4.492 4.492 0 1 1 8.985 0v1.953a4.492 4.492 0 0 1-4.492 4.492Z" fill="#FFBF9E"/><path d="M24.098 23.73h-8.743a6.566 6.566 0 0 0-6.566 6.567v4.176h21.875v-4.176a6.566 6.566 0 0 0-6.566-6.567Z" fill="#98A2FF"/><path d="m24.16 23.73-4.433 10.743-4.433-10.742h8.865Z" fill="#fff"/><path d="M38.086 29.639a4.492 4.492 0 0 1-4.492-4.492v-1.954a4.492 4.492 0 1 1 8.984 0v1.953a4.492 4.492 0 0 1-4.492 4.493Z" fill="#8690A6"/><path d="M42.457 29.639h-8.742a6.566 6.566 0 0 0-6.567 6.566v8.912h21.875v-8.912a6.566 6.566 0 0 0-6.566-6.566Z" fill="#7A87FF"/><path d="M42.457 28.662h-.186a5.443 5.443 0 0 0 1.284-3.515v-1.954a5.478 5.478 0 0 0-4.102-5.295V4.883a.977.977 0 0 0-.976-.977H.977A.977.977 0 0 0 0 4.883v33.594c0 .539.437.976.977.976h25.195v5.664c0 .54.437.977.976.977h21.875c.54 0 .977-.438.977-.977v-8.912c0-4.16-3.384-7.543-7.543-7.543Zm-.855-5.469v1.953a3.52 3.52 0 0 1-3.516 3.516 3.52 3.52 0 0 1-3.516-3.515v-1.954a3.52 3.52 0 0 1 3.516-3.515 3.52 3.52 0 0 1 3.516 3.515ZM1.953 37.5V5.86H37.5v11.896a5.427 5.427 0 0 0-1.953.596V8.887a.977.977 0 0 0-.977-.977H24.121a.977.977 0 0 0 0 1.953h9.473V20.08a5.436 5.436 0 0 0-.977 3.113v1.953c0 1.338.484 2.565 1.284 3.516h-.186c-.762 0-1.497.115-2.19.325-.617-3.503-3.658-6.18-7.324-6.23l-.042-.003h-.248a5.443 5.443 0 0 0 1.284-3.516v-1.953a5.475 5.475 0 0 0-5.468-5.469 5.475 5.475 0 0 0-5.47 5.47v1.952c0 1.338.484 2.564 1.285 3.516h-.248l-.042.002c-4.112.056-7.44 3.416-7.44 7.54v3.2H5.86V9.863h9.473a.977.977 0 0 0 0-1.953H4.882a.977.977 0 0 0-.976.977v25.586c0 .539.438.976.977.976H26.21a7.61 7.61 0 0 0-.038.756V37.5H1.953Zm24.724-4.004h-5.491l3.608-8.744a5.598 5.598 0 0 1 4.874 5.093 7.582 7.582 0 0 0-2.991 3.651Zm-12.018-8.744 3.608 8.744H9.766v-3.2c0-2.846 2.139-5.2 4.893-5.544Zm1.552-5.514v-1.953a3.52 3.52 0 0 1 3.516-3.515 3.52 3.52 0 0 1 3.515 3.515v1.953a3.52 3.52 0 0 1-3.515 3.516 3.52 3.52 0 0 1-3.516-3.516Zm6.489 5.469-2.973 7.205-2.974-7.205H22.7Zm25.347 19.434H28.125v-7.936a5.596 5.596 0 0 1 5.59-5.59h8.742a5.596 5.596 0 0 1 5.59 5.59v7.936Z" fill="#5A73B4"/><path d="M19.727 9.863a.983.983 0 0 0 .69-.286.984.984 0 0 0 .286-.69.984.984 0 0 0-.286-.69.983.983 0 0 0-.69-.287.984.984 0 0 0-.69.286.984.984 0 0 0-.287.69c0 .258.104.51.286.691a.984.984 0 0 0 .69.286Z" fill="#4661A7"/></svg>