<svg width="50" height="50" fill="none" xmlns="http://www.w3.org/2000/svg"><path d="m46.875 31.25.781 16.406h-5.468s-2.344-17.187-2.344-18.75c0-.68-.149-2.39-.32-4.11-.72 3.837-1.602 8.313-2.024 9.579-.781 2.344-.781 13.281-.781 13.281H13.28s0-10.937-.781-13.281c-.422-1.266-1.305-5.742-2.023-9.578-.172 1.719-.32 3.43-.32 4.11 0 1.562-2.345 18.75-2.345 18.75H2.345l.781-16.407s-2.344-17.188 0-21.094C5.133 6.805 17.188 7.031 18.75 6.25c1.563-.781 1.563-3.906 1.563-3.906h9.375s0 3.125 1.562 3.906c1.563.781 13.617.555 15.625 3.906 2.344 3.906 0 21.094 0 21.094Z" fill="#F4B19D"/><path d="m8.6 18.898 1.537-.28 1.099 6.042-1.537.28L8.6 18.898ZM38.77 24.645l1.105-6.041 1.536.28-1.105 6.042-1.537-.28Z" fill="#DD9D8E"/><path d="M19.531 17.188H31.25l-3.125 7.03h3.906l-7.812 12.5v-9.374h-3.907l-.78-10.157Z" fill="#5B97F0"/><path d="M31.25 17.188h-1.783a15.625 15.625 0 0 1-9.23 9.181l.076.975h3.906v9.375l7.812-12.5h-3.906l3.125-7.032Z" fill="#387BDF"/></svg>