<svg width="50" height="50" fill="none" xmlns="http://www.w3.org/2000/svg"><path d="M31.23 29.346H14.082a5.043 5.043 0 0 0-5.043 5.043v6.328h4.103v4.713h18.76v-4.713h4.37V34.39a5.043 5.043 0 0 0-5.044-5.043Z" fill="#4671C6"/><path d="M9.04 40.717h4.103v4.713H9.04v-4.713Z" fill="#F9CFCF"/><path d="M13.143 45.82H9.04a.39.39 0 0 1-.39-.39v-4.713a.39.39 0 0 1 .39-.39h4.103a.39.39 0 0 1 .391.39v4.713a.39.39 0 0 1-.39.39Zm-3.712-.78h3.322v-3.932H9.43v3.931Z" fill="#3762CC"/><path d="M31.903 40.717h4.37v4.713h-4.37v-4.713Z" fill="#F9CFCF"/><path d="M36.272 45.82h-4.37a.39.39 0 0 1-.39-.39v-4.713a.39.39 0 0 1 .39-.39h4.37a.39.39 0 0 1 .39.39v4.713a.39.39 0 0 1-.39.39Zm-3.978-.78h3.587v-3.932h-3.587v3.931Z" fill="#3762CC"/><path d="M31.903 41.108a.39.39 0 0 1-.39-.39v-3.33a.39.39 0 0 1 .78 0v3.33a.39.39 0 0 1-.39.39Z" fill="#3762CC"/><path d="M17.614 24.959v4.79a5.038 5.038 0 1 0 10.075 0v-4.79H17.614Z" fill="#F9CFCF"/><path d="M31.903 45.82h-18.76a.39.39 0 0 1-.39-.39v-4.322H9.04a.39.39 0 0 1-.39-.39v-6.33a5.44 5.44 0 0 1 5.433-5.433h3.14V24.96a.39.39 0 0 1 .39-.39H27.69a.39.39 0 0 1 .39.39v3.996h3.15a5.44 5.44 0 0 1 5.434 5.434v6.328a.39.39 0 0 1-.39.39h-3.98v4.323a.39.39 0 0 1-.39.39Zm-18.37-.78h17.98v-4.322a.39.39 0 0 1 .39-.391h3.978v-5.938a4.657 4.657 0 0 0-4.652-4.652h-3.54a.39.39 0 0 1-.39-.391v-3.997h-9.294v3.997a.39.39 0 0 1-.391.39h-3.53A4.658 4.658 0 0 0 9.43 34.39v5.938h3.712a.39.39 0 0 1 .39.39v4.322Z" fill="#3762CC"/><path d="M22.656 25.806c-6.524 0-11.813-5.289-11.813-11.813V9.045a2.97 2.97 0 0 1 2.97-2.97h20.656v7.918c0 6.524-5.289 11.813-11.813 11.813Z" fill="#4671C6"/><path d="M22.656 26.197c-6.73 0-12.203-5.475-12.203-12.204V9.045a3.364 3.364 0 0 1 3.36-3.36h20.656a.39.39 0 0 1 .391.39v7.918c0 6.73-5.475 12.204-12.204 12.204Zm-8.843-19.73a2.582 2.582 0 0 0-2.58 2.578v4.948c0 6.298 5.125 11.422 11.423 11.422 6.299 0 11.423-5.124 11.423-11.422V6.466H13.812Z" fill="#3762CC"/><path d="M32.718 14.791v-.941c0-5.507-4.505-9.971-10.062-9.971-5.556 0-10.061 4.464-10.061 9.97v.942a3.052 3.052 0 0 0-3.133 3.04c0 1.796 1.568 3.216 3.399 3.023 1.038 4.411 5.028 7.698 9.795 7.698s8.757-3.287 9.796-7.698c1.828.193 3.398-1.225 3.398-3.024a3.051 3.051 0 0 0-3.132-3.038Z" fill="#F9CFCF"/><path d="M22.656 28.943c-4.772 0-8.877-3.142-10.095-7.681a3.489 3.489 0 0 1-2.354-.889 3.427 3.427 0 0 1-1.136-2.543c0-.925.366-1.792 1.03-2.443.573-.562 1.309-.9 2.103-.972v-.566c0-5.713 4.689-10.361 10.452-10.361 5.764 0 10.452 4.648 10.452 10.361v.566c.795.072 1.53.41 2.104.972a3.395 3.395 0 0 1 1.03 2.443c0 .967-.414 1.893-1.136 2.543a3.482 3.482 0 0 1-2.327.889h-.027c-1.219 4.539-5.324 7.68-10.096 7.68Zm-9.795-8.48a.39.39 0 0 1 .38.302c1.025 4.355 4.897 7.396 9.415 7.396 4.519 0 8.39-3.041 9.416-7.396a.393.393 0 0 1 .42-.3 2.701 2.701 0 0 0 2.091-.673 2.644 2.644 0 0 0 .877-1.962 2.62 2.62 0 0 0-.795-1.885 2.664 2.664 0 0 0-1.94-.763.411.411 0 0 1-.28-.111.392.392 0 0 1-.118-.28v-.941c0-5.283-4.338-9.58-9.67-9.58-5.333 0-9.672 4.297-9.672 9.58v.942a.39.39 0 0 1-.398.39 2.665 2.665 0 0 0-1.94.763 2.62 2.62 0 0 0-.795 1.885c0 .745.32 1.46.877 1.962a2.702 2.702 0 0 0 2.09.673.425.425 0 0 1 .042-.002Z" fill="#3762CC"/><path d="M34.47 12.858H18.683a6.09 6.09 0 0 1 0-12.179h10.332a5.453 5.453 0 0 1 5.453 5.453v6.726Z" fill="#4671C6"/><path d="M34.47 13.248H18.683a6.487 6.487 0 0 1-6.48-6.48 6.487 6.487 0 0 1 6.48-6.48h10.333a5.85 5.85 0 0 1 5.843 5.844v6.726a.39.39 0 0 1-.39.39ZM18.683 1.07a5.705 5.705 0 0 0-5.698 5.698 5.705 5.705 0 0 0 5.698 5.7H34.08V6.131a5.068 5.068 0 0 0-5.062-5.062H18.684ZM13.143 41.108a.39.39 0 0 1-.39-.39v-3.33a.39.39 0 0 1 .78 0v3.33a.39.39 0 0 1-.39.39Z" fill="#3762CC"/><path d="M25.517 25.836c.262.036.53.037.787-.026a2.155 2.155 0 0 0 0-4.183 2.096 2.096 0 0 0-.786-.026c-1.9.26-3.828.26-5.728 0a2.096 2.096 0 0 0-.786.026 2.155 2.155 0 0 0 0 4.183c.256.063.524.062.786.026 1.9-.26 3.827-.26 5.727 0Z" fill="#F9A7A7"/><path d="M28.21 20.234a.386.386 0 0 1-.217-.067l-2.701-1.814a.39.39 0 0 1 0-.648l2.701-1.814a.39.39 0 1 1 .436.649l-2.218 1.49 2.218 1.489a.39.39 0 0 1-.218.715Z" fill="#3762CC"/><path d="M29.456 18.42H25.51a.39.39 0 0 1 0-.781h3.945a.39.39 0 0 1 0 .78ZM17.092 20.234a.39.39 0 0 1-.218-.715l2.218-1.49-2.218-1.49a.39.39 0 1 1 .435-.648l2.702 1.814a.39.39 0 0 1 0 .649l-2.702 1.813a.388.388 0 0 1-.217.067Z" fill="#3762CC"/><path d="M19.793 18.42h-3.945a.39.39 0 0 1 0-.781h3.945a.39.39 0 0 1 0 .78Z" fill="#3762CC"/><path d="M43.415 18.567h-5.11a.538.538 0 1 1 0-1.076h5.11a.538.538 0 1 1 0 1.076ZM36.995 13.902a.538.538 0 0 1-.108-.753l3.615-4.819a.538.538 0 0 1 .86.646l-3.614 4.819a.538.538 0 0 1-.753.107ZM40.501 27.729l-3.614-4.82a.538.538 0 0 1 .861-.645l3.614 4.82a.538.538 0 0 1-.86.645ZM7.008 18.567h-5.11a.538.538 0 0 1 0-1.076h5.11a.538.538 0 0 1 0 1.076ZM4.058 27.836a.538.538 0 0 1-.108-.753l3.614-4.819a.538.538 0 1 1 .861.646l-3.614 4.819a.538.538 0 0 1-.753.107ZM7.564 13.794 3.95 8.976a.538.538 0 1 1 .86-.645l3.615 4.819a.538.538 0 0 1-.86.646ZM39.648 49.414c5.394 0 9.766-4.372 9.766-9.766 0-5.393-4.372-9.765-9.766-9.765-5.393 0-9.765 4.372-9.765 9.765 0 5.394 4.372 9.766 9.765 9.766Z" fill="#F9A7A7"/><path d="m41.582 39.648 3.944-3.943a1.366 1.366 0 1 0-1.934-1.934l-3.944 3.944-3.943-3.944a1.366 1.366 0 1 0-1.934 1.934l3.944 3.943-3.944 3.944a1.367 1.367 0 1 0 1.933 1.933l3.944-3.943 3.944 3.944a1.367 1.367 0 1 0 1.934-1.934l-3.944-3.944Z" fill="#4671C6"/><path d="M39.648 49.805c-5.6 0-10.156-4.556-10.156-10.157 0-5.6 4.556-10.156 10.156-10.156 5.6 0 10.157 4.556 10.157 10.156 0 5.6-4.556 10.157-10.157 10.157Zm0-19.532c-5.17 0-9.375 4.206-9.375 9.375 0 5.17 4.206 9.375 9.375 9.375 5.17 0 9.375-4.205 9.375-9.375s-4.205-9.375-9.375-9.375Z" fill="#3762CC"/></svg>