<svg width="50" height="51" fill="none" xmlns="http://www.w3.org/2000/svg"><g clip-path="url('#clip0_102_96')"><path d="M36.797 23.616V50.11H33.71l-8.688-9.17-.023.023V23.616h11.797Z" fill="#2FC0F0"/><path d="M25 23.616v17.346l-8.638 9.147h-3.114V23.616H25Z" fill="#9EE2F8"/><path d="m38.523 19.337 1.064 6.038-5.76 2.096-3.066 5.31-5.739-2.09V.127l4.675 3.923h6.13l1.065 6.037 4.696 3.942-3.065 5.31Z" fill="#FF9F22"/><path d="M25.022.126v30.566l-.021-.008-5.762 2.097-3.065-5.31-5.761-2.096 1.065-6.038-3.066-5.31 4.696-3.94 1.065-6.038h6.13L25 .11l.022.017Z" fill="#FFDA44"/><path d="m31.28 14.736-6.258 4.694V15.75l4.492-3.37 1.766 2.355Z" fill="#FD5"/><path d="M25.022 15.75v3.68l-2.695 2.02-3.84-4.48 2.234-1.916 2.046 2.388 2.255-1.691Z" fill="#FFF68E"/></g><defs><clipPath id="clip0_102_96"><path fill="#fff" transform="translate(0 .109)" d="M0 0h50v50H0z"/></clipPath></defs></svg>