<svg width="50" height="51" fill="none" xmlns="http://www.w3.org/2000/svg"><path d="M7.031 11.827a4.688 4.688 0 1 0 0-9.375 4.688 4.688 0 0 0 0 9.375ZM28.906 11.827a4.688 4.688 0 1 0 0-9.375 4.688 4.688 0 0 0 0 9.375Z" fill="#50B6CF"/><path d="M10.938 6.359h11.718V7.92H10.938V6.36ZM25 42.296h11.719v1.563H25v-1.563ZM38.672 25.89H24.219v-1.563h14.453c4.523 0 8.203-3.68 8.203-8.203s-3.68-8.203-8.203-8.203h-5.86V6.36h5.86c5.385 0 9.766 4.38 9.766 9.765 0 5.385-4.381 9.766-9.766 9.766ZM14.844 43.859h-3.516c-5.385 0-9.765-4.381-9.765-9.766s4.38-9.766 9.765-9.766h2.735v1.563h-2.735c-4.523 0-8.203 3.68-8.203 8.203s3.68 8.203 8.203 8.203h3.516v1.563Z" fill="#223B5A"/><path d="M21.094 47.765a4.687 4.687 0 1 0 0-9.375 4.687 4.687 0 0 0 0 9.375Z" fill="#50B6CF"/><path d="M42.969 47.765a4.687 4.687 0 1 0 0-9.375 4.687 4.687 0 0 0 0 9.375Z" fill="#E34E4B"/><path d="M17.969 29.796a4.687 4.687 0 1 0 0-9.375 4.687 4.687 0 0 0 0 9.375Z" fill="#50B6CF"/><path d="M9.468 3.14c.434.711.688 1.544.688 2.437a4.687 4.687 0 0 1-4.687 4.688 4.658 4.658 0 0 1-2.437-.689 4.68 4.68 0 0 0 4 2.251 4.687 4.687 0 0 0 4.687-4.687 4.68 4.68 0 0 0-2.251-4ZM31.343 3.14c.434.711.688 1.544.688 2.437a4.688 4.688 0 0 1-4.687 4.688 4.659 4.659 0 0 1-2.437-.689 4.68 4.68 0 0 0 4 2.251 4.688 4.688 0 0 0 4.687-4.687 4.68 4.68 0 0 0-2.251-4ZM23.53 39.078c.434.711.689 1.543.689 2.437a4.687 4.687 0 0 1-4.688 4.687 4.659 4.659 0 0 1-2.436-.688 4.68 4.68 0 0 0 3.999 2.25 4.687 4.687 0 0 0 4.687-4.687 4.68 4.68 0 0 0-2.25-3.999Z" fill="#3CADC9"/><path d="M45.405 39.078c.434.711.689 1.543.689 2.437a4.687 4.687 0 0 1-4.688 4.687 4.659 4.659 0 0 1-2.436-.688 4.68 4.68 0 0 0 3.999 2.25 4.687 4.687 0 0 0 4.687-4.687 4.68 4.68 0 0 0-2.25-3.999Z" fill="#DE4542"/><path d="M20.405 21.11c.434.71.689 1.542.689 2.436a4.688 4.688 0 0 1-4.688 4.688 4.658 4.658 0 0 1-2.436-.689 4.68 4.68 0 0 0 3.999 2.251 4.688 4.688 0 0 0 4.687-4.687 4.68 4.68 0 0 0-2.25-4Z" fill="#3CADC9"/><path d="M20.865 10.036 19.76 8.931l1.792-1.791-1.792-1.791 1.105-1.105 2.896 2.896-2.896 2.896ZM26.01 28.005l-2.896-2.896 2.896-2.896 1.105 1.104-1.791 1.792 1.79 1.791-1.104 1.105ZM34.928 45.973l-1.105-1.104 1.791-1.792-1.791-1.791 1.105-1.105 2.896 2.896-2.896 2.896ZM13.053 45.973l-1.105-1.104 1.791-1.792-1.791-1.791 1.104-1.105 2.897 2.896-2.896 2.896Z" fill="#223B5A"/></svg>