<svg width="50" height="50" fill="none" xmlns="http://www.w3.org/2000/svg"><g clip-path="url('#clip0_22_1487')"><path d="M25 50c13.807 0 25-11.193 25-25S38.807 0 25 0 0 11.193 0 25s11.193 25 25 25Z" fill="#6EA4F4"/><path d="M25 0v50c13.807 0 25-11.193 25-25S38.807 0 25 0Z" fill="#387BDF"/><path d="M34.278 12.444a1.465 1.465 0 0 0-.671-1.066A16.066 16.066 0 0 0 25 8.887c-8.64 0-15.712 6.834-16.096 15.38H7.422c-.559 0-1.06.31-1.31.81s-.197 1.088.138 1.534l4.395 5.86c.279.372.706.586 1.171.586.466 0 .893-.214 1.172-.586l4.395-5.86a1.457 1.457 0 0 0 .138-1.534c-.25-.5-.752-.81-1.31-.81h-1.438c.376-5.313 4.82-9.52 10.227-9.52 1.734 0 3.462.454 4.997 1.315.579.325 1.304.22 1.767-.256l2.11-2.169c.307-.316.456-.755.404-1.193Z" fill="#F9F9F9"/><path d="m31.764 15.806 2.11-2.169a1.465 1.465 0 0 0-.267-2.259A16.066 16.066 0 0 0 25 8.887v5.86c1.734 0 3.462.454 4.997 1.315.579.326 1.304.22 1.767-.256Z" fill="#E2DFF4"/><path d="m43.75 23.389-4.395-5.86a1.452 1.452 0 0 0-1.171-.586c-.466 0-.893.214-1.172.586l-4.395 5.86a1.457 1.457 0 0 0-.138 1.534c.25.5.752.81 1.31.81h1.438c-.376 5.313-4.82 9.52-10.227 9.52a10.24 10.24 0 0 1-4.997-1.315 1.464 1.464 0 0 0-1.767.256l-2.11 2.169a1.465 1.465 0 0 0 .267 2.259A16.066 16.066 0 0 0 25 41.113c8.64 0 15.712-6.834 16.096-15.38h1.482c.558 0 1.06-.31 1.31-.81s.197-1.088-.138-1.534Z" fill="#F9F9F9"/><path d="m43.75 23.389-4.395-5.86a1.452 1.452 0 0 0-1.171-.586c-.466 0-.893.214-1.172.586l-4.395 5.86a1.457 1.457 0 0 0-.138 1.534c.25.5.752.81 1.31.81h1.438c-.376 5.313-4.82 9.52-10.227 9.52v5.86c8.64 0 15.712-6.834 16.096-15.38h1.482c.558 0 1.06-.31 1.31-.81s.197-1.088-.138-1.534Z" fill="#E2DFF4"/></g><defs><clipPath id="clip0_22_1487"><path fill="#fff" d="M0 0h50v50H0z"/></clipPath></defs></svg>