<svg width="50" height="50" fill="none" xmlns="http://www.w3.org/2000/svg"><path d="M17.856 14.066A12.11 12.11 0 0 0 5.47 26.172v2.734l-2.344 5.469 3.125 1.563.781 7.03h6.25l1.563 4.688 13.281-6.25-.961-3.365a7.227 7.227 0 0 1 .065-4.187l1.426-4.457c2.337-7.57-3.02-15.219-10.799-15.331Z" fill="#769CFF"/><path d="m17.969 28.906 3.125.782v.78a1.562 1.562 0 0 0 1.562 1.563l1.027-2.052a5.08 5.08 0 0 0 .536-2.272v-1.926l-6.25.782v2.343Z" fill="#A83B32"/><path d="M10.156 27.344a3.126 3.126 0 0 0 3.125 3.125h3.125a3.125 3.125 0 0 0 3.125-3.125h-9.375Z" fill="#C7463B"/><path d="M19.531 34.375v4.688l-5.664 5.664-.586-1.758 4.688-4.688v-3.906h1.562Z" fill="#F5D3BD"/><path d="M15.825 18.75h5.66a4.296 4.296 0 1 1 0 8.594H8.593v-1.362a7.232 7.232 0 0 1 7.231-7.232Z" fill="#DC4D41"/><path d="M19.531 34.375v4.688l-5.664 5.664-.586-1.758 4.688-4.688v-3.906h1.562Z" fill="#5786FF"/><path d="M38.281 2.344a8.594 8.594 0 0 0-7.003 13.575l-.81 2.831 3.418-.427a8.594 8.594 0 1 0 4.395-15.98Z" fill="#0094F6"/><path d="M36.719 6.25h5.468l-2.343 3.906h2.343l-5.468 6.25.781-4.687h-1.563l.782-5.469Z" fill="#FBB540"/><path d="M21.875 12.282a.781.781 0 0 1-.736-1.042l1.03-2.907a.783.783 0 0 1 .546-.497l2.768-.696 1.068-2.034a.781.781 0 0 1 1.383.726l-1.23 2.343a.782.782 0 0 1-.5.395l-2.702.68-.89 2.512a.78.78 0 0 1-.737.52ZM36.52 34.375a.779.779 0 0 1-.525-.203l-1.96-1.78a.782.782 0 0 1-.255-.584l.022-2.785-2.209-1.494a.781.781 0 1 1 .876-1.294l2.555 1.728a.782.782 0 0 1 .343.653l-.022 2.855 1.7 1.545a.78.78 0 0 1-.525 1.359ZM37.637 25.781a.78.78 0 0 1-.553-.229l-2.06-2.06-2.593.422a.782.782 0 0 1-.251-1.543l2.988-.486a.781.781 0 0 1 .678.219l2.027 2.027 2.554-.668a.781.781 0 0 1 .396 1.511l-2.989.782a.784.784 0 0 1-.197.025ZM17.404 12.05a.78.78 0 0 1-.622-.307l-1.707-2.241a.78.78 0 0 1-.134-.673l.535-2.019L14 4.873a.781.781 0 0 1 1.243-.947l1.707 2.24a.781.781 0 0 1 .134.674l-.535 2.02 1.476 1.936a.781.781 0 0 1-.621 1.254Z" fill="#0094F6"/><path d="M24.219 22.656a.781.781 0 0 1-.782.782.782.782 0 0 0-.762.615 2.34 2.34 0 0 1 .762 1.728v1.192a4.247 4.247 0 0 1-1.562.45v-1.642a.783.783 0 0 0-.781-.781.781.781 0 1 1 0-1.563c.045 0 .089.002.133.004a2.347 2.347 0 0 1 2.21-1.566.781.781 0 0 1 .782.781ZM14.844 26.563v.78H13.28v-.78A1.565 1.565 0 0 0 11.72 25a.781.781 0 1 1 0-1.563 3.128 3.128 0 0 1 3.125 3.125ZM19.491 23.685a.78.78 0 0 1-.988.494 4.205 4.205 0 0 1-2.227-1.742 2.943 2.943 0 0 1-2.213 1 .781.781 0 1 1 0-1.562 1.385 1.385 0 0 0 1.315-.948l.247-.741v-1.433a6.98 6.98 0 0 1 .2-.003h1.363v1.436a2.644 2.644 0 0 0 1.81 2.51.78.78 0 0 1 .493.989Z" fill="#A83B32"/></svg>