<svg width="50" height="50" fill="none" xmlns="http://www.w3.org/2000/svg"><g clip-path="url('#clip0_22_656')"><path d="M24.782 49.471h-9.578a.408.408 0 0 1-.41-.407v-3.647c.746.145 1.515.223 2.303.223 3.123 0 5.965-1.193 8.094-3.144v6.569a.408.408 0 0 1-.41.406Z" fill="#F9CFCF"/><path d="M24.782 49.878h-9.578a.817.817 0 0 1-.818-.814v-3.647a.406.406 0 0 1 .487-.4c.736.143 1.484.216 2.224.216 2.904 0 5.68-1.078 7.817-3.036a.41.41 0 0 1 .686.3v6.568a.817.817 0 0 1-.818.813Zm-9.578-3.977v3.164h9.578V43.38a12.363 12.363 0 0 1-9.578 2.52Z" fill="#3762CC"/><path d="M17.097 13.865c-6.603 0-11.955 5.326-11.955 11.897v7.98c0 .107.005.212.008.318h-.138c-.827 0-1.498.668-1.498 1.49 0 .824.67 1.49 1.498 1.49h.599a11.95 11.95 0 0 0 11.486 8.6c6.603 0 11.955-5.327 11.955-11.898v-7.98c0-6.571-5.352-11.897-11.955-11.897Z" fill="#F9CFCF"/><path d="M10.417 32.367c-2.794 0-3.888-2.45-3.9-2.479a.41.41 0 0 1 .751-.322c.05.114 1.242 2.722 4.505 1.78a.407.407 0 1 1 .228.782 5.71 5.71 0 0 1-1.584.239ZM10.664 40.922a.41.41 0 0 1-.24-.078 3.361 3.361 0 0 0-3.247-.385.406.406 0 1 1-.317-.75 4.189 4.189 0 0 1 4.045.477.406.406 0 0 1-.241.736Z" fill="#3762CC"/><path d="M17.097 46.047c-5.375 0-10.179-3.52-11.79-8.6h-.295a1.904 1.904 0 0 1-1.907-1.896c0-.953.708-1.743 1.628-1.878v-7.911c0-6.785 5.546-12.305 12.364-12.305 6.817 0 12.364 5.52 12.364 12.305v7.98c0 6.785-5.546 12.305-12.364 12.305ZM5.012 34.467c-.6 0-1.088.486-1.088 1.084 0 .597.488 1.083 1.088 1.083h.6a.41.41 0 0 1 .392.294c1.416 4.89 5.978 8.304 11.093 8.304 6.366 0 11.546-5.154 11.546-11.49v-7.98c0-6.336-5.18-11.49-11.546-11.49-6.367 0-11.546 5.154-11.546 11.49v7.98c0 .068.002.134.004.2l.004.108a.409.409 0 0 1-.41.418h-.137Z" fill="#3762CC"/><path d="M24.098 11.757h-5.413c-.54 0-.979.498-.979 1.11v.51c0-.849-.67-1.537-1.495-1.537h-2.474c-5.843 0-10.58 4.868-10.58 10.873v2.326c0 .555.439 1.006.98 1.006h12.591c.54 0 .978.45.978 1.005v2.353l.026-.009v8.96l-.026-.008v8.197c0 .783.559 1.417 1.248 1.417h8.323c5.051 0 9.146-4.65 9.146-10.386V25.753c0-7.73-5.518-13.996-12.325-13.996Z" fill="#4671C6"/><path d="M27.277 48.367h-8.323c-.913 0-1.657-.818-1.657-1.823v-8.198c0-.048.01-.096.026-.14v-8.658a.425.425 0 0 1-.026-.145V27.05c0-.33-.255-.598-.569-.598H4.136c-.765 0-1.387-.634-1.387-1.413v-2.326c0-6.22 4.929-11.28 10.988-11.28h2.474c.522 0 .995.215 1.339.563.252-.39.667-.646 1.135-.646h5.413c7.022 0 12.734 6.46 12.734 14.403v11.821c0 5.952-4.286 10.793-9.555 10.793Zm-9.161-9.872v8.049c0 .556.375 1.009.838 1.009h8.323c4.818 0 8.737-4.477 8.737-9.98v-11.82c0-7.493-5.346-13.59-11.916-13.59h-5.413c-.314 0-.57.317-.57.705v.51a.408.408 0 0 1-.818 0c0-.624-.487-1.131-1.086-1.131h-2.474c-5.608 0-10.17 4.695-10.17 10.466v2.325c0 .33.255.6.57.6h12.591c.765 0 1.388.633 1.388 1.412v2.198a.431.431 0 0 1 .025.146v8.96a.408.408 0 0 1-.025.141Z" fill="#3762CC"/><path d="M22.26 33.727c0 2.326-1.894 4.212-4.232 4.212-2.337 0-4.232-1.886-4.232-4.212 0-2.326 1.895-4.212 4.233-4.212 2.337 0 4.232 1.886 4.232 4.212Z" fill="#F9CFCF"/><path d="M29.47 20.517h.001c-.118-1.861-1.591-2.85-2.014-3.098-.24-1.453-1.613-2.569-3.276-2.569-.08 0-.157.006-.235.011-.487-1.117-1.682-1.909-3.081-1.909-.738 0-1.417.223-1.967.594a3.561 3.561 0 0 0-1.506-.332c-1.316 0-2.45.7-2.986 1.711a3.79 3.79 0 0 0-.11.102c-.074-.005-.147-.01-.221-.01-1.822 0-3.3 1.338-3.316 2.995-.933.535-1.555 1.48-1.555 2.558 0 1.577 1.324 2.87 3.014 3.01l.002.013s1.105.229 2.218-.063c.384.384 1.534 1.32 3.583 1.32.474 0 .97-.052 1.48-.155l.454-.099c.651.42 1.81.546 2.33.582h.111a6.468 6.468 0 0 0 1.25-.073 5.663 5.663 0 0 0 1.46-.394c.16.023.3.112.378.244l1.082 1.815c.043.072.096.137.152.2.258.42.731.68 1.243.68h.11c.795 0 1.44-.616 1.44-1.374v-5.337c0-.143-.015-.284-.04-.422Z" fill="#F9A7A7"/><path d="M28.071 28.056h-.11a1.873 1.873 0 0 1-1.571-.842 1.566 1.566 0 0 1-.176-.237l-1.082-1.815a.068.068 0 0 0-.013-.015c-.427.168-.903.29-1.417.362a6.931 6.931 0 0 1-1.321.076h-.107c-.61-.042-1.672-.169-2.389-.556l-.297.064a7.89 7.89 0 0 1-1.567.164c-1.956 0-3.158-.8-3.703-1.28a5.94 5.94 0 0 1-2.182.015.485.485 0 0 1-.06-.017c-1.878-.204-3.281-1.65-3.281-3.405 0-1.119.58-2.147 1.565-2.792.147-1.767 1.763-3.169 3.715-3.169h.04c.651-1.115 1.893-1.803 3.276-1.803.51 0 1.003.094 1.47.28a3.925 3.925 0 0 1 2.003-.54c1.428 0 2.705.736 3.333 1.897 1.777.007 3.27 1.14 3.627 2.724.606.392 1.928 1.454 2.054 3.306.027.156.041.314.041.466v5.337c0 .981-.829 1.78-1.848 1.78Zm-2.964-3.752a.929.929 0 0 1 .73.443l1.081 1.815a.793.793 0 0 0 .103.133c.017.019.033.04.046.062.184.3.526.485.893.485h.11c.569 0 1.031-.434 1.031-.967V20.94c0-.113-.011-.23-.033-.348a.39.39 0 0 1-.007-.07c-.115-1.637-1.414-2.519-1.81-2.75a.408.408 0 0 1-.198-.286c-.21-1.27-1.445-2.228-2.872-2.228-.06 0-.118.004-.177.008l-.032.002a.414.414 0 0 1-.401-.244c-.44-1.01-1.503-1.664-2.706-1.664-.629 0-1.23.181-1.738.523a.412.412 0 0 1-.403.032 3.134 3.134 0 0 0-1.332-.294c-1.113 0-2.143.587-2.623 1.495a.41.41 0 0 1-.092.115 3.652 3.652 0 0 0-.098.09.408.408 0 0 1-.308.113l-.045-.003c-.05-.003-.1-.007-.152-.007-1.588 0-2.892 1.164-2.906 2.593a.408.408 0 0 1-.205.349c-.846.485-1.35 1.309-1.35 2.205 0 1.36 1.134 2.48 2.639 2.603a.418.418 0 0 1 .137.036c.268.042 1.113.145 1.945-.073a.41.41 0 0 1 .394.106c.361.36 1.406 1.2 3.293 1.2.447 0 .917-.05 1.398-.146l.449-.098a.412.412 0 0 1 .31.056c.4.259 1.198.452 2.135.517h.083a6.077 6.077 0 0 0 1.186-.068 5.287 5.287 0 0 0 1.361-.365.413.413 0 0 1 .164-.034Z" fill="#3762CC"/><path d="M44.377.528H30.08a2.574 2.574 0 0 0-2.58 2.568V14.59l-2.552 6.893a.643.643 0 0 0 .828.824l6.598-2.418h12.002c1.424 0 2.58-1.15 2.58-2.568V3.096a2.573 2.573 0 0 0-2.58-2.568Z" fill="#E0EBFC"/><path d="M25.55 22.756c-.274 0-.538-.106-.741-.308a1.036 1.036 0 0 1-.244-1.105l2.527-6.825V3.096c0-1.64 1.341-2.975 2.989-2.975h14.296a2.985 2.985 0 0 1 2.989 2.975v14.226c0 1.64-1.341 2.974-2.99 2.974H32.449l-6.53 2.394a1.07 1.07 0 0 1-.368.066ZM30.08.936c-1.197 0-2.17.968-2.17 2.16V14.59a.41.41 0 0 1-.026.14l-2.552 6.894a.226.226 0 0 0 .055.247.23.23 0 0 0 .248.054l6.598-2.419a.41.41 0 0 1 .141-.025h12.002c1.197 0 2.17-.969 2.17-2.16V3.095c0-1.19-.973-2.16-2.17-2.16H30.08Z" fill="#3762CC"/><path d="M42.535 7.83h-.076a2.734 2.734 0 0 0-3.305-3.03 2.741 2.741 0 0 0-2.494-1.597 2.734 2.734 0 0 0-2.733 2.93A2.746 2.746 0 0 0 30.16 8.42s-.016.124-.009.322c.006.179.028.354.067.523.156.713.649 1.684 2.133 2.12h10.184c.987 0 1.786-.796 1.786-1.778s-.8-1.778-1.786-1.778Z" fill="#4671C6"/><path d="M34.96 15.349a.61.61 0 0 1-.551-.878l1.513-3.098h-.962a.614.614 0 0 1-.52-.286.607.607 0 0 1-.032-.59l1.943-3.984a.615.615 0 0 1 .82-.283.61.61 0 0 1 .285.817l-1.516 3.105h.964c.211 0 .408.109.52.287a.607.607 0 0 1 .031.591l-1.943 3.975a.613.613 0 0 1-.552.344ZM38.874 17.364a.61.61 0 0 1-.551-.878l1.513-3.097h-.962a.614.614 0 0 1-.52-.287.608.608 0 0 1-.032-.59l1.943-3.983a.615.615 0 0 1 .82-.283.61.61 0 0 1 .285.816l-1.516 3.106h.964c.211 0 .408.108.52.287a.606.606 0 0 1 .031.59l-1.943 3.976a.613.613 0 0 1-.552.343Z" fill="#FFEA92"/><path d="m17.256 18.262-.03-.001c-1.17-.086-2.047-.48-2.606-1.173-.788-.975-.626-2.17-.618-2.221a.41.41 0 0 1 .463-.345.407.407 0 0 1 .347.46c-.002.013-.114.91.451 1.602.412.505 1.093.796 2.023.864a.408.408 0 0 1-.03.814ZM14.437 23.936a.406.406 0 0 1-.288-.119c-.53-.526-1.305-1.904-.45-3.353a.41.41 0 0 1 .705.413c-.745 1.262.28 2.321.325 2.366a.406.406 0 0 1-.292.693ZM19.947 25.008a.407.407 0 0 1-.103-.801c1.424-.369 1.452-1.84 1.452-1.902a.41.41 0 0 1 .41-.405c.226.001.408.182.408.406.001.745-.43 2.265-2.064 2.689a.421.421 0 0 1-.103.013ZM22.076 18.693a.408.408 0 0 1-.371-.235c-.435-.926-.474-1.75-.115-2.448.625-1.217 2.234-1.536 2.302-1.55a.408.408 0 1 1 .155.8c-.016.003-1.29.262-1.73 1.124-.236.462-.192 1.044.13 1.73a.406.406 0 0 1-.371.579Z" fill="#3762CC"/></g><defs><clipPath id="clip0_22_656"><path fill="#fff" transform="translate(0 .121)" d="M0 0h50v49.757H0z"/></clipPath></defs></svg>