<svg aria-hidden="true" style="width:0;height:0;position:absolute;overflow:hidden" xmlns="http://www.w3.org/2000/svg"><defs><symbol id="process" viewBox="0 0 31 32"><path fill="#50b6cf" style="fill:var(--color1,#50b6cf)" d="M4.41 7.42a2.94 2.94 0 1 0 0-5.88 2.94 2.94 0 0 0 0 5.88zm13.73 0a2.94 2.94 0 1 0 0-5.88 2.94 2.94 0 0 0 0 5.88z"/><path fill="#223b5a" style="fill:var(--color2,#223b5a)" d="M6.86 3.99h7.36v.98H6.86v-.98zm8.83 22.55h7.35v.98h-7.35v-.98zm8.58-10.29H15.2v-.98h9.07a5.15 5.15 0 0 0 0-10.3h-3.68V4h3.68a6.13 6.13 0 0 1 0 12.26zM9.31 27.52h-2.2a6.13 6.13 0 0 1 0-12.25h1.71v.98H7.11a5.15 5.15 0 0 0 0 10.29h2.2v.98z"/><path fill="#50b6cf" style="fill:var(--color1,#50b6cf)" d="M13.23 29.97a2.94 2.94 0 1 0 0-5.88 2.94 2.94 0 0 0 0 5.88z"/><path fill="#e34e4b" style="fill:var(--color3,#e34e4b)" d="M26.96 29.97a2.94 2.94 0 1 0 0-5.88 2.94 2.94 0 0 0 0 5.88z"/><path fill="#50b6cf" style="fill:var(--color1,#50b6cf)" d="M11.28 18.7a2.94 2.94 0 1 0 0-5.89 2.94 2.94 0 0 0 0 5.89z"/><path fill="#3cadc9" style="fill:var(--color4,#3cadc9)" d="M5.94 1.97a2.93 2.93 0 0 1-2.5 4.47c-.57 0-1.1-.16-1.54-.43a2.94 2.94 0 1 0 4.04-4.04zm13.73 0a2.93 2.93 0 0 1-2.51 4.47c-.56 0-1.09-.16-1.53-.43a2.94 2.94 0 1 0 4.04-4.04zm-4.91 22.55a2.93 2.93 0 0 1-2.5 4.47c-.57 0-1.09-.16-1.53-.43a2.94 2.94 0 1 0 4.03-4.04z"/><path fill="#de4542" style="fill:var(--color5,#de4542)" d="M28.49 24.52a2.93 2.93 0 0 1-2.51 4.47c-.56 0-1.08-.16-1.53-.43a2.94 2.94 0 1 0 4.04-4.04z"/><path fill="#3cadc9" style="fill:var(--color4,#3cadc9)" d="M12.8 13.24a2.93 2.93 0 0 1-2.5 4.47c-.57 0-1.09-.16-1.54-.43a2.94 2.94 0 1 0 4.04-4.04z"/><path fill="#223b5a" style="fill:var(--color2,#223b5a)" d="m13.1 6.3-.7-.7 1.12-1.12-1.12-1.12.7-.7 1.8 1.82-1.8 1.82zm3.22 11.27-1.82-1.82 1.82-1.81.7.7-1.13 1.11L17 16.88l-.69.7zm5.59 11.28-.69-.7 1.13-1.12-1.13-1.13.7-.69 1.81 1.82-1.82 1.82zm-13.72 0-.7-.7 1.13-1.12L7.5 25.9l.69-.69 1.82 1.82-1.82 1.82z"/></symbol><symbol id="family" viewBox="0 0 31 32"><path fill="#ffdbb5" style="fill:var(--color6,#ffdbb5)" d="M4.07 25.2h1.75v4.56H4.07V25.2z"/><path fill="#ffd1a1" style="fill:var(--color7,#ffd1a1)" d="M5.82 25.2h1.75v4.56H5.82V25.2z"/><path fill="#cf8230" style="fill:var(--color8,#cf8230)" d="M3.8 30.97h2.02v-1.52H3.8a.76.76 0 1 0 0 1.52zm4.04 0H5.82v-1.52h2.02a.76.76 0 1 1 0 1.52zM4.07 21.3h3.5v4.27h-3.5V21.3z"/><path fill="#ffdbb5" style="fill:var(--color6,#ffdbb5)" d="M5.82 8.16a2.2 2.2 0 0 0-2.2 2.2v2.82c0 1.2.98 2.18 2.2 2.18 1.21 0 2.2-.98 2.2-2.18v-2.82a2.2 2.2 0 0 0-2.2-2.2z"/><path fill="#ffd1a1" style="fill:var(--color7,#ffd1a1)" d="M5.82 8.16c-.34 0-.65.08-.94.21a2.2 2.2 0 0 1 1.27 2v2.8c0 .88-.52 1.64-1.27 1.99.29.13.6.2.93.2h.01c1.21 0 2.2-.98 2.2-2.18v-2.82a2.2 2.2 0 0 0-2.2-2.2z"/><path fill="#2ae88f" style="fill:var(--color9,#2ae88f)" d="M8.76 21.3H2.87v-3.92c0-1.11.91-2.02 2.03-2.02h1.83c1.12 0 2.03.9 2.03 2.02v3.92z"/><path fill="#ffdbb5" style="fill:var(--color6,#ffdbb5)" d="M3.63 23.09a.76.76 0 0 1-.76-.76v-4.57H4.4v4.57c0 .42-.34.76-.75.76zm4.37 0a.76.76 0 0 1-.76-.76v-4.57h1.52v4.57c0 .42-.34.76-.76.76z"/><path fill="#b5630b" style="fill:var(--color10,#b5630b)" d="M6.28 25.57v-2.25a.47.47 0 1 0-.93 0v2.25h.93z"/><path fill="#cf8230" style="fill:var(--color8,#cf8230)" d="M8.01 11.33h-.77l-.73-.78-.7.78H3.64v-.98a2.19 2.19 0 1 1 4.38 0v.98z"/><path fill="#c7751e" style="fill:var(--color11,#c7751e)" d="M5.83 8.16h-.01c-.33 0-.65.08-.93.21.74.35 1.26 1.1 1.26 1.98v.6l.36-.4.73.78h.77v-.98c0-1.2-.98-2.19-2.18-2.19z"/><path fill="#5d76cf" style="fill:var(--color12,#5d76cf)" d="m16.98 4.87-6.1-.1v-2.3a2.4 2.4 0 0 1 2.4-2.4h1.3a2.4 2.4 0 0 1 2.4 2.4v2.4z"/><path fill="#4d69cf" style="fill:var(--color13,#4d69cf)" d="M14.58.07h-1.3c-.1 0-.19 0-.28.02a2.4 2.4 0 0 1 2.11 2.38v3.3h1.87v-3.3a2.4 2.4 0 0 0-2.4-2.4z"/><path fill="#ffdbb5" style="fill:var(--color6,#ffdbb5)" d="M10.89 4.78V6.1a3.03 3.03 0 0 0 6.09 0V2.82h-1.24a1.7 1.7 0 0 0-1.36.68c-.4.56-1.35 1.28-3.5 1.28z"/><path fill="#ffd1a1" style="fill:var(--color7,#ffd1a1)" d="M15.74 2.82c-.22 0-.43.04-.63.12V6.1c0 1.35-.89 2.49-2.11 2.88a3.03 3.03 0 0 0 3.98-2.88V2.82h-1.24z"/><path fill="#a6d4ff" style="fill:var(--color14,#a6d4ff)" d="M13.93 17.18h-2.06v12.27H16V17.18h-2.06z"/><path fill="#ffd52b" style="fill:var(--color15,#ffd52b)" d="M17.4 17.18h-6.93v-5.67a2.39 2.39 0 0 1 2.38-2.38h2.16a2.39 2.39 0 0 1 2.38 2.38v5.67z"/><path fill="#ffdbb5" style="fill:var(--color6,#ffdbb5)" d="M11.36 19.69a.9.9 0 0 1-.9-.9v-6.44h1.8v6.45c0 .5-.4.89-.9.89zm5.14 0a.9.9 0 0 1-.9-.9v-6.44h1.8v6.45c0 .5-.4.89-.9.89z"/><path fill="#5d76cf" style="fill:var(--color12,#5d76cf)" d="M11.44 30.97h2.5v-1.52h-2.5a.76.76 0 1 0 0 1.52z"/><path fill="#5d76cf" style="fill:var(--color12,#5d76cf)" d="M16.43 30.97h-2.5v-1.52h2.5a.76.76 0 1 1 0 1.52z"/><path fill="#79b7f2" style="fill:var(--color16,#79b7f2)" d="M14.4 29.45V20a.47.47 0 1 0-.93 0v9.44h.93z"/><path fill="#5d76cf" style="fill:var(--color12,#5d76cf)" d="M22.72 7.66a3.8 3.8 0 1 0 0-7.6 3.8 3.8 0 0 0 0 7.6z"/><path fill="#4d69cf" style="fill:var(--color13,#4d69cf)" d="M22.72.07c-.32 0-.63.04-.93.11a3.8 3.8 0 0 1 0 7.36 3.8 3.8 0 1 0 .93-7.47z"/><path fill="#edb374" style="fill:var(--color17,#edb374)" d="M21.91 3.13c-1.02 0-1.84.83-1.84 1.85v1.5a2.65 2.65 0 0 0 5.32 0v-1.5c0-1.02-.84-1.85-1.86-1.85h-1.62z"/><path fill="#e3a35d" style="fill:var(--color18,#e3a35d)" d="M23.54 3.13h-1.75c.96.07 1.73.87 1.73 1.85v1.5c0 1.13-.72 2.1-1.73 2.48a2.65 2.65 0 0 0 3.6-2.48v-1.5c0-1.02-.83-1.85-1.85-1.85z"/><path fill="#a6d4ff" style="fill:var(--color14,#a6d4ff)" d="M22.72 17.18h-2.06v12.27h4.12V17.18h-2.06z"/><path fill="#ff428e" style="fill:var(--color19,#ff428e)" d="M26.19 17.18h-6.93v-5.67a2.39 2.39 0 0 1 2.39-2.38h2.15a2.39 2.39 0 0 1 2.39 2.38v5.67z"/><path fill="#edb374" style="fill:var(--color17,#edb374)" d="M20.16 19.69a.9.9 0 0 1-.9-.9v-6.44h1.79v6.45c0 .5-.4.89-.9.89z"/><path fill="#ff428e" style="fill:var(--color19,#ff428e)" d="M20.23 30.97h3.7v-1.52h-3.7a.76.76 0 1 0 0 1.52z"/><path fill="#5d76cf" style="fill:var(--color12,#5d76cf)" d="M25.55 20.38a2.86 2.86 0 0 1-2.86-2.86v-2.1a2.86 2.86 0 1 1 5.72 0v2.1a2.86 2.86 0 0 1-2.86 2.86z"/><path fill="#4d69cf" style="fill:var(--color13,#4d69cf)" d="M25.56 12.56h-.01c-.33 0-.64.06-.93.16a2.86 2.86 0 0 1 1.93 2.7v2.1c0 1.26-.8 2.32-1.93 2.7a2.86 2.86 0 0 0 3.8-2.7v-2.1a2.86 2.86 0 0 0-2.86-2.86z"/><path fill="#ffdbb5" style="fill:var(--color6,#ffdbb5)" d="M23.8 25.74h1.75v4.02H23.8v-4.02z"/><path fill="#ffd1a1" style="fill:var(--color7,#ffd1a1)" d="M25.55 25.74h1.76v4.02h-1.75v-4.02z"/><path fill="#ffdbb5" style="fill:var(--color6,#ffdbb5)" d="M23.93 15.43v1.36a1.62 1.62 0 0 0 3.26 0v-1.36h-3.26z"/><path fill="#ffd1a1" style="fill:var(--color7,#ffd1a1)" d="M25.55 15.43v1.36c0 .6-.32 1.13-.8 1.4a1.62 1.62 0 0 0 2.44-1.4v-1.36h-1.63z"/><path fill="#ffd52b" style="fill:var(--color15,#ffd52b)" d="M26.47 18.47h-1.83c-1.12 0-2.03.9-2.03 2.02v2.68h1.2v3.02h3.5v-3.02h1.19v-2.68c0-1.12-.9-2.02-2.03-2.02z"/><path fill="#ffdbb5" style="fill:var(--color6,#ffdbb5)" d="M23.37 24.95a.76.76 0 0 1-.76-.76v-3.33h1.52v3.33c0 .42-.34.76-.76.76zm4.37 0a.76.76 0 0 1-.76-.76v-3.33h1.52v3.33c0 .42-.34.76-.76.76z"/><path fill="#a6d4ff" style="fill:var(--color14,#a6d4ff)" d="M23.54 30.97h2.02v-1.52h-2.02a.76.76 0 1 0 0 1.52zm4.03 0h-2.01v-1.52h2.01a.76.76 0 1 1 0 1.52z"/><path fill="#e9f0f5" style="fill:var(--color20,#e9f0f5)" d="M30.44 30.5H.93a.47.47 0 1 0 0 .94h29.51a.47.47 0 1 0 0-.93z"/></symbol><symbol id="whatapp" viewBox="0 0 32 32"><path d="M17.77 24.1c5.4 1.29 7.3-3.33 6.35-5.06-.37-.68-3.81-2-3.97-2.07-1.47-.53-2.03.46-3.04 1.78-1.95-.98-3.27-1.75-4.62-3.95l.26-.3c.47-.52 1.35-1.5.74-2.7-.5-1.02-.74-1.71-.93-2.24-.54-1.5-.95-1.9-2.8-1.9-1.93 0-3.42 2.54-3.42 4.72 0 4.76 6.4 10.52 11.43 11.72zM9.76 9.66c.4 0 .6.01.7.04.22.45.43 1.4 1.24 2.9-.13.46-1.9 1.55-1.08 2.98 1.69 2.86 3.38 3.85 5.8 5.06 1.6.72 2.12-.6 3.14-1.75.47.2 2.07.9 2.78 1.25-.07 1.39-1.4 2.67-4.1 2.01-4.63-1.1-9.9-6.31-9.9-9.78 0-1.3.92-2.7 1.42-2.7z"/><path d="M.1 30.78a1 1 0 0 0 .96 1.26c.25 0-.14.07 7.81-2 3.24 1.65 5.7 1.6 7.27 1.75 14.08 0 20.97-17.17 11.28-27.15C14.14-8.19-6.53 7.76 2.12 23.47L.11 30.78zm25.72-24.9c.24.43 6.85 6.4 3.17 15.3a13.6 13.6 0 0 1-13.4 8.57h.04c-4.77-.27-6-1.97-6.9-1.74L2.5 29.65l1.66-6.03a1 1 0 0 0-.11-.78C-3.92 9.1 14.12-5.05 25.82 5.9z"/></symbol><symbol id="viber" viewBox="0 0 32 32"><path d="M8.44 27.17c-.05 1.95-.27 4.19 1.43 4.72 1.66.55 2.63-.8 4.8-3.52 8.1.56 15.25-1.71 16.2-9.88.87-7.27-.24-12.7-3.08-15.29C23.6-.81 9.99-1.37 5 3.4c-2.05 2.12-3.05 5.26-3.14 9.85-.08 3.75-.23 11.41 6.58 13.92zM3.85 13.3c.09-4.06.9-6.77 2.56-8.49 4.16-3.98 16.5-3.52 20.01-.15 2.35 2.13 3.25 7.08 2.49 13.59-.7 5.97-4.55 6.99-6 7.36-2.99.8-5.84.97-8.59.74-.72-.09-1 .6-1.28.85a30.48 30.48 0 0 1-2.48 2.85c-.18-.27-.15-1.54-.13-2.56-.06-.45.34-1.72-.72-2-6.06-1.8-5.92-8.56-5.85-12.2z"/><path d="M7.68 10.64c1.07 2.14 2.11 5.9 6.11 9.17 1.39 1.14 5.55 3.79 7.17 3.79 2.33 0 4.98-3.66 3.03-5.3a16.7 16.7 0 0 0-2.88-2.15h-.01c-2.05-1.2-3.18 1-3.3 1.07-3.02 2.7-6.7-1.98-4.12-4.24.32-.4 2.22-1.31 1.1-3.4-1.01-1.8-1.67-2.42-2.03-2.95-1.98-2.45-6.24 1.64-5.07 4.01zm12.23 7.16c.14.09 1.33.61 2.74 1.99.18.15-1.02 1.9-1.78 1.79-.15-.06-1.24-.32-3.58-1.76 2.22-.75 2.2-1.93 2.63-2.02zm-8.88-9.9.12-.05c.38.53.96 1.05 1.87 2.7.24.45-.36.62-.74 1.01-.56.5-.96 1.07-1.2 1.71-.83-1.54-1.18-2.66-1.57-3.43-.14-.7.88-1.57 1.52-1.94z"/><path d="M17.09 11.4s1.46.18 1.72 1.75c.2 1.33 2.18.96 1.97-.33a4.08 4.08 0 0 0-3.45-3.41h-.02c-1.31-.14-1.53 1.83-.22 2z"/><path d="M16.04 7.08c.02 0 3.17-.05 5.23 2.14 2.02 2.17 1.57 5.32 1.57 5.34-.21 1.3 1.76 1.64 1.97.32.02-.17.62-4.13-2.09-7.02-2.68-2.88-6.58-2.78-6.74-2.77-1.37.04-1.2 2.1.06 2z"/></symbol><symbol id="telegram" viewBox="0 0 32 32"><path d="m.56 14.93 7.81 3.9c.31.15.67.14.96-.04l6.97-4.05-4.23 3.73a1 1 0 0 0-.33.75v9.11a1 1 0 0 0 1.8.6l3.39-4.5 8.36 4.77a1 1 0 0 0 1.47-.66L32 2.52a1 1 0 0 0-1.36-1.13L.65 13.1a1 1 0 0 0-.1 1.83h.02zm29.1-11-4.6 22.85-7.92-4.52a1 1 0 0 0-1.3.26l-2.11 2.82V19.7l11.4-10.11c.9-.8-.14-2.22-1.17-1.61L8.8 16.8l-5.32-2.66 26.2-10.21z"/></symbol><symbol id="stress_2" viewBox="0 0 32 32"><path fill="#f9cfcf" style="fill:var(--color21,#f9cfcf)" d="M15.86 31.66H9.73a.26.26 0 0 1-.26-.25v-2.34a7.7 7.7 0 0 0 6.66-1.88v4.21c0 .15-.12.26-.26.26h-.01z"/><path fill="#3762cc" style="fill:var(--color22,#3762cc)" d="M15.86 31.92H9.73a.52.52 0 0 1-.52-.52v-2.33a.26.26 0 0 1 .3-.26A7.36 7.36 0 0 0 15.95 27a.26.26 0 0 1 .44.2v4.2c0 .28-.23.52-.52.52zm-6.13-2.54v2.02h6.13v-3.64a7.86 7.86 0 0 1-6.18 1.61h.05z"/><path fill="#f9cfcf" style="fill:var(--color21,#f9cfcf)" d="M10.94 8.87a7.64 7.64 0 0 0-7.65 7.62v5.3H3.1a.96.96 0 1 0 .11 1.91h.38a7.66 7.66 0 0 0 7.34 5.5h.01a7.63 7.63 0 0 0 7.65-7.6v-5.11c0-4.2-3.42-7.62-7.65-7.62z"/><path fill="#3762cc" style="fill:var(--color22,#3762cc)" d="M6.67 20.72a2.82 2.82 0 0 1-2.49-1.57v-.02a.26.26 0 0 1 .48-.2 2.29 2.29 0 0 0 2.89 1.13h-.02.08a.26.26 0 0 1 .07.5c-.3.1-.65.15-1 .16h-.01zm.15 5.47a.26.26 0 0 1-.15-.05 2.13 2.13 0 0 0-2.09-.24h.02a.26.26 0 0 1-.2-.48 2.67 2.67 0 0 1 2.6.31h-.02a.26.26 0 0 1-.15.46z"/><path fill="#3762cc" style="fill:var(--color22,#3762cc)" d="M10.94 29.47a7.95 7.95 0 0 1-7.53-5.45l-.02-.05h-.18a1.22 1.22 0 0 1-.18-2.42v-5.06a7.9 7.9 0 0 1 7.91-7.88 7.9 7.9 0 0 1 7.91 7.88v5.1a7.9 7.9 0 0 1-7.9 7.88zm-7.74-7.4c-.38 0-.7.3-.7.68s.32.7.7.7h.39c.12 0 .21.07.24.18a7.43 7.43 0 0 0 7.1 5.32c4.08 0 7.4-3.3 7.4-7.36v-5.1a7.38 7.38 0 0 0-14.78 0v5.31c0 .15-.12.26-.26.26h-.1z"/><path fill="#4671c6" style="fill:var(--color23,#4671c6)" d="M15.42 7.53h-3.47c-.34 0-.62.32-.62.7v.33a.97.97 0 0 0-.96-.98H8.8a6.86 6.86 0 0 0-6.77 6.95v1.5c0 .34.28.63.63.64h8.06c.34 0 .62.29.62.64v1.5h.02v5.73h-.02v5.25c0 .5.36.9.8.9h5.33c3.23 0 5.85-2.97 5.85-6.65v-7.56c0-4.95-3.53-8.96-7.89-8.96z"/><path fill="#3762cc" style="fill:var(--color22,#3762cc)" d="M17.46 30.96h-5.33c-.58 0-1.06-.53-1.06-1.17v-5.25l.01-.08V18.9a.27.27 0 0 1 0-.08v-1.51a.38.38 0 0 0-.37-.4H2.64a.9.9 0 0 1-.88-.89v-1.5A7.14 7.14 0 0 1 8.79 7.3h1.58c.34 0 .64.14.86.36a.86.86 0 0 1 .73-.41h3.46c4.5 0 8.15 4.13 8.15 9.21v7.57c0 3.81-2.74 6.91-6.1 6.91zm-5.86-6.32v5.15c0 .35.23.64.53.64h5.33c3.08 0 5.59-2.86 5.59-6.38v-7.57c0-4.8-3.42-8.7-7.63-8.7h-3.47c-.19 0-.35.2-.35.45v.33a.26.26 0 1 1-.53 0 .7.7 0 0 0-.7-.72H8.8c-3.59 0-6.5 3-6.5 6.7v1.49c0 .2.15.38.36.38h8.06c.48 0 .89.4.89.9v1.4l.01.1v5.73l-.01.1z"/><path fill="#f9cfcf" style="fill:var(--color21,#f9cfcf)" d="M14.25 21.59a2.7 2.7 0 1 1 0-.02v.02z"/><path fill="#f9a7a7" style="fill:var(--color24,#f9a7a7)" d="M18.86 13.13a2.57 2.57 0 0 0-1.27-1.97l-.02-.01c-.15-.93-1.03-1.65-2.1-1.65l-.14.01a2.13 2.13 0 0 0-1.93-1.22h-.05c-.47 0-.9.14-1.25.38a2.24 2.24 0 0 0-.96-.22c-.85 0-1.58.45-1.92 1.1l-.07.06h-.14c-1.17 0-2.12.86-2.12 1.92a1.9 1.9 0 0 0-1 1.63c0 1.01.85 1.84 1.93 1.92v.02s.7.14 1.42-.04a3.18 3.18 0 0 0 2.3.84c.3 0 .62-.03.94-.1l.3-.06c.47.24 1.03.38 1.62.38h.1c.57 0 1.11-.11 1.6-.32l-.03.01c.1.02.2.07.24.16l.7 1.16c.03.05.06.1.1.13.16.27.46.44.79.44h.07a.9.9 0 0 0 .92-.88V13.4c0-.09 0-.19-.02-.27z"/><path fill="#3762cc" style="fill:var(--color22,#3762cc)" d="M17.96 17.96h-.06c-.41 0-.8-.21-1.01-.55l-.11-.14-.7-1.17a4.35 4.35 0 0 1-1.83.28h.01A4.13 4.13 0 0 1 12.7 16l.03.01-.2.04a4.99 4.99 0 0 1-1.1.1 3.5 3.5 0 0 1-2.27-.82 3.73 3.73 0 0 1-1.45 0h.02c-1.2-.12-2.1-1.05-2.1-2.17 0-.72.37-1.38 1-1.8.1-1.12 1.13-2.02 2.38-2.02h.02a2.4 2.4 0 0 1 2.1-1.15c.33 0 .64.06.94.18.38-.23.83-.35 1.28-.35.92 0 1.73.47 2.14 1.22h.06c1.08 0 1.99.73 2.25 1.72V11a2.79 2.79 0 0 1 1.35 2.41v3.42c0 .63-.53 1.14-1.18 1.14zm-1.89-2.4h.04c.18.02.33.13.43.28l.69 1.16.06.08.03.05c.12.19.34.3.57.3h.07c.37 0 .66-.27.66-.61v-3.44c0-.09 0-.17-.02-.26v.01a2.3 2.3 0 0 0-1.15-1.75h-.01a.26.26 0 0 1-.13-.19c-.13-.81-.92-1.43-1.84-1.43h-.15c-.1 0-.2-.06-.23-.15a1.86 1.86 0 0 0-1.74-1.06c-.42 0-.8.12-1.11.34a.26.26 0 0 1-.25.01 1.97 1.97 0 0 0-.86-.19 1.9 1.9 0 0 0-1.68.96.27.27 0 0 1-.06.07l-.06.06a.25.25 0 0 1-.18.07H9c-1.02 0-1.85.74-1.86 1.66 0 .1-.05.17-.13.22-.51.27-.86.8-.87 1.41 0 .87.73 1.6 1.7 1.67a3.17 3.17 0 0 0 1.35-.03h-.03c.1-.02.2 0 .26.07.23.23.9.77 2.11.77.28 0 .58-.03.9-.09l.28-.06c.06-.02.14 0 .2.03.25.16.76.3 1.36.33h.06a4.84 4.84 0 0 0 .78-.05h-.03c.33-.04.63-.12.87-.22.04-.02.07-.03.11-.03z"/><path fill="#e0ebfc" style="fill:var(--color25,#e0ebfc)" d="M28.4.34h-9.15c-.91 0-1.65.73-1.65 1.64v7.36l-1.63 4.4a.41.41 0 0 0 .53.53l4.22-1.54h7.69c.9 0 1.64-.74 1.64-1.65v-9.1c0-.9-.73-1.64-1.64-1.64z"/><path fill="#3762cc" style="fill:var(--color22,#3762cc)" d="M16.35 14.57a.67.67 0 0 1-.47-.2.66.66 0 0 1-.16-.7l1.62-4.38V2c0-1.06.85-1.91 1.9-1.91h9.16c1.06 0 1.92.85 1.92 1.9v9.1A1.9 1.9 0 0 1 28.4 13h-7.64l-4.18 1.53a.76.76 0 0 1-.23.05zM19.25.6c-.77 0-1.39.62-1.39 1.38v7.36l-.01.09-1.64 4.41c-.03.08.02.14.04.16s.08.06.16.04l4.22-1.55a.25.25 0 0 1 .1-.02h7.67c.77 0 1.4-.62 1.4-1.38v-9.1c0-.77-.64-1.39-1.4-1.39h-9.15z"/><path fill="#4671c6" style="fill:var(--color23,#4671c6)" d="M27.23 5.01h-.06c.02-.08.02-.15.02-.24a1.75 1.75 0 0 0-2.14-1.7 1.76 1.76 0 0 0-3.33.86 1.76 1.76 0 0 0-2.41 1.46s-.02.08 0 .2c0 .12 0 .23.03.34.1.45.42 1.08 1.36 1.36h6.53a1.14 1.14 0 0 0 0-2.28z"/><path fill="#ffea92" style="fill:var(--color26,#ffea92)" d="M22.37 9.82a.39.39 0 0 1-.35-.56L23 7.28h-.62a.4.4 0 0 1-.33-.18.38.38 0 0 1-.06-.21.4.4 0 0 1 .04-.18l1.24-2.54a.4.4 0 0 1 .71.34L23 6.5h.62a.39.39 0 0 1 .35.56L22.72 9.6a.39.39 0 0 1-.35.22zm2.5 1.29a.39.39 0 0 1-.34-.56l.97-1.98h-.62a.4.4 0 0 1-.35-.57l1.24-2.54a.4.4 0 0 1 .53-.18c.19.09.27.32.18.52l-.98 1.98h.63a.39.39 0 0 1 .34.57l-1.24 2.54a.4.4 0 0 1-.35.22z"/><path fill="#3762cc" style="fill:var(--color22,#3762cc)" d="M11.05 11.69h-.02c-.75-.06-1.32-.31-1.67-.75a1.97 1.97 0 0 1-.4-1.43.26.26 0 0 1 .3-.22.26.26 0 0 1 .22.3s-.07.58.29 1.02c.27.32.7.51 1.3.56a.26.26 0 0 1-.01.52h-.01zm-1.8 3.63h-.02a.25.25 0 0 1-.18-.08c-.33-.33-.83-1.21-.28-2.15a.26.26 0 0 1 .45.28c-.48.8.18 1.48.2 1.5a.26.26 0 0 1-.16.45h-.03zm3.52.68h-.03a.26.26 0 0 1-.04-.51c.91-.23.93-1.17.93-1.22 0-.14.12-.25.26-.25.15 0 .26.11.26.25 0 .84-.59 1.54-1.37 1.73h-.01zm1.36-4.03c-.11 0-.2-.07-.24-.15-.28-.6-.3-1.13-.07-1.57.4-.78 1.43-.99 1.47-1h.05a.26.26 0 0 1 .05.52c-.01 0-.83.16-1.1.71-.16.3-.13.68.08 1.11a.26.26 0 0 1-.23.37h-.01z"/></symbol><symbol id="stress_1" viewBox="0 0 32 32"><path fill="#769cff" style="fill:var(--color27,#769cff)" d="M11.43 9h-.18a7.74 7.74 0 0 0-7.75 7.75v1.75L2 22l2 1 .5 4.5h4l1 3 8.5-4-.62-2.15a4.54 4.54 0 0 1 .06-2.72l-.01.04.91-2.85c1.5-4.85-1.94-9.74-6.91-9.81z"/><path fill="#a83b32" style="fill:var(--color28,#a83b32)" d="m11.5 18.5 2 .5v.5a1 1 0 0 0 1 1l.66-1.31c.23-.45.34-.95.34-1.46V16.5l-4 .5v1.5z"/><path fill="#c7463b" style="fill:var(--color29,#c7463b)" d="M6.5 17.5c0 1.1.9 2 2 2h2a2 2 0 0 0 2-2h-6z"/><path fill="#f5d3bd" style="fill:var(--color30,#f5d3bd)" d="M12.5 22v3l-3.62 3.63-.38-1.13 3-3V22h1z"/><path fill="#dc4d41" style="fill:var(--color31,#dc4d41)" d="M10.13 12h3.62a2.75 2.75 0 1 1 0 5.5H5.5v-.87A4.63 4.63 0 0 1 10.13 12z"/><path fill="#5786ff" style="fill:var(--color32,#5786ff)" d="M12.5 22v3l-3.62 3.63-.38-1.13 3-3V22h1z"/><path fill="#0094f6" style="fill:var(--color33,#0094f6)" d="M24.5 1.5a5.5 5.5 0 0 0-4.47 8.7l-.01-.01L19.5 12l2.19-.28A5.5 5.5 0 1 0 24.52 1.5h-.01z"/><path fill="#fbb540" style="fill:var(--color34,#fbb540)" d="M23.5 4H27l-1.5 2.5H27l-3.5 4 .5-3h-1l.5-3.5z"/><path fill="#0094f6" style="fill:var(--color33,#0094f6)" d="M14 7.86a.5.5 0 0 1-.47-.67l.66-1.85a.5.5 0 0 1 .34-.32l1.78-.45.68-1.3a.5.5 0 0 1 .93.26c0 .07-.02.14-.05.2l-.78 1.5a.5.5 0 0 1-.32.25l-1.73.44-.57 1.6a.5.5 0 0 1-.47.34zM23.37 22a.5.5 0 0 1-.34-.13l-1.24-1.14a.5.5 0 0 1-.17-.37l.01-1.79-1.4-.96a.5.5 0 0 1 .24-.93.5.5 0 0 1 .31.1l1.63 1.11c.14.1.23.25.23.42l-.02 1.83 1.09 1c.1.08.16.21.16.36a.5.5 0 0 1-.5.5zm.72-5.5a.5.5 0 0 1-.36-.15l-1.32-1.32-1.65.27a.5.5 0 0 1-.58-.49.5.5 0 0 1 .41-.5l1.92-.3h.09a.5.5 0 0 1 .35.14l1.29 1.3 1.64-.43a.5.5 0 0 1 .26.96l-1.93.5a.5.5 0 0 1-.1.02h-.02zM11.14 7.7a.5.5 0 0 1-.4-.19L9.65 6.08a.5.5 0 0 1-.09-.43l.35-1.3-.95-1.23a.5.5 0 0 1 .8-.6l1.09 1.43a.5.5 0 0 1 .08.43l-.34 1.3.94 1.23a.5.5 0 0 1-.4.8z"/><path fill="#a83b32" style="fill:var(--color28,#a83b32)" d="M15.5 14.5a.5.5 0 0 1-.5.5.5.5 0 0 0-.5.39c.31.28.5.67.5 1.1v.78c-.31.15-.65.25-1 .28V16.5a.5.5 0 0 0-.5-.5.5.5 0 1 1 0-1h.09c.2-.59.76-1 1.4-1H15c.28 0 .5.22.5.5zm-6 2.5v.5h-1V17a1 1 0 0 0-1-1 .5.5 0 1 1 0-1 2 2 0 0 1 2 2zm2.98-1.85a.5.5 0 0 1-.64.32 2.7 2.7 0 0 1-1.41-1.1h-.01c-.35.38-.85.63-1.41.63H9a.5.5 0 0 1 0-1 .9.9 0 0 0 .84-.6l.16-.48V12h1v.92c0 .74.48 1.37 1.14 1.6h.02a.5.5 0 0 1 .31.65z"/></symbol><symbol id="repeat" viewBox="0 0 32 32"><path fill="#6ea4f4" style="fill:var(--color35,#6ea4f4)" d="M16 32a16 16 0 1 0 0-32 16 16 0 1 0 0 32z"/><path fill="#387bdf" style="fill:var(--color36,#387bdf)" d="M16 0v32a16 16 0 1 0 0-32z"/><path fill="#f9f9f9" style="fill:var(--color37,#f9f9f9)" d="M21.94 7.96a.93.93 0 0 0-.43-.68A10.32 10.32 0 0 0 5.7 15.51v.02h-.96a.93.93 0 0 0-.75 1.5l2.82 3.75a.93.93 0 0 0 1.5 0l2.81-3.75c.21-.29.25-.66.09-.98s-.48-.51-.84-.51h-.92a6.58 6.58 0 0 1 9.78-5.24l-.03-.01c.37.2.83.13 1.12-.17l1.35-1.39c.2-.2.3-.48.26-.77z"/><path fill="#e2dff4" style="fill:var(--color38,#e2dff4)" d="m20.33 10.11 1.35-1.38a.93.93 0 0 0-.17-1.44c-1.56-1.01-3.47-1.6-5.51-1.6v3.75c1.1 0 2.21.29 3.2.84.37.21.83.14 1.13-.16z"/><path fill="#f9f9f9" style="fill:var(--color37,#f9f9f9)" d="m28 14.97-2.82-3.75a.93.93 0 0 0-1.5 0l-2.81 3.75a.93.93 0 0 0-.08.99v-.01c.16.32.48.52.83.52h.93a6.58 6.58 0 0 1-9.78 5.23l.03.02a.93.93 0 0 0-1.13.16l-1.35 1.4a.93.93 0 0 0 .17 1.43 10.32 10.32 0 0 0 15.8-8.23v-.01h.96a.93.93 0 0 0 .75-1.5z"/><path fill="#e2dff4" style="fill:var(--color38,#e2dff4)" d="m28 14.97-2.82-3.75a.93.93 0 0 0-1.5 0l-2.81 3.75a.93.93 0 0 0-.08.99v-.01c.16.32.48.52.83.52h.93a6.58 6.58 0 0 1-6.55 6.1v3.74c5.53 0 10.05-4.37 10.3-9.84h.95a.93.93 0 0 0 .75-1.5z"/></symbol><symbol id="premium-quality" viewBox="0 0 32 32"><path fill="#2fc0f0" style="fill:var(--color39,#2fc0f0)" d="M23.55 15.07v16.95H21.6l-5.59-5.9V15.07z"/><path fill="#9ee2f8" style="fill:var(--color40,#9ee2f8)" d="M16.01 15.07v11.05l-5.52 5.9H8.48V15.08z"/><path fill="#ff9f22" style="fill:var(--color41,#ff9f22)" d="m24.68 12.3.63 3.9-3.65 1.32-1.94 3.4-3.7-1.33V0l3 2.51h3.9l.69 3.9 3.01 2.5z"/><path fill="#ffda44" style="fill:var(--color42,#ffda44)" d="M16.01 0v19.6l-3.7 1.31-1.95-3.39-3.7-1.32.69-3.9L5.4 8.93 8.41 6.4l.63-3.89H13L16 0z"/><path fill="#fd5" style="fill:var(--color43,#fd5)" d="m20.03 9.36-4.02 3.01V9.98l2.9-2.13z"/><path fill="#fff68e" style="fill:var(--color44,#fff68e)" d="M16.01 9.98v2.39l-1.7 1.32-2.5-2.89 1.44-1.26 1.32 1.57z"/></symbol><symbol id="panic" viewBox="0 0 32 32"><path fill="#4671c6" style="fill:var(--color23,#4671c6)" d="M19.99 18.78H9a3.23 3.23 0 0 0-3.23 3.23v4.05H8.4v3.02h12v-3.02h2.8V22a3.23 3.23 0 0 0-3.23-3.23z"/><path fill="#f9cfcf" style="fill:var(--color21,#f9cfcf)" d="M5.79 26.06H8.4v3.02H5.8v-3.02z"/><path fill="#3762cc" style="fill:var(--color22,#3762cc)" d="M8.41 29.32H5.8a.25.25 0 0 1-.25-.25v-3.01c0-.14.1-.25.25-.25h2.6c.14 0 .25.11.25.25v3.01c0 .14-.1.25-.25.25zm-2.37-.5h2.12v-2.51H6.03v2.52z"/><path fill="#f9cfcf" style="fill:var(--color21,#f9cfcf)" d="M20.42 26.06h2.8v3.02h-2.8v-3.02z"/><path fill="#3762cc" style="fill:var(--color22,#3762cc)" d="M23.21 29.32h-2.8a.25.25 0 0 1-.24-.25v-3.01c0-.14.1-.25.25-.25h2.8c.13 0 .24.11.24.25v3.01c0 .14-.1.25-.25.25zm-2.54-.5h2.3v-2.51h-2.3v2.52z"/><path fill="#3762cc" style="fill:var(--color22,#3762cc)" d="M20.42 26.3a.25.25 0 0 1-.25-.24v-2.13a.25.25 0 0 1 .5 0v2.13c0 .14-.11.25-.25.25z"/><path fill="#f9cfcf" style="fill:var(--color21,#f9cfcf)" d="M11.27 15.97v3.11a3.22 3.22 0 0 0 6.45 0v-3.11h-6.45z"/><path fill="#3762cc" style="fill:var(--color22,#3762cc)" d="M20.42 29.32h-12a.25.25 0 0 1-.26-.25v-2.76H5.8a.25.25 0 0 1-.25-.25V22A3.48 3.48 0 0 1 9 18.53h2.01v-2.56c0-.13.12-.25.25-.25h6.45c.14 0 .25.12.25.25v2.56H20a3.48 3.48 0 0 1 3.48 3.48v4.05c0 .14-.12.25-.25.25h-2.55v2.77c0 .13-.11.25-.25.25zm-11.76-.5h11.5v-2.76c0-.14.12-.25.26-.25h2.54V22A2.98 2.98 0 0 0 20 19.03h-2.27a.25.25 0 0 1-.25-.25v-2.56h-5.95v2.56c0 .14-.1.25-.25.25H9.01a2.98 2.98 0 0 0-2.98 2.98v3.8h2.38c.14 0 .25.11.25.25v2.77z"/><path fill="#4671c6" style="fill:var(--color23,#4671c6)" d="M14.5 16.52a7.56 7.56 0 0 1-7.56-7.56V5.79c0-1.05.85-1.9 1.9-1.9h13.22v5.07a7.56 7.56 0 0 1-7.56 7.56z"/><path fill="#3762cc" style="fill:var(--color22,#3762cc)" d="M14.5 16.77c-4.3 0-7.81-3.5-7.81-7.82V5.8c0-1.19.96-2.15 2.15-2.15h13.22c.14 0 .25.11.25.25v5.07c0 4.3-3.5 7.8-7.81 7.8zM8.84 4.14c-.91 0-1.65.74-1.65 1.65v3.17a7.32 7.32 0 0 0 14.62 0V4.14H8.84z"/><path fill="#f9cfcf" style="fill:var(--color21,#f9cfcf)" d="M20.94 9.47v-.6c0-3.53-2.88-6.39-6.44-6.39S8.06 5.34 8.06 8.86v.6h-.05c-1.08 0-1.95.88-1.95 1.95 0 1.15 1 2.06 2.17 1.94.66 2.82 3.22 4.92 6.27 4.92s5.6-2.1 6.27-4.92a1.96 1.96 0 0 0 2.17-1.94c0-1.07-.87-1.94-1.95-1.94h-.05z"/><path fill="#3762cc" style="fill:var(--color22,#3762cc)" d="M14.5 18.52a6.65 6.65 0 0 1-6.46-4.91h-.02a2.19 2.19 0 0 1-2.22-2.2c0-.59.24-1.14.67-1.56a2.2 2.2 0 0 1 1.34-.62v-.37c0-3.65 3-6.63 6.69-6.63s6.69 2.98 6.69 6.63v.37a2.2 2.2 0 0 1 2 2.18 2.2 2.2 0 0 1-2.2 2.2h-.03a6.65 6.65 0 0 1-6.46 4.91zM8.23 13.1c.12 0 .22.08.24.19.66 2.79 3.14 4.73 6.03 4.73s5.37-1.94 6.03-4.73a.25.25 0 0 1 .27-.2l.18.02a1.69 1.69 0 0 0 1.71-1.7A1.7 1.7 0 0 0 21 9.7h-.05a.26.26 0 0 1-.18-.06.25.25 0 0 1-.07-.18v-.6c0-3.39-2.78-6.14-6.19-6.14s-6.2 2.76-6.2 6.15v.6c0 .14-.11.25-.25.25H8c-.47 0-.89.18-1.2.49a1.7 1.7 0 0 0 1.4 2.9v-.01h.02z"/><path fill="#4671c6" style="fill:var(--color23,#4671c6)" d="M22.06 8.23h-10.1a3.9 3.9 0 0 1 0-7.8h6.6a3.5 3.5 0 0 1 3.5 3.5v4.3z"/><path fill="#3762cc" style="fill:var(--color22,#3762cc)" d="M22.06 8.48h-10.1a4.15 4.15 0 0 1 0-8.3h6.61a3.75 3.75 0 0 1 3.74 3.74v4.31c0 .14-.11.25-.25.25zM11.96.68a3.65 3.65 0 0 0 0 7.3h9.85V3.92A3.24 3.24 0 0 0 18.57.68h-6.61zM8.4 26.31a.25.25 0 0 1-.25-.25v-2.13a.25.25 0 0 1 .5 0v2.13c0 .14-.11.25-.25.25z"/><path fill="#f9a7a7" style="fill:var(--color24,#f9a7a7)" d="M16.33 16.54c.17.02.34.02.5-.02a1.38 1.38 0 0 0 .02-2.68h-.01a1.3 1.3 0 0 0-.52-.02h.01a13.56 13.56 0 0 1-3.87-.01l-.3.03a1.38 1.38 0 0 0 0 2.68c.17.04.34.04.5.02 1.22-.17 2.45-.17 3.67 0z"/><path fill="#3762cc" style="fill:var(--color22,#3762cc)" d="M18.05 12.95a.25.25 0 0 1-.14-.04l-1.72-1.16a.25.25 0 0 1 0-.42l1.72-1.16a.25.25 0 0 1 .28.41l-1.42.96 1.42.95a.25.25 0 0 1-.13.46z"/><path fill="#3762cc" style="fill:var(--color22,#3762cc)" d="M18.85 11.79h-2.52a.25.25 0 0 1 0-.5h2.52a.25.25 0 0 1 0 .5zm-7.91 1.16a.25.25 0 0 1-.14-.46l1.42-.95-1.42-.96a.25.25 0 1 1 .28-.41l1.73 1.16a.25.25 0 0 1 0 .41l-1.73 1.17a.24.24 0 0 1-.14.04z"/><path fill="#3762cc" style="fill:var(--color22,#3762cc)" d="M12.67 11.79h-2.53a.25.25 0 0 1 0-.5h2.53a.25.25 0 0 1 0 .5z"/><path fill="#f9a7a7" style="fill:var(--color24,#f9a7a7)" d="M27.79 11.88h-3.27a.34.34 0 1 1 0-.69h3.27a.34.34 0 1 1 0 .7zM23.68 8.9a.34.34 0 0 1-.07-.49l2.31-3.08a.34.34 0 0 1 .55.42l-2.31 3.08a.34.34 0 0 1-.48.06zm2.24 8.85-2.31-3.09a.34.34 0 0 1 .55-.41l2.31 3.08c.04.06.06.13.06.2a.34.34 0 0 1-.6.22zM4.48 11.88H1.21a.34.34 0 1 1 0-.69h3.27a.34.34 0 1 1 0 .7zM2.6 17.82a.34.34 0 0 1-.07-.49l2.31-3.08a.35.35 0 0 1 .62.2c0 .08-.03.16-.07.21l-2.31 3.09a.34.34 0 0 1-.49.06zm2.24-9L2.53 5.75a.34.34 0 1 1 .55-.41l2.31 3.09c.04.05.06.12.06.2a.34.34 0 0 1-.6.21zm20.54 22.8a6.25 6.25 0 1 0 0-12.5 6.25 6.25 0 0 0 0 12.5z"/><path fill="#4671c6" style="fill:var(--color23,#4671c6)" d="m26.61 25.38 2.53-2.53a.87.87 0 0 0-.62-1.5c-.25 0-.46.1-.62.26l-2.53 2.53-2.52-2.53a.87.87 0 0 0-1.5.62c0 .24.1.46.26.62l2.53 2.52-2.53 2.53a.87.87 0 1 0 1.24 1.24l2.52-2.53 2.53 2.53a.87.87 0 0 0 1.5-.62c0-.24-.1-.46-.27-.62l-2.52-2.53z"/><path fill="#3762cc" style="fill:var(--color22,#3762cc)" d="M25.38 31.88a6.5 6.5 0 1 1 .01-13.02 6.5 6.5 0 0 1-.02 13.02zm0-12.5a6 6 0 1 0 0 12 6 6 0 0 0 0-12z"/></symbol><symbol id="pain" viewBox="0 0 32 32"><path fill="#f4b19d" style="fill:var(--color45,#f4b19d)" d="m30 20 .5 10.5H27s-1.5-11-1.5-12c0-.43-.1-1.53-.2-2.63A83.48 83.48 0 0 1 24 22c-.5 1.5-.5 8.5-.5 8.5h-15s0-7-.5-8.5c-.27-.8-.83-3.68-1.3-6.13-.08.72-.15 1.63-.2 2.54v.09c0 1-1.5 12-1.5 12H1.5L2 20S.5 9 2 6.5c1.28-2.15 9-2 10-2.5s1-2.49 1-2.49h6s0 2 1 2.5 8.71.35 10 2.5C31.5 9 30 20 30 20z"/><path fill="#dd9d8e" style="fill:var(--color46,#dd9d8e)" d="m5.5 12.1.99-.18.7 3.86-.98.18-.7-3.86zm19.31 3.68.7-3.88 1 .18-.71 3.88-.99-.18z"/><path fill="#5b97f0" style="fill:var(--color47,#5b97f0)" d="M12.5 11H20l-2 4.5h2.5l-5 8v-6H13l-.5-6.5z"/><path fill="#387bdf" style="fill:var(--color36,#387bdf)" d="M20 11h-1.14a10.06 10.06 0 0 1-5.84 5.85l-.07.03.05.62h2.5v6l5-8H18l2-4.5z"/></symbol><symbol id="mirror" viewBox="0 0 32 32"><path fill="#91def5" style="fill:var(--color48,#91def5)" d="M.64 3.14h24v21.5h-24V3.14z"/><path fill="#dff6fc" style="fill:var(--color49,#dff6fc)" d="M3.14 5.7h19v16.38h-19V5.7z"/><path fill="#ffbf9e" style="fill:var(--color50,#ffbf9e)" d="M12.6 15.17a2.87 2.87 0 0 1-2.87-2.88V11a2.88 2.88 0 1 1 5.76 0v1.28c0 1.6-1.28 2.88-2.88 2.88z"/><path fill="#98a2ff" style="fill:var(--color51,#98a2ff)" d="M15.42 15.17H9.86a4.22 4.22 0 0 0-4.23 4.22v2.69h14.02v-2.69c0-2.3-1.92-4.22-4.23-4.22z"/><path fill="#fff" style="fill:var(--color52,#fff)" d="m15.49 15.17-2.88 6.91-2.82-6.91h5.7z"/><path fill="#8690a6" style="fill:var(--color53,#8690a6)" d="M24.32 18.94a2.85 2.85 0 0 1-2.82-2.88v-1.28a2.88 2.88 0 1 1 5.76 0v1.28c0 1.6-1.28 2.88-2.88 2.88z"/><path fill="#7a87ff" style="fill:var(--color54,#7a87ff)" d="M27.2 18.94h-5.63a4.26 4.26 0 0 0-4.23 4.23v5.76h14.08v-5.76c0-2.3-1.92-4.23-4.22-4.23z"/><path fill="#5a73b4" style="fill:var(--color55,#5a73b4)" d="M27.2 18.37h-.13c.51-.64.83-1.41.83-2.3v-1.29a3.5 3.5 0 0 0-2.62-3.32V3.14a.64.64 0 0 0-.64-.64h-24a.64.64 0 0 0-.64.64v21.5c0 .32.26.64.64.64h16.13v3.52c0 .38.25.64.64.64h13.95c.38 0 .64-.26.64-.64v-5.7a4.8 4.8 0 0 0-4.8-4.8zm-.58-3.52v1.28a2.24 2.24 0 0 1-4.48 0v-1.28a2.24 2.24 0 0 1 4.48 0zM1.28 24V3.78H24v7.61c-.45 0-.9.13-1.28.39V5.7c0-.39-.26-.64-.64-.64h-6.6a.64.64 0 0 0 0 1.28h6.09v6.46a3.62 3.62 0 0 0-.64 1.92V16c0 .9.32 1.66.83 2.3h-.13c-.45 0-.96 0-1.4.2a4.87 4.87 0 0 0-4.67-3.97h-.26c.5-.64.83-1.41.83-2.3v-1.29a3.52 3.52 0 0 0-7.04 0v1.28c0 .9.32 1.67.83 2.3h-.13a4.86 4.86 0 0 0-4.8 4.8v2.06H3.71V6.34H9.8a.64.64 0 0 0 0-1.28H3.2a.64.64 0 0 0-.64.64v16.38c0 .32.26.64.64.64h13.63V24H1.28zm15.8-2.56h-3.51l2.3-5.57c1.67.2 3.01 1.54 3.14 3.2a4.89 4.89 0 0 0-1.91 2.34l-.01.03zm-7.67-5.57 2.3 5.57H6.27v-2.05c0-1.79 1.35-3.33 3.14-3.52zm.96-3.58V11a2.24 2.24 0 0 1 4.48 0v1.28a2.24 2.24 0 0 1-4.48 0zm4.16 3.52-1.92 4.6-1.92-4.6h3.84zm16.19 12.41H17.98v-5.05c0-1.92 1.6-3.59 3.59-3.59h5.63c1.92 0 3.52 1.6 3.52 3.59v5.12z"/><path fill="#4661a7" style="fill:var(--color56,#4661a7)" d="M12.6 6.34c.36 0 .65-.3.65-.64a.64.64 0 0 0-1.28 0c0 .35.28.64.64.64z"/></symbol><symbol id="message" viewBox="0 0 32 32"><path fill="#ffe07d" style="fill:var(--color57,#ffe07d)" d="M23.88 23.44c-.07-.32.06-.69.37-.82 2.69-1.37 4.44-3.68 4.44-6.37 0-3.25-2.75-6.06-6.57-7.13-4.8.26-8.68 3.38-8.68 7.26 0 3.93 4.12 7.18 9.25 7.18h.06c.25 0 .5.13.62.38l.38.5.31-.32-.19-.68z"/><path fill="#ffd064" style="fill:var(--color58,#ffd064)" d="M27.75 22.38c2.56-1.25 4.25-3.5 4.25-6 0-4-4.19-7.25-9.31-7.25-.7 0-1.38.06-2 .18 4.12.7 7.25 3.57 7.25 7.07 0 2.5-1.7 4.75-4.25 6-.25.18-.44.5-.38.8l.44 1.26c1.31 1.69 3.75 2.12 4.81 2.25.2 0 .32-.19.2-.38a10.66 10.66 0 0 1-1.38-3.12c-.07-.31.12-.63.37-.81z"/><path fill="#95d6a4" style="fill:var(--color59,#95d6a4)" d="M10.19 5.44C4.38 6.19 0 10.13 0 14.8c0 2.25 1 4.32 2.63 5.94.25.19.3.44.25.69A15.35 15.35 0 0 1 .56 26c.19.19.56.25.81.19a8.23 8.23 0 0 0 3.75-2.63c.32-.3.82-.43 1.25-.25.25.2.57.25.88.38.38.12.75.25 1.13.19h.24l1.57.31 2.31-.12c4.88-1.32 8.38-4.94 8.38-9.25 0-4.38-3.7-8.13-8.82-9.32z"/><path fill="#78c2a4" style="fill:var(--color60,#78c2a4)" d="M4.75 23.25A8.8 8.8 0 0 1 .56 26l-.25.31c-.12.13 0 .38.19.38 1.38-.07 5.13-.38 7.44-2.63a.7.7 0 0 1 .69-.18c-.94-.2-1.82-.5-2.63-.88-.44-.19-.94-.13-1.25.25zm7.44-17.94-2 .13c5.75.75 10.12 4.69 10.12 9.37s-4.37 8.63-10.12 9.38l2 .12c6.75 0 12.19-4.25 12.19-9.5s-5.44-9.5-12.2-9.5z"/><path fill="#f0f7ff" style="fill:var(--color61,#f0f7ff)" d="M5.88 14.76a1.2 1.2 0 1 1-2.39 0 1.2 1.2 0 0 1 2.4 0zm4.77 0a1.2 1.2 0 1 1-2.39 0 1.2 1.2 0 0 1 2.39 0zm4.78 0a1.2 1.2 0 1 1-2.4 0 1.2 1.2 0 0 1 2.4 0zm4.77 0a1.2 1.2 0 1 1-2.39 0 1.2 1.2 0 0 1 2.39 0z"/></symbol><symbol id="kiss" viewBox="0 0 32 32"><path fill="#e8c8b3" style="fill:var(--color62,#e8c8b3)" d="m13 11 2.5 1.5-.5 2h-3l1-3.5z"/><path fill="#f16465" style="fill:var(--color63,#f16465)" d="m24.14 3.58-2.5 2.52-2.53-2.52a1.22 1.22 0 1 1 1.72-1.73l.8.8.79-.8a1.22 1.22 0 1 1 1.73 1.73z"/><path fill="#e8c8b3" style="fill:var(--color62,#e8c8b3)" d="M13 8h4v3a2 2 0 1 1-4 0V8z"/><path fill="#683b0d" style="fill:var(--color64,#683b0d)" d="M18.5 7a1 1 0 0 1-1 1H15l-.5 1.5h-1l-.5 2a1 1 0 0 1-1-1V7.88C12 6.83 12.84 6 13.88 6h3.62a1 1 0 0 1 1 1z"/><path fill="#0bafea" style="fill:var(--color65,#0bafea)" d="M17.5 30.5H9v-13a3 3 0 0 1 3-3h3l.44.26a4.25 4.25 0 0 1 2.06 3.64v12.1z"/><path fill="#647bf1" style="fill:var(--color66,#647bf1)" d="M16 30.5h6V18a2 2 0 0 0-2-2h-2.5l-2.06 3.3a2.83 2.83 0 0 0 .4 3.54L16 23v7.5z"/><path fill="#4e68f2" style="fill:var(--color67,#4e68f2)" d="M20.5 17.5c.83 0 1.5.67 1.5 1.5v2.5h-3V19c0-.83.68-1.5 1.5-1.5z"/><path fill="#f5d3bd" style="fill:var(--color30,#f5d3bd)" d="M19 21.5v3L16 27l-1.5-.5-1.5 2 2 2 1.5-1.5 5.5-3.5v-4h-3z"/><path fill="#e8c8b3" style="fill:var(--color62,#e8c8b3)" d="M23.37 28.5H22v-3h1.37c.35 0 .63.28.63.62v1.75c0 .35-.28.63-.63.63z"/><path fill="#f5d3bd" style="fill:var(--color30,#f5d3bd)" d="m18 13.5-.5 2.5h2l.5-2-2-.5z"/><path fill="#f5d3bd" style="fill:var(--color30,#f5d3bd)" d="M18.5 14.3a2 2 0 0 1-1.13-2.6l1.09-2.78 3.72 1.46-1.1 2.8a2 2 0 0 1-2.6 1.12h.01z"/><path fill="#ea9d2d" style="fill:var(--color68,#ea9d2d)" d="M17.43 7.44a1 1 0 0 0 .56 1.3l1.86.73.57 1.3-1.46 3.72a1.5 1.5 0 0 0 2.8 1.11v-.01l1.65-4.2A2.5 2.5 0 0 0 22 8.17l-3.27-1.28a1 1 0 0 0-1.29.56z"/><path fill="#0a9acd" style="fill:var(--color69,#0a9acd)" d="M10.5 16c.83 0 1.5.67 1.5 1.5V20H9v-2.5c0-.83.67-1.5 1.5-1.5z"/><path fill="#e8c8b3" style="fill:var(--color62,#e8c8b3)" d="M12 20v3.5l4 3.5 2 .5.5 1.5-1 1.5H15l-1.5-2-4.5-4V20h3z"/></symbol><symbol id="food" viewBox="0 0 32 32"><path fill="#95d6a4" style="fill:var(--color59,#95d6a4)" d="M22 5.04c-.83.84-2.33 3.7-2.33 3.7l-.12-.05-4.77-2.16c-1-2.82-.67-5.28.32-5.28.96 0 2 2.4 2.03 2.47-.01-.1-.55-3.63 1.07-3.63.73 0 1.14.56 1.36 1.16.27.74.27 1.56.27 1.56S21.06.03 22.53.45c1.47.4.3 3.77-.52 4.6z"/><path fill="#78c2a4" style="fill:var(--color60,#78c2a4)" d="M19.3 7.72c.17.38.25.7.25.96l-4.77-2.15c-1-2.82-.67-5.28.32-5.28.96 0 2 2.4 2.03 2.47-.01-.1-.55-3.63 1.07-3.63.73 0 1.14.56 1.36 1.16-.56-1.16-2.22 2.2-.26 6.47z"/><path fill="#e49542" style="fill:var(--color70,#e49542)" d="M26.84 15.9c4.66-4.65 6.5-10.36 4.11-12.75s-8.1-.55-12.75 4.1c-4.66 4.67-6.5 10.38-4.1 12.76s8.09.55 12.74-4.1z"/><path fill="#e28424" style="fill:var(--color71,#e28424)" d="M14.1 20.01c-2.4-2.38-.56-8.1 4.1-12.75 4.65-4.65 10.37-6.5 12.76-4.1-1.01-1.01-5.6 1.95-10.26 6.6-4.65 4.66-7.61 9.25-6.6 10.25z"/><path fill="#e28424" style="fill:var(--color71,#e28424)" d="M28.5 9.11 25 5.61a1.04 1.04 0 0 0-1.46 1.47h-.01l3.5 3.5c.19.18.44.28.72.28a1.04 1.04 0 0 0 .75-1.75zm-4.01 4.02-3.51-3.51a1.04 1.04 0 0 0-1.46 1.47l3.5 3.5c.19.19.45.3.74.3a1.04 1.04 0 0 0 .73-1.77z"/><path fill="#80b4fb" style="fill:var(--color72,#80b4fb)" d="M14.25 8.27c-.05.7-.16 2.14-.41 3.49-.1.52-.46.96-.96 1.17-.44.18-.91.48-.91.94a1 1 0 0 0 .07.4H5.26a.9.9 0 0 0 .08-.4c0-.46-.47-.76-.91-.94-.5-.2-.85-.64-.95-1.17a28.65 28.65 0 0 1-.4-3.5c-.03-.3.04-.6.19-.87A10 10 0 0 1 6.7 4.17V1h3.9v3.17s2.3 1.25 3.43 3.22c.15.27.22.58.2.88z"/><path fill="#61a2f9" style="fill:var(--color73,#61a2f9)" d="M6.7 2.01h3.91v1.15h-3.9V2.01z"/><path fill="#61a2f9" style="fill:var(--color73,#61a2f9)" d="M7.8 1.85v2.32S6.14 5.42 5.47 7.4c-.1.27-.13.58-.12.88.03.7.1 2.14.24 3.49.06.52.27.96.56 1.17.26.18.54.48.54.94 0 .15 0 .28-.04.4H5.27a1 1 0 0 0 .08-.4c0-.46-.48-.76-.92-.94-.5-.2-.85-.64-.95-1.17a28.65 28.65 0 0 1-.4-3.5c-.03-.3.04-.6.2-.87A10 10 0 0 1 6.7 4.17v-1.8l1.09-.52z"/><path fill="#a698ff" style="fill:var(--color74,#a698ff)" d="M10.16.15h-3A.85.85 0 0 0 6.3 1v1.36H11V1a.85.85 0 0 0-.84-.85z"/><path fill="#8673ff" style="fill:var(--color75,#8673ff)" d="M8.84.15a.85.85 0 0 0-.85.85v1.36H6.3V1c0-.47.39-.85.85-.85h1.69z"/><path fill="#a698ff" style="fill:var(--color74,#a698ff)" d="M30.16 17.16s-.03.95-.12 2.4c-.13 2.12-.4 5.31-.92 8.34a4.82 4.82 0 0 1-4.74 4.01H7.62a4.81 4.81 0 0 1-4.74-3.98v-.03a79.92 79.92 0 0 1-1.05-10.6v-.13h28.33z"/><path fill="#8673ff" style="fill:var(--color75,#8673ff)" d="M30.16 17.16s-.03.95-.12 2.4c-.15.04-.3.06-.45.06-9.06.17-18.11.17-27.17 0-.16 0-.31-.02-.46-.06-.1-1.45-.12-2.4-.12-2.4h28.32z"/><path fill="#8673ff" style="fill:var(--color75,#8673ff)" d="M9.7 31.91H7.62a4.81 4.81 0 0 1-4.74-3.98v-.03a90.2 90.2 0 0 1-1.05-10.74h3.5s.13 5.61.79 10.74c.3 2.3 1.8 4.01 3.57 4.01z"/><path fill="#ededed" style="fill:var(--color76,#ededed)" d="M20.33 6.83a50.06 50.06 0 0 0-10-.12h.2c-.44.03-.6.34-1.03.4-.42 3.61-.69 6.96-.28 10.58 3.7.4 7.4.4 11.1 0a48.1 48.1 0 0 0 0-10.86z"/><path fill="#dbdbdb" style="fill:var(--color77,#dbdbdb)" d="M10.52 17.81c-.63-.05-1.08-.1-1.53-.15l.23.02A46.97 46.97 0 0 1 9.25 6.6l-.03.23 1.3-.13a49.7 49.7 0 0 0 .02 11.34l-.02-.23z"/><path fill="#6d6aff" style="fill:var(--color78,#6d6aff)" d="M29.58 18.3a687 687 0 0 1-27.16 0 2.4 2.4 0 0 1-2.3-1.9l-.01-.02a5.14 5.14 0 0 1 0-2.16v.03a2.41 2.41 0 0 1 2.3-1.92c9.06-.18 18.11-.18 27.17 0a2.4 2.4 0 0 1 2.3 1.9l.01.02c.15.7.15 1.42 0 2.13a2.41 2.41 0 0 1-2.3 1.92z"/><path fill="#5350ff" style="fill:var(--color79,#5350ff)" d="m4.74 18.35-2.32-.04a2.4 2.4 0 0 1-2.3-1.91l-.01-.02a5.14 5.14 0 0 1 0-2.16v.03a2.41 2.41 0 0 1 2.3-1.92l2.33-.04a2.5 2.5 0 0 0-1.84 1.9v.02a5.33 5.33 0 0 0 0 2.25v-.04c.19.95.9 1.7 1.82 1.93h.02z"/><path fill="#365e7d" style="fill:var(--color80,#365e7d)" d="M9.61 21.06H9.6c-.85 0-1.53.68-1.55 1.52-.05 1.3-.05 2.61 0 3.92.02.84.7 1.5 1.55 1.51h.02c.85 0 1.53-.67 1.56-1.51.03-1.31.03-2.61 0-3.92a1.56 1.56 0 0 0-1.56-1.52zm6.4 0H16c-.85 0-1.54.68-1.56 1.52a67.3 67.3 0 0 0 0 3.92c.03.84.71 1.51 1.56 1.51.85 0 1.53-.67 1.56-1.51.04-1.31.04-2.61 0-3.92A1.56 1.56 0 0 0 16 21.06zm6.4 0h-.02c-.85 0-1.54.68-1.56 1.52a67.3 67.3 0 0 0 0 3.92c.03.84.71 1.51 1.56 1.51h.02c.84 0 1.53-.67 1.55-1.51.05-1.31.05-2.61 0-3.92a1.56 1.56 0 0 0-1.55-1.52z"/><path fill="#407093" style="fill:var(--color81,#407093)" d="M7.92 14.46a4.6 4.6 0 0 0-1.03-.37l-.04-.01a1.59 1.59 0 0 0-1.83.96v.01c-.88 2.03-2.24 5.69-3.52 9.4L1 26.1a1.59 1.59 0 0 0 .76 1.92h.01c.35.17.7.3 1.07.38.77.18 1.55-.24 1.83-.97 1.44-3.65 2.77-7.34 4.02-11.05a1.59 1.59 0 0 0-.76-1.92z"/><path fill="#365e7d" style="fill:var(--color80,#365e7d)" d="m2.22 28.22-.45-.2a1.59 1.59 0 0 1-.76-1.93v.02c1.24-3.72 2.58-7.4 4.02-11.06a1.6 1.6 0 0 1 1.84-.97h-.01l.46.13c-.52.14-.93.51-1.12 1-.92 2.1-2.35 5.92-3.67 9.78L2 26.73a1.64 1.64 0 0 0 .23 1.5z"/><path fill="#407093" style="fill:var(--color81,#407093)" d="M25.15 14.08c-.38.08-.73.21-1.07.38a1.6 1.6 0 0 0-.77 1.93c1.25 3.71 2.59 7.4 4.02 11.05a1.6 1.6 0 0 0 1.84.97h-.01c.4-.1.76-.23 1.09-.4l-.03.02a1.6 1.6 0 0 0 .77-1.94v.02a202.73 202.73 0 0 0-4.58-12.65l.56 1.6a1.6 1.6 0 0 0-1.84-.98h.01z"/><path fill="#365e7d" style="fill:var(--color80,#365e7d)" d="M29.63 28.28a3.93 3.93 0 0 1-.82.17c-.67 0-1.24-.42-1.48-1v-.01c-.89-2.02-2.25-5.68-3.52-9.38l-.5-1.67a1.59 1.59 0 0 1 .76-1.92l.46-.2a1.65 1.65 0 0 0-.22 1.5v-.01c1.85 5.6 3.27 9.41 4.78 13.18l-.59-1.66c.2.5.63.87 1.13 1z"/><path fill="#a698ff" style="fill:var(--color74,#a698ff)" d="M10.92 2.83H6.4a.47.47 0 1 1 0-.94h4.52a.47.47 0 1 1 0 .94z"/><path fill="#8673ff" style="fill:var(--color75,#8673ff)" d="M7.8 2.83H6.4a.47.47 0 1 1 0-.94h1.4a.47.47 0 1 0 0 .94z"/></symbol><symbol id="expand" viewBox="0 0 32 32"><path fill="#b3c1f2" style="fill:var(--color82,#b3c1f2)" d="M16 0a16 16 0 1 1 0 32 16 16 0 0 1 0-32z"/><path fill="#808aad" style="fill:var(--color83,#808aad)" d="M23.03 14.5H17.5V8.97a1.5 1.5 0 0 0-3 0v5.53H8.97a1.5 1.5 0 0 0 0 3h5.53v5.53a1.5 1.5 0 0 0 3 0V17.5h5.53a1.5 1.5 0 0 0 0-3z"/></symbol><symbol id="anxiety" viewBox="0 0 32 32"><path fill="#f9a7a7" style="fill:var(--color24,#f9a7a7)" d="M30.64 18.21a14.84 14.84 0 1 0-29.29-4.83v.08a14.84 14.84 0 0 0 29.29 4.84v-.09z"/><path fill="#e0ebfc" style="fill:var(--color25,#e0ebfc)" d="M16 31.19A15.36 15.36 0 0 1 .66 15.84 15.36 15.36 0 0 1 16 .5a15.36 15.36 0 0 1 15.34 15.34c0 8.47-6.87 15.34-15.34 15.35zm0-29.7A14.36 14.36 0 0 0 1.66 15.85c0 7.92 6.42 14.34 14.34 14.35a14.36 14.36 0 0 0 14.34-14.35A14.36 14.36 0 0 0 16 1.5z"/><path fill="#e0ebfc" style="fill:var(--color25,#e0ebfc)" d="M16 28.14a12.3 12.3 0 1 1 12.3-12.3c0 6.78-5.52 12.3-12.3 12.3zm0-23.6a11.3 11.3 0 1 0 .01 22.57A11.3 11.3 0 0 0 16 4.55z"/><path fill="#e0ebfc" style="fill:var(--color25,#e0ebfc)" d="M16 25.09a9.26 9.26 0 1 1 9.25-9.25c0 5.1-4.15 9.25-9.25 9.25zm0-17.5a8.26 8.26 0 0 0 0 16.5 8.26 8.26 0 0 0 0-16.5z"/><path fill="#6bdddd" style="fill:var(--color84,#6bdddd)" d="M20.25 24.13h-8.5a2.5 2.5 0 0 0-2.5 2.5V31h13.5v-4.38a2.5 2.5 0 0 0-2.5-2.5z"/><path fill="#4671c6" style="fill:var(--color23,#4671c6)" d="M16 22.04a6.31 6.31 0 0 1-6.31-6.31V13.7c0-.57.47-1.03 1.04-1.03H22.3v3.06a6.31 6.31 0 0 1-6.3 6.3z"/><path fill="#3762cc" style="fill:var(--color22,#3762cc)" d="M16 22.3a6.57 6.57 0 0 1-6.56-6.58v-2.01c0-.72.58-1.3 1.29-1.3H22.3c.14 0 .26.12.26.26v3.06A6.57 6.57 0 0 1 16 22.29zm-5.27-9.39a.79.79 0 0 0-.8.8v2.01a6.07 6.07 0 0 0 12.13.02v-2.82H10.73z"/><path fill="#f9cfcf" style="fill:var(--color21,#f9cfcf)" d="M16 23.76c-.9 0-1.75-.21-2.5-.6v1.17a2.5 2.5 0 0 0 5 0v-1.17c-.75.38-1.6.6-2.5.6z"/><path fill="#f9cfcf" style="fill:var(--color21,#f9cfcf)" d="M21.38 16.42v-.52c0-2.93-2.41-5.31-5.38-5.31h-.03a5.35 5.35 0 0 0-5.35 5.32v.5h-.04c-.9 0-1.63.73-1.63 1.62 0 .96.84 1.73 1.82 1.62a5.37 5.37 0 0 0 5.2 4.11h.05a5.37 5.37 0 0 0 5.2-4.07l.02-.04.18.02a1.63 1.63 0 1 0-.04-3.25z"/><path fill="#3762cc" style="fill:var(--color22,#3762cc)" d="M16 24.01a5.6 5.6 0 0 1-5.43-4.1 1.9 1.9 0 0 1-1.87-1.87c0-.97.73-1.76 1.67-1.87v-.26c0-3.07 2.53-5.58 5.63-5.58s5.63 2.5 5.63 5.58v.26a1.88 1.88 0 0 1-.2 3.74 5.6 5.6 0 0 1-5.4 4.1H16zm-5.23-4.6c.11 0 .21.07.24.19a5.1 5.1 0 0 0 4.95 3.91h.08a5.1 5.1 0 0 0 4.94-3.88l.01-.03a.26.26 0 0 1 .27-.2c.4.04.8-.08 1.09-.35a1.37 1.37 0 0 0-.92-2.39h-.05a.26.26 0 0 1-.25-.25v-.5c0-2.8-2.3-5.07-5.13-5.07a5.1 5.1 0 0 0-5.12 5.07v.5c0 .15-.12.26-.26.26h-.03a1.38 1.38 0 0 0-.93 2.38 1.38 1.38 0 0 0 1.11.36z"/><path fill="#4671c6" style="fill:var(--color23,#4671c6)" d="M19.57 14.87h-6.15a2.78 2.78 0 0 1 0-5.54h8.9v2.8a2.75 2.75 0 0 1-2.75 2.75z"/><path fill="#3762cc" style="fill:var(--color22,#3762cc)" d="M19.57 15.12h-6.15a3.03 3.03 0 0 1 0-6.04h8.9c.12 0 .24.11.24.25v2.8a3 3 0 0 1-3 3zm-6.15-5.55a2.53 2.53 0 0 0 0 5.06h6.14a2.5 2.5 0 0 0 2.5-2.5V9.57h-8.64z"/><path fill="#f9a7a7" style="fill:var(--color24,#f9a7a7)" d="M14.54 21.7a.45.45 0 0 1-.32-.78c.25-.25.6-.46 1-.58a2.74 2.74 0 0 1 2.56.58.46.46 0 1 1-.65.65 1.45 1.45 0 0 0-.6-.35h-.01a1.79 1.79 0 0 0-.52-.07c-.2 0-.37.02-.53.07-.24.07-.45.19-.6.35a.46.46 0 0 1-.33.13z"/><path fill="#3762cc" style="fill:var(--color22,#3762cc)" d="M19.44 18.14c-1.24 0-2.17-1-2.21-1.05a.26.26 0 0 1 .37-.33c.01 0 1.06 1.14 2.3.83a.26.26 0 0 1 .11.48c-.19.05-.38.07-.57.07z"/><path fill="#3762cc" style="fill:var(--color22,#3762cc)" d="M17.99 17.4c-.12.14-.2.3-.2.5v.66a.72.72 0 1 0 1.45 0v-.68c-.47-.06-.9-.22-1.26-.48H18zm-5.51.75a2.6 2.6 0 0 1-.56-.07.26.26 0 0 1 .1-.49h.02c1.23.31 2.28-.82 2.28-.83.04-.03.1-.04.15-.04a.26.26 0 0 1 .22.38 3.27 3.27 0 0 1-2.2 1.05z"/><path fill="#3762cc" style="fill:var(--color22,#3762cc)" d="M13.93 17.4c.13.14.2.3.2.5v.66a.72.72 0 1 1-1.44 0v-.68c.47-.06.9-.23 1.25-.48zm8.82 13.85H9.25A.26.26 0 0 1 9 31v-4.38a2.75 2.75 0 0 1 2.76-2.75h1.5v-.71a.25.25 0 0 1 .36-.23 5.1 5.1 0 0 0 4.78-.01l-.02.01a.26.26 0 0 1 .37.22v.73h1.5A2.75 2.75 0 0 1 23 26.62V31c0 .13-.12.25-.26.25zm-13.25-.5h13v-4.13c0-1.24-1.01-2.24-2.25-2.24H18.5a.26.26 0 0 1-.26-.26v-.57a5.58 5.58 0 0 1-4.52-.01l.03.01v.58c0 .14-.11.25-.25.25h-1.75c-1.23 0-2.23 1-2.24 2.24v4.13z"/><path fill="#e0ebfc" style="fill:var(--color25,#e0ebfc)" d="M19.44 3.9a4.62 4.62 0 0 0-3.35-1.46h-.14c-1.34 0-2.54.56-3.38 1.47s-.52.54-.9 1.17l1.05 1.07.2.19a4.58 4.58 0 0 0 6.16 0l.2-.19 1.06-1.07c-.38-.64-.9-1.17-.9-1.17z"/><path fill="#4671c6" style="fill:var(--color23,#4671c6)" d="M16.06 7.42a2.43 2.43 0 1 0 0-4.87 2.43 2.43 0 0 0 0 4.87z"/><path fill="#a4c9ff" style="fill:var(--color85,#a4c9ff)" d="M16.06 6.31h-.01a1.32 1.32 0 0 1-1.24-1.76v.01a1.33 1.33 0 1 1 1.25 1.75z"/><path fill="#3762cc" style="fill:var(--color22,#3762cc)" d="M16.03 7.78h-.04a4.82 4.82 0 0 1-3.45-1.46l-1.06-1.06a.25.25 0 0 1-.04-.3c.3-.47.6-.87.95-1.23a4.84 4.84 0 0 1 3.7-1.53c1.38 0 2.64.6 3.52 1.53.03.03.55.57.95 1.22.06.1.04.23-.04.31l-1.07 1.07-.2.2a4.82 4.82 0 0 1-3.22 1.25zm-2.94-1.62c.77.7 1.8 1.12 2.92 1.12h.07a4.33 4.33 0 0 0 2.84-1.12l1.1-1.11c-.35-.53-.76-.96-.76-.97a4.36 4.36 0 0 0-3.18-1.39h-.14c-1.26 0-2.4.54-3.2 1.4-.05.05-.44.46-.76.96l1.11 1.12z"/><path fill="#e0ebfc" style="fill:var(--color25,#e0ebfc)" d="M7.76 13.98A3.14 3.14 0 0 0 5.5 13h-.11c-.9 0-1.72.38-2.3 1s-.35.36-.61.8l.73.72.13.13a3.12 3.12 0 0 0 4.2 0h-.01l.14-.13.72-.73c-.26-.43-.61-.8-.61-.8z"/><path fill="#4671c6" style="fill:var(--color23,#4671c6)" d="M5.47 16.37h.1a1.66 1.66 0 1 0-.1-3.3 1.66 1.66 0 0 0 0 3.3z"/><path fill="#a4c9ff" style="fill:var(--color85,#a4c9ff)" d="M5.47 15.62a.9.9 0 1 1 .85-.6V15a.9.9 0 0 1-.85.6z"/><path fill="#3762cc" style="fill:var(--color22,#3762cc)" d="M5.44 16.7h-.03c-.94 0-1.8-.39-2.4-1.01l-.72-.73a.25.25 0 0 1-.03-.3c.27-.45.63-.84.64-.85a3.38 3.38 0 0 1 2.58-1.07c.97 0 1.84.42 2.46 1.07.01.02.38.4.65.85a.26.26 0 0 1-.03.3l-.73.73-.14.13-.01.01c-.58.52-1.34.85-2.17.87h-.07zM3.5 15.46c.51.46 1.2.74 1.94.74h.04c.72-.02 1.37-.3 1.87-.74l.12-.13.59-.58a5.15 5.15 0 0 0-.49-.6 2.88 2.88 0 0 0-2.1-.92H5.4c-.84 0-1.6.36-2.12.93-.05.05-.27.3-.48.6l.58.57.13.12z"/><path fill="#e0ebfc" style="fill:var(--color25,#e0ebfc)" d="M28.91 13.98a3.14 3.14 0 0 0-2.27-.99h-.1c-.91 0-1.73.38-2.3 1s-.36.36-.62.8l.72.72.14.13a3.12 3.12 0 0 0 4.19 0l.14-.13.72-.73c-.26-.43-.62-.8-.62-.8z"/><path fill="#4671c6" style="fill:var(--color23,#4671c6)" d="M26.62 16.37h.1a1.66 1.66 0 1 0-.1-3.3 1.66 1.66 0 0 0 0 3.3z"/><path fill="#a4c9ff" style="fill:var(--color85,#a4c9ff)" d="M26.62 15.62a.9.9 0 1 1 .85-.6V15a.9.9 0 0 1-.86.6z"/><path fill="#3762cc" style="fill:var(--color22,#3762cc)" d="M26.6 16.7h-.06a3.3 3.3 0 0 1-2.38-1.01l-.72-.73a.25.25 0 0 1-.03-.3c.27-.45.63-.84.65-.85a3.37 3.37 0 0 1 2.56-1.07h.02c.96 0 1.84.41 2.45 1.07.02.01.38.4.65.85.06.1.04.22-.03.3l-.73.73-.13.12v.02a3.4 3.4 0 0 1-2.18.87h-.07zm-1.95-1.24c.52.47 1.23.74 1.95.74h.03a2.87 2.87 0 0 0 2-.87l.58-.58a5.14 5.14 0 0 0-.48-.6 2.89 2.89 0 0 0-2.07-.9h-.04l-.08-.01c-.84 0-1.6.35-2.12.92-.02.02-.26.27-.48.6l.58.57.13.13z"/></symbol></defs></svg>