<svg width="30" height="30" fill="none" xmlns="http://www.w3.org/2000/svg"><g clip-path="url('#clip0_4_54')"><path d="m.519 13.995 7.336 3.657a.94.94 0 0 0 .89-.029l6.53-3.796-3.953 3.502a.939.939 0 0 0-.316.703v8.531c0 .9 1.149 1.279 1.688.564l3.171-4.216 7.842 4.466a.937.937 0 0 0 1.383-.63l4.891-24.375c.146-.733-.582-1.33-1.26-1.058L.596 12.283c-.755.295-.804 1.351-.077 1.713Zm27.287-10.31-4.299 21.42-7.43-4.232a.94.94 0 0 0-1.215.251l-1.98 2.634v-5.305l10.688-9.47c.846-.749-.126-2.08-1.093-1.513L8.24 15.748l-4.99-2.486 24.556-9.578Z" fill="#000"/></g><defs><clipPath id="clip0_4_54"><path fill="#fff" d="M0 0h30v30H0z"/></clipPath></defs></svg>