<svg width="30" height="30" fill="none" xmlns="http://www.w3.org/2000/svg"><g clip-path="url('#clip0_4_48')" fill="#000"><path d="M7.91 25.472c-.039 1.831-.255 3.924 1.339 4.429 1.563.509 2.469-.748 4.506-3.298 7.598.52 14.304-1.617 15.201-9.276.804-6.809-.235-11.902-2.908-14.326C22.127-.757 9.363-1.283 4.69 3.183 2.766 5.185 1.83 8.121 1.741 12.425c-.07 3.515-.216 10.702 6.17 13.047ZM3.616 12.463c.078-3.803.848-6.34 2.397-7.952C9.914.783 21.475 1.215 24.769 4.375c2.199 1.99 3.048 6.632 2.326 12.733-.655 5.595-4.257 6.55-5.613 6.91a23.326 23.326 0 0 1-8.055.68c-.677-.073-.943.567-1.19.8-1.223 1.47-2.105 2.533-2.334 2.675-.169-.25-.143-1.44-.123-2.395-.061-.43.324-1.618-.68-1.887-5.681-1.678-5.552-8.019-5.484-11.428Z"/><path d="M7.202 9.975C8.204 11.971 9.18 15.5 12.93 18.57c1.3 1.072 5.196 3.547 6.72 3.547 2.18 0 4.668-3.427 2.846-4.956-.82-.801-1.974-1.59-2.714-2.024h-.002c-1.922-1.112-2.974.933-3.1 1.013-2.814 2.52-6.282-1.858-3.852-3.975.3-.371 2.082-1.231 1.024-3.186-.937-1.697-1.556-2.28-1.906-2.764-1.846-2.305-5.841 1.524-4.743 3.751Zm11.468 6.716c.127.08 1.239.567 2.565 1.858.169.141-.956 1.776-1.673 1.682-.14-.063-1.162-.307-3.356-1.648 2.083-.708 2.065-1.817 2.464-1.892Zm-8.333-9.28c.078-.042.118-.045.114-.055.36.502.898.98 1.755 2.53.228.422-.334.585-.696.955a4.127 4.127 0 0 0-1.128 1.604c-.767-1.449-1.11-2.492-1.46-3.222-.14-.665.82-1.473 1.415-1.813Z"/><path d="M16.015 10.687c.014.002 1.374.175 1.618 1.639.206 1.242 2.05.909 1.848-.308-.378-2.273-2.292-3.083-3.253-3.193-1.232-.139-1.443 1.72-.213 1.862Z"/><path d="M15.039 6.645c.021 0 2.972-.053 4.894 2.002 1.897 2.03 1.478 4.982 1.475 5.008-.192 1.216 1.656 1.539 1.85.291.026-.156.577-3.87-1.955-6.58-2.514-2.69-6.17-2.606-6.322-2.596-1.28.042-1.126 1.972.058 1.875Z"/></g><defs><clipPath id="clip0_4_48"><path fill="#fff" d="M0 0h30v30H0z"/></clipPath></defs></svg>