<svg width="30" height="30" fill="none" xmlns="http://www.w3.org/2000/svg"><g clip-path="url('#clip0_4_44')" fill="#000"><path d="M16.663 22.595c5.062 1.205 6.843-3.125 5.951-4.741-.358-.645-3.57-1.884-3.726-1.944-1.38-.502-1.89.435-2.847 1.669-1.836-.919-3.067-1.643-4.332-3.7.071-.089.166-.194.238-.274.442-.495 1.27-1.418.706-2.546-.475-.946-.712-1.606-.885-2.09-.504-1.401-.888-1.781-2.623-1.781-1.806 0-3.207 2.373-3.207 4.417 0 4.461 5.997 9.861 10.725 10.99ZM9.145 9.063c.375 0 .565.012.66.027.203.429.408 1.324 1.163 2.716-.118.439-1.787 1.468-1.013 2.798 1.582 2.685 3.164 3.616 5.431 4.744 1.51.682 1.993-.554 2.95-1.64.444.18 1.942.842 2.6 1.175-.06 1.294-1.31 2.49-3.838 1.887-4.34-1.036-9.287-5.919-9.287-9.166.002-1.235.868-2.541 1.334-2.541Z"/><path d="M.104 28.856a.937.937 0 0 0 .903 1.186c.225 0-.142.058 7.31-1.875 3.034 1.545 5.34 1.497 6.813 1.635 13.194 0 19.656-16.09 10.576-25.453C13.26-7.681-6.124 7.269 1.987 22.008L.104 28.855Zm24.11-23.34c.216.395 6.418 5.989 2.965 14.348-2.127 5.15-7.033 8.323-12.53 8.026-4.473-.249-5.63-1.846-6.454-1.628L2.34 27.788l1.556-5.655a.938.938 0 0 0-.09-.72C-3.674 8.51 13.238-4.76 24.213 5.517Z"/></g><defs><clipPath id="clip0_4_44"><path fill="#fff" d="M0 0h30v30H0z"/></clipPath></defs></svg>