<svg width="50" height="50" viewBox="0 0 50 50" fill="none" xmlns="http://www.w3.org/2000/svg">
<g clip-path="url(#clip0_22_1487)">
<path d="M25 50C38.8071 50 50 38.8071 50 25C50 11.1929 38.8071 0 25 0C11.1929 0 0 11.1929 0 25C0 38.8071 11.1929 50 25 50Z" fill="#6EA4F4"/>
<path d="M25 0V50C38.8071 50 50 38.8071 50 25C50 11.1929 38.8071 0 25 0Z" fill="#387BDF"/>
<path d="M34.278 12.4442C34.2263 12.006 33.9797 11.6143 33.6067 11.3782C31.0319 9.74824 28.0558 8.88672 25 8.88672C16.3606 8.88672 9.28837 15.7214 8.90409 24.2676H7.42187C6.86347 24.2676 6.36142 24.5778 6.11171 25.0773C5.86191 25.5768 5.91493 26.1646 6.24999 26.6113L10.6445 32.4707C10.9238 32.8431 11.3509 33.0566 11.8164 33.0566C12.2819 33.0566 12.709 32.8431 12.9883 32.4707L17.3828 26.6113C17.7179 26.1646 17.7709 25.5768 17.5211 25.0773C17.2714 24.5778 16.7693 24.2676 16.2109 24.2676H14.7726C15.1494 18.9541 19.5923 14.7461 25 14.7461C26.7341 14.7461 28.462 15.2013 29.9968 16.0624C30.5759 16.3875 31.3009 16.2822 31.7637 15.8063L33.8733 13.6371C34.181 13.3208 34.3298 12.8825 34.278 12.4442Z" fill="#F9F9F9"/>
<path d="M31.7637 15.8063L33.8733 13.6371C34.1811 13.3208 34.3297 12.8824 34.278 12.4441C34.2264 12.0059 33.9797 11.6142 33.6067 11.3781C31.0319 9.74824 28.0558 8.88672 25 8.88672V14.7461C26.7341 14.7461 28.462 15.2013 29.9968 16.0624C30.5759 16.3876 31.3009 16.2822 31.7637 15.8063Z" fill="#E2DFF4"/>
<path d="M43.75 23.3887L39.3555 17.5293C39.0762 17.1569 38.6491 16.9434 38.1836 16.9434C37.7181 16.9434 37.291 17.1569 37.0117 17.5293L32.6172 23.3887C32.2821 23.8354 32.2291 24.4232 32.4789 24.9227C32.7286 25.4222 33.2307 25.7324 33.7891 25.7324H35.2274C34.8506 31.0459 30.4077 35.2539 25 35.2539C23.2659 35.2539 21.538 34.7987 20.0032 33.9376C19.4241 33.6125 18.6991 33.7178 18.2363 34.1938L16.1267 36.3629C15.8189 36.6792 15.6703 37.1176 15.722 37.5559C15.7736 37.9941 16.0203 38.3858 16.3933 38.6219C18.9681 40.2518 21.9442 41.1133 25 41.1133C33.6394 41.1133 40.7116 34.2786 41.0959 25.7324H42.5781C43.1365 25.7324 43.6386 25.4222 43.8883 24.9227C44.1381 24.4232 44.0851 23.8354 43.75 23.3887Z" fill="#F9F9F9"/>
<path d="M43.75 23.3887L39.3555 17.5293C39.0762 17.1569 38.6491 16.9434 38.1836 16.9434C37.7181 16.9434 37.291 17.1569 37.0117 17.5293L32.6172 23.3887C32.2821 23.8354 32.2291 24.4232 32.4789 24.9227C32.7286 25.4222 33.2307 25.7324 33.7891 25.7324H35.2274C34.8506 31.0459 30.4077 35.2539 25 35.2539V41.1133C33.6394 41.1133 40.7116 34.2786 41.0959 25.7324H42.5781C43.1365 25.7324 43.6386 25.4222 43.8883 24.9227C44.1381 24.4232 44.0851 23.8354 43.75 23.3887Z" fill="#E2DFF4"/>
</g>
<defs>
<clipPath id="clip0_22_1487">
<rect width="50" height="50" fill="white"/>
</clipPath>
</defs>
</svg>
