<svg width="50" height="50" viewBox="0 0 50 50" fill="none" xmlns="http://www.w3.org/2000/svg">
<path d="M17.8561 14.0656C17.7637 14.0643 17.6705 14.0625 17.5781 14.0625C14.3665 14.0625 11.2865 15.3383 9.0155 17.6093C6.74456 19.8802 5.46875 22.9603 5.46875 26.1719V28.9062L3.125 34.375L6.25 35.9375L7.03125 42.9688H13.2812L14.8438 47.6562L28.125 41.4062L27.1636 38.0413C26.7717 36.6695 26.7946 35.2124 27.2294 33.8536L28.6552 29.3972C30.9923 21.827 25.6348 14.178 17.8561 14.0656Z" fill="#769CFF"/>
<path d="M17.9688 28.9062L21.0938 29.6875V30.4688C21.0938 30.8832 21.2584 31.2806 21.5514 31.5736C21.8444 31.8666 22.2418 32.0312 22.6562 32.0312L23.6826 29.9785C24.0352 29.2734 24.2187 28.4958 24.2188 27.7074V25.7812L17.9688 26.5625V28.9062Z" fill="#A83B32"/>
<path d="M10.1562 27.3438C10.1563 28.1726 10.4855 28.9674 11.0715 29.5535C11.6576 30.1395 12.4524 30.4688 13.2812 30.4688H16.4062C17.2351 30.4688 18.0299 30.1395 18.616 29.5535C19.202 28.9674 19.5312 28.1726 19.5312 27.3438H10.1562Z" fill="#C7463B"/>
<path d="M19.5312 34.375V39.0625L13.8672 44.7266L13.2812 42.9688L17.9688 38.2812V34.375H19.5312Z" fill="#F5D3BD"/>
<path d="M15.8254 18.75H21.4844C22.0486 18.75 22.6074 18.8611 23.1287 19.0771C23.65 19.293 24.1237 19.6095 24.5227 20.0085C24.9217 20.4075 25.2382 20.8812 25.4542 21.4025C25.6701 21.9239 25.7812 22.4826 25.7812 23.0469C25.7812 24.1865 25.3285 25.2794 24.5227 26.0852C23.7169 26.891 22.624 27.3438 21.4844 27.3438H8.59375V25.9816C8.59375 25.032 8.7808 24.0916 9.14423 23.2142C9.50765 22.3368 10.0403 21.5396 10.7118 20.8681C12.068 19.5119 13.9074 18.75 15.8254 18.75Z" fill="#DC4D41"/>
<path d="M19.5312 34.375V39.0625L13.8672 44.7266L13.2812 42.9688L17.9688 38.2812V34.375H19.5312Z" fill="#5786FF"/>
<path d="M38.2812 2.34375C36.7037 2.34387 35.1567 2.77816 33.8096 3.59906C32.4625 4.41995 31.3673 5.59578 30.644 6.99771C29.9208 8.39965 29.5973 9.97361 29.7091 11.5472C29.8208 13.1207 30.3635 14.6331 31.2777 15.9187L30.4687 18.75L33.8856 18.3229C35.0225 18.9993 36.3002 19.4041 37.6192 19.5058C38.9381 19.6075 40.2628 19.4034 41.4899 18.9092C42.717 18.4151 43.8135 17.6443 44.6939 16.657C45.5743 15.6696 46.2149 14.4923 46.5658 13.2168C46.9167 11.9413 46.9684 10.6021 46.7168 9.30331C46.4652 8.00457 45.9172 6.78144 45.1155 5.72919C44.3138 4.67695 43.2799 3.824 42.0945 3.23679C40.9091 2.64958 39.6041 2.34396 38.2812 2.34375Z" fill="#0094F6"/>
<path d="M36.7188 6.25H42.1875L39.8438 10.1562H42.1875L36.7188 16.4062L37.5 11.7188H35.9375L36.7188 6.25Z" fill="#FBB540"/>
<path d="M21.875 12.2824C21.75 12.2823 21.6268 12.2523 21.5158 12.1947C21.4049 12.1372 21.3093 12.0539 21.2372 11.9518C21.165 11.8497 21.1184 11.7318 21.1013 11.608C21.0841 11.4841 21.0969 11.358 21.1386 11.2401L22.1686 8.33273C22.2117 8.21135 22.284 8.10248 22.3792 8.01581C22.4745 7.92913 22.5897 7.86735 22.7145 7.83595L25.4832 7.13995L26.5507 5.10568C26.6474 4.92299 26.8126 4.78607 27.01 4.72492C27.2075 4.66376 27.4211 4.68335 27.6041 4.77939C27.7872 4.87543 27.9247 5.0401 27.9866 5.23733C28.0484 5.43455 28.0296 5.64826 27.9343 5.83165L26.7045 8.1754C26.6534 8.27275 26.5823 8.35823 26.4959 8.42624C26.4095 8.49426 26.3097 8.54329 26.2031 8.57013L23.5016 9.24923L22.6114 11.7619C22.5575 11.9142 22.4578 12.046 22.3259 12.1392C22.194 12.2324 22.0365 12.2824 21.875 12.2824Z" fill="#0094F6"/>
<path d="M36.5198 34.3749C36.3256 34.3751 36.1383 34.3027 35.9947 34.172L34.0355 32.3925C33.9542 32.3186 33.8893 32.2283 33.8452 32.1276C33.8011 32.0269 33.7788 31.918 33.7796 31.8081L33.8017 29.0225L31.5935 27.5292C31.5081 27.472 31.4348 27.3984 31.3778 27.3127C31.3209 27.227 31.2814 27.1309 31.2617 27.03C31.242 26.929 31.2424 26.8251 31.2629 26.7243C31.2835 26.6235 31.3237 26.5278 31.3813 26.4426C31.439 26.3573 31.5129 26.2843 31.5988 26.2278C31.6847 26.1712 31.781 26.1321 31.882 26.1128C31.9831 26.0936 32.0869 26.0944 32.1877 26.1154C32.2884 26.1364 32.384 26.177 32.4689 26.235L35.0239 27.9629C35.1306 28.0351 35.2177 28.1325 35.2777 28.2465C35.3376 28.3605 35.3684 28.4875 35.3674 28.6163L35.3448 31.471L37.0453 33.0157C37.162 33.1217 37.2438 33.2606 37.28 33.4141C37.3163 33.5675 37.3053 33.7283 37.2484 33.8754C37.1916 34.0225 37.0915 34.1489 36.9615 34.238C36.8315 34.3272 36.6775 34.3749 36.5198 34.3749Z" fill="#0094F6"/>
<path d="M37.6367 25.7812C37.5341 25.7812 37.4325 25.761 37.3377 25.7217C37.2429 25.6825 37.1568 25.6249 37.0843 25.5524L35.0237 23.4918L32.4307 23.9138C32.2261 23.9471 32.0168 23.8977 31.8486 23.7767C31.6805 23.6556 31.5673 23.4727 31.534 23.2681C31.5007 23.0636 31.5501 22.8542 31.6712 22.6861C31.7922 22.5179 31.9752 22.4048 32.1797 22.3715L35.168 21.8853C35.2902 21.8654 35.4154 21.8748 35.5333 21.9128C35.6512 21.9509 35.7583 22.0164 35.8459 22.1039L37.8727 24.1308L40.4274 23.4628C40.6279 23.4104 40.841 23.4398 41.0198 23.5445C41.1986 23.6492 41.3285 23.8206 41.3809 24.0211C41.4332 24.2216 41.4039 24.4346 41.2992 24.6134C41.1945 24.7922 41.023 24.9221 40.8226 24.9745L37.8343 25.7558C37.7698 25.7726 37.7034 25.7812 37.6367 25.7812Z" fill="#0094F6"/>
<path d="M17.4039 12.0507C17.2835 12.0509 17.1647 12.0232 17.0567 11.9698C16.9488 11.9164 16.8547 11.8388 16.7818 11.7429L15.0748 9.50189C15.0028 9.40727 14.9534 9.29746 14.9303 9.18084C14.9072 9.06423 14.911 8.94387 14.9414 8.82894L15.4758 6.81L13.9999 4.87299C13.877 4.70799 13.8242 4.50118 13.8529 4.29746C13.8816 4.09375 13.9894 3.90957 14.1531 3.7849C14.3167 3.66024 14.5229 3.60516 14.727 3.63161C14.931 3.65807 15.1163 3.76393 15.2428 3.92621L16.9498 6.16683C17.0219 6.26146 17.0715 6.37132 17.0947 6.48801C17.1179 6.6047 17.1141 6.72515 17.0837 6.84017L16.5493 8.85912L18.0248 10.7958C18.113 10.9116 18.1671 11.0497 18.181 11.1946C18.1948 11.3394 18.168 11.4853 18.1035 11.6157C18.0389 11.7461 17.9392 11.8559 17.8156 11.9327C17.692 12.0096 17.5494 12.0503 17.4039 12.0504V12.0507Z" fill="#0094F6"/>
<path d="M24.2188 22.6563C24.2188 22.8635 24.1364 23.0622 23.9899 23.2087C23.8434 23.3552 23.6447 23.4375 23.4375 23.4375C23.2593 23.4377 23.0864 23.4988 22.9477 23.6107C22.809 23.7226 22.7127 23.8786 22.6748 24.0527C22.9151 24.272 23.107 24.539 23.2383 24.8366C23.3697 25.1342 23.4375 25.4559 23.4375 25.7813V26.9727C22.9506 27.2223 22.42 27.3755 21.875 27.4238V25.7813C21.8747 25.5741 21.7923 25.3756 21.6459 25.2291C21.4994 25.0827 21.3009 25.0003 21.0938 25C20.8865 25 20.6878 24.9177 20.5413 24.7712C20.3948 24.6247 20.3125 24.426 20.3125 24.2188C20.3125 24.0115 20.3948 23.8128 20.5413 23.6663C20.6878 23.5198 20.8865 23.4375 21.0938 23.4375C21.1387 23.4375 21.1826 23.4395 21.2266 23.4414C21.3881 22.9839 21.6874 22.5876 22.0833 22.3072C22.4792 22.0267 22.9523 21.8757 23.4375 21.875C23.6447 21.875 23.8434 21.9573 23.9899 22.1038C24.1364 22.2503 24.2188 22.449 24.2188 22.6563Z" fill="#A83B32"/>
<path d="M14.8438 26.5625V27.3438H13.2812V26.5625C13.2807 26.1483 13.1159 25.7512 12.823 25.4582C12.5301 25.1653 12.133 25.0005 11.7188 25C11.5115 25 11.3128 24.9177 11.1663 24.7712C11.0198 24.6247 10.9375 24.426 10.9375 24.2188C10.9375 24.0115 11.0198 23.8128 11.1663 23.6663C11.3128 23.5198 11.5115 23.4375 11.7188 23.4375C12.5473 23.4384 13.3416 23.768 13.9274 24.3538C14.5133 24.9397 14.8428 25.734 14.8438 26.5625Z" fill="#A83B32"/>
<path d="M19.4912 23.6846C19.4588 23.7819 19.4075 23.8719 19.3403 23.9494C19.273 24.0269 19.1912 24.0905 19.0994 24.1363C19.0076 24.1822 18.9077 24.2096 18.8054 24.2169C18.703 24.2241 18.6003 24.2112 18.5029 24.1787C17.5819 23.8723 16.7953 23.2568 16.2764 22.4365C15.9999 22.7513 15.6593 23.0035 15.2775 23.1761C14.8958 23.3487 14.4815 23.4379 14.0625 23.4375C13.8553 23.4375 13.6566 23.3552 13.5101 23.2087C13.3636 23.0622 13.2812 22.8635 13.2812 22.6562C13.2812 22.449 13.3636 22.2503 13.5101 22.1038C13.6566 21.9573 13.8553 21.875 14.0625 21.875C14.3536 21.8752 14.6374 21.7837 14.8735 21.6135C15.1096 21.4433 15.2861 21.203 15.3779 20.9268L15.625 20.1855V18.7529C15.6914 18.751 15.7578 18.75 15.8252 18.75H17.1875V20.1855C17.187 20.7411 17.3616 21.2827 17.6864 21.7334C18.0113 22.1841 18.4699 22.521 18.9971 22.6963C19.0944 22.7287 19.1844 22.78 19.2619 22.8472C19.3394 22.9145 19.403 22.9963 19.4488 23.0881C19.4947 23.1799 19.5221 23.2798 19.5294 23.3821C19.5366 23.4845 19.5237 23.5872 19.4912 23.6846Z" fill="#A83B32"/>
</svg>
