<svg aria-hidden="true" style="position: absolute; width: 0; height: 0; overflow: hidden;" version="1.1" xmlns="http://www.w3.org/2000/svg" xmlns:xlink="http://www.w3.org/1999/xlink">
<defs>
<symbol id="whatapp" viewBox="0 0 32 32">
<path d="M17.771 24.107c5.408 1.28 7.307-3.339 6.347-5.067-0.373-0.683-3.808-2.005-3.968-2.069-1.472-0.533-2.027 0.459-3.040 1.781-1.952-0.981-3.275-1.749-4.619-3.947l0.256-0.299c0.469-0.523 1.355-1.504 0.747-2.709-0.501-1.013-0.747-1.707-0.939-2.24-0.533-1.493-0.949-1.888-2.795-1.888-1.931 0-3.424 2.528-3.424 4.715 0 4.757 6.4 10.517 11.435 11.712zM9.76 9.653c0.395 0 0.597 0.011 0.704 0.032 0.213 0.459 0.427 1.408 1.237 2.901-0.128 0.459-1.909 1.557-1.077 2.987 1.685 2.859 3.371 3.851 5.792 5.056 1.6 0.725 2.123-0.597 3.147-1.749 0.469 0.192 2.069 0.896 2.773 1.248-0.064 1.387-1.397 2.667-4.096 2.016-4.629-1.109-9.909-6.315-9.909-9.781 0-1.312 0.928-2.709 1.429-2.709z"></path>
<path d="M0.107 30.784c-0.021 0.077-0.033 0.165-0.033 0.256 0 0.55 0.444 0.997 0.993 1.003h0c0.245 0-0.149 0.064 7.808-1.995 3.232 1.643 5.696 1.6 7.264 1.739 14.080 0 20.971-17.163 11.285-27.147-13.28-12.832-33.952 3.115-25.301 18.827l-2.016 7.317zM25.824 5.888c0.235 0.427 6.848 6.389 3.168 15.296-2.042 5.071-6.92 8.586-12.62 8.586-0.262 0-0.523-0.007-0.781-0.022l0.036 0.002c-4.768-0.267-6.005-1.973-6.891-1.739l-6.24 1.643 1.664-6.037c0.021-0.077 0.033-0.166 0.033-0.257 0-0.189-0.052-0.365-0.143-0.516l0.003 0.005c-7.968-13.76 10.069-27.915 21.771-16.96z"></path>
</symbol>
<symbol id="viber" viewBox="0 0 32 32">
<path d="M8.437 27.168c-0.043 1.952-0.267 4.192 1.429 4.725 1.664 0.544 2.635-0.8 4.8-3.52 8.107 0.555 15.253-1.717 16.213-9.888 0.864-7.264-0.245-12.693-3.093-15.285-4.181-4.011-17.803-4.565-22.784 0.192-2.048 2.133-3.051 5.269-3.147 9.856-0.075 3.755-0.224 11.413 6.581 13.92zM3.851 13.301c0.085-4.064 0.907-6.773 2.56-8.491 4.16-3.979 16.501-3.52 20.011-0.149 2.347 2.133 3.253 7.083 2.485 13.589-0.704 5.973-4.544 6.987-5.995 7.36-2.987 0.8-5.845 0.971-8.587 0.736-0.725-0.085-1.013 0.597-1.28 0.853-1.301 1.568-2.24 2.699-2.485 2.848-0.181-0.267-0.149-1.536-0.128-2.56-0.064-0.448 0.341-1.717-0.725-2.005-6.059-1.792-5.92-8.555-5.845-12.192z"></path>
<path d="M7.68 10.645c1.067 2.133 2.112 5.888 6.112 9.163 1.387 1.141 5.547 3.787 7.168 3.787 2.325 0 4.981-3.659 3.029-5.291-0.875-0.853-2.101-1.696-2.88-2.155h-0.011c-2.048-1.195-3.179 0.992-3.307 1.067-3.008 2.699-6.699-1.973-4.107-4.235 0.32-0.395 2.219-1.312 1.088-3.392-1.003-1.813-1.664-2.432-2.027-2.955-1.973-2.453-6.24 1.632-5.067 4.011zM19.915 17.803c0.139 0.085 1.323 0.608 2.731 1.984 0.181 0.149-1.013 1.899-1.781 1.792-0.149-0.064-1.237-0.32-3.573-1.76 2.219-0.747 2.197-1.931 2.624-2.016zM11.029 7.904l0.117-0.053c0.384 0.533 0.96 1.045 1.877 2.699 0.235 0.448-0.363 0.619-0.747 1.013-0.555 0.491-0.96 1.067-1.205 1.707-0.821-1.536-1.173-2.656-1.557-3.435-0.149-0.704 0.875-1.568 1.515-1.931z"></path>
<path d="M17.088 11.403s1.461 0.181 1.717 1.749c0.213 1.323 2.187 0.96 1.973-0.331-0.282-1.778-1.682-3.159-3.445-3.411l-0.022-0.003c-1.312-0.139-1.536 1.835-0.224 1.995z"></path>
<path d="M16.043 7.083c0.021 0 3.168-0.053 5.227 2.133 2.016 2.176 1.568 5.323 1.568 5.344-0.213 1.301 1.76 1.643 1.973 0.32 0.021-0.171 0.619-4.128-2.091-7.019-2.677-2.88-6.581-2.784-6.741-2.773-1.365 0.043-1.195 2.101 0.064 1.995z"></path>
</symbol>
<symbol id="telegram" viewBox="0 0 32 32">
<path d="M0.555 14.933l7.819 3.893c0.309 0.149 0.661 0.139 0.96-0.032l6.965-4.053-4.224 3.733c-0.203 0.184-0.331 0.449-0.331 0.744 0 0.005 0 0.009 0 0.014v-0.001 9.099c0 0.96 1.216 1.365 1.792 0.608l3.392-4.501 8.363 4.768c0.141 0.080 0.31 0.128 0.49 0.128 0.482 0 0.885-0.34 0.981-0.793l0.001-0.007 5.227-26.005c0.013-0.060 0.020-0.129 0.020-0.2 0-0.554-0.449-1.003-1.003-1.003-0.134 0-0.262 0.026-0.379 0.074l0.007-0.002-29.995 11.701c-0.379 0.149-0.643 0.512-0.643 0.936 0 0.392 0.225 0.731 0.552 0.896l0.006 0.003zM29.653 3.925l-4.587 22.859-7.925-4.523c-0.143-0.084-0.316-0.134-0.5-0.134-0.326 0-0.617 0.156-0.8 0.398l-0.002 0.003-2.112 2.816v-5.653l11.403-10.112c0.907-0.8-0.139-2.219-1.173-1.611l-15.157 8.832-5.323-2.656 26.197-10.219z"></path>
</symbol>
<symbol id="stress_2" viewBox="0 0 32 32">
<path fill="#f9cfcf" style="fill: var(--color1, #f9cfcf)" d="M15.859 31.661h-6.131c-0.141 0-0.256-0.115-0.256-0.256v0-2.336c0.439 0.089 0.944 0.139 1.461 0.139 2.004 0 3.829-0.763 5.202-2.014l-0.006 0.006v4.198c0 0.002 0 0.004 0 0.007 0 0.141-0.115 0.256-0.256 0.256-0.005 0-0.009-0-0.014-0l0.001 0z"></path>
<path fill="#3762cc" style="fill: var(--color2, #3762cc)" d="M15.859 31.923h-6.131c-0.287-0.004-0.518-0.237-0.518-0.525 0 0 0-0 0-0v0-2.33c-0-0.002-0-0.003-0-0.005 0-0.141 0.115-0.256 0.256-0.256 0.018 0 0.036 0.002 0.053 0.005l-0.002-0c0.43 0.089 0.925 0.14 1.431 0.14 1.928 0 3.684-0.739 5-1.95l-0.005 0.005c0.047-0.044 0.11-0.071 0.179-0.071 0.145 0 0.262 0.117 0.262 0.262 0 0 0 0 0 0v-0 4.198c0 0.288-0.237 0.525-0.525 0.525zM9.728 29.376v2.022h6.131v-3.635c-1.335 1.064-3.047 1.708-4.909 1.708-0.431 0-0.855-0.035-1.267-0.101l0.045 0.006z"></path>
<path fill="#f9cfcf" style="fill: var(--color1, #f9cfcf)" d="M10.944 8.87c-4.224 0-7.654 3.411-7.654 7.616v5.107l0.006 0.205h-0.090c-0.033-0.004-0.072-0.006-0.111-0.006-0.53 0-0.96 0.43-0.96 0.96s0.43 0.96 0.96 0.96c0.039 0 0.077-0.002 0.115-0.007l-0.005 0h0.384c0.958 3.207 3.882 5.504 7.341 5.504 0.004 0 0.009 0 0.013 0h-0.001c4.224 0 7.648-3.411 7.648-7.616v-5.107c0-4.205-3.424-7.616-7.648-7.616z"></path>
<path fill="#3762cc" style="fill: var(--color2, #3762cc)" d="M6.669 20.717c-1.093-0.015-2.035-0.651-2.489-1.571l-0.007-0.016c-0.013-0.030-0.021-0.065-0.021-0.102 0-0.144 0.117-0.261 0.261-0.261 0.107 0 0.199 0.065 0.239 0.157l0.001 0.002c0.378 0.771 1.157 1.292 2.058 1.292 0.296 0 0.578-0.056 0.838-0.158l-0.016 0.005c0.022-0.007 0.047-0.011 0.074-0.011 0.144 0 0.26 0.116 0.26 0.26 0 0.117-0.078 0.217-0.185 0.249l-0.002 0c-0.302 0.094-0.649 0.15-1.009 0.154l-0.002 0zM6.822 26.189c-0.058-0-0.111-0.020-0.154-0.052l0.001 0c-0.348-0.253-0.784-0.405-1.256-0.405-0.295 0-0.576 0.059-0.832 0.167l0.014-0.005c-0.030 0.013-0.065 0.021-0.102 0.021-0.144 0-0.261-0.117-0.261-0.261 0-0.107 0.065-0.199 0.157-0.239l0.002-0.001c0.3-0.127 0.65-0.2 1.016-0.2 0.589 0 1.134 0.19 1.577 0.513l-0.008-0.005c0.068 0.047 0.112 0.124 0.112 0.211 0 0.141-0.115 0.256-0.256 0.256-0.003 0-0.006-0-0.010-0h0z"></path>
<path fill="#3762cc" style="fill: var(--color2, #3762cc)" d="M10.944 29.472c-3.512-0.003-6.491-2.286-7.536-5.448l-0.016-0.056h-0.186c-0.672 0-1.216-0.544-1.216-1.216v0c0-0.608 0.448-1.114 1.037-1.203v-5.056c0-4.352 3.552-7.878 7.917-7.878 4.358 0 7.91 3.533 7.91 7.872v5.107c0 4.346-3.552 7.872-7.91 7.872zM3.2 22.061c-0.384 0-0.698 0.307-0.698 0.691s0.32 0.691 0.704 0.691h0.384c0.117 0.002 0.214 0.082 0.243 0.19l0 0.002c0.937 3.094 3.761 5.308 7.104 5.312h0c4.070 0 7.386-3.296 7.386-7.354v-5.107c0-4.051-3.315-7.354-7.386-7.354-0.004 0-0.008 0-0.013 0-4.069 0-7.368 3.293-7.379 7.359v5.3c0 0.004 0 0.008 0 0.013 0 0.141-0.115 0.256-0.256 0.256-0 0-0 0-0 0h-0.090z"></path>
<path fill="#4671c6" style="fill: var(--color3, #4671c6)" d="M15.424 7.526h-3.469c-0.346 0-0.621 0.32-0.621 0.704v0.333c0-0.544-0.429-0.986-0.96-0.986h-1.581c-3.744 0-6.771 3.117-6.771 6.957v1.491c0 0 0 0 0 0 0 0.349 0.279 0.633 0.627 0.64h8.058c0.348 0.007 0.627 0.291 0.627 0.64 0 0.002 0 0.005-0 0.007v-0 1.504h0.013v5.728h-0.013v5.248c0 0.499 0.352 0.902 0.794 0.902h5.331c3.232 0 5.85-2.976 5.85-6.65v-7.565c0-4.947-3.533-8.96-7.885-8.96z"></path>
<path fill="#3762cc" style="fill: var(--color2, #3762cc)" d="M17.459 30.957h-5.331c-0.576 0-1.056-0.525-1.056-1.171v-5.248c0-0.026 0-0.058 0.013-0.083v-5.542c-0.008-0.025-0.013-0.053-0.013-0.083 0-0.005 0-0.009 0-0.014l-0 0.001v-1.504c0-0.211-0.166-0.384-0.365-0.384h-8.064c-0.489-0.007-0.883-0.406-0.883-0.896 0-0.002 0-0.005 0-0.007v0-1.498c0-3.981 3.155-7.219 7.034-7.219h1.581c0.333 0 0.64 0.141 0.858 0.365 0.16-0.256 0.429-0.416 0.73-0.416h3.456c4.499 0 8.154 4.134 8.154 9.216v7.565c0 3.814-2.739 6.912-6.112 6.912zM11.597 24.64v5.146c0 0.358 0.237 0.646 0.531 0.646h5.331c3.078 0 5.587-2.861 5.587-6.387v-7.565c0-4.794-3.418-8.698-7.622-8.698h-3.469c-0.192 0-0.358 0.205-0.358 0.448v0.333c0 0.145-0.117 0.262-0.262 0.262s-0.262-0.117-0.262-0.262v0c0-0.403-0.314-0.723-0.698-0.723h-1.581c-3.59 0-6.509 3.008-6.509 6.694v1.491c0 0.211 0.16 0.384 0.365 0.384h8.058c0.486 0 0.89 0.403 0.89 0.902v1.408l0.013 0.090v5.734c0 0.032 0 0.064-0.013 0.096z"></path>
<path fill="#f9cfcf" style="fill: var(--color1, #f9cfcf)" d="M14.246 21.587c0 1.485-1.216 2.688-2.707 2.688-1.489-0.004-2.694-1.211-2.694-2.701 0-1.492 1.209-2.701 2.701-2.701s2.701 1.209 2.701 2.701c0 0.005 0 0.009-0 0.014v-0.001z"></path>
<path fill="#f9a7a7" style="fill: var(--color4, #f9a7a7)" d="M18.861 13.133c-0.085-0.853-0.576-1.575-1.274-1.977l-0.012-0.007c-0.154-0.928-1.037-1.645-2.099-1.645l-0.147 0.006c-0.35-0.725-1.080-1.217-1.925-1.217-0.018 0-0.037 0-0.055 0.001l0.003-0c-0.467 0-0.902 0.134-1.254 0.378-0.281-0.136-0.611-0.216-0.959-0.218h-0.001c-0.845 0-1.574 0.448-1.92 1.094-0.022 0.021-0.043 0.042-0.063 0.063l-0.001 0.001h-0.147c-1.165 0-2.112 0.858-2.118 1.92-0.587 0.321-0.983 0.929-0.998 1.63l-0 0.002c0 1.011 0.851 1.837 1.933 1.92v0.013s0.704 0.147 1.421-0.038c0.567 0.525 1.329 0.847 2.167 0.847 0.044 0 0.088-0.001 0.131-0.003l-0.006 0c0.301 0 0.621-0.032 0.947-0.102l0.288-0.064c0.474 0.243 1.035 0.385 1.629 0.385 0.035 0 0.070-0 0.104-0.001l-0.005 0c0.003 0 0.006 0 0.009 0 0.564 0 1.102-0.113 1.593-0.317l-0.027 0.010c0.102 0.013 0.192 0.070 0.237 0.154l0.698 1.165c0.026 0.045 0.064 0.090 0.096 0.128 0.166 0.269 0.467 0.435 0.794 0.435h0.070c0.512 0 0.922-0.397 0.922-0.877v-3.418c0-0.090-0.006-0.186-0.026-0.269z"></path>
<path fill="#3762cc" style="fill: var(--color2, #3762cc)" d="M17.965 17.958h-0.064c-0.416 0-0.794-0.211-1.011-0.544-0.041-0.044-0.079-0.092-0.113-0.143l-0.002-0.004-0.691-1.165-0.006-0.006c-0.467 0.183-1.008 0.288-1.573 0.288-0.086 0-0.171-0.002-0.256-0.007l0.012 0.001c-0.56-0.022-1.085-0.151-1.562-0.369l0.026 0.011-0.192 0.038c-0.339 0.070-0.678 0.109-0.998 0.109-0.032 0.001-0.070 0.002-0.109 0.002-0.863 0-1.653-0.31-2.265-0.825l0.005 0.004c-0.216 0.043-0.463 0.068-0.717 0.068s-0.501-0.025-0.741-0.072l0.024 0.004c-1.203-0.128-2.106-1.062-2.106-2.182 0-0.717 0.378-1.376 1.005-1.792 0.096-1.126 1.126-2.022 2.374-2.022h0.026c0.428-0.696 1.186-1.152 2.050-1.152 0.017 0 0.034 0 0.051 0.001l-0.003-0c0.326 0 0.64 0.058 0.941 0.179 0.384-0.23 0.826-0.346 1.28-0.346 0.915 0 1.728 0.467 2.138 1.216 0.019-0.001 0.041-0.001 0.063-0.001 1.078 0 1.984 0.732 2.25 1.725l0.004 0.016c0.39 0.25 1.235 0.928 1.318 2.112 0.019 0.102 0.026 0.205 0.026 0.301v3.418c0 0.627-0.531 1.139-1.184 1.139zM16.070 15.552h0.038c0.179 0.032 0.333 0.134 0.429 0.288l0.691 1.158c0.020 0.031 0.041 0.059 0.064 0.083l-0-0c0.012 0.013 0.022 0.028 0.031 0.044l0.001 0.001c0.115 0.192 0.333 0.307 0.57 0.307h0.070c0.365 0 0.659-0.275 0.659-0.614v-3.418c0-0.005 0-0.012 0-0.018 0-0.089-0.009-0.175-0.027-0.259l0.001 0.008c-0.084-0.758-0.524-1.397-1.147-1.754l-0.011-0.006c-0.066-0.037-0.114-0.102-0.128-0.178l-0-0.002c-0.128-0.813-0.922-1.427-1.837-1.427h-0.134c-0.005 0-0.011 0.001-0.017 0.001-0.106 0-0.197-0.062-0.238-0.153l-0.001-0.002c-0.304-0.634-0.941-1.063-1.678-1.063-0.018 0-0.035 0-0.052 0.001l0.003-0c-0.004-0-0.009-0-0.014-0-0.41 0-0.791 0.124-1.107 0.337l0.007-0.005c-0.041 0.027-0.091 0.044-0.145 0.044-0.040 0-0.078-0.009-0.112-0.025l0.002 0.001c-0.269-0.128-0.557-0.186-0.858-0.186-0.71 0-1.37 0.378-1.677 0.96-0.017 0.028-0.039 0.051-0.063 0.070l-0.001 0-0.064 0.058c-0.046 0.044-0.108 0.071-0.177 0.071-0.005 0-0.011-0-0.016-0.001l0.001 0h-0.128c-1.011 0-1.85 0.742-1.856 1.658-0.002 0.093-0.052 0.173-0.127 0.217l-0.001 0.001c-0.513 0.275-0.859 0.803-0.87 1.413l-0 0.002c0 0.87 0.73 1.587 1.69 1.664 0.182 0.036 0.391 0.057 0.605 0.057 0.258 0 0.508-0.030 0.749-0.087l-0.022 0.004c0.096-0.019 0.192 0 0.256 0.070 0.23 0.23 0.896 0.768 2.112 0.768 0.282 0 0.576-0.032 0.89-0.090l0.288-0.064c0.064-0.013 0.141 0 0.192 0.032 0.256 0.166 0.768 0.294 1.37 0.333h0.058c0.038 0.001 0.082 0.002 0.127 0.002 0.222 0 0.439-0.017 0.652-0.050l-0.024 0.003c0.326-0.045 0.621-0.128 0.87-0.23 0.038-0.013 0.070-0.026 0.109-0.026z"></path>
<path fill="#e0ebfc" style="fill: var(--color5, #e0ebfc)" d="M28.403 0.339h-9.152c-0.002 0-0.004 0-0.006 0-0.908 0-1.645 0.736-1.645 1.645 0 0 0 0 0 0v0 7.36l-1.632 4.403c-0.018 0.044-0.028 0.096-0.028 0.15 0 0.226 0.183 0.41 0.41 0.41 0.054 0 0.106-0.010 0.153-0.029l-0.003 0.001 4.224-1.549h7.68c0.002 0 0.004 0 0.006 0 0.908 0 1.645-0.736 1.645-1.645 0 0 0 0 0 0v0-9.101c0 0 0 0 0 0 0-0.908-0.736-1.645-1.645-1.645-0.002 0-0.005 0-0.007 0h0z"></path>
<path fill="#3762cc" style="fill: var(--color2, #3762cc)" d="M16.352 14.566c-0.173 0-0.346-0.070-0.474-0.198-0.192-0.192-0.25-0.461-0.16-0.704l1.619-4.371v-7.309c0 0 0-0 0-0 0-1.053 0.854-1.907 1.907-1.907 0.005 0 0.009 0 0.014 0h9.145c0.002 0 0.004 0 0.006 0 1.053 0 1.907 0.854 1.907 1.907 0 0 0 0 0 0v0 9.101c0 0 0 0 0 0 0 1.053-0.854 1.907-1.907 1.907-0.005 0-0.009 0-0.014-0h-7.622l-4.179 1.53c-0.077 0.026-0.16 0.045-0.237 0.045zM19.251 0.602c-0.768 0-1.389 0.614-1.389 1.382v7.36c0 0.026 0 0.058-0.013 0.083l-1.638 4.416c-0.026 0.077 0.019 0.134 0.038 0.154s0.077 0.064 0.16 0.038l4.224-1.549c0.026-0.011 0.057-0.018 0.089-0.019h7.68c0.768 0 1.389-0.621 1.389-1.382v-9.101c0-0.768-0.627-1.382-1.389-1.382h-9.152z"></path>
<path fill="#4671c6" style="fill: var(--color3, #4671c6)" d="M27.226 5.011h-0.051c0.013-0.077 0.013-0.154 0.013-0.237-0.001-0.964-0.783-1.745-1.747-1.745-0.136 0-0.269 0.016-0.396 0.045l0.012-0.002c-0.285-0.605-0.89-1.016-1.591-1.016-0.968 0-1.754 0.785-1.754 1.754 0 0.040 0.001 0.080 0.004 0.119l-0-0.005c-0.195-0.081-0.422-0.128-0.66-0.128-0.916 0-1.668 0.7-1.752 1.593l-0.001 0.007s-0.013 0.077 0 0.198c0 0.115 0.013 0.23 0.038 0.339 0.096 0.448 0.416 1.075 1.363 1.357h6.522c0.629 0 1.139-0.51 1.139-1.139s-0.51-1.139-1.139-1.139v0z"></path>
<path fill="#ffea92" style="fill: var(--color6, #ffea92)" d="M22.374 9.824c-0.001 0-0.001 0-0.002 0-0.216 0-0.39-0.175-0.39-0.39 0-0.063 0.015-0.122 0.041-0.175l-0.001 0.002 0.966-1.984h-0.614c-0.134 0-0.256-0.064-0.333-0.179-0.039-0.059-0.062-0.131-0.062-0.209 0-0.064 0.016-0.124 0.043-0.178l-0.001 0.002 1.242-2.547c0.096-0.192 0.333-0.275 0.525-0.179s0.275 0.326 0.186 0.525l-0.973 1.984h0.614c0.003-0 0.005-0 0.008-0 0.216 0 0.39 0.175 0.39 0.39 0 0.063-0.015 0.122-0.041 0.175l0.001-0.002-1.254 2.541c-0.064 0.133-0.197 0.224-0.352 0.224h-0zM24.877 11.11c-0.215-0.001-0.389-0.175-0.389-0.39 0-0.060 0.014-0.118 0.038-0.169l-0.001 0.002 0.973-1.984h-0.621c-0.128 0-0.256-0.064-0.333-0.186-0.038-0.058-0.060-0.129-0.060-0.206 0-0.063 0.015-0.122 0.042-0.174l-0.001 0.002 1.248-2.547c0.090-0.192 0.326-0.275 0.525-0.179 0.192 0.090 0.275 0.32 0.179 0.518l-0.973 1.984h0.621c0.002-0 0.003-0 0.005-0 0.216 0 0.39 0.175 0.39 0.39 0 0.065-0.016 0.127-0.045 0.181l0.001-0.002-1.242 2.541c-0.065 0.13-0.197 0.218-0.35 0.218-0.003 0-0.006-0-0.009-0h0z"></path>
<path fill="#3762cc" style="fill: var(--color2, #3762cc)" d="M11.046 11.686h-0.019c-0.749-0.058-1.312-0.307-1.67-0.749-0.255-0.33-0.408-0.75-0.408-1.206 0-0.076 0.004-0.15 0.012-0.224l-0.001 0.009c0.018-0.129 0.128-0.226 0.26-0.226 0.012 0 0.024 0.001 0.036 0.002l-0.001-0c0.128 0.015 0.227 0.123 0.227 0.254 0 0.014-0.001 0.028-0.003 0.041l0-0.001c0 0.006-0.070 0.582 0.288 1.024 0.269 0.32 0.704 0.512 1.299 0.557 0.139 0.005 0.25 0.119 0.25 0.259 0 0.143-0.116 0.259-0.259 0.259-0.003 0-0.007-0-0.010-0h0zM9.242 15.322c-0.003 0-0.006 0-0.009 0-0.072 0-0.136-0.029-0.183-0.077l-0-0c-0.333-0.339-0.832-1.216-0.282-2.15 0.048-0.065 0.125-0.107 0.211-0.107 0.145 0 0.262 0.117 0.262 0.262 0 0.041-0.009 0.080-0.026 0.115l0.001-0.002c-0.474 0.806 0.179 1.485 0.211 1.51 0.054 0.047 0.088 0.116 0.088 0.193 0 0.141-0.115 0.256-0.256 0.256-0.008 0-0.017-0-0.025-0.001l0.001 0zM12.768 16c-0.010 0.001-0.021 0.002-0.032 0.002-0.143 0-0.258-0.116-0.258-0.258 0-0.131 0.098-0.24 0.225-0.256l0.001-0c0.909-0.23 0.928-1.171 0.928-1.216 0-0.141 0.115-0.256 0.256-0.256 0.147 0 0.262 0.115 0.262 0.256-0.006 0.838-0.588 1.539-1.37 1.726l-0.012 0.002zM14.131 11.968c-0.003 0-0.006 0-0.008 0-0.104 0-0.194-0.063-0.234-0.152l-0.001-0.002c-0.275-0.595-0.301-1.12-0.070-1.568 0.403-0.781 1.427-0.986 1.472-0.992 0.015-0.003 0.033-0.005 0.051-0.005 0.144 0 0.261 0.117 0.261 0.261 0 0.126-0.089 0.231-0.208 0.256l-0.002 0c-0.013 0-0.832 0.166-1.107 0.717-0.154 0.301-0.128 0.672 0.083 1.107 0.017 0.034 0.027 0.073 0.027 0.115 0 0.141-0.115 0.256-0.256 0.256-0.003 0-0.006-0-0.009-0h0z"></path>
</symbol>
<symbol id="stress_1" viewBox="0 0 32 32">
<path fill="#769cff" style="fill: var(--color7, #769cff)" d="M11.43 9.005h-0.179c-0.002 0-0.004 0-0.006 0-4.277 0-7.744 3.467-7.744 7.744v0 1.754l-1.498 3.494 1.997 1.005 0.499 4.499h4l0.998 3.002 8.506-4-0.621-2.157c-0.112-0.38-0.177-0.816-0.177-1.267 0-0.506 0.081-0.992 0.231-1.447l-0.009 0.033 0.915-2.848c1.491-4.845-1.939-9.741-6.912-9.811z"></path>
<path fill="#a83b32" style="fill: var(--color8, #a83b32)" d="M11.501 18.496l1.997 0.506v0.499c0 0 0 0 0 0 0 0.551 0.447 0.998 0.998 0.998 0.002 0 0.005 0 0.007-0h-0l0.653-1.312c0.23-0.448 0.346-0.947 0.346-1.453v-1.235l-4 0.499v1.504z"></path>
<path fill="#c7463b" style="fill: var(--color9, #c7463b)" d="M6.502 17.498c0 0 0 0 0 0 0 1.104 0.893 2 1.996 2.003h2.004c1.104-0.004 1.997-0.899 1.997-2.003 0 0 0 0 0 0v0h-5.997z"></path>
<path fill="#f5d3bd" style="fill: var(--color10, #f5d3bd)" d="M12.499 22.003v2.995l-3.622 3.629-0.378-1.126 3.002-3.002v-2.496h0.998z"></path>
<path fill="#dc4d41" style="fill: var(--color11, #dc4d41)" d="M10.131 12h3.616c1.52 0 2.752 1.232 2.752 2.752s-1.232 2.752-2.752 2.752v0h-8.243v-0.877c0 0 0 0 0 0 0-2.556 2.072-4.627 4.627-4.627 0.002 0 0.005 0 0.007 0h-0z"></path>
<path fill="#5786ff" style="fill: var(--color12, #5786ff)" d="M12.499 22.003v2.995l-3.622 3.629-0.378-1.126 3.002-3.002v-2.496h0.998z"></path>
<path fill="#0094f6" style="fill: var(--color13, #0094f6)" d="M24.499 1.498c-3.037 0.004-5.497 2.467-5.497 5.504 0 1.195 0.381 2.301 1.028 3.204l-0.011-0.017-0.518 1.811 2.189-0.275c0.807 0.49 1.782 0.781 2.826 0.781 3.040 0 5.504-2.464 5.504-5.504s-2.464-5.504-5.504-5.504c-0.003 0-0.007 0-0.010 0h0.001z"></path>
<path fill="#fbb540" style="fill: var(--color14, #fbb540)" d="M23.501 4h3.501l-1.504 2.496h1.504l-3.501 4.006 0.499-3.008h-0.998l0.499-3.494z"></path>
<path fill="#0094f6" style="fill: var(--color13, #0094f6)" d="M14.003 7.859c-0.001 0-0.002 0-0.003 0-0.276 0-0.499-0.223-0.499-0.499 0-0.060 0.010-0.117 0.030-0.17l-0.001 0.003 0.659-1.856c0.055-0.157 0.183-0.277 0.342-0.319l0.004-0.001 1.773-0.448 0.685-1.299c0.089-0.144 0.247-0.239 0.426-0.239 0.276 0 0.499 0.224 0.499 0.499 0 0.073-0.016 0.142-0.043 0.204l0.001-0.003-0.787 1.504c-0.067 0.123-0.18 0.214-0.317 0.249l-0.003 0.001-1.728 0.435-0.57 1.606c-0.070 0.194-0.253 0.331-0.467 0.333h-0zM23.373 21.997c-0.002 0-0.003 0-0.005 0-0.129 0-0.246-0.049-0.334-0.128l0 0-1.248-1.139c-0.102-0.092-0.166-0.224-0.166-0.371v-0l0.013-1.786-1.408-0.96c-0.151-0.088-0.251-0.249-0.251-0.433 0-0.276 0.224-0.499 0.499-0.499 0.117 0 0.224 0.040 0.309 0.107l-0.001-0.001 1.632 1.107c0.136 0.091 0.224 0.243 0.224 0.416 0 0.002 0 0.004-0 0.006v-0l-0.019 1.824 1.088 0.992c0.098 0.091 0.159 0.221 0.159 0.365 0 0.273-0.219 0.495-0.491 0.499h-0zM24.090 16.499c-0.001 0-0.003 0-0.004 0-0.138 0-0.264-0.056-0.354-0.147l-1.318-1.318-1.658 0.269c-0.024 0.004-0.052 0.006-0.080 0.006-0.276 0-0.499-0.224-0.499-0.499 0-0.247 0.18-0.453 0.416-0.492l0.003-0 1.914-0.307c0.026-0.005 0.056-0.008 0.087-0.008 0.136 0 0.259 0.054 0.349 0.142l-0-0 1.293 1.299 1.638-0.429c0.038-0.011 0.082-0.017 0.128-0.017 0.276 0 0.5 0.224 0.5 0.5 0 0.231-0.156 0.425-0.368 0.482l-0.003 0.001-1.92 0.506c-0.034 0.008-0.073 0.013-0.113 0.013-0.005 0-0.010-0-0.015-0l0.001 0zM11.136 7.712c-0.001 0-0.002 0-0.003 0-0.159 0-0.301-0.075-0.393-0.191l-0.001-0.001-1.088-1.44c-0.065-0.084-0.105-0.19-0.105-0.306 0-0.044 0.006-0.086 0.016-0.126l-0.001 0.003 0.346-1.293-0.947-1.242c-0.051-0.077-0.081-0.171-0.081-0.272 0-0.276 0.223-0.499 0.499-0.499 0.149 0 0.283 0.066 0.375 0.169l0 0.001 1.094 1.434c0.063 0.082 0.1 0.187 0.1 0.3 0 0.046-0.006 0.090-0.018 0.132l0.001-0.003-0.339 1.293 0.941 1.242c0.063 0.083 0.101 0.187 0.101 0.301 0 0.275-0.223 0.498-0.498 0.499h-0z"></path>
<path fill="#a83b32" style="fill: var(--color8, #a83b32)" d="M15.501 14.502c0 0.276-0.223 0.499-0.499 0.499v0c-0.002-0-0.004-0-0.006-0-0.237 0-0.436 0.165-0.487 0.387l-0.001 0.003c0.302 0.274 0.492 0.669 0.493 1.107v0.768c-0.314 0.154-0.653 0.256-1.005 0.282v-1.050c0-0.276-0.223-0.499-0.499-0.499v0c-0.276 0-0.499-0.223-0.499-0.499s0.223-0.499 0.499-0.499h0.090c0.211-0.587 0.761-1 1.407-1.005h0.001c0.002-0 0.004-0 0.006-0 0.276 0 0.499 0.223 0.499 0.499 0 0.002 0 0.005-0 0.007v-0zM9.498 16.998v0.499h-0.998v-0.499c0-0.551-0.447-0.998-0.998-0.998v0c-0.276 0-0.499-0.223-0.499-0.499s0.223-0.499 0.499-0.499v0c1.101 0.004 1.993 0.895 1.997 1.996v0zM12.48 15.155c-0.066 0.203-0.254 0.348-0.476 0.348-0.059 0-0.115-0.010-0.168-0.029l0.004 0.001c-0.599-0.204-1.090-0.595-1.414-1.103l-0.006-0.011c-0.347 0.393-0.851 0.64-1.414 0.64-0.002 0-0.005 0-0.007 0h0c-0.277 0-0.502-0.225-0.502-0.502s0.225-0.502 0.502-0.502v0c0.001 0 0.002 0 0.003 0 0.388 0 0.718-0.249 0.84-0.595l0.002-0.006 0.154-0.474v-0.922h1.005v0.922c0.001 0.74 0.477 1.369 1.14 1.596l0.012 0.004c0.203 0.066 0.348 0.254 0.348 0.476 0 0.059-0.010 0.115-0.029 0.168l0.001-0.004z"></path>
</symbol>
<symbol id="repeat" viewBox="0 0 32 32">
<path fill="#6ea4f4" style="fill: var(--color15, #6ea4f4)" d="M16 32c8.837 0 16-7.163 16-16s-7.163-16-16-16v0c-8.837 0-16 7.163-16 16s7.163 16 16 16v0z"></path>
<path fill="#387bdf" style="fill: var(--color16, #387bdf)" d="M16 0v32c8.837 0 16-7.163 16-16s-7.163-16-16-16v0z"></path>
<path fill="#f9f9f9" style="fill: var(--color17, #f9f9f9)" d="M21.939 7.962c-0.032-0.275-0.192-0.531-0.429-0.678-1.56-0.997-3.462-1.589-5.503-1.589-5.531 0-10.046 4.35-10.311 9.815l-0.001 0.024h-0.954c-0.001 0-0.002 0-0.003 0-0.516 0-0.934 0.418-0.934 0.934 0 0.213 0.071 0.409 0.19 0.566l-0.002-0.002 2.816 3.75c0.171 0.231 0.442 0.38 0.749 0.38s0.578-0.148 0.747-0.377l0.002-0.003 2.816-3.75c0.211-0.288 0.243-0.659 0.083-0.979s-0.48-0.518-0.832-0.518h-0.928c0.265-3.411 3.098-6.079 6.554-6.079 1.175 0 2.278 0.308 3.232 0.848l-0.033-0.017c0.371 0.205 0.832 0.134 1.126-0.166l1.35-1.389c0.198-0.205 0.294-0.486 0.256-0.768z"></path>
<path fill="#e2dff4" style="fill: var(--color18, #e2dff4)" d="M20.326 10.112l1.35-1.382c0.166-0.169 0.269-0.4 0.269-0.656 0-0.331-0.172-0.622-0.432-0.788l-0.004-0.002c-1.56-1.004-3.465-1.6-5.509-1.6-0 0-0.001 0-0.001 0h0v3.757c1.107 0 2.214 0.288 3.2 0.838 0.371 0.211 0.832 0.141 1.126-0.16z"></path>
<path fill="#f9f9f9" style="fill: var(--color17, #f9f9f9)" d="M28 14.97l-2.816-3.75c-0.171-0.231-0.442-0.38-0.749-0.38s-0.578 0.148-0.747 0.377l-0.002 0.003-2.816 3.75c-0.115 0.153-0.184 0.347-0.184 0.557 0 0.154 0.037 0.299 0.103 0.428l-0.002-0.005c0.16 0.32 0.48 0.518 0.832 0.518h0.928c-0.266 3.41-3.099 6.076-6.554 6.076-1.172 0-2.273-0.307-3.226-0.845l0.033 0.017c-0.131-0.074-0.288-0.118-0.455-0.118-0.263 0-0.501 0.109-0.671 0.284l-0 0-1.35 1.389c-0.166 0.169-0.269 0.4-0.269 0.656 0 0.331 0.172 0.622 0.432 0.788l0.004 0.002c1.559 0.994 3.458 1.585 5.496 1.585 5.529 0 10.044-4.347 10.311-9.811l0.001-0.024h0.954c0.001 0 0.002 0 0.003 0 0.516 0 0.934-0.418 0.934-0.934 0-0.213-0.071-0.409-0.19-0.566l0.002 0.002z"></path>
<path fill="#e2dff4" style="fill: var(--color18, #e2dff4)" d="M28 14.97l-2.816-3.75c-0.171-0.231-0.442-0.38-0.749-0.38s-0.578 0.148-0.747 0.377l-0.002 0.003-2.816 3.75c-0.115 0.153-0.184 0.347-0.184 0.557 0 0.154 0.037 0.299 0.103 0.428l-0.002-0.005c0.16 0.32 0.48 0.518 0.832 0.518h0.928c-0.258 3.415-3.089 6.088-6.547 6.093h-0v3.75c5.53 0 10.054-4.371 10.304-9.843h0.947c0.001 0 0.002 0 0.003 0 0.516 0 0.934-0.418 0.934-0.934 0-0.213-0.071-0.409-0.19-0.566l0.002 0.002z"></path>
</symbol>
<symbol id="premium-quality" viewBox="0 0 32 32">
<path fill="#2fc0f0" style="fill: var(--color19, #2fc0f0)" d="M23.548 15.071v16.954h-1.947l-5.589-5.903v-11.052z"></path>
<path fill="#9ee2f8" style="fill: var(--color20, #9ee2f8)" d="M16.013 15.071v11.052l-5.526 5.903h-2.009v-16.954z"></path>
<path fill="#ff9f22" style="fill: var(--color21, #ff9f22)" d="M24.678 12.308l0.628 3.893-3.642 1.319-1.947 3.391-3.705-1.319v-19.592l3.014 2.512h3.893l0.691 3.893 3.014 2.512z"></path>
<path fill="#ffda44" style="fill: var(--color22, #ffda44)" d="M16.013 0v19.592l-3.705 1.319-1.947-3.391-3.705-1.319 0.691-3.893-1.947-3.391 3.014-2.512 0.628-3.893h3.956l3.014-2.512z"></path>
<path fill="#fd5" style="fill: var(--color23, #fd5)" d="M20.031 9.356l-4.019 3.014v-2.386l2.889-2.135z"></path>
<path fill="#fff68e" style="fill: var(--color24, #fff68e)" d="M16.013 9.984v2.386l-1.695 1.319-2.512-2.889 1.444-1.256 1.319 1.57z"></path>
</symbol>
<symbol id="panic" viewBox="0 0 32 32">
<path fill="#4671c6" style="fill: var(--color3, #4671c6)" d="M19.987 18.781h-10.975c-1.782 0-3.228 1.445-3.228 3.228v4.050h2.626v3.016h12.006v-3.016h2.797v-4.049c0-1.782-1.445-3.228-3.228-3.228-0 0-0 0-0.001 0h0z"></path>
<path fill="#f9cfcf" style="fill: var(--color1, #f9cfcf)" d="M5.786 26.059h2.626v3.016h-2.626v-3.016z"></path>
<path fill="#3762cc" style="fill: var(--color2, #3762cc)" d="M8.412 29.325h-2.626c-0.138 0-0.25-0.112-0.25-0.25v0-3.016c0-0.138 0.112-0.25 0.25-0.25v0h2.626c0 0 0 0 0.001 0 0.138 0 0.25 0.112 0.25 0.25 0 0 0 0 0 0v0 3.016c0 0.138-0.112 0.25-0.25 0.25v0zM6.036 28.826h2.126v-2.516h-2.127v2.516z"></path>
<path fill="#f9cfcf" style="fill: var(--color1, #f9cfcf)" d="M20.418 26.059h2.797v3.016h-2.797v-3.016z"></path>
<path fill="#3762cc" style="fill: var(--color2, #3762cc)" d="M23.214 29.325h-2.797c-0.138 0-0.25-0.112-0.25-0.25v0-3.016c0-0.138 0.112-0.25 0.25-0.25v0h2.797c0.138 0 0.25 0.112 0.25 0.25v0 3.016c0 0.138-0.112 0.25-0.25 0.25v0zM20.668 28.826h2.296v-2.516h-2.296v2.516z"></path>
<path fill="#3762cc" style="fill: var(--color2, #3762cc)" d="M20.418 26.309c-0.138 0-0.25-0.112-0.25-0.25v0-2.131c0-0.138 0.112-0.25 0.25-0.25s0.25 0.112 0.25 0.25v0 2.131c0 0.138-0.112 0.25-0.25 0.25v0z"></path>
<path fill="#f9cfcf" style="fill: var(--color1, #f9cfcf)" d="M11.273 15.974v3.066c-0 0.014-0 0.029-0 0.045 0 1.781 1.444 3.224 3.224 3.224s3.224-1.444 3.224-3.224c0-0.016-0-0.032-0-0.048l0 0.002v-3.066h-6.448z"></path>
<path fill="#3762cc" style="fill: var(--color2, #3762cc)" d="M20.418 29.325h-12.006c-0.138 0-0.25-0.112-0.25-0.25v0-2.766h-2.376c-0.138 0-0.25-0.112-0.25-0.25v0-4.051c0.003-1.919 1.558-3.475 3.477-3.477h2.010v-2.557c0-0.138 0.112-0.25 0.25-0.25v0h6.449c0.138 0 0.25 0.112 0.25 0.25v0 2.557h2.016c1.92 0.002 3.476 1.558 3.478 3.478v4.050c0 0.138-0.112 0.25-0.25 0.25v0h-2.547v2.767c0 0.138-0.112 0.25-0.25 0.25v0zM8.661 28.826h11.507v-2.766c0-0 0-0 0-0.001 0-0.138 0.112-0.25 0.25-0.25 0 0 0 0 0 0h2.546v-3.8c-0.002-1.644-1.334-2.975-2.977-2.977h-2.266c0 0 0 0 0 0-0.138 0-0.25-0.112-0.25-0.25 0-0 0-0 0-0.001v0-2.558h-5.948v2.558c0 0 0 0 0 0 0 0.138-0.112 0.25-0.25 0.25-0 0-0 0-0.001 0h-2.259c-1.644 0.001-2.977 1.334-2.979 2.978v3.8h2.376c0.138 0 0.25 0.112 0.25 0.25v0 2.766z"></path>
<path fill="#4671c6" style="fill: var(--color3, #4671c6)" d="M14.5 16.516c-4.175 0-7.56-3.385-7.56-7.56v-3.167c0-1.050 0.851-1.901 1.901-1.901v0h13.22v5.068c0 4.175-3.385 7.56-7.56 7.56z"></path>
<path fill="#3762cc" style="fill: var(--color2, #3762cc)" d="M14.5 16.766c-4.307 0-7.81-3.504-7.81-7.811v-3.167c0.001-1.187 0.963-2.149 2.15-2.15h13.22c0 0 0 0 0.001 0 0.138 0 0.25 0.112 0.25 0.25 0 0 0 0 0 0v0 5.068c0 4.307-3.504 7.811-7.811 7.811zM8.84 4.139c-0.911 0.001-1.65 0.739-1.651 1.65v3.167c0 4.031 3.28 7.31 7.311 7.31s7.311-3.279 7.311-7.31v-4.817h-12.971z"></path>
<path fill="#f9cfcf" style="fill: var(--color1, #f9cfcf)" d="M20.94 9.466v-0.602c0-3.524-2.883-6.381-6.44-6.381s-6.439 2.857-6.439 6.381v0.603c-0.015-0-0.034-0.001-0.052-0.001-1.076 0-1.949 0.871-1.953 1.946v0c0 1.149 1.004 2.058 2.175 1.935 0.664 2.823 3.218 4.927 6.269 4.927s5.604-2.104 6.269-4.927c1.17 0.124 2.175-0.784 2.175-1.935-0.004-1.075-0.877-1.945-1.953-1.945-0.018 0-0.036 0-0.055 0.001l0.003-0z"></path>
<path fill="#3762cc" style="fill: var(--color2, #3762cc)" d="M14.5 18.524c-3.054 0-5.681-2.011-6.461-4.916-0.005 0-0.011 0-0.017 0-0.573 0-1.096-0.216-1.491-0.571l0.002 0.002c-0.446-0.402-0.726-0.982-0.727-1.627v-0c0-0.592 0.234-1.147 0.659-1.564 0.367-0.36 0.838-0.576 1.346-0.622v-0.362c0-3.656 3.001-6.631 6.689-6.631s6.689 2.975 6.689 6.631v0.362c0.509 0.046 0.979 0.262 1.347 0.622 0.407 0.395 0.659 0.948 0.659 1.559 0 0.002 0 0.003 0 0.005v-0c0 0.619-0.265 1.212-0.727 1.628-0.393 0.353-0.915 0.569-1.487 0.569-0.001 0-0.001 0-0.002 0h-0.017c-0.78 2.905-3.407 4.915-6.461 4.915zM8.231 13.096c0 0 0 0 0 0 0.118 0 0.217 0.082 0.243 0.192l0 0.002c0.656 2.787 3.134 4.733 6.026 4.733s5.37-1.946 6.026-4.733c0.027-0.112 0.126-0.193 0.245-0.193 0.009 0 0.017 0 0.025 0.001l-0.001-0c0.056 0.006 0.12 0.010 0.185 0.010 0.444 0 0.849-0.167 1.155-0.442l-0.002 0.001c0.344-0.31 0.56-0.758 0.561-1.255v-0c0-0.001 0-0.002 0-0.003 0-0.472-0.195-0.898-0.508-1.203l-0-0c-0.307-0.302-0.729-0.489-1.195-0.489-0.016 0-0.033 0-0.049 0.001l0.002-0c-0.069-0-0.132-0.027-0.179-0.071l0 0c-0.047-0.046-0.075-0.109-0.076-0.179v0-0.602c0-3.381-2.776-6.131-6.189-6.131s-6.19 2.75-6.19 6.131v0.603c0 0 0 0 0 0 0 0.138-0.112 0.25-0.25 0.25-0.002 0-0.004-0-0.005-0h0c-0.014-0-0.030-0.001-0.046-0.001-0.466 0-0.888 0.187-1.196 0.489l0-0c-0.314 0.305-0.509 0.731-0.509 1.203 0 0.001 0 0.002 0 0.003v-0c0 0.477 0.205 0.934 0.561 1.256 0.305 0.273 0.709 0.441 1.153 0.441 0.065 0 0.129-0.004 0.192-0.011l-0.008 0.001c0.008-0.001 0.017-0.001 0.026-0.001 0 0 0 0 0.001 0h-0z"></path>
<path fill="#4671c6" style="fill: var(--color3, #4671c6)" d="M22.061 8.229h-10.104c-2.131-0.028-3.848-1.762-3.848-3.897s1.717-3.869 3.845-3.897l0.003-0h6.612c1.927 0 3.49 1.563 3.49 3.49v0 4.305z"></path>
<path fill="#3762cc" style="fill: var(--color2, #3762cc)" d="M22.061 8.479h-10.104c-2.289-0.003-4.145-1.858-4.147-4.147v-0c0.003-2.289 1.858-4.145 4.147-4.147h6.613c2.064 0.003 3.737 1.676 3.74 3.74v4.305c0 0.138-0.112 0.25-0.25 0.25v0zM11.957 0.685c-2.013 0.003-3.644 1.634-3.647 3.646v0c0.002 2.014 1.633 3.645 3.646 3.648h9.854v-4.056c-0.002-1.788-1.451-3.237-3.239-3.24h-6.614zM8.412 26.309c-0.138 0-0.25-0.112-0.25-0.25v0-2.131c0-0.138 0.112-0.25 0.25-0.25s0.25 0.112 0.25 0.25v0 2.131c0 0.138-0.112 0.25-0.25 0.25v0z"></path>
<path fill="#f9a7a7" style="fill: var(--color4, #f9a7a7)" d="M16.331 16.535c0.168 0.023 0.339 0.024 0.504-0.017 0.606-0.154 1.047-0.695 1.047-1.339s-0.441-1.184-1.037-1.336l-0.010-0.002c-0.089-0.021-0.19-0.033-0.295-0.033-0.073 0-0.145 0.006-0.216 0.017l0.008-0.001c-1.216 0.166-2.45 0.166-3.666 0-0.063-0.010-0.135-0.016-0.208-0.016-0.105 0-0.206 0.012-0.304 0.035l0.009-0.002c-0.606 0.154-1.047 0.695-1.047 1.339s0.441 1.184 1.037 1.337l0.010 0.002c0.164 0.040 0.335 0.040 0.503 0.017 1.216-0.166 2.449-0.166 3.665 0z"></path>
<path fill="#3762cc" style="fill: var(--color2, #3762cc)" d="M18.054 12.95c-0.052-0-0.1-0.016-0.14-0.043l0.001 0.001-1.729-1.161c-0.067-0.045-0.111-0.121-0.111-0.207s0.044-0.162 0.11-0.207l0.001-0.001 1.729-1.161c0.039-0.027 0.087-0.043 0.14-0.043 0.138 0 0.25 0.112 0.25 0.25 0 0.086-0.044 0.162-0.11 0.207l-0.001 0.001-1.42 0.954 1.42 0.953c0.068 0.045 0.112 0.122 0.112 0.208 0 0.138-0.112 0.25-0.25 0.25-0.001 0-0.001 0-0.002 0h0z"></path>
<path fill="#3762cc" style="fill: var(--color2, #3762cc)" d="M18.852 11.789h-2.525c-0.138 0-0.25-0.112-0.25-0.25s0.112-0.25 0.25-0.25v0h2.525c0.138 0 0.25 0.112 0.25 0.25s-0.112 0.25-0.25 0.25v0zM10.939 12.95c-0 0-0.001 0-0.002 0-0.138 0-0.25-0.112-0.25-0.25 0-0.086 0.044-0.163 0.111-0.207l0.001-0.001 1.42-0.954-1.42-0.954c-0.067-0.045-0.111-0.121-0.111-0.207 0-0.138 0.112-0.25 0.25-0.25 0.052 0 0.1 0.016 0.14 0.043l-0.001-0.001 1.729 1.161c0.067 0.045 0.111 0.121 0.111 0.208s-0.044 0.162-0.11 0.207l-0.001 0.001-1.729 1.16c-0.039 0.027-0.087 0.043-0.139 0.043h-0z"></path>
<path fill="#3762cc" style="fill: var(--color2, #3762cc)" d="M12.668 11.789h-2.525c-0.138 0-0.25-0.112-0.25-0.25s0.112-0.25 0.25-0.25v0h2.525c0.138 0 0.25 0.112 0.25 0.25s-0.112 0.25-0.25 0.25v0z"></path>
<path fill="#f9a7a7" style="fill: var(--color4, #f9a7a7)" d="M27.786 11.883h-3.27c-0.19 0-0.344-0.154-0.344-0.344s0.154-0.344 0.344-0.344h3.27c0.19 0 0.344 0.154 0.344 0.344s-0.154 0.344-0.344 0.344v0zM23.677 8.897c-0.084-0.063-0.138-0.163-0.138-0.276 0-0.078 0.026-0.15 0.069-0.207l-0.001 0.001 2.314-3.084c0.064-0.080 0.161-0.13 0.27-0.13 0.19 0 0.344 0.154 0.344 0.344 0 0.075-0.024 0.144-0.064 0.2l0.001-0.001-2.313 3.084c-0.064 0.084-0.163 0.137-0.275 0.137-0.078 0-0.15-0.026-0.208-0.070l0.001 0.001zM25.921 17.747l-2.313-3.085c-0.041-0.056-0.065-0.126-0.065-0.201 0-0.19 0.154-0.344 0.344-0.344 0.11 0 0.208 0.052 0.271 0.132l2.314 3.086c0.038 0.054 0.060 0.122 0.060 0.195 0 0.19-0.154 0.344-0.344 0.344-0.107 0-0.203-0.049-0.266-0.125l-0-0.001zM4.485 11.883h-3.27c-0.19 0-0.344-0.154-0.344-0.344s0.154-0.344 0.344-0.344h3.27c0.19 0 0.344 0.154 0.344 0.344s-0.154 0.344-0.344 0.344v0zM2.597 17.815c-0.084-0.063-0.138-0.163-0.138-0.276 0-0.078 0.026-0.15 0.069-0.207l-0.001 0.001 2.313-3.084c0.064-0.084 0.163-0.138 0.276-0.138 0.19 0 0.344 0.154 0.344 0.344 0 0.078-0.026 0.15-0.070 0.208l0.001-0.001-2.313 3.084c-0.063 0.084-0.163 0.137-0.275 0.137-0.078 0-0.15-0.026-0.208-0.070l0.001 0.001zM4.841 8.828l-2.313-3.084c-0.049-0.059-0.078-0.135-0.078-0.218 0-0.19 0.154-0.344 0.344-0.344 0.117 0 0.221 0.059 0.283 0.149l0.001 0.001 2.314 3.084c0.040 0.055 0.063 0.125 0.063 0.199 0 0.19-0.154 0.344-0.344 0.344-0.109 0-0.206-0.051-0.269-0.129l-0.001-0.001zM25.375 31.625c3.452 0 6.25-2.798 6.25-6.25s-2.798-6.25-6.25-6.25c-3.452 0-6.25 2.798-6.25 6.25s2.798 6.25 6.25 6.25z"></path>
<path fill="#4671c6" style="fill: var(--color3, #4671c6)" d="M26.612 25.375l2.524-2.524c0.158-0.158 0.256-0.377 0.256-0.619 0-0.483-0.392-0.875-0.875-0.875-0.242 0-0.46 0.098-0.619 0.256l-2.524 2.524-2.524-2.524c-0.158-0.158-0.377-0.256-0.619-0.256-0.483 0-0.875 0.392-0.875 0.875 0 0.242 0.098 0.46 0.256 0.619l2.524 2.524-2.524 2.524c-0.164 0.159-0.266 0.382-0.266 0.628 0 0.483 0.392 0.875 0.875 0.875 0.246 0 0.469-0.102 0.628-0.266l2.524-2.524 2.524 2.524c0.158 0.158 0.377 0.256 0.619 0.256 0.483 0 0.875-0.392 0.875-0.875 0-0.242-0.098-0.46-0.256-0.619l-2.524-2.524z"></path>
<path fill="#3762cc" style="fill: var(--color2, #3762cc)" d="M25.375 31.875c-3.584 0-6.5-2.916-6.5-6.5s2.916-6.5 6.5-6.5 6.5 2.916 6.5 6.5c0 3.584-2.916 6.5-6.5 6.5zM25.375 19.375c-3.309 0-6 2.692-6 6s2.692 6 6 6c3.309 0 6-2.691 6-6s-2.691-6-6-6z"></path>
</symbol>
<symbol id="pain" viewBox="0 0 32 32">
<path fill="#f4b19d" style="fill: var(--color25, #f4b19d)" d="M30.003 20l0.499 10.496h-3.501s-1.504-10.995-1.504-11.994c0-0.435-0.090-1.536-0.205-2.63-0.461 2.451-1.024 5.312-1.293 6.125-0.499 1.504-0.499 8.506-0.499 8.506h-15.002s0-7.002-0.499-8.499c-0.269-0.813-0.832-3.68-1.293-6.131-0.087 0.718-0.16 1.625-0.202 2.541l-0.003 0.083c0 1.005-1.504 12.006-1.504 12.006h-3.501l0.499-10.502s-1.498-11.002 0-13.504c1.286-2.144 9.011-1.99 10.003-2.49 0.998-0.499 0.998-2.496 0.998-2.496h6.003s0 1.997 0.998 2.496c0.998 0.499 8.717 0.352 10.003 2.496 1.498 2.502 0 13.504 0 13.504z"></path>
<path fill="#dd9d8e" style="fill: var(--color26, #dd9d8e)" d="M5.504 12.096l0.986-0.179 0.704 3.866-0.986 0.179-0.704-3.866zM24.813 15.776l0.704-3.872 0.986 0.179-0.704 3.872-0.986-0.179z"></path>
<path fill="#5b97f0" style="fill: var(--color27, #5b97f0)" d="M12.499 11.002h7.501l-2.003 4.499h2.502l-4.998 8v-6.003h-2.496l-0.506-6.496z"></path>
<path fill="#387bdf" style="fill: var(--color16, #387bdf)" d="M20 11.002h-1.139c-1.044 2.731-3.169 4.846-5.838 5.852l-0.069 0.023 0.045 0.621h2.496v6.003l5.005-8h-2.496l1.997-4.499z"></path>
</symbol>
<symbol id="mirror" viewBox="0 0 32 32">
<path fill="#91def5" style="fill: var(--color28, #91def5)" d="M0.64 3.136h24v21.504h-24v-21.504z"></path>
<path fill="#dff6fc" style="fill: var(--color29, #dff6fc)" d="M3.136 5.696h19.008v16.384h-19.008v-16.384z"></path>
<path fill="#ffbf9e" style="fill: var(--color30, #ffbf9e)" d="M12.608 15.168c-1.6 0-2.88-1.28-2.88-2.88v-1.28c0-1.591 1.289-2.88 2.88-2.88s2.88 1.289 2.88 2.88v0 1.28c0 1.6-1.28 2.88-2.88 2.88z"></path>
<path fill="#98a2ff" style="fill: var(--color31, #98a2ff)" d="M15.424 15.168h-5.568c-2.368 0-4.224 1.92-4.224 4.224v2.688h14.016v-2.688c0-2.304-1.92-4.224-4.224-4.224z"></path>
<path fill="#fff" style="fill: var(--color32, #fff)" d="M15.488 15.168l-2.88 6.912-2.816-6.912h5.696z"></path>
<path fill="#8690a6" style="fill: var(--color33, #8690a6)" d="M24.32 18.944c-1.536 0-2.816-1.28-2.816-2.88v-1.28c0-1.591 1.289-2.88 2.88-2.88s2.88 1.289 2.88 2.88v0 1.28c0 1.6-1.28 2.88-2.88 2.88z"></path>
<path fill="#7a87ff" style="fill: var(--color34, #7a87ff)" d="M27.2 18.944h-5.632c-2.304 0-4.224 1.92-4.224 4.224v5.76h14.080v-5.76c0-2.304-1.92-4.224-4.224-4.224z"></path>
<path fill="#5a73b4" style="fill: var(--color35, #5a73b4)" d="M27.2 18.368h-0.128c0.512-0.64 0.832-1.408 0.832-2.304v-1.28c0-1.6-1.152-2.944-2.624-3.328v-8.32c0-0.384-0.32-0.64-0.64-0.64h-24c-0.353 0-0.64 0.287-0.64 0.64v0 21.504c0 0.32 0.256 0.64 0.64 0.64h16.128v3.52c0 0.384 0.256 0.64 0.64 0.64h13.952c0.384 0 0.64-0.256 0.64-0.64v-5.696c0-2.688-2.176-4.8-4.8-4.8zM26.624 14.848v1.28c0 1.237-1.003 2.24-2.24 2.24s-2.24-1.003-2.24-2.24v0-1.28c0-1.237 1.003-2.24 2.24-2.24s2.24 1.003 2.24 2.24v0zM1.28 24v-20.224h22.72v7.616c-0.448 0-0.896 0.128-1.28 0.384v-6.080c0-0.384-0.256-0.64-0.64-0.64h-6.592c-0.353 0-0.64 0.287-0.64 0.64s0.287 0.64 0.64 0.64v0h6.080v6.464c-0.384 0.576-0.64 1.28-0.64 1.92v1.28c0 0.896 0.32 1.664 0.832 2.304h-0.128c-0.448 0-0.96 0-1.408 0.192-0.43-2.238-2.348-3.914-4.666-3.968l-0.006-0h-0.256c0.512-0.64 0.832-1.408 0.832-2.304v-1.28c0-1.944-1.576-3.52-3.52-3.52s-3.52 1.576-3.52 3.52v0 1.28c0 0.896 0.32 1.664 0.832 2.304h-0.128c-2.637 0.036-4.764 2.163-4.8 4.797l-0 0.003v2.048h-1.28v-15.040h6.080c0.353 0 0.64-0.287 0.64-0.64s-0.287-0.64-0.64-0.64v0h-6.592c-0.353 0-0.64 0.287-0.64 0.64v0 16.384c0 0.32 0.256 0.64 0.64 0.64h13.632v1.28h-15.552zM17.088 21.44h-3.52l2.304-5.568c1.664 0.192 3.008 1.536 3.136 3.2-0.87 0.564-1.537 1.376-1.909 2.335l-0.011 0.033zM9.408 15.872l2.304 5.568h-5.44v-2.048c0-1.792 1.344-3.328 3.136-3.52zM10.368 12.288v-1.28c0-1.237 1.003-2.24 2.24-2.24s2.24 1.003 2.24 2.24v0 1.28c0 1.237-1.003 2.24-2.24 2.24s-2.24-1.003-2.24-2.24v0zM14.528 15.808l-1.92 4.608-1.92-4.608h3.84zM30.72 28.224h-12.736v-5.056c0-1.92 1.6-3.584 3.584-3.584h5.632c1.92 0 3.52 1.6 3.52 3.584v5.12z"></path>
<path fill="#4661a7" style="fill: var(--color36, #4661a7)" d="M12.608 6.336c0.353 0 0.64-0.287 0.64-0.64v0c0-0.353-0.287-0.64-0.64-0.64v0c-0.353 0-0.64 0.287-0.64 0.64v0c0 0.353 0.287 0.64 0.64 0.64v0z"></path>
</symbol>
<symbol id="message" viewBox="0 0 32 32">
<path fill="#ffe07d" style="fill: var(--color37, #ffe07d)" d="M23.875 23.438c-0.063-0.313 0.063-0.688 0.375-0.813 2.688-1.375 4.438-3.688 4.438-6.375 0-3.25-2.75-6.063-6.563-7.125-4.813 0.25-8.688 3.375-8.688 7.25 0 3.938 4.125 7.188 9.25 7.188h0.063c0.25 0 0.5 0.125 0.625 0.375l0.375 0.5 0.313-0.313-0.188-0.688z"></path>
<path fill="#ffd064" style="fill: var(--color38, #ffd064)" d="M27.75 22.375c2.563-1.25 4.25-3.5 4.25-6 0-4-4.188-7.25-9.313-7.25-0.688 0-1.375 0.063-2 0.188 4.125 0.688 7.25 3.563 7.25 7.063 0 2.5-1.688 4.75-4.25 6-0.25 0.188-0.438 0.5-0.375 0.813l0.438 1.25c1.313 1.688 3.75 2.125 4.813 2.25 0.188 0 0.313-0.188 0.188-0.375-0.375-0.563-1.063-1.813-1.375-3.125-0.063-0.313 0.125-0.625 0.375-0.813z"></path>
<path fill="#95d6a4" style="fill: var(--color39, #95d6a4)" d="M10.188 5.438c-5.813 0.75-10.188 4.688-10.188 9.375 0 2.25 1 4.313 2.625 5.938 0.25 0.188 0.313 0.438 0.25 0.688-0.563 1.938-1.625 3.625-2.313 4.563 0.188 0.188 0.563 0.25 0.813 0.188 1.688-0.625 2.5-1.25 3.75-2.625 0.313-0.313 0.813-0.438 1.25-0.25 0.25 0.188 0.563 0.25 0.875 0.375 0.375 0.125 0.75 0.25 1.125 0.188h0.25l1.563 0.313 2.313-0.125c4.875-1.313 8.375-4.938 8.375-9.25 0-4.375-3.688-8.125-8.813-9.313z"></path>
<path fill="#78c2a4" style="fill: var(--color40, #78c2a4)" d="M4.75 23.25c-1.375 1.438-2.188 2.063-4.188 2.75l-0.25 0.313c-0.125 0.125 0 0.375 0.188 0.375 1.375-0.063 5.125-0.375 7.438-2.625 0.188-0.188 0.438-0.25 0.688-0.188-0.938-0.188-1.813-0.5-2.625-0.875-0.438-0.188-0.938-0.125-1.25 0.25zM12.188 5.313l-2 0.125c5.75 0.75 10.125 4.688 10.125 9.375s-4.375 8.625-10.125 9.375l2 0.125c6.75 0 12.188-4.25 12.188-9.5s-5.438-9.5-12.188-9.5z"></path>
<path fill="#f0f7ff" style="fill: var(--color41, #f0f7ff)" d="M5.881 14.756c0 0.659-0.534 1.194-1.194 1.194s-1.194-0.534-1.194-1.194c0-0.659 0.534-1.194 1.194-1.194s1.194 0.534 1.194 1.194z"></path>
<path fill="#f0f7ff" style="fill: var(--color41, #f0f7ff)" d="M10.65 14.756c0 0.659-0.534 1.194-1.194 1.194s-1.194-0.534-1.194-1.194c0-0.659 0.534-1.194 1.194-1.194s1.194 0.534 1.194 1.194z"></path>
<path fill="#f0f7ff" style="fill: var(--color41, #f0f7ff)" d="M15.425 14.756c0 0.659-0.534 1.194-1.194 1.194s-1.194-0.534-1.194-1.194c0-0.659 0.534-1.194 1.194-1.194s1.194 0.534 1.194 1.194z"></path>
<path fill="#f0f7ff" style="fill: var(--color41, #f0f7ff)" d="M20.2 14.756c0 0.659-0.534 1.194-1.194 1.194s-1.194-0.534-1.194-1.194c0-0.659 0.534-1.194 1.194-1.194s1.194 0.534 1.194 1.194z"></path>
</symbol>
<symbol id="kiss" viewBox="0 0 32 32">
<path fill="#e8c8b3" style="fill: var(--color42, #e8c8b3)" d="M12.998 11.002l2.496 1.498-0.493 2.003h-3.002l0.998-3.501z"></path>
<path fill="#f16465" style="fill: var(--color43, #f16465)" d="M24.141 3.584l-2.509 2.515-2.522-2.515c-0.222-0.221-0.359-0.526-0.359-0.864 0-0.674 0.546-1.22 1.22-1.22 0.336 0 0.64 0.136 0.861 0.356l0.794 0.794 0.794-0.794c0.221-0.221 0.527-0.358 0.864-0.358 0.675 0 1.222 0.547 1.222 1.222 0 0.337-0.137 0.643-0.358 0.864v0z"></path>
<path fill="#e8c8b3" style="fill: var(--color42, #e8c8b3)" d="M12.998 8h4v3.002c0 1.105-0.895 2-2 2s-2-0.895-2-2v0-3.002z"></path>
<path fill="#683b0d" style="fill: var(--color44, #683b0d)" d="M18.496 7.002c0 0.551-0.447 0.998-0.998 0.998h-2.496l-0.499 1.498h-1.005l-0.499 2.003c-0.551 0-0.998-0.447-0.998-0.998v0-2.624c0-0.002 0-0.004 0-0.006 0-1.036 0.84-1.875 1.875-1.875 0 0 0 0 0 0h3.622c0.002 0 0.004-0 0.006-0 0.551 0 0.998 0.447 0.998 0.998 0 0.002 0 0.005-0 0.007v-0z"></path>
<path fill="#0bafea" style="fill: var(--color45, #0bafea)" d="M17.498 30.502h-8.499v-13.005c0.004-1.655 1.346-2.995 3.002-2.995 0 0 0 0 0 0h3.002l0.435 0.256c1.243 0.756 2.061 2.104 2.061 3.643 0 0.002 0 0.004 0 0.006v-0 12.096z"></path>
<path fill="#647bf1" style="fill: var(--color46, #647bf1)" d="M16 30.502h6.003v-12.499c0-0.002 0-0.004 0-0.006 0-1.103-0.894-1.997-1.997-1.997-0.002 0-0.005 0-0.007 0h-2.496l-2.067 3.309c-0.272 0.429-0.434 0.952-0.434 1.513 0 0.786 0.317 1.497 0.831 2.013l0.166 0.166v7.501z"></path>
<path fill="#4e68f2" style="fill: var(--color47, #4e68f2)" d="M20.499 17.498c0 0 0 0 0 0 0.827 0 1.498 0.671 1.498 1.498 0 0.002 0 0.005 0 0.007v-0 2.496h-2.989v-2.496c0-0.002 0-0.004 0-0.006 0-0.827 0.671-1.498 1.498-1.498 0 0 0 0 0 0v0z"></path>
<path fill="#f5d3bd" style="fill: var(--color10, #f5d3bd)" d="M19.002 21.504v2.995l-3.002 2.496-1.498-0.493-1.504 1.997 2.003 2.003 1.498-1.504 5.504-3.501v-3.994h-3.008z"></path>
<path fill="#e8c8b3" style="fill: var(--color42, #e8c8b3)" d="M23.373 28.499h-1.376v-3.002h1.376c0.346 0 0.627 0.281 0.627 0.627v0 1.747c0 0.346-0.281 0.627-0.627 0.627v0z"></path>
<path fill="#f5d3bd" style="fill: var(--color10, #f5d3bd)" d="M18.003 13.504l-0.506 2.496h2.003l0.499-2.003-2.003-0.499z"></path>
<path fill="#f5d3bd" style="fill: var(--color10, #f5d3bd)" d="M18.496 14.304c-0.751-0.3-1.272-1.022-1.272-1.865 0-0.264 0.051-0.516 0.144-0.747l-0.005 0.013 1.094-2.79 3.725 1.466-1.101 2.79c-0.301 0.75-1.022 1.27-1.864 1.27-0.262 0-0.512-0.050-0.741-0.142l0.014 0.005z"></path>
<path fill="#ea9d2d" style="fill: var(--color48, #ea9d2d)" d="M17.434 7.443c-0.045 0.109-0.071 0.237-0.071 0.37 0 0.42 0.26 0.78 0.627 0.927l0.007 0.002 1.856 0.73 0.57 1.299-1.466 3.718c-0.066 0.163-0.104 0.352-0.104 0.55 0 0.832 0.674 1.506 1.506 1.506 0.634 0 1.176-0.391 1.398-0.945l0.004-0.010 1.645-4.192c0.11-0.271 0.174-0.586 0.174-0.916 0-1.050-0.648-1.948-1.565-2.317l-0.017-0.006-3.264-1.28c-0.108-0.043-0.233-0.069-0.364-0.069-0.419 0-0.779 0.259-0.926 0.625l-0.002 0.007z"></path>
<path fill="#0a9acd" style="fill: var(--color49, #0a9acd)" d="M10.496 16c0.002 0 0.004 0 0.006 0 0.827 0 1.498 0.671 1.498 1.498 0 0 0 0 0 0v0 2.502h-3.002v-2.496c0-0.002 0-0.004 0-0.006 0-0.827 0.671-1.498 1.498-1.498 0.002 0 0.005 0 0.007 0h-0z"></path>
<path fill="#e8c8b3" style="fill: var(--color42, #e8c8b3)" d="M12 20v3.501l4 3.501 2.003 0.499 0.499 1.498-1.005 1.504h-2.496l-1.504-2.003-4.499-4v-4.499h3.002z"></path>
</symbol>
<symbol id="food" viewBox="0 0 32 32">
<path fill="#95d6a4" style="fill: var(--color39, #95d6a4)" d="M22.003 5.043c-0.832 0.832-2.336 3.693-2.336 3.693l-0.115-0.051-4.774-2.157c-0.992-2.816-0.666-5.274 0.32-5.274 0.96 0 2.003 2.394 2.035 2.47-0.013-0.096-0.55-3.635 1.062-3.635 0.736 0 1.146 0.557 1.363 1.165 0.269 0.736 0.269 1.555 0.269 1.555s1.229-2.778 2.701-2.362c1.472 0.41 0.307 3.776-0.518 4.608z"></path>
<path fill="#78c2a4" style="fill: var(--color40, #78c2a4)" d="M19.296 7.725c0.179 0.378 0.256 0.698 0.256 0.96l-4.774-2.157c-0.992-2.816-0.666-5.274 0.32-5.274 0.96 0 2.003 2.394 2.035 2.47-0.013-0.096-0.55-3.635 1.062-3.635 0.736 0 1.146 0.557 1.363 1.165-0.563-1.165-2.221 2.189-0.256 6.464z"></path>
<path fill="#e49542" style="fill: var(--color50, #e49542)" d="M26.842 15.904c4.659-4.653 6.496-10.362 4.109-12.749s-8.096-0.55-12.755 4.102c-4.653 4.659-6.49 10.368-4.102 12.755s8.096 0.55 12.749-4.109z"></path>
<path fill="#e28424" style="fill: var(--color51, #e28424)" d="M14.093 20.013c-2.387-2.387-0.55-8.096 4.109-12.755 4.646-4.653 10.368-6.49 12.755-4.102-1.011-1.011-5.6 1.952-10.253 6.605-4.653 4.659-7.616 9.248-6.611 10.253z"></path>
<path fill="#e28424" style="fill: var(--color51, #e28424)" d="M28.499 9.114l-3.507-3.507c-0.185-0.175-0.435-0.282-0.711-0.282-0.573 0-1.037 0.464-1.037 1.037 0 0.275 0.107 0.526 0.283 0.711l-0-0 3.507 3.507c0.185 0.175 0.435 0.282 0.711 0.282 0.573 0 1.037-0.464 1.037-1.037 0-0.275-0.107-0.526-0.283-0.711l0 0.001zM24.486 13.126l-3.507-3.507c-0.185-0.175-0.435-0.282-0.711-0.282-0.573 0-1.037 0.464-1.037 1.037 0 0.275 0.107 0.526 0.283 0.711l-0-0.001 3.507 3.507c0.188 0.189 0.448 0.306 0.736 0.306 0.574 0 1.039-0.465 1.039-1.039 0-0.286-0.116-0.545-0.303-0.733l0 0z"></path>
<path fill="#80b4fb" style="fill: var(--color52, #80b4fb)" d="M14.246 8.269c-0.045 0.704-0.16 2.144-0.41 3.488-0.102 0.525-0.461 0.96-0.954 1.171-0.442 0.179-0.915 0.486-0.915 0.947 0 0.147 0.026 0.275 0.077 0.397h-6.784c0.058-0.122 0.083-0.25 0.083-0.397 0-0.461-0.474-0.768-0.915-0.947-0.493-0.205-0.851-0.64-0.947-1.171-0.256-1.344-0.371-2.784-0.41-3.488-0.019-0.307 0.045-0.608 0.198-0.877 1.139-1.971 3.437-3.219 3.437-3.219v-3.174h3.904v3.174s2.298 1.248 3.43 3.219c0.154 0.269 0.224 0.576 0.205 0.877z"></path>
<path fill="#61a2f9" style="fill: var(--color53, #61a2f9)" d="M6.707 2.010h3.904v1.152h-3.904v-1.152z"></path>
<path fill="#61a2f9" style="fill: var(--color53, #61a2f9)" d="M7.802 1.85v2.323s-1.664 1.248-2.336 3.219c-0.090 0.269-0.128 0.576-0.115 0.877 0.026 0.704 0.090 2.144 0.243 3.488 0.058 0.525 0.269 0.96 0.557 1.171 0.262 0.179 0.544 0.486 0.544 0.947 0 0.147-0.013 0.275-0.045 0.397h-1.382c0.051-0.122 0.077-0.25 0.077-0.397 0-0.461-0.474-0.768-0.915-0.947-0.493-0.205-0.851-0.64-0.947-1.171-0.256-1.344-0.371-2.784-0.41-3.488-0.019-0.307 0.045-0.608 0.198-0.877 1.139-1.971 3.437-3.219 3.437-3.219v-1.811l1.088-0.512z"></path>
<path fill="#a698ff" style="fill: var(--color54, #a698ff)" d="M10.157 0.147h-3.002c-0.467 0-0.851 0.384-0.851 0.851v1.363h4.704v-1.363c0-0.467-0.384-0.851-0.851-0.851z"></path>
<path fill="#8673ff" style="fill: var(--color55, #8673ff)" d="M8.838 0.147c-0.467 0-0.851 0.384-0.851 0.851v1.363h-1.683v-1.363c0-0.467 0.384-0.851 0.851-0.851h1.683z"></path>
<path fill="#a698ff" style="fill: var(--color54, #a698ff)" d="M30.163 17.165s-0.032 0.941-0.128 2.4c-0.128 2.112-0.403 5.306-0.915 8.333-0.397 2.291-2.368 4.011-4.742 4.013h-16.762c-2.371-0.005-4.34-1.724-4.732-3.984l-0.004-0.029c-0.541-3.13-0.917-6.829-1.046-10.592l-0.004-0.14h28.326z"></path>
<path fill="#8673ff" style="fill: var(--color55, #8673ff)" d="M30.163 17.165s-0.032 0.941-0.128 2.4c-0.141 0.032-0.294 0.051-0.448 0.051-9.062 0.173-18.112 0.173-27.168 0-0.16 0-0.314-0.019-0.461-0.051-0.090-1.459-0.122-2.4-0.122-2.4h28.326z"></path>
<path fill="#8673ff" style="fill: var(--color55, #8673ff)" d="M9.696 31.91h-2.080c-2.371-0.005-4.34-1.724-4.732-3.984l-0.004-0.029c-0.877-5.12-1.050-10.733-1.050-10.733h3.501s0.128 5.606 0.787 10.733c0.294 2.31 1.798 4.013 3.571 4.013z"></path>
<path fill="#ededed" style="fill: var(--color56, #ededed)" d="M20.326 6.829c-1.673-0.192-3.611-0.301-5.575-0.301-1.489 0-2.963 0.063-4.42 0.186l0.19-0.013c-0.435 0.038-0.595 0.352-1.024 0.403-0.416 3.616-0.685 6.963-0.275 10.586 3.699 0.397 7.405 0.397 11.104 0 0.41-3.622 0.41-7.238 0-10.861z"></path>
<path fill="#dbdbdb" style="fill: var(--color57, #dbdbdb)" d="M10.522 17.811c-0.637-0.053-1.084-0.098-1.529-0.15l0.23 0.022c-0.194-1.629-0.305-3.515-0.305-5.427s0.111-3.799 0.327-5.653l-0.021 0.226 1.299-0.128c-0.192 1.667-0.302 3.598-0.302 5.555s0.11 3.888 0.323 5.788l-0.021-0.233z"></path>
<path fill="#6d6aff" style="fill: var(--color58, #6d6aff)" d="M29.581 18.304c-9.056 0.179-18.112 0.179-27.162 0-1.138-0.023-2.080-0.831-2.308-1.904l-0.003-0.016c-0.069-0.32-0.108-0.688-0.108-1.066s0.039-0.745 0.114-1.1l-0.006 0.035c0.227-1.089 1.167-1.9 2.301-1.926l0.003-0c9.062-0.173 18.112-0.173 27.168 0 1.139 0.023 2.083 0.835 2.308 1.911l0.003 0.016c0.147 0.704 0.147 1.421 0 2.131-0.23 1.087-1.169 1.894-2.301 1.92l-0.003 0z"></path>
<path fill="#5350ff" style="fill: var(--color59, #5350ff)" d="M4.736 18.349l-2.317-0.038c-1.139-0.023-2.083-0.835-2.308-1.911l-0.003-0.016c-0.069-0.32-0.108-0.688-0.108-1.066s0.039-0.745 0.115-1.1l-0.006 0.035c0.227-1.089 1.167-1.9 2.301-1.926l0.003-0 2.323-0.038c-0.932 0.237-1.644 0.975-1.84 1.904l-0.003 0.016c-0.072 0.333-0.113 0.715-0.113 1.107s0.041 0.774 0.119 1.143l-0.006-0.036c0.197 0.948 0.91 1.688 1.826 1.923l0.017 0.004z"></path>
<path fill="#365e7d" style="fill: var(--color60, #365e7d)" d="M9.613 21.056h-0.026c-0.844 0.007-1.527 0.682-1.549 1.521l-0 0.002c-0.045 1.306-0.045 2.611 0 3.917 0.025 0.839 0.707 1.51 1.548 1.517h0.026c0.844-0.003 1.53-0.676 1.555-1.515l0-0.002c0.038-1.306 0.038-2.611 0-3.917-0.021-0.844-0.709-1.52-1.555-1.523h-0zM16.013 21.056h-0.026c-0.846 0.003-1.534 0.68-1.555 1.521l-0 0.002c-0.038 1.306-0.038 2.611 0 3.917 0.025 0.841 0.711 1.514 1.555 1.517h0.026c0.844-0.003 1.53-0.676 1.555-1.515l0-0.002c0.038-1.306 0.038-2.611 0-3.917-0.021-0.844-0.709-1.52-1.555-1.523h-0zM22.413 21.056h-0.026c-0.846 0.003-1.534 0.68-1.555 1.521l-0 0.002c-0.038 1.306-0.038 2.611 0 3.917 0.025 0.841 0.711 1.514 1.555 1.517h0.026c0.841-0.007 1.524-0.678 1.549-1.515l0-0.002c0.045-1.306 0.045-2.611 0-3.917-0.021-0.841-0.705-1.516-1.548-1.523h-0.001z"></path>
<path fill="#407093" style="fill: var(--color61, #407093)" d="M7.917 14.464c-0.305-0.157-0.659-0.289-1.030-0.377l-0.032-0.007c-0.105-0.025-0.227-0.039-0.351-0.039-0.67 0-1.242 0.415-1.476 1.001l-0.004 0.011c-0.886 2.025-2.249 5.687-3.522 9.39l-0.497 1.663c-0.054 0.153-0.085 0.329-0.085 0.513 0 0.608 0.342 1.137 0.845 1.403l0.009 0.004c0.346 0.173 0.704 0.301 1.069 0.384 0.768 0.179 1.542-0.237 1.83-0.973 1.434-3.648 2.771-7.334 4.019-11.046 0.054-0.153 0.085-0.329 0.085-0.513 0-0.608-0.342-1.137-0.845-1.403l-0.009-0.004z"></path>
<path fill="#365e7d" style="fill: var(--color60, #365e7d)" d="M2.221 28.224l-0.448-0.198c-0.511-0.271-0.853-0.799-0.853-1.407 0-0.184 0.031-0.36 0.089-0.524l-0.003 0.011c1.248-3.718 2.586-7.405 4.019-11.053 0.237-0.597 0.81-1.012 1.479-1.012 0.124 0 0.246 0.014 0.362 0.041l-0.011-0.002 0.461 0.128c-0.516 0.142-0.925 0.513-1.116 0.994l-0.004 0.011c-0.921 2.103-2.342 5.919-3.671 9.779l-0.521 1.741c-0.055 0.159-0.087 0.341-0.087 0.531 0 0.36 0.114 0.693 0.308 0.965l-0.003-0.005z"></path>
<path fill="#407093" style="fill: var(--color61, #407093)" d="M25.152 14.080c-0.378 0.083-0.73 0.211-1.069 0.384-0.514 0.27-0.859 0.8-0.859 1.41 0 0.183 0.031 0.358 0.088 0.521l-0.003-0.011c1.248 3.718 2.586 7.405 4.019 11.053 0.237 0.597 0.81 1.012 1.479 1.012 0.124 0 0.246-0.014 0.362-0.041l-0.011 0.002c0.403-0.095 0.758-0.227 1.089-0.396l-0.027 0.012c0.514-0.27 0.859-0.8 0.859-1.41 0-0.183-0.031-0.358-0.088-0.521l0.003 0.011c-1.77-5.366-3.133-9.028-4.583-12.646l0.563 1.593c-0.237-0.597-0.81-1.012-1.479-1.012-0.124 0-0.246 0.014-0.362 0.041l0.011-0.002z"></path>
<path fill="#365e7d" style="fill: var(--color60, #365e7d)" d="M29.626 28.282c-0.154 0.051-0.307 0.096-0.467 0.128-0.105 0.025-0.227 0.039-0.351 0.039-0.67 0-1.242-0.415-1.476-1.001l-0.004-0.011c-0.884-2.018-2.247-5.678-3.52-9.379l-0.499-1.667c-0.054-0.153-0.085-0.329-0.085-0.513 0-0.608 0.342-1.137 0.845-1.403l0.009-0.004c0.147-0.077 0.294-0.141 0.448-0.198-0.19 0.267-0.303 0.599-0.303 0.958 0 0.189 0.031 0.37 0.089 0.539l-0.003-0.012c1.849 5.6 3.271 9.417 4.782 13.187l-0.59-1.667c0.198 0.506 0.627 0.87 1.126 1.005z"></path>
<path fill="#a698ff" style="fill: var(--color54, #a698ff)" d="M10.918 2.829h-4.518c-0.258 0-0.467-0.209-0.467-0.467s0.209-0.467 0.467-0.467v0h4.518c0.258 0 0.467 0.209 0.467 0.467s-0.209 0.467-0.467 0.467v0z"></path>
<path fill="#8673ff" style="fill: var(--color55, #8673ff)" d="M7.808 2.829h-1.408c-0.258 0-0.467-0.209-0.467-0.467s0.209-0.467 0.467-0.467v0h1.408c-0.258 0-0.467 0.209-0.467 0.467s0.209 0.467 0.467 0.467v0z"></path>
</symbol>
<symbol id="expand" viewBox="0 0 32 32">
<path fill="#b3c1f2" style="fill: var(--color62, #b3c1f2)" d="M16 0c8.837 0 16 7.163 16 16s-7.163 16-16 16c-8.837 0-16-7.163-16-16s7.163-16 16-16z"></path>
<path fill="#808aad" style="fill: var(--color63, #808aad)" d="M23.033 14.5h-5.533v-5.533c0-0.828-0.672-1.5-1.5-1.5s-1.5 0.672-1.5 1.5v5.533h-5.533c-0.828 0-1.5 0.672-1.5 1.5s0.672 1.5 1.5 1.5h5.533v5.533c0 0.828 0.672 1.5 1.5 1.5s1.5-0.672 1.5-1.5v-5.533h5.533c0.828 0 1.5-0.672 1.5-1.5s-0.672-1.5-1.5-1.5z"></path>
</symbol>
<symbol id="anxiety" viewBox="0 0 32 32">
<path fill="#f9a7a7" style="fill: var(--color4, #f9a7a7)" d="M30.643 18.214c0.138-0.76 0.217-1.635 0.217-2.529 0-8.197-6.645-14.842-14.842-14.842-7.413 0-13.557 5.435-14.664 12.538l-0.011 0.083c-0.106 0.667-0.167 1.436-0.167 2.22 0 8.197 6.645 14.842 14.842 14.842 7.303 0 13.374-5.275 14.611-12.223l0.013-0.090z"></path>
<path fill="#e0ebfc" style="fill: var(--color5, #e0ebfc)" d="M16 31.187c-8.47-0.011-15.334-6.876-15.341-15.347v-0.001c0.011-8.468 6.873-15.33 15.34-15.341h0.001c8.468 0.011 15.33 6.873 15.341 15.34v0.001c-0.007 8.471-6.87 15.336-15.34 15.347h-0.001zM16 1.498c-7.917 0.011-14.331 6.426-14.342 14.341v0.001c0.007 7.919 6.423 14.338 14.341 14.349h0.001c7.919-0.011 14.335-6.429 14.342-14.348v-0.001c-0.015-7.914-6.428-14.325-14.341-14.336h-0.001z"></path>
<path fill="#e0ebfc" style="fill: var(--color5, #e0ebfc)" d="M16 28.141c-6.789-0.007-12.291-5.511-12.294-12.3v-0c0-6.778 5.517-12.288 12.294-12.288 6.784 0 12.294 5.51 12.294 12.288 0 6.784-5.517 12.301-12.294 12.301zM16 4.544c-6.236 0.007-11.289 5.060-11.296 11.295v0.001c0 6.24 5.069 11.296 11.296 11.296s11.296-5.062 11.296-11.296c0-6.227-5.069-11.29-11.296-11.29z"></path>
<path fill="#e0ebfc" style="fill: var(--color5, #e0ebfc)" d="M16 25.088c-5.105-0.007-9.241-4.143-9.248-9.247v-0.001c0-5.094 4.147-9.242 9.248-9.242s9.248 4.147 9.248 9.242c0 5.101-4.147 9.248-9.248 9.248zM16 7.597c-4.552 0.004-8.242 3.691-8.25 8.242v0.001c0 0.002 0 0.004 0 0.006 0 4.557 3.693 8.252 8.249 8.256h0c4.557-0.004 8.25-3.699 8.25-8.256v0c-0.004-4.555-3.695-8.246-8.249-8.25h-0z"></path>
<path fill="#6bdddd" style="fill: var(--color64, #6bdddd)" d="M20.25 24.128h-8.499c-1.379 0-2.496 1.117-2.496 2.496v0 4.378h13.491v-4.378c0-1.378-1.117-2.496-2.496-2.496v0z"></path>
<path fill="#4671c6" style="fill: var(--color3, #4671c6)" d="M16 22.035c-3.485 0-6.31-2.825-6.31-6.31v0-2.022c0-0.576 0.467-1.037 1.037-1.037h11.584v3.059c0 3.485-2.825 6.31-6.31 6.31v0z"></path>
<path fill="#3762cc" style="fill: var(--color2, #3762cc)" d="M16 22.291c-3.616 0-6.56-2.944-6.56-6.566v-2.016c0-0.717 0.576-1.293 1.286-1.293h11.584c0.141 0 0.256 0.109 0.256 0.25v3.059c0 3.622-2.944 6.566-6.566 6.566zM10.726 12.915c-0.435 0-0.787 0.352-0.787 0.787v2.022c0.153 3.229 2.808 5.789 6.061 5.789s5.908-2.56 6.060-5.775l0.001-0.014v-2.81h-11.328z"></path>
<path fill="#f9cfcf" style="fill: var(--color1, #f9cfcf)" d="M16 23.763c-0.896 0-1.754-0.218-2.496-0.608v1.171c0 1.378 1.117 2.496 2.496 2.496s2.496-1.117 2.496-2.496v0-1.171c-0.749 0.384-1.6 0.608-2.496 0.608z"></path>
<path fill="#f9cfcf" style="fill: var(--color1, #f9cfcf)" d="M21.376 16.416v-0.512c0-2.938-2.406-5.318-5.376-5.318-0.008-0-0.017-0-0.026-0-2.946 0-5.336 2.381-5.35 5.323v0.507c-0.013-0-0.029-0.001-0.045-0.001-0.897 0-1.625 0.724-1.632 1.619v0.001c0 0.96 0.838 1.722 1.818 1.619 0.586 2.375 2.698 4.109 5.214 4.109 0.007 0 0.015 0 0.022-0h-0.001c0.005 0 0.010 0 0.016 0 2.518 0 4.631-1.733 5.212-4.072l0.008-0.037c0.056 0.007 0.12 0.011 0.186 0.011 0.901 0 1.631-0.729 1.632-1.63v-0c0-0.896-0.742-1.638-1.677-1.619z"></path>
<path fill="#3762cc" style="fill: var(--color2, #3762cc)" d="M16 24.013c-2.56 0-4.762-1.677-5.427-4.096-0.461-0.006-0.909-0.179-1.254-0.493-0.378-0.344-0.614-0.838-0.614-1.387 0-0.963 0.726-1.757 1.661-1.863l0.009-0.001v-0.262c0-3.072 2.522-5.581 5.626-5.581s5.626 2.502 5.626 5.581v0.262c0.938 0.113 1.657 0.904 1.657 1.863 0 1.029-0.829 1.864-1.855 1.875h-0.001c-0.675 2.385-2.833 4.103-5.391 4.103-0.013 0-0.025-0-0.038-0h0.002zM10.765 19.405c0.115 0 0.218 0.077 0.243 0.192 0.551 2.263 2.561 3.917 4.956 3.917 0.012 0 0.025-0 0.037-0h-0.002c0.011 0 0.023 0 0.036 0 2.396 0 4.405-1.654 4.949-3.882l0.007-0.035c0.029-0.112 0.129-0.193 0.248-0.193 0.007 0 0.015 0 0.022 0.001l-0.001-0c0.397 0.038 0.794-0.090 1.088-0.352 0.279-0.252 0.454-0.615 0.454-1.019 0-0.756-0.613-1.37-1.37-1.37-0.018 0-0.036 0-0.053 0.001l0.003-0c-0.141 0-0.256-0.115-0.256-0.256v0-0.499c0-2.797-2.304-5.075-5.126-5.075-2.829 0-5.12 2.278-5.12 5.075v0.506c-0.004 0.139-0.117 0.25-0.256 0.25-0 0-0 0-0 0v0c-0.010-0-0.022-0-0.034-0-0.76 0-1.376 0.616-1.376 1.376 0 0.4 0.17 0.759 0.442 1.011l0.001 0.001c0.245 0.225 0.573 0.363 0.934 0.363 0.061 0 0.121-0.004 0.181-0.012l-0.007 0.001z"></path>
<path fill="#4671c6" style="fill: var(--color3, #4671c6)" d="M19.565 14.874h-6.144c-1.476-0.073-2.644-1.287-2.644-2.774s1.169-2.701 2.638-2.774l0.007-0h8.896v2.803c0 1.52-1.232 2.752-2.752 2.752v0z"></path>
<path fill="#3762cc" style="fill: var(--color2, #3762cc)" d="M19.565 15.123h-6.144c-1.611-0.076-2.888-1.401-2.888-3.024s1.277-2.948 2.881-3.024l0.007-0h8.896c0.128 0 0.243 0.115 0.243 0.256v2.797c-0.007 1.651-1.344 2.988-2.994 2.995h-0.001zM13.421 9.574c-1.396 0-2.528 1.132-2.528 2.528s1.132 2.528 2.528 2.528v0h6.144c1.376 0 2.496-1.126 2.496-2.502v-2.554h-8.64z"></path>
<path fill="#f9a7a7" style="fill: var(--color4, #f9a7a7)" d="M14.541 21.702c-0.003 0-0.007 0-0.010 0-0.251 0-0.454-0.203-0.454-0.454 0-0.128 0.053-0.244 0.138-0.326l0-0c0.256-0.256 0.602-0.461 0.998-0.582 0.237-0.070 0.493-0.109 0.787-0.109 0.288 0 0.55 0.038 0.787 0.109 0.384 0.122 0.736 0.32 0.992 0.582 0.098 0.085 0.16 0.21 0.16 0.349 0 0.255-0.206 0.461-0.461 0.461-0.141 0-0.267-0.063-0.352-0.163l-0.001-0.001c-0.166-0.16-0.37-0.282-0.598-0.349l-0.010-0.003c-0.147-0.045-0.32-0.064-0.518-0.064-0.205 0-0.371 0.019-0.525 0.064-0.243 0.077-0.454 0.192-0.608 0.352-0.083 0.083-0.198 0.134-0.325 0.134-0 0-0.001 0-0.001 0h0z"></path>
<path fill="#3762cc" style="fill: var(--color2, #3762cc)" d="M19.443 18.144c-1.248 0-2.17-1.005-2.214-1.050-0.020-0.035-0.031-0.078-0.031-0.123 0-0.141 0.115-0.256 0.256-0.256 0.055 0 0.106 0.017 0.147 0.047l-0.001-0.001c0.013 0.006 1.056 1.139 2.291 0.832 0.14 0.001 0.254 0.115 0.254 0.256 0 0.096-0.053 0.18-0.131 0.223l-0.001 0.001c-0.192 0.051-0.384 0.070-0.57 0.070z"></path>
<path fill="#3762cc" style="fill: var(--color2, #3762cc)" d="M17.99 17.408c-0.115 0.128-0.192 0.294-0.192 0.486v0.666c0 0.398 0.322 0.72 0.72 0.72s0.72-0.322 0.72-0.72v0-0.678c-0.472-0.058-0.896-0.227-1.257-0.48l0.009 0.006zM12.48 18.15c-0.179 0-0.365-0.026-0.563-0.070-0.087-0.042-0.146-0.13-0.146-0.231 0-0.141 0.115-0.256 0.256-0.256 0.006 0 0.012 0 0.018 0.001l-0.001-0c1.229 0.307 2.272-0.826 2.278-0.832 0.041-0.029 0.092-0.046 0.147-0.046 0.141 0 0.256 0.115 0.256 0.256 0 0.045-0.012 0.087-0.032 0.124l0.001-0.001c-0.038 0.051-0.96 1.056-2.208 1.056z"></path>
<path fill="#3762cc" style="fill: var(--color2, #3762cc)" d="M13.933 17.408c0.122 0.128 0.192 0.294 0.192 0.486v0.666c0 0.396-0.321 0.717-0.717 0.717s-0.717-0.321-0.717-0.717v0-0.678c0.47-0.059 0.891-0.228 1.251-0.48l-0.009 0.006zM22.746 31.251h-13.491c-0.139-0.004-0.25-0.117-0.25-0.256 0-0 0-0 0-0v0-4.371c0-1.52 1.232-2.752 2.752-2.752h1.498v-0.717c0-0.001 0-0.002 0-0.003 0-0.138 0.112-0.25 0.25-0.25 0.042 0 0.082 0.010 0.117 0.029l-0.001-0.001c0.69 0.365 1.509 0.579 2.378 0.579s1.687-0.214 2.406-0.593l-0.028 0.014c0.034-0.017 0.073-0.027 0.115-0.027 0.14 0 0.253 0.112 0.256 0.251v0.723h1.498c0 0 0 0 0 0 1.518 0 2.748 1.228 2.752 2.745v4.378c0 0.134-0.115 0.25-0.256 0.25zM9.504 30.752h12.992v-4.128c-0.004-1.239-1.007-2.243-2.246-2.246h-1.754c-0.141 0-0.256-0.115-0.256-0.256v0-0.57c-0.661 0.292-1.432 0.461-2.243 0.461s-1.582-0.17-2.28-0.476l0.037 0.014v0.576c-0.004 0.139-0.117 0.25-0.256 0.25-0 0-0 0-0 0h-1.747c-1.236 0.007-2.236 1.009-2.24 2.246v4.128z"></path>
<path fill="#e0ebfc" style="fill: var(--color5, #e0ebfc)" d="M19.437 3.904c-0.841-0.897-2.031-1.458-3.352-1.466h-0.001v0.006c-0.041-0.001-0.089-0.002-0.137-0.002-1.334 0-2.536 0.563-3.381 1.465l-0.002 0.003s-0.518 0.538-0.902 1.171l1.062 1.069c0.063 0.067 0.125 0.129 0.19 0.19l0.002 0.002c0.812 0.732 1.893 1.179 3.078 1.179s2.266-0.448 3.083-1.183l-0.004 0.004h0.013l0.192-0.192 1.062-1.069c-0.384-0.64-0.902-1.171-0.902-1.171z"></path>
<path fill="#4671c6" style="fill: var(--color3, #4671c6)" d="M16.064 7.424c1.345 0 2.435-1.090 2.435-2.435s-1.090-2.435-2.435-2.435v0c-1.343 0-2.432 1.089-2.432 2.432s1.089 2.432 2.432 2.432v0z"></path>
<path fill="#a4c9ff" style="fill: var(--color65, #a4c9ff)" d="M16.058 6.31c-0.002 0-0.005 0-0.008 0-0.728 0-1.318-0.59-1.318-1.318 0-0.154 0.026-0.301 0.075-0.438l-0.003 0.009c0.182-0.529 0.675-0.902 1.256-0.902 0.732 0 1.325 0.593 1.325 1.325s-0.593 1.325-1.325 1.325c-0 0-0.001 0-0.001 0h0z"></path>
<path fill="#3762cc" style="fill: var(--color2, #3762cc)" d="M16.026 7.776c-0.010 0-0.022 0-0.034 0-1.353 0-2.576-0.556-3.453-1.452l-0.001-0.001-1.056-1.062c-0.046-0.045-0.075-0.108-0.075-0.178 0-0.048 0.013-0.092 0.037-0.13l-0.001 0.001c0.289-0.46 0.599-0.86 0.944-1.226l-0.004 0.004c0.888-0.948 2.147-1.538 3.544-1.538 0.055 0 0.109 0.001 0.163 0.003l-0.008-0c1.392 0.005 2.646 0.594 3.53 1.534l0.002 0.002c0.026 0.026 0.544 0.57 0.941 1.216 0.064 0.102 0.045 0.23-0.038 0.314l-1.062 1.069-0.205 0.192c-0.85 0.772-1.982 1.247-3.224 1.254h-0.002zM13.088 6.163c0.773 0.691 1.8 1.114 2.925 1.114 0.007 0 0.014-0 0.021-0h0.044c1.094-0.018 2.086-0.438 2.839-1.117l-0.004 0.003 1.114-1.114c-0.352-0.531-0.768-0.96-0.768-0.966v-0.006c-0.796-0.848-1.923-1.378-3.174-1.382h-0.001c-0.043-0.002-0.093-0.002-0.143-0.002-1.264 0-2.403 0.537-3.201 1.395l-0.002 0.003c-0.051 0.051-0.435 0.461-0.762 0.96l1.114 1.114z"></path>
<path fill="#e0ebfc" style="fill: var(--color5, #e0ebfc)" d="M7.763 13.984c-0.572-0.608-1.381-0.987-2.278-0.992h-0.001c-0.031-0.001-0.068-0.002-0.104-0.002-0.904 0-1.72 0.381-2.294 0.992l-0.002 0.002s-0.352 0.365-0.614 0.8l0.73 0.723 0.134 0.128v0.006c0.553 0.497 1.287 0.8 2.093 0.8s1.54-0.304 2.096-0.803l-0.003 0.003 0.141-0.128 0.723-0.73c-0.262-0.435-0.614-0.8-0.614-0.8z"></path>
<path fill="#4671c6" style="fill: var(--color3, #4671c6)" d="M5.466 16.371c0.031 0.002 0.067 0.003 0.103 0.003 0.915 0 1.658-0.742 1.658-1.658s-0.742-1.658-1.658-1.658c-0.036 0-0.072 0.001-0.108 0.003l0.005-0c-0.87 0.056-1.555 0.775-1.555 1.654s0.685 1.599 1.55 1.654l0.005 0z"></path>
<path fill="#a4c9ff" style="fill: var(--color65, #a4c9ff)" d="M5.466 15.616c-0.494-0.002-0.893-0.402-0.893-0.896s0.401-0.896 0.896-0.896 0.896 0.401 0.896 0.896c0 0.103-0.017 0.202-0.049 0.294l0.002-0.006c-0.128 0.365-0.467 0.608-0.851 0.608z"></path>
<path fill="#3762cc" style="fill: var(--color2, #3762cc)" d="M5.44 16.698c-0.008 0-0.017 0-0.027 0-0.942 0-1.794-0.387-2.405-1.011l-0.001-0.001-0.717-0.73c-0.042-0.045-0.068-0.105-0.068-0.171 0-0.048 0.013-0.092 0.037-0.13l-0.001 0.001c0.275-0.448 0.634-0.832 0.646-0.845 0.62-0.66 1.499-1.070 2.473-1.070 0.035 0 0.070 0.001 0.105 0.002l-0.005-0c0.971 0.002 1.845 0.412 2.462 1.067l0.002 0.002c0.013 0.013 0.378 0.39 0.646 0.845 0.023 0.038 0.037 0.084 0.037 0.132 0 0.068-0.026 0.129-0.069 0.175l0-0-0.723 0.723-0.141 0.128c0 0.013-0.006 0.013-0.013 0.019-0.576 0.519-1.336 0.844-2.172 0.864l-0.004 0h-0.064zM3.501 15.462c0.513 0.457 1.193 0.736 1.938 0.736 0.014 0 0.028-0 0.042-0l-0.002 0c0.721-0.014 1.374-0.291 1.871-0.738l-0.003 0.002v-0.006l0.128-0.122 0.582-0.582c-0.154-0.225-0.312-0.421-0.483-0.605l0.003 0.003c-0.528-0.563-1.276-0.914-2.105-0.915h-0c-0.024-0.001-0.053-0.001-0.081-0.001-0.84 0-1.596 0.357-2.125 0.927l-0.002 0.002c-0.045 0.045-0.269 0.288-0.474 0.589l0.576 0.576c0.043 0.044 0.087 0.085 0.132 0.126l0.003 0.002z"></path>
<path fill="#e0ebfc" style="fill: var(--color5, #e0ebfc)" d="M28.915 13.984c-0.572-0.608-1.381-0.987-2.278-0.992h-0.001c-0.031-0.001-0.068-0.002-0.104-0.002-0.904 0-1.72 0.381-2.294 0.992l-0.002 0.002s-0.352 0.365-0.614 0.8l0.723 0.723 0.134 0.128v0.006c0.553 0.497 1.287 0.8 2.093 0.8s1.54-0.304 2.096-0.803l-0.003 0.003 0.141-0.128 0.723-0.73c-0.262-0.435-0.614-0.8-0.614-0.8z"></path>
<path fill="#4671c6" style="fill: var(--color3, #4671c6)" d="M26.618 16.371c0.031 0.002 0.067 0.003 0.103 0.003 0.915 0 1.658-0.742 1.658-1.658s-0.742-1.658-1.658-1.658c-0.036 0-0.072 0.001-0.108 0.003l0.005-0c-0.87 0.056-1.555 0.775-1.555 1.654s0.685 1.599 1.55 1.654l0.005 0z"></path>
<path fill="#a4c9ff" style="fill: var(--color65, #a4c9ff)" d="M26.618 15.616c-0.494-0.002-0.893-0.402-0.893-0.896s0.401-0.896 0.896-0.896 0.896 0.401 0.896 0.896c0 0.103-0.017 0.202-0.049 0.294l0.002-0.006c-0.128 0.365-0.467 0.608-0.858 0.608z"></path>
<path fill="#3762cc" style="fill: var(--color2, #3762cc)" d="M26.592 16.698c-0.015 0-0.033 0-0.051 0-0.935 0-1.779-0.387-2.38-1.011l-0.001-0.001-0.717-0.73c-0.042-0.045-0.068-0.105-0.068-0.171 0-0.048 0.013-0.092 0.037-0.13l-0.001 0.001c0.269-0.448 0.634-0.832 0.646-0.845 0.618-0.659 1.495-1.070 2.467-1.070 0.033 0 0.065 0 0.098 0.001l-0.005-0h0.019c0.968 0.004 1.84 0.413 2.456 1.067l0.002 0.002c0.013 0.013 0.378 0.39 0.646 0.845 0.064 0.096 0.045 0.224-0.032 0.301l-0.723 0.73c-0.044 0.042-0.090 0.084-0.137 0.124l-0.004 0.004v0.013c-0.577 0.523-1.339 0.85-2.178 0.87l-0.004 0h-0.064zM24.653 15.462c0.512 0.467 1.222 0.736 1.946 0.736h0.032c0.784-0.017 1.487-0.344 1.996-0.864l0.583-0.583c-0.154-0.222-0.312-0.416-0.483-0.598l0.003 0.003c-0.521-0.555-1.255-0.904-2.072-0.915l-0.002-0h-0.032c-0.025-0.001-0.055-0.001-0.084-0.001-0.837 0-1.592 0.354-2.122 0.921l-0.002 0.002c-0.013 0.013-0.256 0.262-0.474 0.589l0.576 0.576c0.044 0.047 0.088 0.091 0.133 0.133l0.002 0.001z"></path>
</symbol>
</defs>
</svg>
