<svg width="50" height="51" viewBox="0 0 50 51" fill="none" xmlns="http://www.w3.org/2000/svg">
<g clip-path="url(#clip0_102_106)">
<path d="M6.48169 40.1648H9.27198V47.4327H6.48169V40.1648Z" fill="#FFDBB5"/>
<path d="M9.27197 40.1648H12.0623V47.4327H9.27197V40.1648Z" fill="#FFD1A1"/>
<path d="M6.06363 49.3654H9.27721V46.9314H6.06363C5.39148 46.9314 4.84668 47.4763 4.84668 48.1483C4.84668 48.8205 5.39148 49.3654 6.06363 49.3654Z" fill="#CF8230"/>
<path d="M12.4909 49.3654H9.27734V46.9314H12.4909C13.1631 46.9314 13.7079 47.4763 13.7079 48.1483C13.7079 48.8205 13.1631 49.3654 12.4909 49.3654Z" fill="#CF8230"/>
<path d="M6.48169 33.947H12.0623V40.7569H6.48169V33.947Z" fill="#CF8230"/>
<path d="M9.27189 13.0117C7.33839 13.0117 5.771 14.5791 5.771 16.5126V21.0007C5.771 22.9236 7.33621 24.4825 9.26693 24.4825H9.27704C11.2078 24.4825 12.773 22.9236 12.773 21.0007V16.5126C12.7729 14.5792 11.2055 13.0117 9.27189 13.0117Z" fill="#FFDBB5"/>
<path d="M9.27202 13.0117C8.74041 13.0117 8.23674 13.1308 7.7854 13.3428C8.97539 13.9019 9.79967 15.1107 9.79967 16.5126V21.0007C9.79967 22.3961 8.97529 23.599 7.7854 24.1544C8.23535 24.3644 8.73723 24.4825 9.26697 24.4825H9.27698C11.2077 24.4825 12.7729 22.9236 12.7729 21.0007V16.5127C12.7729 14.5792 11.2055 13.0117 9.27202 13.0117Z" fill="#FFD1A1"/>
<path d="M13.9629 33.9471H4.58105V27.7066C4.58105 25.9225 6.02744 24.4761 7.81158 24.4761H10.7324C12.5165 24.4761 13.9629 25.9225 13.9629 27.7066V33.9471Z" fill="#2AE88F"/>
<path d="M5.79404 36.7946H5.78918C5.12199 36.7946 4.58105 36.2537 4.58105 35.5865V28.2971H7.00226V35.5865C7.00216 36.2538 6.46123 36.7946 5.79404 36.7946Z" fill="#FFDBB5"/>
<path d="M12.7547 36.7946H12.7499C12.0827 36.7946 11.5417 36.2537 11.5417 35.5865V28.2971H13.963V35.5865C13.9629 36.2538 13.4219 36.7946 12.7547 36.7946Z" fill="#FFDBB5"/>
<path d="M10.0154 40.7571V37.1676C10.0154 36.7571 9.68272 36.4243 9.27212 36.4243C8.86151 36.4243 8.52881 36.7571 8.52881 37.1676V40.7571H10.0154Z" fill="#B5630B"/>
<path d="M12.773 18.0584H11.5418L10.3698 16.8084L9.27203 18.0584H5.79175V16.4971C5.79175 14.5722 7.3522 13.0117 9.27708 13.0117H9.28759C11.2125 13.0117 12.7729 14.5722 12.7729 16.4971V18.0584H12.773Z" fill="#CF8230"/>
<path d="M9.28753 13.0117H9.27702C8.74719 13.0117 8.24531 13.1305 7.79565 13.342C8.9797 13.8989 9.79962 15.102 9.79962 16.4971V17.4576L10.3697 16.8084L11.5415 18.0585H12.7728V16.4971C12.7729 14.5722 11.2124 13.0117 9.28753 13.0117Z" fill="#C7751E"/>
<path d="M27.0538 7.75592L17.3525 7.61112V3.92955C17.3525 1.81935 19.0632 0.108643 21.1735 0.108643H23.2329C25.3431 0.108643 27.0538 1.81935 27.0538 3.92955V7.75592Z" fill="#5D76CF"/>
<path d="M23.2329 0.108643H21.1734C21.0187 0.108643 20.8665 0.11895 20.7166 0.136789C22.6113 0.362756 24.0806 1.97405 24.0806 3.92955V9.1913H27.0538V3.92955C27.0538 1.81935 25.3432 0.108643 23.2329 0.108643V0.108643Z" fill="#4D69CF"/>
<path d="M17.3525 7.61109V9.71595C17.3525 12.3803 19.5211 14.5401 22.1962 14.5401H22.2102C24.8853 14.5401 27.0539 12.3803 27.0539 9.71595V4.49731H25.0869C24.2367 4.49731 23.4239 4.8875 22.9231 5.57472C22.2675 6.47452 20.7641 7.61109 17.3525 7.61109Z" fill="#FFDBB5"/>
<path d="M25.0869 4.49731C24.7388 4.49731 24.3973 4.56372 24.0806 4.6882V9.71595C24.0806 11.8662 22.6678 13.687 20.7166 14.31C21.1831 14.459 21.6801 14.5401 22.1962 14.5401H22.2102C24.8853 14.5401 27.0539 12.3803 27.0539 9.71595V4.49731H25.0869Z" fill="#FFD1A1"/>
<path d="M22.2032 27.3882H18.9202V46.9315H22.2032H25.4864V27.3882H22.2032Z" fill="#A6D4FF"/>
<path d="M27.7227 27.388H16.6838V18.3519C16.6838 16.2526 18.3856 14.5508 20.4849 14.5508H23.9217C26.021 14.5508 27.7228 16.2526 27.7228 18.3519V27.388H27.7227Z" fill="#FFD52B"/>
<path d="M18.1111 31.3817H18.1053C17.3202 31.3817 16.6838 30.7452 16.6838 29.9602V19.6899H19.5327V29.9601C19.5327 30.7452 18.8962 31.3817 18.1111 31.3817Z" fill="#FFDBB5"/>
<path d="M26.3013 31.3817H26.2955C25.5104 31.3817 24.874 30.7452 24.874 29.9602V19.6899H27.7229V29.9601C27.7228 30.7452 27.0864 31.3817 26.3013 31.3817Z" fill="#FFDBB5"/>
<path d="M18.2274 49.3654H22.2033V46.9314H18.2274C17.5553 46.9314 17.0105 47.4763 17.0105 48.1483C17.0105 48.8205 17.5553 49.3654 18.2274 49.3654Z" fill="#5D76CF"/>
<path d="M26.1792 49.3654H22.2034V46.9314H26.1792C26.8513 46.9314 27.3961 47.4763 27.3961 48.1483C27.3961 48.8205 26.8513 49.3654 26.1792 49.3654Z" fill="#5D76CF"/>
<path d="M22.9466 46.9314V31.8871C22.9466 31.4766 22.6139 31.1438 22.2033 31.1438C21.7927 31.1438 21.46 31.4766 21.46 31.8871V46.9314H22.9466Z" fill="#79B7F2"/>
<path d="M36.2155 12.1998C39.5544 12.1998 42.2611 9.49312 42.2611 6.15423C42.2611 2.81535 39.5544 0.108643 36.2155 0.108643C32.8766 0.108643 30.1699 2.81535 30.1699 6.15423C30.1699 9.49312 32.8766 12.1998 36.2155 12.1998Z" fill="#5D76CF"/>
<path d="M36.2156 0.108643C35.7025 0.108643 35.2046 0.173063 34.729 0.29338C37.3489 0.955917 39.288 3.32846 39.288 6.15423C39.288 8.98 37.3489 11.3525 34.729 12.0151C35.2046 12.1354 35.7025 12.1998 36.2156 12.1998C39.5545 12.1998 42.2612 9.49308 42.2612 6.15423C42.2612 2.81538 39.5545 0.108643 36.2156 0.108643Z" fill="#4D69CF"/>
<path d="M34.9209 4.98633C33.2961 4.98633 31.979 6.30347 31.979 7.92825V10.3266C31.979 12.6535 33.8731 14.5399 36.2095 14.5399H36.2217C38.5582 14.5399 40.4522 12.6535 40.4522 10.3266V7.92825C40.4522 6.30347 39.1351 4.98633 37.5103 4.98633H34.9209Z" fill="#EDB374"/>
<path d="M37.5103 4.98633H34.921C34.8565 4.98633 34.7925 4.9891 34.729 4.99327C36.2642 5.09227 37.479 6.36809 37.479 7.92835V10.3266C37.479 12.1347 36.335 13.6763 34.729 14.2741C35.1899 14.4457 35.6886 14.54 36.2095 14.54H36.2217C38.5581 14.54 40.4522 12.6536 40.4522 10.3267V7.92825C40.4522 6.30347 39.1351 4.98633 37.5103 4.98633Z" fill="#E3A35D"/>
<path d="M36.2154 27.3879H32.9324V46.9312H36.2154H39.4986V27.3879H36.2154Z" fill="#A6D4FF"/>
<path d="M41.735 27.388H30.696V18.3519C30.696 16.2526 32.3978 14.5508 34.4971 14.5508H37.9339C40.0332 14.5508 41.735 16.2526 41.735 18.3519V27.388Z" fill="#FF428E"/>
<path d="M32.1233 31.3817H32.1176C31.3324 31.3817 30.696 30.7452 30.696 29.9602V19.6899H33.5449V29.9601C33.5448 30.7452 32.9083 31.3817 32.1233 31.3817Z" fill="#EDB374"/>
<path d="M32.2397 49.3651H38.1334V46.9312H32.2397C31.5675 46.9312 31.0227 47.476 31.0227 48.1481C31.0227 48.8202 31.5676 49.3651 32.2397 49.3651Z" fill="#FF428E"/>
<path d="M40.7277 32.4865C38.2097 32.4865 36.1685 30.4453 36.1685 27.9273V24.5715C36.1685 22.0572 38.2066 20.019 40.7209 20.019H40.7347C43.2489 20.019 45.2871 22.0572 45.2871 24.5715V27.9273C45.2871 30.4453 43.2458 32.4865 40.7277 32.4865Z" fill="#5D76CF"/>
<path d="M40.7348 20.019H40.721C40.2028 20.019 39.7053 20.1069 39.2412 20.2663C41.0287 20.8807 42.3139 22.5754 42.3139 24.5715V27.9273C42.3139 29.9246 41.029 31.6207 39.2412 32.2373C39.7073 32.398 40.2071 32.4865 40.7278 32.4865C43.2459 32.4865 45.2871 30.4453 45.2871 27.9273V24.5715C45.2872 22.0572 43.2489 20.019 40.7348 20.019Z" fill="#4D69CF"/>
<path d="M37.9375 41.0234H40.7278V47.4325H37.9375V41.0234Z" fill="#FFDBB5"/>
<path d="M40.7278 41.0234H43.5181V47.4325H40.7278V41.0234Z" fill="#FFD1A1"/>
<path d="M38.1333 24.585V26.7653C38.1333 28.1903 39.2932 29.3455 40.724 29.3455H40.7314C42.1621 29.3455 43.3221 28.1903 43.3221 26.7653V24.585H38.1333Z" fill="#FFDBB5"/>
<path d="M40.7276 24.585V26.7653C40.7276 27.7209 40.2056 28.5546 39.4304 29.0005C39.8112 29.2195 40.2526 29.3455 40.7239 29.3455H40.7313C42.1621 29.3455 43.322 28.1903 43.322 26.7653V24.585H40.7276Z" fill="#FFD1A1"/>
<path d="M42.1882 29.4312H39.2674C37.4832 29.4312 36.0369 30.8775 36.0369 32.6617V36.9201H37.9375V41.7478H43.518V36.9201H45.4186V32.6617C45.4187 30.8774 43.9723 29.4312 42.1882 29.4312Z" fill="#FFD52B"/>
<path d="M37.2498 39.7676H37.245C36.5777 39.7676 36.0369 39.2266 36.0369 38.5594V33.2522H38.4581V38.5594C38.458 39.2267 37.917 39.7676 37.2498 39.7676Z" fill="#FFDBB5"/>
<path d="M44.2103 39.7676H44.2054C43.5381 39.7676 42.9973 39.2266 42.9973 38.5594V33.2522H45.4185V38.5594C45.4185 39.2267 44.8776 39.7676 44.2103 39.7676Z" fill="#FFDBB5"/>
<path d="M37.5194 49.3651H40.733V46.9312H37.5194C36.8473 46.9312 36.3025 47.476 36.3025 48.1481C36.3025 48.8202 36.8473 49.3651 37.5194 49.3651Z" fill="#A6D4FF"/>
<path d="M43.9467 49.3651H40.7332V46.9312H43.9467C44.6189 46.9312 45.1637 47.476 45.1637 48.1481C45.1637 48.8202 44.6189 49.3651 43.9467 49.3651Z" fill="#A6D4FF"/>
<path d="M48.5193 48.6221H1.48061C1.07001 48.6221 0.737305 48.9549 0.737305 49.3654C0.737305 49.7759 1.07001 50.1087 1.48061 50.1087H48.5193C48.9299 50.1087 49.2626 49.7759 49.2626 49.3654C49.2626 48.9549 48.9298 48.6221 48.5193 48.6221Z" fill="#E9F0F5"/>
</g>
<defs>
<clipPath id="clip0_102_106">
<rect width="50" height="50" fill="white" transform="translate(0 0.108643)"/>
</clipPath>
</defs>
</svg>
