<svg width="50" height="51" viewBox="0 0 50 51" fill="none" xmlns="http://www.w3.org/2000/svg">
<path d="M37.2934 36.7155C37.1837 36.2 37.4353 35.6774 37.9056 35.4396C42.0673 33.3364 44.8198 29.6899 44.8198 25.5435C44.8198 20.3821 40.5551 15.9963 34.6161 14.3965C27.011 14.7484 20.9829 19.6538 20.9829 25.6545C20.9829 31.8837 27.4786 36.9335 35.4914 36.9335C35.511 36.9335 35.5308 36.9335 35.5504 36.9334C35.9456 36.9321 36.3128 37.1392 36.5104 37.4814C36.6833 37.7812 36.8559 38.0311 37.0684 38.2911L37.5888 37.8025C37.4572 37.3646 37.3468 36.9668 37.2934 36.7155Z" fill="#FFE07D"/>
<path d="M43.3886 35.1173C47.3681 33.1062 50 29.6194 50 25.6545C50 19.4253 43.5043 14.3755 35.4915 14.3755C34.4031 14.3755 33.3432 14.4693 32.3232 14.646C38.8122 15.7697 43.6636 20.2714 43.6636 25.6545C43.6636 29.6194 41.0316 33.1062 37.0521 35.1173C36.6023 35.3446 36.3618 35.8443 36.4667 36.3373C36.6112 37.0168 36.8253 37.6771 37.0685 38.2911C39.1628 40.884 43.0129 41.593 44.6104 41.7792C44.8966 41.8126 45.0931 41.4996 44.9374 41.2571C44.3438 40.3323 43.2469 38.4233 42.8031 36.3372C42.6982 35.8443 42.9388 35.3446 43.3886 35.1173Z" fill="#FFD064"/>
<path d="M15.8925 8.64062C6.86436 9.80762 0 15.904 0 23.2536C0 26.743 1.55166 29.9506 4.14756 32.4823C4.45273 32.78 4.56992 33.2226 4.45772 33.6339C3.65117 36.5925 1.90537 39.2664 0.853809 40.6944C1.20293 41.0436 1.72256 41.161 2.1875 40.9949C4.82607 40.0524 6.02051 39.0427 7.98027 36.9562C8.48232 36.4218 9.26943 36.2714 9.93584 36.5772C10.3808 36.7814 10.8375 36.9716 11.3048 37.1474C11.8759 37.3622 12.4898 37.4657 13.0968 37.4029C13.2277 37.3894 13.3619 37.3975 13.494 37.4288C14.2912 37.6179 15.0614 37.7588 15.8992 37.8657L19.5278 37.7485C27.1716 35.6352 32.6447 29.9626 32.6447 23.2951C32.6447 16.4197 26.8251 10.6021 18.8067 8.6542L15.8925 8.64062Z" fill="#95D6A4"/>
<path d="M7.4191 36.3942C5.2776 38.6742 4.04996 39.6686 0.853769 40.6943C0.715488 40.882 0.58873 41.0492 0.478281 41.1916C0.289023 41.4354 0.467832 41.7893 0.776426 41.7816C2.8857 41.729 8.80299 41.2568 12.3858 37.7343C12.6775 37.4474 13.0961 37.3342 13.4941 37.4286C13.4932 37.4269 13.4921 37.4253 13.4913 37.4236C12.0367 37.0795 10.656 36.6038 9.37184 36.0143C8.70641 35.7091 7.92037 35.8605 7.4191 36.3942Z" fill="#78C2A4"/>
<path d="M19.0605 8.43555C17.9809 8.43555 16.9228 8.50645 15.8923 8.64043C24.9111 9.81357 31.7847 15.909 31.7847 23.2534C31.7847 30.596 24.9145 36.6901 15.8992 37.8655C16.9277 37.9992 17.9831 38.0714 19.0605 38.0714C29.5875 38.0714 38.1211 31.4372 38.1211 23.2535C38.1211 15.0698 29.5875 8.43555 19.0605 8.43555Z" fill="#78C2A4"/>
<path d="M7.31968 25.0302C8.34718 25.0302 9.18013 24.1973 9.18013 23.1698C9.18013 22.1423 8.34718 21.3093 7.31968 21.3093C6.29218 21.3093 5.45923 22.1423 5.45923 23.1698C5.45923 24.1973 6.29218 25.0302 7.31968 25.0302Z" fill="#F0F7FF"/>
<path d="M14.7796 25.0302C15.8071 25.0302 16.6401 24.1973 16.6401 23.1698C16.6401 22.1423 15.8071 21.3093 14.7796 21.3093C13.7521 21.3093 12.9192 22.1423 12.9192 23.1698C12.9192 24.1973 13.7521 25.0302 14.7796 25.0302Z" fill="#F0F7FF"/>
<path d="M22.2398 25.0302C23.2673 25.0302 24.1003 24.1973 24.1003 23.1698C24.1003 22.1423 23.2673 21.3093 22.2398 21.3093C21.2123 21.3093 20.3794 22.1423 20.3794 23.1698C20.3794 24.1973 21.2123 25.0302 22.2398 25.0302Z" fill="#F0F7FF"/>
<path d="M29.6998 25.0302C30.7273 25.0302 31.5603 24.1973 31.5603 23.1698C31.5603 22.1423 30.7273 21.3093 29.6998 21.3093C28.6723 21.3093 27.8394 22.1423 27.8394 23.1698C27.8394 24.1973 28.6723 25.0302 29.6998 25.0302Z" fill="#F0F7FF"/>
</svg>
