<svg width="50" height="51" viewBox="0 0 50 51" fill="none" xmlns="http://www.w3.org/2000/svg">
<g clip-path="url(#clip0_102_96)">
<path d="M36.7965 23.6162V50.1086H33.7106L25.0231 40.9383L25.0005 40.9619V23.6162H36.7965Z" fill="#2FC0F0"/>
<path d="M25.0006 23.6162V40.9619L16.3621 50.1086H13.2478V23.6162H25.0006Z" fill="#9EE2F8"/>
<path d="M38.5226 19.3371L39.5872 25.3745L33.8265 27.4713L30.7613 32.7806L25.0222 30.6916V0.126221L29.6967 4.04906H35.8272L36.8918 10.0864L41.5878 14.0279L38.5226 19.3371Z" fill="#FF9F22"/>
<path d="M25.0221 0.126304V30.6917L25.0005 30.6838L19.2389 32.7806L16.1736 27.4714L10.413 25.3745L11.4776 19.3372L8.41235 14.0279L13.1084 10.0865L14.173 4.04914H20.3035L25.0005 0.108643L25.0221 0.126304Z" fill="#FFDA44"/>
<path d="M31.2803 14.7365L25.0222 19.4296V15.751L29.5142 12.3816L31.2803 14.7365Z" fill="#FFDD55"/>
<path d="M25.0221 15.7509V19.4294L22.3267 21.4506L18.4863 16.9695L20.7205 15.0542L22.7673 17.4415L25.0221 15.7509Z" fill="#FFF68E"/>
</g>
<defs>
<clipPath id="clip0_102_96">
<rect width="50" height="50" fill="white" transform="translate(0 0.108643)"/>
</clipPath>
</defs>
</svg>
