<svg width="50" height="51" viewBox="0 0 50 51" fill="none" xmlns="http://www.w3.org/2000/svg">
<path d="M7.03125 11.8274C9.62008 11.8274 11.7188 9.72873 11.7188 7.13989C11.7188 4.55106 9.62008 2.45239 7.03125 2.45239C4.44242 2.45239 2.34375 4.55106 2.34375 7.13989C2.34375 9.72873 4.44242 11.8274 7.03125 11.8274Z" fill="#50B6CF"/>
<path d="M28.9062 11.8274C31.4951 11.8274 33.5938 9.72873 33.5938 7.13989C33.5938 4.55106 31.4951 2.45239 28.9062 2.45239C26.3174 2.45239 24.2188 4.55106 24.2188 7.13989C24.2188 9.72873 26.3174 11.8274 28.9062 11.8274Z" fill="#50B6CF"/>
<path d="M10.9375 6.35864H22.6562V7.92114H10.9375V6.35864Z" fill="#223B5A"/>
<path d="M25 42.2961H36.7188V43.8586H25V42.2961Z" fill="#223B5A"/>
<path d="M38.6719 25.8899H24.2188V24.3274H38.6719C43.1953 24.3274 46.875 20.6474 46.875 16.1243C46.875 11.6012 43.1953 7.92114 38.6719 7.92114H32.8125V6.35864H38.6719C44.0567 6.35864 48.4375 10.7394 48.4375 16.1243C48.4375 21.5091 44.0567 25.8899 38.6719 25.8899Z" fill="#223B5A"/>
<path d="M14.8438 43.8586H11.3281C5.9433 43.8586 1.5625 39.4778 1.5625 34.093C1.5625 28.7082 5.9433 24.3274 11.3281 24.3274H14.0625V25.8899H11.3281C6.80466 25.8899 3.125 29.5699 3.125 34.093C3.125 38.6161 6.80466 42.2961 11.3281 42.2961H14.8438V43.8586Z" fill="#223B5A"/>
<path d="M21.0938 47.7649C23.6826 47.7649 25.7812 45.6662 25.7812 43.0774C25.7812 40.4886 23.6826 38.3899 21.0938 38.3899C18.5049 38.3899 16.4062 40.4886 16.4062 43.0774C16.4062 45.6662 18.5049 47.7649 21.0938 47.7649Z" fill="#50B6CF"/>
<path d="M42.9688 47.7649C45.5576 47.7649 47.6562 45.6662 47.6562 43.0774C47.6562 40.4886 45.5576 38.3899 42.9688 38.3899C40.3799 38.3899 38.2812 40.4886 38.2812 43.0774C38.2812 45.6662 40.3799 47.7649 42.9688 47.7649Z" fill="#E34E4B"/>
<path d="M17.9688 29.7961C20.5576 29.7961 22.6562 27.6975 22.6562 25.1086C22.6562 22.5198 20.5576 20.4211 17.9688 20.4211C15.3799 20.4211 13.2812 22.5198 13.2812 25.1086C13.2812 27.6975 15.3799 29.7961 17.9688 29.7961Z" fill="#50B6CF"/>
<path d="M9.46762 3.14087C9.90159 3.85149 10.1562 4.68367 10.1562 5.57731C10.1562 8.16616 8.05752 10.2648 5.46867 10.2648C4.57503 10.2648 3.74285 10.0102 3.03223 9.57626C3.85544 10.9244 5.33597 11.8273 7.03117 11.8273C9.62002 11.8273 11.7187 9.72866 11.7187 7.13981C11.7187 5.44461 10.8157 3.96408 9.46762 3.14087Z" fill="#3CADC9"/>
<path d="M31.3426 3.14087C31.7766 3.85149 32.0312 4.68367 32.0312 5.57731C32.0312 8.16616 29.9325 10.2648 27.3437 10.2648C26.45 10.2648 25.6179 10.0102 24.9072 9.57626C25.7304 10.9244 27.211 11.8273 28.9062 11.8273C31.495 11.8273 33.5937 9.72866 33.5937 7.13981C33.5937 5.44461 32.6907 3.96408 31.3426 3.14087Z" fill="#3CADC9"/>
<path d="M23.5301 39.0784C23.9641 39.789 24.2187 40.6212 24.2187 41.5148C24.2187 44.1037 22.12 46.2023 19.5312 46.2023C18.6375 46.2023 17.8054 45.9477 17.0947 45.5138C17.9179 46.8619 19.3985 47.7648 21.0937 47.7648C23.6825 47.7648 25.7812 45.6662 25.7812 43.0773C25.7812 41.3821 24.8782 39.9016 23.5301 39.0784Z" fill="#3CADC9"/>
<path d="M45.4051 39.0784C45.8391 39.789 46.0937 40.6212 46.0937 41.5148C46.0937 44.1037 43.995 46.2023 41.4062 46.2023C40.5125 46.2023 39.6804 45.9477 38.9697 45.5138C39.7929 46.8619 41.2735 47.7648 42.9687 47.7648C45.5575 47.7648 47.6562 45.6662 47.6562 43.0773C47.6562 41.3821 46.7532 39.9016 45.4051 39.0784Z" fill="#DE4542"/>
<path d="M20.4051 21.1096C20.8391 21.8202 21.0937 22.6524 21.0937 23.5461C21.0937 26.1349 18.995 28.2336 16.4062 28.2336C15.5125 28.2336 14.6804 27.979 13.9697 27.545C14.7929 28.8931 16.2735 29.7961 17.9687 29.7961C20.5575 29.7961 22.6562 27.6974 22.6562 25.1086C22.6562 23.4134 21.7532 21.9328 20.4051 21.1096Z" fill="#3CADC9"/>
<path d="M20.865 10.0361L19.7603 8.9314L21.5516 7.14001L19.7603 5.34863L20.865 4.2439L23.7611 7.14001L20.865 10.0361Z" fill="#223B5A"/>
<path d="M26.0101 28.0049L23.114 25.1088L26.0101 22.2126L27.1149 23.3174L25.3235 25.1088L27.1149 26.9001L26.0101 28.0049Z" fill="#223B5A"/>
<path d="M34.9275 45.9734L33.8228 44.8687L35.6141 43.0773L33.8228 41.2859L34.9275 40.1812L37.8236 43.0773L34.9275 45.9734Z" fill="#223B5A"/>
<path d="M13.0525 45.9734L11.9478 44.8687L13.7391 43.0773L11.9478 41.2859L13.0525 40.1812L15.9486 43.0773L13.0525 45.9734Z" fill="#223B5A"/>
</svg>
