<svg xmlns="http://www.w3.org/2000/svg" version="1.1" xmlns:xlink="http://www.w3.org/1999/xlink" width="512" height="512" x="0" y="0" viewBox="0 0 512 512" style="enable-background:new 0 0 512 512" xml:space="preserve"><g><g data-name="45"><rect width="512" height="512" fill="#1273eb" rx="150" opacity="1" data-original="#1273eb"></rect><path fill="#ffffff" d="M202.34 380.41v-35.03l25.63-5.47v-27.17c-20.05-1.59-37.29-6.72-51.7-15.38s-25.49-20.59-33.24-35.8-11.62-33.3-11.62-54.26v-35.03l-21.54-5.47v-35.21h81.35v75.71c0 11.39 1.34 21.13 4.02 29.22s6.66 14.44 11.96 19.05 11.88 7.55 19.74 8.8l1.03-.51v-91.6l-21.53-5.47v-35.21h103.05v35.21l-21.53 5.47v91.77l1.02.17c7.41-1.03 13.42-3.76 18.03-8.2s8-10.74 10.17-18.88c2.16-8.14 3.25-18.09 3.25-29.82v-75.71h81.69v35.21l-21.71 5.47v35.03c0 20.51-3.7 38.22-11.11 53.15s-18 26.8-31.79 35.63-30.31 14.27-49.56 16.32v27.51l25.63 5.47v35.03H202.33z" opacity="1" data-original="#ffffff"></path></g></g></svg>