<?xml version="1.0" encoding="UTF-8"?> <svg xmlns="http://www.w3.org/2000/svg" id="Layer_1" height="512" viewBox="0 0 256 256" width="512"> <g> <g> <g> <ellipse cx="128" cy="126.744" fill="#f9a7a7" rx="118.744" ry="118.743" transform="matrix(.16 -.987 .987 .16 -17.61 232.789)"></ellipse> </g> </g> <g> <g> <g> <path d="m128 249.487c-67.681 0-122.743-55.063-122.743-122.743 0-67.681 55.062-122.744 122.743-122.744 67.682 0 122.744 55.063 122.744 122.744s-55.062 122.743-122.744 122.743zm0-237.487c-63.27 0-114.743 51.474-114.743 114.744s51.474 114.743 114.743 114.743c63.271 0 114.744-51.474 114.744-114.743 0-63.27-51.473-114.744-114.744-114.744z" fill="#e0ebfc"></path> </g> </g> </g> <g> <g> <g> <path d="m128 225.104c-54.236 0-98.36-44.124-98.36-98.36s44.124-98.361 98.36-98.361 98.361 44.125 98.361 98.361-44.125 98.36-98.361 98.36zm0-188.721c-49.825 0-90.36 40.536-90.36 90.361s40.536 90.36 90.36 90.36c49.825 0 90.361-40.535 90.361-90.36s-40.536-90.361-90.361-90.361z" fill="#e0ebfc"></path> </g> </g> </g> <g> <g> <g> <path d="m128 200.722c-40.792 0-73.978-33.187-73.978-73.978 0-40.792 33.187-73.979 73.978-73.979s73.978 33.187 73.978 73.979c0 40.791-33.187 73.978-73.978 73.978zm0-139.956c-36.38 0-65.978 29.598-65.978 65.979 0 36.38 29.598 65.978 65.978 65.978s65.978-29.598 65.978-65.978c0-36.382-29.598-65.979-65.978-65.979z" fill="#e0ebfc"></path> </g> </g> </g> <g> <g> <g> <path d="m161.972 193.011h-67.944c-11.037 0-19.984 8.947-19.984 19.984v16.174 18.831h107.911v-18.831-16.174c.001-11.037-8.946-19.984-19.983-19.984z" fill="#6bdddd"></path> </g> </g> <g> <g> <path d="m128 176.305c-27.887 0-50.493-22.607-50.493-50.493v-16.168c0-4.597 3.727-8.324 8.324-8.324h92.663v24.492c-.001 27.887-22.607 50.493-50.494 50.493z" fill="#4671c6"></path> </g> </g> <g> <g> <path d="m128 178.306c-28.945 0-52.494-23.548-52.494-52.493v-16.168c0-5.692 4.631-10.324 10.324-10.324h92.663c1.104 0 2 .896 2 2v24.492c0 28.945-23.548 52.493-52.493 52.493zm-42.169-74.986c-3.487 0-6.324 2.837-6.324 6.324v16.168c0 26.739 21.754 48.493 48.494 48.493s48.493-21.754 48.493-48.493v-22.492z" fill="#3762cc"></path> </g> </g> <g> <g> <path d="m128 190.123c-7.216 0-14.012-1.769-19.982-4.882v9.369.002c0 11.025 8.938 19.963 19.963 19.963 11.025 0 19.963-8.937 19.963-19.963v-.002-9.349c-5.961 3.101-12.743 4.862-19.944 4.862z" fill="#f9cfcf"></path> </g> </g> <g> <g> <path d="m171.005 131.306v-4.027c0-23.537-19.254-42.618-43.005-42.618-23.751 0-43.005 19.081-43.005 42.618v4.027c-7.468-.151-13.392 5.797-13.392 12.989 0 7.679 6.703 13.752 14.528 12.925 4.438 18.856 21.494 32.903 41.87 32.903 20.377 0 37.432-14.049 41.87-32.903 7.814.826 14.528-5.236 14.528-12.925-.001-7.195-5.931-13.14-13.394-12.989z" fill="#f9cfcf"></path> </g> </g> <g> <g> <path d="m128 192.123c-20.462 0-38.077-13.416-43.405-32.83-3.694-.033-7.273-1.404-10.028-3.884-3.155-2.839-4.964-6.89-4.964-11.114 0-4.044 1.597-7.836 4.498-10.678 2.435-2.386 5.538-3.847 8.895-4.219v-2.119c0-24.603 20.189-44.618 45.005-44.618s45.006 20.016 45.006 44.618v2.119c3.356.372 6.459 1.833 8.894 4.219 2.9 2.843 4.498 6.635 4.498 10.678 0 4.225-1.809 8.274-4.963 11.113-2.756 2.479-6.337 3.851-10.03 3.885-5.329 19.414-22.943 32.83-43.406 32.83zm-41.868-36.903c.918 0 1.731.631 1.945 1.542 4.347 18.465 20.764 31.361 39.923 31.361 19.16 0 35.576-12.896 39.922-31.361.231-.981 1.15-1.629 2.157-1.531 3.181.339 6.332-.685 8.68-2.796 2.313-2.081 3.639-5.048 3.639-8.14 0-2.96-1.171-5.737-3.297-7.82-2.147-2.104-5.026-3.24-8.054-3.168-.54-.007-1.057-.195-1.44-.571s-.601-.892-.601-1.429v-4.027c0-22.396-18.396-40.618-41.006-40.618s-41.005 18.222-41.005 40.618v4.027c0 .537-.216 1.053-.6 1.429-.384.375-.902.584-1.44.571-3.062-.071-5.907 1.063-8.054 3.167-2.126 2.084-3.297 4.861-3.297 7.821 0 3.092 1.327 6.06 3.64 8.141 2.38 2.143 5.463 3.137 8.677 2.795.07-.007.141-.011.211-.011z" fill="#3762cc"></path> </g> </g> <g> <g> <path d="m156.493 119.008h-49.102c-12.259 0-22.197-9.938-22.197-22.197 0-12.259 9.938-22.197 22.197-22.197h71.103v22.393c-.001 12.151-9.851 22.001-22.001 22.001z" fill="#4671c6"></path> </g> </g> <g> <g> <path d="m156.493 121.009h-49.103c-13.342 0-24.197-10.854-24.197-24.197 0-13.342 10.854-24.196 24.197-24.196h71.103c1.104 0 2 .896 2 2v22.393c0 13.233-10.766 24-24 24zm-49.102-44.394c-11.137 0-20.197 9.06-20.197 20.196s9.06 20.197 20.197 20.197h49.103c11.028 0 20-8.973 20-20.001v-20.392z" fill="#3762cc"></path> </g> </g> <g> <g> <g> <path d="m116.319 173.637c-.935 0-1.87-.355-2.586-1.065-1.439-1.428-1.449-3.753-.021-5.192 2.083-2.1 4.84-3.714 7.974-4.667 1.892-.575 3.95-.854 6.295-.854s4.404.279 6.294.853c3.135.954 5.893 2.568 7.975 4.668 1.428 1.44 1.418 3.764-.022 5.192-1.439 1.428-3.764 1.418-5.192-.022-1.229-1.24-2.923-2.212-4.897-2.813-1.186-.361-2.547-.536-4.157-.536s-2.971.175-4.159.536c-1.973.6-3.667 1.573-4.896 2.813-.719.725-1.664 1.087-2.608 1.087z" fill="#f9a7a7"></path> </g> </g> </g> <g> <g> <g> <path d="m155.554 145.172c-10.007 0-17.36-8.037-17.711-8.428-.738-.821-.671-2.086.15-2.824.822-.739 2.087-.671 2.824.15.081.089 8.406 9.134 18.292 6.661 1.068-.27 2.157.384 2.426 1.455.268 1.071-.384 2.157-1.455 2.426-1.556.389-3.069.56-4.526.56z" fill="#3762cc"></path> </g> </g> <g> <g> <path d="m143.938 139.26c-.939 1.021-1.517 2.38-1.517 3.877v5.353c0 3.168 2.568 5.735 5.735 5.735s5.735-2.568 5.735-5.735v-5.353c0-.021-.003-.042-.003-.064-3.953-.398-7.403-2.106-9.95-3.813z" fill="#3762cc"></path> </g> </g> <g> <g> <path d="m99.868 145.172c-1.457 0-2.969-.171-4.526-.56-1.071-.269-1.723-1.354-1.455-2.426.268-1.07 1.351-1.724 2.426-1.455 9.889 2.474 18.211-6.571 18.294-6.664.741-.818 2.004-.882 2.824-.144.819.738.887 2 .149 2.82-.351.392-7.706 8.429-17.712 8.429z" fill="#3762cc"></path> </g> </g> <g> <g> <path d="m111.484 139.26c.939 1.021 1.517 2.38 1.517 3.877v5.353c0 3.168-2.568 5.735-5.735 5.735s-5.735-2.568-5.735-5.735v-5.353c0-.021.003-.042.003-.064 3.953-.398 7.403-2.106 9.95-3.813z" fill="#3762cc"></path> </g> </g> </g> <g> <g> <path d="m181.956 250h-107.912c-1.104 0-2-.896-2-2v-35.006c0-12.122 9.862-21.983 21.983-21.983h11.99v-5.771c0-.699.365-1.348.963-1.71.597-.364 1.342-.387 1.961-.063 5.839 3.046 12.429 4.656 19.057 4.656 6.708 0 13.107-1.56 19.021-4.637.621-.322 1.362-.297 1.961.064.597.363.962 1.011.962 1.71v5.75h12.028c12.122 0 21.984 9.861 21.984 21.983v35.007c.002 1.104-.893 2-1.998 2zm-105.912-4h103.912v-33.006c0-9.916-8.067-17.983-17.984-17.983h-14.028c-1.104 0-2-.896-2-2v-4.588c-5.634 2.428-11.774 3.7-17.943 3.7-6.183 0-12.337-1.278-17.982-3.718v4.605c0 1.104-.896 2-2 2h-13.99c-9.916 0-17.983 8.067-17.983 17.983v33.007z" fill="#3762cc"></path> </g> </g> </g> <g> <g> <g> <path d="m155.493 31.257v.002c-1.884-2.057-4.058-3.934-6.52-5.568-6.188-4.106-13.272-6.095-20.297-6.135v.016c-7.463-.223-15.063 1.749-21.648 6.119-2.462 1.634-4.636 3.51-6.52 5.568v-.002s-4.158 4.315-7.243 9.403l8.497 8.542c.513.533 1.043 1.046 1.586 1.542.004.005.009.01.014.015v-.003c6.902 6.302 16.066 9.573 25.315 9.462v-.009c8.785-.208 17.398-3.459 23.963-9.453v.003c.004-.005.009-.01.014-.015.543-.496 1.072-1.009 1.586-1.542l8.497-8.542c-3.086-5.088-7.244-9.403-7.244-9.403z" fill="#e0ebfc"></path> </g> </g> <g> <g> <circle cx="128.466" cy="39.888" fill="#4671c6" r="19.484"></circle> </g> </g> <g> <g> <path d="m128.452 50.479c-1.148 0-2.289-.19-3.39-.563-5.53-1.878-8.501-7.904-6.623-13.433 1.459-4.299 5.495-7.187 10.042-7.187 1.148 0 2.289.19 3.39.563 2.672.907 4.833 2.806 6.087 5.348 1.253 2.542 1.444 5.413.537 8.085-1.46 4.299-5.496 7.187-10.043 7.187z" fill="#a4c9ff"></path> </g> </g> <g> <g> <path d="m128.208 62.221c-9.82 0-19.083-3.519-26.142-9.938-.039-.033-.076-.067-.113-.104-.569-.521-1.118-1.056-1.632-1.589l-8.475-8.521c-.648-.651-.769-1.661-.292-2.447 3.164-5.218 7.336-9.57 7.513-9.753.007-.008.015-.016.023-.023 2.019-2.194 4.316-4.153 6.832-5.822 6.658-4.418 14.445-6.659 22.553-6.457.07-.008.134-.012.212-.011 7.685.045 15.082 2.281 21.391 6.469 2.524 1.675 4.83 3.642 6.854 5.845h.001c.176.183 4.349 4.535 7.513 9.753.477.786.356 1.796-.292 2.447l-8.498 8.543c-.495.516-1.06 1.064-1.654 1.607-6.813 6.197-15.688 9.717-25.085 9.983-.071.009-.143.014-.216.015-.165.002-.329.003-.493.003zm-23.48-12.925c6.236 5.685 14.78 8.925 23.504 8.925.08 0 .158-.001.237-.001.053-.006.105-.009.159-.01 8.526-.202 16.573-3.373 22.659-8.929.006-.005.011-.01.017-.015.531-.485 1.033-.974 1.492-1.45l7.396-7.437c-2.799-4.246-6.104-7.698-6.141-7.735-.012-.012-.023-.024-.034-.036-1.814-1.98-3.884-3.747-6.15-5.252-5.592-3.71-12.143-5.713-18.958-5.799-.097.013-.195.019-.293.014-7.36-.219-14.447 1.78-20.482 5.785-2.269 1.506-4.338 3.272-6.151 5.253-.027.03-.056.059-.085.087-.425.449-3.478 3.721-6.09 7.684l7.372 7.412c.49.509.993.997 1.516 1.474.011.009.021.02.032.03z" fill="#3762cc"></path> </g> </g> </g> <g> <g> <g> <path d="m62.087 111.875v.001c-1.281-1.399-2.759-2.675-4.434-3.786-4.208-2.792-9.025-4.144-13.802-4.172v.011c-5.075-.152-10.243 1.189-14.721 4.161-1.674 1.111-3.153 2.387-4.434 3.786v-.001s-2.827 2.934-4.925 6.394l5.778 5.809c.349.363.709.711 1.078 1.048.003.003.006.007.009.01v-.002c4.693 4.285 10.925 6.51 17.214 6.434v-.006c5.974-.142 11.831-2.352 16.295-6.428v.002c.003-.003.006-.007.009-.01.369-.337.729-.686 1.078-1.048l5.778-5.809c-2.095-3.46-4.923-6.394-4.923-6.394z" fill="#e0ebfc"></path> </g> </g> <g> <g> <circle cx="43.709" cy="117.744" fill="#4671c6" r="13.249"></circle> </g> </g> <g> <g> <path d="m43.7 124.947c-.781 0-1.557-.129-2.306-.383-3.76-1.277-5.781-5.374-4.504-9.135.992-2.923 3.737-4.887 6.829-4.887.781 0 1.557.129 2.306.383 1.817.617 3.287 1.908 4.139 3.637.852 1.728.982 3.681.365 5.498-.993 2.923-3.737 4.887-6.829 4.887z" fill="#a4c9ff"></path> </g> </g> <g> <g> <path d="m43.534 133.571c-6.828 0-13.271-2.445-18.188-6.908-.041-.034-.081-.071-.119-.109-.382-.351-.754-.712-1.116-1.088l-5.756-5.786c-.648-.651-.769-1.661-.292-2.447 2.188-3.608 5.073-6.619 5.195-6.745.008-.008.016-.017.024-.024 1.403-1.522 2.999-2.881 4.745-4.039 4.627-3.071 10.048-4.625 15.672-4.499.055-.005.115-.01.165-.006 5.351.03 10.502 1.589 14.896 4.506 1.755 1.164 3.358 2.53 4.767 4.063h.001c.122.126 3.007 3.137 5.195 6.745.477.786.355 1.796-.292 2.447l-5.778 5.809c-.343.356-.717.72-1.101 1.072-.031.03-.063.06-.095.088-4.691 4.265-10.856 6.715-17.384 6.909-.177.017-.36.013-.539.012zm-15.523-9.89c4.152 3.778 9.861 5.911 15.658 5.891.045-.005.09-.007.136-.008 5.633-.134 10.947-2.223 14.969-5.883.011-.011.022-.021.034-.032.337-.308.667-.627.986-.958l4.665-4.69c-1.798-2.633-3.79-4.714-3.813-4.738-.011-.011-.022-.023-.033-.035-1.2-1.309-2.567-2.476-4.065-3.469-3.691-2.45-8.013-3.774-12.512-3.837-.08.008-.162.013-.244.008-4.875-.133-9.563 1.178-13.555 3.828-1.5.995-2.867 2.162-4.064 3.471-.027.029-.055.058-.083.085-.316.336-2.121 2.281-3.764 4.688l4.643 4.668c.341.354.671.673 1.008.98.012.009.023.02.034.031z" fill="#3762cc"></path> </g> </g> </g> <g> <g> <g> <path d="m231.303 111.875v.001c-1.281-1.399-2.759-2.675-4.434-3.786-4.208-2.792-9.025-4.144-13.802-4.172v.011c-5.075-.152-10.243 1.189-14.721 4.161-1.674 1.111-3.153 2.387-4.434 3.786v-.001s-2.827 2.934-4.925 6.394l5.778 5.809c.349.363.709.711 1.078 1.048.003.003.006.007.009.01v-.002c4.693 4.285 10.925 6.51 17.214 6.434v-.006c5.974-.142 11.831-2.352 16.295-6.428v.002c.003-.003.006-.007.009-.01.369-.337.729-.686 1.078-1.048l5.778-5.809c-2.096-3.46-4.923-6.394-4.923-6.394z" fill="#e0ebfc"></path> </g> </g> <g> <g> <circle cx="212.925" cy="117.744" fill="#4671c6" r="13.249"></circle> </g> </g> <g> <g> <path d="m212.915 124.947c-.781 0-1.557-.129-2.306-.383-3.76-1.277-5.781-5.374-4.504-9.135.992-2.923 3.737-4.887 6.829-4.887.781 0 1.557.129 2.306.383 1.817.617 3.287 1.908 4.139 3.637.852 1.728.982 3.681.365 5.498-.993 2.923-3.737 4.887-6.829 4.887z" fill="#a4c9ff"></path> </g> </g> <g> <g> <path d="m212.749 133.571c-6.853 0-13.317-2.463-18.239-6.955-.006-.005-.011-.01-.017-.015-.398-.365-.788-.742-1.167-1.135l-5.757-5.787c-.648-.651-.769-1.661-.292-2.447 2.188-3.608 5.074-6.619 5.195-6.745 1.384-1.511 3-2.891 4.769-4.063 4.628-3.071 10.028-4.625 15.673-4.499.054-.005.107-.014.165-.006 5.351.03 10.501 1.589 14.896 4.506 1.754 1.164 3.358 2.53 4.767 4.063l.001-.001c.122.126 3.007 3.137 5.194 6.745.477.786.356 1.796-.292 2.447l-5.778 5.809c-.339.353-.709.713-1.09 1.063-.022.021-.044.043-.067.063-4.696 4.286-10.878 6.748-17.423 6.943-.175.02-.356.015-.538.014zm-15.505-9.873c4.121 3.741 9.761 5.873 15.521 5.873h.12c.045-.005.09-.007.135-.008 5.633-.134 10.947-2.223 14.969-5.883.012-.011.023-.021.034-.032.338-.308.667-.626.985-.957l4.666-4.691c-1.798-2.633-3.789-4.714-3.813-4.738-.011-.011-.022-.023-.033-.035-1.199-1.309-2.566-2.476-4.064-3.469-3.69-2.45-8.013-3.774-12.512-3.837-.08.008-.163.013-.244.008-4.875-.127-9.562 1.18-13.555 3.828-1.501.995-2.868 2.162-4.064 3.47-.017.019-.032.035-.05.053-.099.103-2.039 2.145-3.798 4.721l4.643 4.668c.342.354.673.674 1.011.982.016.015.033.031.049.047z" fill="#3762cc"></path> </g> </g> </g> </g> </svg> 