<svg width="45" height="45" viewBox="0 0 45 45" fill="none" xmlns="http://www.w3.org/2000/svg">
<rect width="45" height="45" rx="22.5" fill="#B3C1F2"/>
<g clip-path="url(#clip0_706_139)">
<path d="M32.3906 20.3906H24.6094V12.6094C24.6094 11.4444 23.665 10.5 22.5 10.5C21.335 10.5 20.3906 11.4444 20.3906 12.6094V20.3906H12.6094C11.4444 20.3906 10.5 21.335 10.5 22.5C10.5 23.665 11.4444 24.6094 12.6094 24.6094H20.3906V32.3906C20.3906 33.5556 21.335 34.5 22.5 34.5C23.665 34.5 24.6094 33.5556 24.6094 32.3906V24.6094H32.3906C33.5556 24.6094 34.5 23.665 34.5 22.5C34.5 21.335 33.5556 20.3906 32.3906 20.3906Z" fill="#808AAD"/>
</g>
<defs>
<clipPath id="clip0_706_139">
<rect width="24" height="24" fill="white" transform="translate(10.5 10.5)"/>
</clipPath>
</defs>
</svg>
