<?xml version="1.0" encoding="UTF-8"?> <svg xmlns="http://www.w3.org/2000/svg" height="512" viewBox="0 0 512 512" width="512"> <g id="flat"> <path d="m208 176 40 24-8 32h-48z" fill="#e8c8b3"></path> <path d="m386.284 57.316-40.284 40.284-40.284-40.284a19.516 19.516 0 0 1 -5.716-13.8 19.516 19.516 0 0 1 19.516-19.516 19.516 19.516 0 0 1 13.8 5.716l12.684 12.684 12.684-12.684a19.516 19.516 0 0 1 13.8-5.716 19.516 19.516 0 0 1 19.516 19.516 19.516 19.516 0 0 1 -5.716 13.8z" fill="#f16465"></path> <path d="m208 128h64a0 0 0 0 1 0 0v48a32 32 0 0 1 -32 32 32 32 0 0 1 -32-32v-48a0 0 0 0 1 0 0z" fill="#e8c8b3"></path> <path d="m296 112a16 16 0 0 1 -16 16h-40l-8 24h-16l-8 32a16 16 0 0 1 -16-16v-42a30 30 0 0 1 30-30h58a16 16 0 0 1 16 16z" fill="#683b0d"></path> <path d="m280 488h-136v-208a48 48 0 0 1 48-48h48l6.986 4.191a68 68 0 0 1 33.014 58.309z" fill="#0bafea"></path> <path d="m256 488h96v-200a32 32 0 0 0 -32-32h-40l-33.061 52.9a45.643 45.643 0 0 0 -6.939 24.192 45.646 45.646 0 0 0 13.37 32.278l2.63 2.63z" fill="#f16465"></path> <path d="m328 280a24 24 0 0 1 24 24v40a0 0 0 0 1 0 0h-48a0 0 0 0 1 0 0v-40a24 24 0 0 1 24-24z" fill="#c44c31"></path> <path d="m304 344v48l-48 40-24-8-24 32 32 32 24-24 88-56v-64z" fill="#f5d3bd"></path> <path d="m374 456h-22v-48h22a10 10 0 0 1 10 10v28a10 10 0 0 1 -10 10z" fill="#e8c8b3"></path> <path d="m288 216-8 40h32l8-32z" fill="#f5d3bd"></path> <path d="m310.537 151.723a32 32 0 0 1 32 32v48a0 0 0 0 1 0 0h-64a0 0 0 0 1 0 0v-48a32 32 0 0 1 32-32z" fill="#f5d3bd" transform="matrix(-.931 -.366 .366 -.931 529.423 483.75)"></path> <path d="m278.9 119.119a16 16 0 0 0 9.038 20.743l29.783 11.706 9.038 20.743-23.41 59.565a24 24 0 0 0 13.558 31.116 24 24 0 0 0 31.115-13.558l26.337-67.01a40 40 0 0 0 -22.6-51.86l-52.119-20.484a16 16 0 0 0 -20.74 9.039z" fill="#ea9d2d"></path> <path d="m168 256a24 24 0 0 1 24 24v40a0 0 0 0 1 0 0h-48a0 0 0 0 1 0 0v-40a24 24 0 0 1 24-24z" fill="#0a9acd"></path> <path d="m192 320v56l64 56 32 8 8 24-16 24h-40l-24-32-72-64v-72z" fill="#e8c8b3"></path> </g> </svg> 