<svg width="50" height="50" viewBox="0 0 50 50" fill="none" xmlns="http://www.w3.org/2000/svg">
<path d="M0.976562 4.88281H38.4766V38.4766H0.976562V4.88281Z" fill="#91DEF5"/>
<path d="M4.88281 8.88672H34.5703V34.4727H4.88281V8.88672Z" fill="#DFF6FC"/>
<path d="M19.7266 23.7305C17.2456 23.7305 15.2344 21.7192 15.2344 19.2383V17.2852C15.2344 14.8042 17.2456 12.793 19.7266 12.793C22.2075 12.793 24.2188 14.8042 24.2188 17.2852V19.2383C24.2188 21.7192 22.2075 23.7305 19.7266 23.7305Z" fill="#FFBF9E"/>
<path d="M24.0979 23.7305H15.3552C11.7288 23.7305 8.78906 26.6702 8.78906 30.2967V34.4727H30.6641V30.2967C30.6641 26.6702 27.7243 23.7305 24.0979 23.7305Z" fill="#98A2FF"/>
<path d="M24.1591 23.7305L19.7266 34.4727L15.2941 23.7305H24.1591Z" fill="white"/>
<path d="M38.0859 29.6387C35.605 29.6387 33.5938 27.6274 33.5938 25.1465V23.1934C33.5938 20.7124 35.605 18.7012 38.0859 18.7012C40.5669 18.7012 42.5781 20.7124 42.5781 23.1934V25.1465C42.5781 27.6274 40.5669 29.6387 38.0859 29.6387Z" fill="#8690A6"/>
<path d="M42.4572 29.6387H33.7145C30.0882 29.6387 27.1483 32.5784 27.1483 36.2049V45.1172H49.0233V36.2049C49.0234 32.5784 46.0837 29.6387 42.4572 29.6387Z" fill="#7A87FF"/>
<path d="M42.4573 28.6621H42.2706C43.0712 27.7107 43.5547 26.4843 43.5547 25.1465V23.1934C43.5547 20.6498 41.8092 18.5063 39.4531 17.8977V4.88281C39.4531 4.34346 39.0158 3.90625 38.4766 3.90625H0.976562C0.437305 3.90625 0 4.34346 0 4.88281V38.4766C0 39.0159 0.437305 39.4531 0.976562 39.4531H26.1719V45.1172C26.1719 45.6565 26.6092 46.0938 27.1484 46.0938H49.0234C49.5627 46.0938 50 45.6565 50 45.1172V36.2049C50 32.0458 46.6164 28.6621 42.4573 28.6621ZM41.6016 23.1934V25.1465C41.6016 27.0851 40.0245 28.6621 38.0859 28.6621C36.1474 28.6621 34.5703 27.0851 34.5703 25.1465V23.1934C34.5703 21.2548 36.1474 19.6777 38.0859 19.6777C40.0245 19.6777 41.6016 21.2548 41.6016 23.1934ZM1.95312 37.5V5.85938H37.5V17.7564C36.8014 17.8313 36.1421 18.0386 35.5469 18.3521V8.88672C35.5469 8.34736 35.1096 7.91016 34.5703 7.91016H24.1212C23.5819 7.91016 23.1446 8.34736 23.1446 8.88672C23.1446 9.42607 23.5819 9.86328 24.1212 9.86328H33.5938V20.0798C32.9789 20.9642 32.6172 22.037 32.6172 23.1934V25.1465C32.6172 26.4843 33.1008 27.7107 33.9013 28.6621H33.7146C32.953 28.6621 32.218 28.7766 31.5245 28.9874C30.9084 25.4836 27.8674 22.8062 24.2013 22.7565C24.1871 22.756 24.1732 22.7539 24.159 22.7539H24.0979H23.9111C24.7117 21.8025 25.1952 20.5761 25.1952 19.2383V17.2852C25.1952 14.2697 22.742 11.8164 19.7265 11.8164C16.7109 11.8164 14.2577 14.2697 14.2577 17.2852V19.2383C14.2577 20.5761 14.7413 21.8025 15.5418 22.7539H15.3551H15.2939C15.2797 22.7539 15.2658 22.756 15.2517 22.7565C11.1404 22.8123 7.8125 26.1723 7.8125 30.2967V33.4961H5.85938V9.86328H15.3324C15.8717 9.86328 16.309 9.42607 16.309 8.88672C16.309 8.34736 15.8717 7.91016 15.3324 7.91016H4.88281C4.34355 7.91016 3.90625 8.34736 3.90625 8.88672V34.4727C3.90625 35.012 4.34355 35.4492 4.88281 35.4492H26.2098C26.185 35.6979 26.1719 35.9498 26.1719 36.2049V37.5H1.95312ZM26.677 33.4961H21.1859L24.7939 24.752C27.4011 25.0775 29.4551 27.2045 29.6676 29.8447C28.3186 30.7062 27.261 31.9837 26.677 33.4961ZM14.6591 24.752L18.2672 33.4961H9.76562V30.2967C9.76562 27.4504 11.9045 25.0959 14.6591 24.752ZM16.2109 19.2383V17.2852C16.2109 15.3466 17.788 13.7695 19.7266 13.7695C21.6651 13.7695 23.2422 15.3466 23.2422 17.2852V19.2383C23.2422 21.1769 21.6651 22.7539 19.7266 22.7539C17.788 22.7539 16.2109 21.1769 16.2109 19.2383ZM22.6996 24.707L19.7266 31.9124L16.7535 24.707H22.6996ZM48.0469 44.1406H28.125V36.2049C28.125 33.1228 30.6325 30.6152 33.7146 30.6152H42.4572C45.5394 30.6152 48.0468 33.1228 48.0468 36.2049V44.1406H48.0469Z" fill="#5A73B4"/>
<path d="M19.7266 9.86328C19.9834 9.86328 20.2354 9.75879 20.4169 9.57715C20.5986 9.39551 20.7031 9.14355 20.7031 8.88672C20.7031 8.62988 20.5986 8.37793 20.4169 8.19629C20.2354 8.01465 19.9834 7.91016 19.7266 7.91016C19.4697 7.91016 19.2178 8.01465 19.0361 8.19629C18.8545 8.37793 18.75 8.62988 18.75 8.88672C18.75 9.14355 18.8544 9.39551 19.0361 9.57715C19.2179 9.75879 19.4697 9.86328 19.7266 9.86328Z" fill="#4661A7"/>
</svg>
