<?xml version="1.0" encoding="UTF-8"?> <svg xmlns="http://www.w3.org/2000/svg" id="Layer_1_1_" height="512" viewBox="0 0 64 64" width="512"> <path d="m60 40 1 21h-7s-3-22-3-24c0-.87-.19-3.06-.41-5.26-.92 4.91-2.05 10.64-2.59 12.26-1 3-1 17-1 17h-30s0-14-1-17c-.54-1.62-1.67-7.35-2.59-12.26-.22 2.2-.41 4.39-.41 5.26 0 2-3 24-3 24h-7l1-21s-3-22 0-27c2.57-4.29 18-4 20-5s2-5 2-5h12s0 4 2 5 17.43.71 20 5c3 5 0 27 0 27z" fill="#f4b19d"></path> <path d="m11.705 23.936h1.999v7.859h-1.999z" fill="#dd9d8e" transform="matrix(.984 -.179 .179 .984 -4.794 2.732)"></path> <path d="m47.365 26.866h7.859v1.999h-7.859z" fill="#dd9d8e" transform="matrix(.18 -.984 .984 .18 14.663 73.317)"></path> <path d="m25 22h15l-4 9h5l-10 16v-12h-5z" fill="#ea5b58"></path> <path d="m40 22h-2.282c-2.034 5.442-6.358 9.746-11.814 11.753l.096 1.247h5v12l10-16h-5z" fill="#e34e4b"></path> </svg> 